G04*
G04 #@! TF.GenerationSoftware,Altium Limited,Altium Designer,19.1.7 (138)*
G04*
G04 Layer_Color=16711935*
%FSLAX44Y44*%
%MOMM*%
G71*
G01*
G75*
%ADD10C,0.2540*%
%ADD11C,0.1000*%
%ADD88C,0.0762*%
D10*
X-310000Y-79000D02*
X132000D01*
X-310000Y-525000D02*
Y-79000D01*
X132000Y-525000D02*
Y-79000D01*
X-310000Y-525000D02*
X132000D01*
D11*
X-131064Y-316992D02*
X-108712D01*
X-131064D02*
Y-306832D01*
X-108712D01*
Y-316992D02*
Y-306832D01*
X-113888Y-313911D02*
Y-309912D01*
X-116554D01*
X-117887D02*
X-119220D01*
X-118553D01*
Y-313911D01*
X-117887Y-313244D01*
D88*
X90322Y-350948D02*
Y-340948D01*
X109322D01*
Y-350948D02*
Y-340948D01*
X90322Y-350948D02*
X109322D01*
X89306Y-296846D02*
Y-286846D01*
X108306D01*
Y-296846D02*
Y-286846D01*
X89306Y-296846D02*
X108306D01*
X49646Y-307020D02*
X64146D01*
Y-330520D02*
Y-307020D01*
X49646Y-330520D02*
Y-307020D01*
Y-330520D02*
X64146D01*
X-227482Y-333422D02*
Y-323422D01*
X-246482Y-333422D02*
X-227482D01*
X-246482D02*
Y-323422D01*
X-227482D01*
X-14666Y-390536D02*
Y-376036D01*
X-38166Y-390536D02*
X-14666D01*
X-38166Y-376036D02*
X-14666D01*
X-38166Y-390536D02*
Y-376036D01*
X-58014Y-294814D02*
Y-284814D01*
X-39014D01*
Y-294814D02*
Y-284814D01*
X-58014Y-294814D02*
X-39014D01*
X-146986Y-301092D02*
X-136986D01*
X-146986D02*
Y-282092D01*
X-136986D01*
Y-301092D02*
Y-282092D01*
X-149236Y-254188D02*
X-134736D01*
Y-277688D02*
Y-254188D01*
X-149236Y-277688D02*
Y-254188D01*
Y-277688D02*
X-134736D01*
X-147676Y-210994D02*
Y-200994D01*
X-128676D01*
Y-210994D02*
Y-200994D01*
X-147676Y-210994D02*
X-128676D01*
X-126426Y-230516D02*
Y-216016D01*
X-149926Y-230516D02*
X-126426D01*
X-149926Y-216016D02*
X-126426D01*
X-149926Y-230516D02*
Y-216016D01*
X-166522Y-166544D02*
Y-156544D01*
X-185522Y-166544D02*
X-166522D01*
X-185522D02*
Y-156544D01*
X-166522D01*
X-224216Y-208926D02*
Y-194426D01*
X-247716Y-208926D02*
X-224216D01*
X-247716Y-194426D02*
X-224216D01*
X-247716Y-208926D02*
Y-194426D01*
X-109866Y-82484D02*
X-95366D01*
Y-105984D02*
Y-82484D01*
X-109866Y-105984D02*
Y-82484D01*
Y-105984D02*
X-95366D01*
X-90054Y-82484D02*
X-75554D01*
Y-105984D02*
Y-82484D01*
X-90054Y-105984D02*
Y-82484D01*
Y-105984D02*
X-75554D01*
X-212410Y-353960D02*
Y-339460D01*
X-188910D01*
X-212410Y-353960D02*
X-188910D01*
Y-339460D01*
X-180224Y-328610D02*
X-165724D01*
Y-352110D02*
Y-328610D01*
X-180224Y-352110D02*
Y-328610D01*
Y-352110D02*
X-165724D01*
X-162190Y-328864D02*
X-147690D01*
Y-352364D02*
Y-328864D01*
X-162190Y-352364D02*
Y-328864D01*
Y-352364D02*
X-147690D01*
X-74066Y-293036D02*
Y-283036D01*
X-93066Y-293036D02*
X-74066D01*
X-93066D02*
Y-283036D01*
X-74066D01*
X-91070Y-299908D02*
X-76570D01*
Y-323408D02*
Y-299908D01*
X-91070Y-323408D02*
Y-299908D01*
Y-323408D02*
X-76570D01*
X-72528Y-300162D02*
X-58028D01*
Y-323662D02*
Y-300162D01*
X-72528Y-323662D02*
Y-300162D01*
Y-323662D02*
X-58028D01*
X-53986Y-300162D02*
X-39486D01*
Y-323662D02*
Y-300162D01*
X-53986Y-323662D02*
Y-300162D01*
Y-323662D02*
X-39486D01*
X-14158Y-354468D02*
Y-339968D01*
X-37658Y-354468D02*
X-14158D01*
X-37658Y-339968D02*
X-14158D01*
X-37658Y-354468D02*
Y-339968D01*
X-14666Y-372502D02*
Y-358002D01*
X-38166Y-372502D02*
X-14666D01*
X-38166Y-358002D02*
X-14666D01*
X-38166Y-372502D02*
Y-358002D01*
X113096Y-416190D02*
Y-401690D01*
X89596Y-416190D02*
X113096D01*
X89596Y-401690D02*
X113096D01*
X89596Y-416190D02*
Y-401690D01*
X22418Y-395362D02*
Y-380862D01*
X-1082Y-395362D02*
X22418D01*
X-1082Y-380862D02*
X22418D01*
X-1082Y-395362D02*
Y-380862D01*
X42992Y-414412D02*
Y-399912D01*
X19492Y-414412D02*
X42992D01*
X19492Y-399912D02*
X42992D01*
X19492Y-414412D02*
Y-399912D01*
X59284Y-384730D02*
Y-374730D01*
X40284Y-384730D02*
X59284D01*
X40284D02*
Y-374730D01*
X59284D01*
X37402Y-371362D02*
Y-356862D01*
X60902D01*
X37402Y-371362D02*
X60902D01*
Y-356862D01*
X114910Y-443150D02*
Y-433150D01*
X95910Y-443150D02*
X114910D01*
X95910D02*
Y-433150D01*
X114910D01*
X85496Y-429688D02*
Y-419688D01*
X104496D01*
Y-429688D02*
Y-419688D01*
X85496Y-429688D02*
X104496D01*
M02*
