G04*
G04 #@! TF.GenerationSoftware,Altium Limited,Altium Designer,19.1.7 (138)*
G04*
G04 Layer_Color=16711935*
%FSLAX44Y44*%
%MOMM*%
G71*
G01*
G75*
%ADD10C,0.2540*%
%ADD66C,3.2032*%
%ADD67C,1.5032*%
%ADD68C,1.9282*%
%ADD69R,1.9282X1.9282*%
%ADD70R,1.9282X1.9282*%
%ADD71C,0.8128*%
%ADD72C,1.4732*%
%ADD73C,0.7032*%
%ADD74C,4.0132*%
D10*
X-310000Y-79000D02*
X132000D01*
X-310000Y-525000D02*
Y-79000D01*
X132000Y-525000D02*
Y-79000D01*
X-310000Y-525000D02*
X132000D01*
D66*
X-169362Y-267208D02*
D03*
X-229362D02*
D03*
X-199362Y-314208D02*
D03*
D67*
X-271472Y-197974D02*
D03*
Y-172974D02*
D03*
Y-147974D02*
D03*
D68*
X-268478Y-420624D02*
D03*
X-293878D02*
D03*
X-268478Y-395224D02*
D03*
X-293878D02*
D03*
X-268478Y-369824D02*
D03*
X19304Y-333756D02*
D03*
X-293624Y-328676D02*
D03*
D69*
X-293878Y-369824D02*
D03*
X19304Y-359156D02*
D03*
D70*
X-268224Y-328676D02*
D03*
D71*
X-173001Y-150485D02*
D03*
X-188214Y-138176D02*
D03*
X-199136D02*
D03*
X-253492Y-88138D02*
D03*
X64008Y-388874D02*
D03*
X73914Y-498094D02*
D03*
X-6604Y-362458D02*
D03*
X-8382Y-346456D02*
D03*
X1270Y-370840D02*
D03*
X-87541Y-329527D02*
D03*
X-251460Y-369824D02*
D03*
X-121666Y-331724D02*
D03*
X-70866Y-331470D02*
D03*
X62992Y-338074D02*
D03*
X-48768Y-273050D02*
D03*
X79502Y-395478D02*
D03*
X100330Y-464058D02*
D03*
X-52832Y-413512D02*
D03*
X103124Y-451866D02*
D03*
X-39624Y-414782D02*
D03*
X-132588Y-322326D02*
D03*
X-97282Y-325120D02*
D03*
X-46228Y-367538D02*
D03*
X-46990Y-377444D02*
D03*
X-45212Y-340360D02*
D03*
X-259080Y-409194D02*
D03*
X-252730Y-395478D02*
D03*
X-55626Y-333502D02*
D03*
X-171704Y-116840D02*
D03*
X-254762Y-127254D02*
D03*
X-212344Y-105410D02*
D03*
D72*
X16510Y-239776D02*
D03*
X21336Y-282702D02*
D03*
X-21844Y-242316D02*
D03*
D73*
X72390Y-420116D02*
D03*
X-176530Y-439674D02*
D03*
X-184912Y-358394D02*
D03*
X-197358Y-369062D02*
D03*
X-207518Y-418592D02*
D03*
X-228111Y-411018D02*
D03*
X-249568Y-419066D02*
D03*
X-299974Y-439928D02*
D03*
X-256286Y-439674D02*
D03*
X-198628D02*
D03*
X-8636D02*
D03*
X22606Y-439166D02*
D03*
D74*
X-228890Y-159106D02*
D03*
X50864Y-439070D02*
D03*
X-228894D02*
D03*
M02*
