G04*
G04 #@! TF.GenerationSoftware,Altium Limited,Altium Designer,19.1.7 (138)*
G04*
G04 Layer_Color=8388736*
%FSLAX44Y44*%
%MOMM*%
G71*
G01*
G75*
%ADD10C,0.2540*%
%ADD41R,3.4032X3.9532*%
%ADD42R,1.6532X1.1032*%
%ADD43R,1.4032X0.8032*%
%ADD44R,0.8032X1.4032*%
%ADD45R,1.4532X0.8032*%
%ADD46R,1.3032X1.9032*%
%ADD47R,0.8032X0.5532*%
%ADD48R,1.8032X2.7032*%
%ADD49R,1.1032X0.6532*%
%ADD50R,0.9532X1.4532*%
G04:AMPARAMS|DCode=51|XSize=0.6632mm|YSize=0.6632mm|CornerRadius=0.2166mm|HoleSize=0mm|Usage=FLASHONLY|Rotation=180.000|XOffset=0mm|YOffset=0mm|HoleType=Round|Shape=RoundedRectangle|*
%AMROUNDEDRECTD51*
21,1,0.6632,0.2300,0,0,180.0*
21,1,0.2300,0.6632,0,0,180.0*
1,1,0.4332,-0.1150,0.1150*
1,1,0.4332,0.1150,0.1150*
1,1,0.4332,0.1150,-0.1150*
1,1,0.4332,-0.1150,-0.1150*
%
%ADD51ROUNDEDRECTD51*%
%ADD52R,5.4532X5.4532*%
%ADD53R,1.0532X0.5032*%
%ADD54R,0.5032X1.0532*%
%ADD55R,1.2532X0.8532*%
%ADD56R,0.8128X1.1176*%
%ADD57R,1.6032X1.1532*%
G04:AMPARAMS|DCode=58|XSize=2.0032mm|YSize=1.2032mm|CornerRadius=0mm|HoleSize=0mm|Usage=FLASHONLY|Rotation=45.000|XOffset=0mm|YOffset=0mm|HoleType=Round|Shape=Rectangle|*
%AMROTATEDRECTD58*
4,1,4,-0.2828,-1.1336,-1.1336,-0.2828,0.2828,1.1336,1.1336,0.2828,-0.2828,-1.1336,0.0*
%
%ADD58ROTATEDRECTD58*%

G04:AMPARAMS|DCode=59|XSize=1.4032mm|YSize=1.2032mm|CornerRadius=0mm|HoleSize=0mm|Usage=FLASHONLY|Rotation=45.000|XOffset=0mm|YOffset=0mm|HoleType=Round|Shape=Rectangle|*
%AMROTATEDRECTD59*
4,1,4,-0.0707,-0.9215,-0.9215,-0.0707,0.0707,0.9215,0.9215,0.0707,-0.0707,-0.9215,0.0*
%
%ADD59ROTATEDRECTD59*%

%ADD60R,2.0032X2.8032*%
%ADD61R,1.2032X1.2032*%
%ADD62R,0.8032X1.1032*%
%ADD63R,0.7032X0.8032*%
%ADD64R,1.1032X0.8032*%
%ADD65R,0.8032X0.7032*%
%ADD66C,3.2032*%
%ADD67C,1.5032*%
%ADD68C,1.9282*%
%ADD69R,1.9282X1.9282*%
%ADD70R,1.9282X1.9282*%
%ADD71C,0.8128*%
%ADD72C,1.4732*%
%ADD73C,0.7032*%
%ADD74C,4.0132*%
G36*
X-77279Y-443507D02*
X-77151Y-443532D01*
X-77027Y-443574D01*
X-76909Y-443632D01*
X-76800Y-443705D01*
X-76701Y-443791D01*
X-76615Y-443890D01*
X-76542Y-443999D01*
X-76484Y-444117D01*
X-76442Y-444241D01*
X-76417Y-444369D01*
X-76408Y-444500D01*
Y-450898D01*
X-15610D01*
X-15479Y-450906D01*
X-15351Y-450932D01*
X-15227Y-450974D01*
X-15109Y-451032D01*
X-15000Y-451105D01*
X-14901Y-451191D01*
X-14815Y-451290D01*
X-14742Y-451399D01*
X-14684Y-451516D01*
X-14642Y-451641D01*
X-14617Y-451769D01*
X-14608Y-451900D01*
Y-516500D01*
X-14617Y-516631D01*
X-14642Y-516759D01*
X-14684Y-516884D01*
X-14742Y-517001D01*
X-14815Y-517110D01*
X-14901Y-517209D01*
X-15000Y-517295D01*
X-15109Y-517368D01*
X-15227Y-517426D01*
X-15351Y-517468D01*
X-15479Y-517494D01*
X-15610Y-517502D01*
X-274410D01*
X-274541Y-517494D01*
X-274669Y-517468D01*
X-274793Y-517426D01*
X-274911Y-517368D01*
X-275020Y-517295D01*
X-275119Y-517209D01*
X-275205Y-517110D01*
X-275278Y-517001D01*
X-275336Y-516884D01*
X-275378Y-516759D01*
X-275403Y-516631D01*
X-275412Y-516500D01*
Y-504400D01*
X-275403Y-504269D01*
X-275378Y-504141D01*
X-275336Y-504016D01*
X-275278Y-503899D01*
X-275205Y-503790D01*
X-275119Y-503691D01*
X-275020Y-503605D01*
X-274911Y-503532D01*
X-274793Y-503474D01*
X-274669Y-503432D01*
X-274541Y-503406D01*
X-274410Y-503398D01*
X-111412D01*
Y-487402D01*
X-115910D01*
X-116041Y-487393D01*
X-116169Y-487368D01*
X-116293Y-487326D01*
X-116411Y-487268D01*
X-116520Y-487195D01*
X-116619Y-487109D01*
X-116705Y-487010D01*
X-116778Y-486901D01*
X-116836Y-486783D01*
X-116878Y-486659D01*
X-116904Y-486531D01*
X-116912Y-486400D01*
Y-478403D01*
X-123892Y-465476D01*
X-123913Y-465430D01*
X-123936Y-465383D01*
X-123940Y-465370D01*
X-123946Y-465357D01*
X-123961Y-465308D01*
X-123978Y-465259D01*
X-123981Y-465245D01*
X-123985Y-465232D01*
X-123994Y-465181D01*
X-124003Y-465131D01*
X-124004Y-465117D01*
X-124007Y-465102D01*
X-124009Y-465051D01*
X-124012Y-465000D01*
Y-444500D01*
X-124003Y-444369D01*
X-123978Y-444241D01*
X-123936Y-444117D01*
X-123878Y-443999D01*
X-123805Y-443890D01*
X-123719Y-443791D01*
X-123620Y-443705D01*
X-123511Y-443632D01*
X-123393Y-443574D01*
X-123269Y-443532D01*
X-123141Y-443507D01*
X-123010Y-443498D01*
X-118410D01*
X-118279Y-443507D01*
X-118151Y-443532D01*
X-118027Y-443574D01*
X-117909Y-443632D01*
X-117800Y-443705D01*
X-117701Y-443791D01*
X-117615Y-443890D01*
X-117542Y-443999D01*
X-117484Y-444117D01*
X-117442Y-444241D01*
X-117416Y-444369D01*
X-117408Y-444500D01*
Y-464617D01*
X-115218Y-470398D01*
X-80910D01*
X-80779Y-470406D01*
X-80651Y-470432D01*
X-80527Y-470474D01*
X-80409Y-470532D01*
X-80300Y-470605D01*
X-80201Y-470691D01*
X-80115Y-470790D01*
X-80042Y-470899D01*
X-79984Y-471017D01*
X-79942Y-471141D01*
X-79917Y-471269D01*
X-79908Y-471400D01*
Y-486400D01*
X-79917Y-486531D01*
X-79942Y-486659D01*
X-79984Y-486783D01*
X-80042Y-486901D01*
X-80115Y-487010D01*
X-80201Y-487109D01*
X-80300Y-487195D01*
X-80409Y-487268D01*
X-80527Y-487326D01*
X-80651Y-487368D01*
X-80779Y-487393D01*
X-80910Y-487402D01*
X-89908D01*
Y-493398D01*
X-33912D01*
Y-465802D01*
X-105410D01*
X-105541Y-465794D01*
X-105669Y-465768D01*
X-105794Y-465726D01*
X-105911Y-465668D01*
X-106020Y-465595D01*
X-106119Y-465509D01*
X-106205Y-465410D01*
X-106278Y-465301D01*
X-106336Y-465183D01*
X-106378Y-465059D01*
X-106404Y-464931D01*
X-106412Y-464800D01*
Y-444500D01*
X-106404Y-444369D01*
X-106378Y-444241D01*
X-106336Y-444117D01*
X-106278Y-443999D01*
X-106205Y-443890D01*
X-106119Y-443791D01*
X-106020Y-443705D01*
X-105911Y-443632D01*
X-105794Y-443574D01*
X-105669Y-443532D01*
X-105541Y-443507D01*
X-105410Y-443498D01*
X-96410D01*
X-96279Y-443507D01*
X-96151Y-443532D01*
X-96026Y-443574D01*
X-95909Y-443632D01*
X-95800Y-443705D01*
X-95701Y-443791D01*
X-95615Y-443890D01*
X-95542Y-443999D01*
X-95484Y-444117D01*
X-95442Y-444241D01*
X-95416Y-444369D01*
X-95408Y-444500D01*
Y-450898D01*
X-87412D01*
Y-444500D01*
X-87404Y-444369D01*
X-87378Y-444241D01*
X-87336Y-444117D01*
X-87278Y-443999D01*
X-87205Y-443890D01*
X-87119Y-443791D01*
X-87020Y-443705D01*
X-86911Y-443632D01*
X-86793Y-443574D01*
X-86669Y-443532D01*
X-86541Y-443507D01*
X-86410Y-443498D01*
X-77410D01*
X-77279Y-443507D01*
D02*
G37*
D10*
X-310000Y-79000D02*
X132000D01*
X-310000Y-525000D02*
Y-79000D01*
X132000Y-525000D02*
Y-79000D01*
X-310000Y-525000D02*
X132000D01*
D41*
X109222Y-188214D02*
D03*
X-103378D02*
D03*
D42*
X-235458Y-96910D02*
D03*
Y-113910D02*
D03*
D43*
X-289868Y-96418D02*
D03*
Y-105918D02*
D03*
Y-115418D02*
D03*
X-264868D02*
D03*
Y-105918D02*
D03*
Y-96418D02*
D03*
D44*
X-124054Y-287074D02*
D03*
X-114554D02*
D03*
X-105054D02*
D03*
Y-262074D02*
D03*
X-124054D02*
D03*
D45*
X-168112Y-203115D02*
D03*
Y-193615D02*
D03*
Y-184115D02*
D03*
X-193111D02*
D03*
Y-193615D02*
D03*
Y-203115D02*
D03*
D46*
X-191262Y-103378D02*
D03*
D47*
X-180762Y-96878D02*
D03*
Y-103378D02*
D03*
Y-109878D02*
D03*
X-201762D02*
D03*
Y-103378D02*
D03*
Y-96878D02*
D03*
D48*
X102108Y-498094D02*
D03*
D49*
X116608Y-488094D02*
D03*
Y-498094D02*
D03*
Y-508094D02*
D03*
X87608D02*
D03*
Y-498094D02*
D03*
Y-488094D02*
D03*
D50*
X-140208Y-189474D02*
D03*
Y-156474D02*
D03*
D51*
X-120660Y-447250D02*
D03*
D52*
X-92202Y-377444D02*
D03*
D53*
X-126702Y-404944D02*
D03*
Y-399944D02*
D03*
Y-394944D02*
D03*
Y-389944D02*
D03*
Y-384944D02*
D03*
Y-379944D02*
D03*
Y-374944D02*
D03*
Y-369944D02*
D03*
Y-364944D02*
D03*
Y-359944D02*
D03*
Y-354944D02*
D03*
Y-349944D02*
D03*
X-57702D02*
D03*
Y-354944D02*
D03*
Y-359944D02*
D03*
Y-364944D02*
D03*
Y-369944D02*
D03*
Y-374944D02*
D03*
Y-379944D02*
D03*
Y-384944D02*
D03*
Y-389944D02*
D03*
Y-394944D02*
D03*
Y-399944D02*
D03*
Y-404944D02*
D03*
D54*
X-119702Y-342944D02*
D03*
X-114702D02*
D03*
X-109702D02*
D03*
X-104702D02*
D03*
X-99702D02*
D03*
X-94702D02*
D03*
X-89702D02*
D03*
X-84702D02*
D03*
X-79702D02*
D03*
X-74702D02*
D03*
X-69702D02*
D03*
X-64702D02*
D03*
Y-411944D02*
D03*
X-69702D02*
D03*
X-74702D02*
D03*
X-79702D02*
D03*
X-84702D02*
D03*
X-89702D02*
D03*
X-94702D02*
D03*
X-99702D02*
D03*
X-104702D02*
D03*
X-109702D02*
D03*
X-114702D02*
D03*
X-119702D02*
D03*
D55*
X119810Y-383368D02*
D03*
X78310D02*
D03*
X119810Y-361868D02*
D03*
X78310D02*
D03*
X76786Y-307258D02*
D03*
X118286D02*
D03*
X76786Y-328758D02*
D03*
X118286D02*
D03*
D56*
X-127508Y-311912D02*
D03*
X-112268D02*
D03*
D57*
X-232156Y-364084D02*
D03*
Y-345084D02*
D03*
D58*
X4521Y-418795D02*
D03*
X-13157Y-401117D02*
D03*
D59*
X-187645Y-383430D02*
D03*
X-175624Y-371409D02*
D03*
X-178452Y-392623D02*
D03*
X-166431Y-380602D02*
D03*
D60*
X-140208Y-96300D02*
D03*
Y-132300D02*
D03*
D61*
X-13328Y-323596D02*
D03*
X-28328D02*
D03*
D62*
X93846Y-408940D02*
D03*
X108846D02*
D03*
X3168Y-388112D02*
D03*
X18168D02*
D03*
X23742Y-407162D02*
D03*
X38742D02*
D03*
X56652Y-364112D02*
D03*
X41652D02*
D03*
X-33408Y-347218D02*
D03*
X-18408D02*
D03*
X-33916Y-383286D02*
D03*
X-18916D02*
D03*
X-243466Y-201676D02*
D03*
X-228466D02*
D03*
X-193160Y-346710D02*
D03*
X-208160D02*
D03*
X-33916Y-365252D02*
D03*
X-18916D02*
D03*
X-145676Y-225552D02*
D03*
X-130676D02*
D03*
D63*
X-144446Y-206756D02*
D03*
X-134446D02*
D03*
X99996Y-424688D02*
D03*
X89996D02*
D03*
X100410Y-438150D02*
D03*
X110410D02*
D03*
X-241982Y-328422D02*
D03*
X-231982D02*
D03*
X44784Y-379730D02*
D03*
X54784D02*
D03*
X104822Y-345948D02*
D03*
X94822D02*
D03*
X-43514Y-289814D02*
D03*
X-53514D02*
D03*
X103806Y-291846D02*
D03*
X93806D02*
D03*
X-88566Y-288036D02*
D03*
X-78566D02*
D03*
X-184658Y-163830D02*
D03*
X-174658D02*
D03*
D64*
X-83820Y-319158D02*
D03*
Y-304158D02*
D03*
X-65278Y-319412D02*
D03*
Y-304412D02*
D03*
X-141986Y-273438D02*
D03*
Y-258438D02*
D03*
X-172974Y-347860D02*
D03*
Y-332860D02*
D03*
X-154940Y-348114D02*
D03*
Y-333114D02*
D03*
X-46736Y-319412D02*
D03*
Y-304412D02*
D03*
X56896Y-326270D02*
D03*
Y-311270D02*
D03*
X-82804Y-101734D02*
D03*
Y-86734D02*
D03*
X-102616Y-101734D02*
D03*
Y-86734D02*
D03*
D65*
X-141986Y-286592D02*
D03*
Y-296592D02*
D03*
X-160020Y-157306D02*
D03*
Y-167306D02*
D03*
D66*
X-169362Y-267208D02*
D03*
X-229362D02*
D03*
X-199362Y-314208D02*
D03*
D67*
X-271472Y-197974D02*
D03*
Y-172974D02*
D03*
Y-147974D02*
D03*
D68*
X-268478Y-420624D02*
D03*
X-293878D02*
D03*
X-268478Y-395224D02*
D03*
X-293878D02*
D03*
X-268478Y-369824D02*
D03*
X19304Y-333756D02*
D03*
X-293624Y-328676D02*
D03*
D69*
X-293878Y-369824D02*
D03*
X19304Y-359156D02*
D03*
D70*
X-268224Y-328676D02*
D03*
D71*
X-173001Y-150485D02*
D03*
X-188214Y-138176D02*
D03*
X-199136D02*
D03*
X-253492Y-88138D02*
D03*
X64008Y-388874D02*
D03*
X73914Y-498094D02*
D03*
X-6604Y-362458D02*
D03*
X-8382Y-346456D02*
D03*
X1270Y-370840D02*
D03*
X-87541Y-329527D02*
D03*
X-251460Y-369824D02*
D03*
X-121666Y-331724D02*
D03*
X-70866Y-331470D02*
D03*
X62992Y-338074D02*
D03*
X-48768Y-273050D02*
D03*
X79502Y-395478D02*
D03*
X100330Y-464058D02*
D03*
X-52832Y-413512D02*
D03*
X103124Y-451866D02*
D03*
X-39624Y-414782D02*
D03*
X-132588Y-322326D02*
D03*
X-97282Y-325120D02*
D03*
X-46228Y-367538D02*
D03*
X-46990Y-377444D02*
D03*
X-45212Y-340360D02*
D03*
X-259080Y-409194D02*
D03*
X-252730Y-395478D02*
D03*
X-55626Y-333502D02*
D03*
X-171704Y-116840D02*
D03*
X-254762Y-127254D02*
D03*
X-212344Y-105410D02*
D03*
D72*
X16510Y-239776D02*
D03*
X21336Y-282702D02*
D03*
X-21844Y-242316D02*
D03*
D73*
X72390Y-420116D02*
D03*
X-176530Y-439674D02*
D03*
X-184912Y-358394D02*
D03*
X-197358Y-369062D02*
D03*
X-207518Y-418592D02*
D03*
X-228111Y-411018D02*
D03*
X-249568Y-419066D02*
D03*
X-299974Y-439928D02*
D03*
X-256286Y-439674D02*
D03*
X-198628D02*
D03*
X-8636D02*
D03*
X22606Y-439166D02*
D03*
D74*
X-228890Y-159106D02*
D03*
X50864Y-439070D02*
D03*
X-228894D02*
D03*
M02*
