M48
;Layer_Color=9474304
;FILE_FORMAT=2:5
INCH,LZ
;TYPE=PLATED
T1F00S00C0.01200
T2F00S00C0.01575
T3F00S00C0.02800
T4F00S00C0.03150
T5F00S00C0.04528
T6F00S00C0.07480
T7F00S00C0.15000
%
T01
X00291Y-01961
X00395Y-01827
X00406Y-01779
X00313Y-01557
X00252Y-01531
X00248Y-01331
X-00033Y-01364
X-00026Y-01427
X00005Y-0146
X-00182Y-01447
X-00185Y-01486
X-00178Y-0134
X-00219Y-01313
X-00279Y-01305
X-0034465Y-0129735
X-00383Y-0128
X-00479Y-01306
X-00522Y-01269
X-00192Y-01075
X-00208Y-01628
X-00156Y-01633
X-0068111Y-0059246
X-00741Y-00544
X-00784
X-00836Y-00415
X-00676Y-0046
X-01003Y-00501
X-00998Y-00347
X-0099Y-01456
X-00995Y-01557
X-0102Y-01611
T02
X-01181Y-01732
X-01009Y-01731
X-00782
X-00695
X-00034
X00089Y-01729
X00285Y-01654
X-00817Y-01648
X-0089808Y-0161818
X-00777Y-01453
X-00728Y-01411
X-0098255Y-0164987
T03
X-00086Y-00954
X00065Y-00944
X00084Y-01113
T04
X-0106879Y-0077943
Y-00681
Y-0058258
T05
X00076Y-01414
Y-01314
X-01056Y-01294
X-01156
X-01157Y-01456
Y-01556
Y-01656
X-01057
Y-01556
Y-01456
T06
X-0078489Y-0123704
X-0066678Y-01052
X-00903
T07
X-0090116Y-0172862
X0020025
X-0090114Y-006264
M30
