G04*
G04 #@! TF.GenerationSoftware,Altium Limited,Altium Designer,19.1.7 (138)*
G04*
G04 Layer_Color=65535*
%FSLAX25Y25*%
%MOIN*%
G70*
G01*
G75*
%ADD10C,0.00787*%
%ADD11C,0.00984*%
%ADD12C,0.00394*%
%ADD13C,0.01000*%
%ADD14R,0.03600X0.02800*%
%ADD15R,0.02800X0.03600*%
G36*
X86243Y-49666D02*
X90180D01*
Y-50650D01*
X88605D01*
Y-56950D01*
X90377D01*
Y-57934D01*
X86243D01*
X86243Y-59509D01*
X79157D01*
X79157Y-57934D01*
X75023D01*
Y-56950D01*
X76794D01*
Y-50650D01*
X75023D01*
Y-49666D01*
X79157D01*
Y-48091D01*
X86243D01*
Y-49666D01*
D02*
G37*
G36*
X85343Y-79166D02*
X89280D01*
Y-80150D01*
X87705D01*
Y-86450D01*
X89477D01*
Y-87434D01*
X85343D01*
X85343Y-89009D01*
X78257D01*
X78257Y-87434D01*
X74123D01*
Y-86450D01*
X75894D01*
Y-80150D01*
X74123D01*
Y-79166D01*
X78257D01*
Y-77591D01*
X85343D01*
Y-79166D01*
D02*
G37*
G36*
X84843Y-112666D02*
X88780D01*
Y-113650D01*
X87205D01*
Y-119950D01*
X88977D01*
Y-120934D01*
X84843D01*
X84843Y-122509D01*
X77757D01*
X77757Y-120934D01*
X73623D01*
Y-119950D01*
X75394D01*
Y-113650D01*
X73623D01*
Y-112666D01*
X77757D01*
Y-111091D01*
X84843D01*
Y-112666D01*
D02*
G37*
G36*
X63259Y-125818D02*
Y-125896D01*
X63181D01*
Y-125818D01*
Y-125740D01*
X63259D01*
Y-125818D01*
D02*
G37*
G36*
X56377Y-126756D02*
Y-126834D01*
X56299D01*
Y-126756D01*
Y-126678D01*
X56377D01*
Y-126756D01*
D02*
G37*
G36*
X68655Y-126913D02*
Y-126991D01*
X68577D01*
Y-126913D01*
Y-126834D01*
X68655D01*
Y-126913D01*
D02*
G37*
G36*
X56221D02*
Y-126991D01*
X56143D01*
Y-126913D01*
Y-126834D01*
X56221D01*
Y-126913D01*
D02*
G37*
G36*
X57863Y-126834D02*
Y-126913D01*
Y-126991D01*
X57707D01*
Y-127069D01*
Y-127147D01*
X57629D01*
Y-127225D01*
X57394D01*
Y-127147D01*
Y-127069D01*
X57550D01*
Y-126991D01*
X57629D01*
Y-126913D01*
Y-126834D01*
X57785D01*
Y-126756D01*
X57863D01*
Y-126834D01*
D02*
G37*
G36*
X69594Y-127304D02*
Y-127382D01*
X68733D01*
Y-127304D01*
X68812D01*
Y-127225D01*
X69594D01*
Y-127304D01*
D02*
G37*
G36*
X57316D02*
Y-127382D01*
X57003D01*
Y-127304D01*
X57081D01*
Y-127225D01*
X57316D01*
Y-127304D01*
D02*
G37*
G36*
X61617Y-127929D02*
Y-128007D01*
Y-128086D01*
X61460D01*
Y-128164D01*
X61226D01*
Y-128242D01*
X61148D01*
Y-128320D01*
X60757D01*
Y-128242D01*
Y-128164D01*
X61148D01*
Y-128086D01*
Y-128007D01*
X61382D01*
Y-127929D01*
X61539D01*
Y-127851D01*
X61617D01*
Y-127929D01*
D02*
G37*
G36*
X66074Y-127851D02*
X65996D01*
Y-127929D01*
Y-128007D01*
Y-128086D01*
Y-128164D01*
X65840D01*
Y-128242D01*
Y-128320D01*
X65136D01*
Y-128399D01*
Y-128477D01*
X64667D01*
Y-128399D01*
Y-128320D01*
X64901D01*
Y-128242D01*
Y-128164D01*
X65371D01*
Y-128086D01*
X65449D01*
Y-128007D01*
X65762D01*
Y-127929D01*
X65840D01*
Y-127851D01*
Y-127773D01*
X66074D01*
Y-127851D01*
D02*
G37*
G36*
X59740Y-128399D02*
Y-128477D01*
X59662D01*
Y-128399D01*
Y-128320D01*
X59740D01*
Y-128399D01*
D02*
G37*
G36*
X59114D02*
X59193D01*
Y-128477D01*
X58958D01*
Y-128399D01*
Y-128320D01*
X59114D01*
Y-128399D01*
D02*
G37*
G36*
X62086Y-128789D02*
X62164D01*
Y-128868D01*
X61930D01*
Y-128789D01*
Y-128711D01*
X62086D01*
Y-128789D01*
D02*
G37*
G36*
X72722Y-129181D02*
X72800D01*
Y-129259D01*
X72643D01*
Y-129181D01*
Y-129102D01*
X72722D01*
Y-129181D01*
D02*
G37*
G36*
X59349D02*
Y-129259D01*
X59271D01*
Y-129181D01*
Y-129102D01*
X59349D01*
Y-129181D01*
D02*
G37*
G36*
X61930D02*
Y-129259D01*
X61773D01*
Y-129337D01*
Y-129415D01*
X61382D01*
Y-129337D01*
Y-129259D01*
X61695D01*
Y-129181D01*
Y-129102D01*
X61930D01*
Y-129181D01*
D02*
G37*
G36*
X59896Y-129572D02*
Y-129650D01*
X59818D01*
Y-129572D01*
Y-129493D01*
X59896D01*
Y-129572D01*
D02*
G37*
G36*
X67013Y-129728D02*
Y-129806D01*
X66856D01*
Y-129728D01*
X66935D01*
Y-129650D01*
X67013D01*
Y-129728D01*
D02*
G37*
G36*
X64197D02*
Y-129806D01*
X64041D01*
Y-129728D01*
X64119D01*
Y-129650D01*
X64197D01*
Y-129728D01*
D02*
G37*
G36*
X58958Y-129259D02*
X59114D01*
Y-129337D01*
Y-129415D01*
Y-129493D01*
Y-129572D01*
Y-129650D01*
X58802D01*
Y-129728D01*
Y-129806D01*
X58567D01*
Y-129728D01*
Y-129650D01*
Y-129572D01*
Y-129493D01*
Y-129415D01*
Y-129337D01*
Y-129259D01*
X58880D01*
Y-129181D01*
X58958D01*
Y-129259D01*
D02*
G37*
G36*
X59740Y-129728D02*
Y-129806D01*
X59584D01*
Y-129884D01*
X59505D01*
Y-129963D01*
X59349D01*
Y-129884D01*
Y-129806D01*
Y-129728D01*
X59271D01*
Y-129650D01*
X59740D01*
Y-129728D01*
D02*
G37*
G36*
X56377Y-129572D02*
X56299D01*
Y-129650D01*
Y-129728D01*
Y-129806D01*
X56377D01*
Y-129884D01*
Y-129963D01*
X56143D01*
Y-129884D01*
Y-129806D01*
X55986D01*
Y-129728D01*
Y-129650D01*
X56143D01*
Y-129572D01*
Y-129493D01*
X56377D01*
Y-129572D01*
D02*
G37*
G36*
X66074Y-129806D02*
X66778D01*
Y-129884D01*
Y-129963D01*
X66309D01*
Y-130041D01*
X66231D01*
Y-130119D01*
X66153D01*
Y-130041D01*
X66074D01*
Y-129963D01*
X65996D01*
Y-129884D01*
Y-129806D01*
Y-129728D01*
X66074D01*
Y-129806D01*
D02*
G37*
G36*
X68108Y-130275D02*
Y-130354D01*
X67795D01*
Y-130275D01*
X67873D01*
Y-130197D01*
X68108D01*
Y-130275D01*
D02*
G37*
G36*
X63259D02*
Y-130354D01*
X62946D01*
Y-130275D01*
X63024D01*
Y-130197D01*
X63259D01*
Y-130275D01*
D02*
G37*
G36*
X62321D02*
Y-130354D01*
X62008D01*
Y-130275D01*
X62086D01*
Y-130197D01*
X62321D01*
Y-130275D01*
D02*
G37*
G36*
X52623Y-129884D02*
Y-129963D01*
Y-130041D01*
Y-130119D01*
Y-130197D01*
X52467D01*
Y-130275D01*
Y-130354D01*
X52232D01*
Y-130275D01*
Y-130197D01*
Y-130119D01*
Y-130041D01*
X52389D01*
Y-129963D01*
Y-129884D01*
X52467D01*
Y-129806D01*
X52623D01*
Y-129884D01*
D02*
G37*
G36*
X63963Y-130666D02*
X64041D01*
Y-130745D01*
X63728D01*
Y-130666D01*
Y-130588D01*
X63963D01*
Y-130666D01*
D02*
G37*
G36*
X64197Y-130823D02*
Y-130901D01*
X64119D01*
Y-130823D01*
Y-130745D01*
X64197D01*
Y-130823D01*
D02*
G37*
G36*
X63650D02*
Y-130901D01*
X63572D01*
Y-130823D01*
Y-130745D01*
X63650D01*
Y-130823D01*
D02*
G37*
G36*
X76084Y-131057D02*
Y-131136D01*
X75850D01*
Y-131057D01*
Y-130979D01*
X76084D01*
Y-131057D01*
D02*
G37*
G36*
X70532D02*
Y-131136D01*
X70454D01*
Y-131057D01*
Y-130979D01*
X70532D01*
Y-131057D01*
D02*
G37*
G36*
X69985D02*
X69906D01*
Y-131136D01*
X69672D01*
Y-131057D01*
Y-130979D01*
X69985D01*
Y-131057D01*
D02*
G37*
G36*
X72174Y-131214D02*
Y-131292D01*
X72096D01*
Y-131214D01*
Y-131136D01*
X72174D01*
Y-131214D01*
D02*
G37*
G36*
X71470D02*
X71392D01*
Y-131292D01*
Y-131370D01*
X71470D01*
Y-131448D01*
X71001D01*
Y-131370D01*
Y-131292D01*
X70845D01*
Y-131214D01*
X70767D01*
Y-131136D01*
X71470D01*
Y-131214D01*
D02*
G37*
G36*
X67873Y-131370D02*
X67951D01*
Y-131448D01*
X67638D01*
Y-131370D01*
X67717D01*
Y-131292D01*
X67873D01*
Y-131370D01*
D02*
G37*
G36*
X72018Y-131605D02*
Y-131683D01*
X71783D01*
Y-131605D01*
X71705D01*
Y-131527D01*
X72018D01*
Y-131605D01*
D02*
G37*
G36*
X67013D02*
Y-131683D01*
X66935D01*
Y-131605D01*
X66856D01*
Y-131527D01*
X67013D01*
Y-131605D01*
D02*
G37*
G36*
X70532Y-131761D02*
Y-131839D01*
X70219D01*
Y-131761D01*
Y-131683D01*
X70532D01*
Y-131761D01*
D02*
G37*
G36*
X63103Y-131136D02*
X63259D01*
Y-131214D01*
Y-131292D01*
Y-131370D01*
Y-131448D01*
X62946D01*
Y-131527D01*
X62868D01*
Y-131605D01*
Y-131683D01*
X62321D01*
Y-131761D01*
Y-131839D01*
X62164D01*
Y-131918D01*
Y-131996D01*
X61851D01*
Y-132074D01*
X61695D01*
Y-132152D01*
Y-132230D01*
Y-132309D01*
Y-132387D01*
Y-132465D01*
X62946D01*
Y-132387D01*
X63024D01*
Y-132309D01*
Y-132230D01*
X63415D01*
Y-132152D01*
Y-132074D01*
X64119D01*
Y-131996D01*
Y-131918D01*
X64276D01*
Y-131839D01*
Y-131761D01*
X64354D01*
Y-131683D01*
X65683D01*
Y-131761D01*
Y-131839D01*
X65605D01*
Y-131918D01*
Y-131996D01*
Y-132074D01*
X65840D01*
Y-132152D01*
Y-132230D01*
X65683D01*
Y-132309D01*
Y-132387D01*
X65449D01*
Y-132465D01*
Y-132543D01*
Y-132622D01*
Y-132700D01*
Y-132778D01*
Y-132856D01*
X67560D01*
Y-132778D01*
X67638D01*
Y-132700D01*
X67717D01*
Y-132622D01*
X68420D01*
Y-132700D01*
X68499D01*
Y-132778D01*
X68577D01*
Y-132856D01*
X68655D01*
Y-132934D01*
Y-133012D01*
X68968D01*
Y-132934D01*
Y-132856D01*
X69203D01*
Y-132934D01*
Y-133012D01*
X69124D01*
Y-133091D01*
Y-133169D01*
X71001D01*
Y-133091D01*
Y-133012D01*
X71783D01*
Y-133091D01*
Y-133169D01*
X72331D01*
Y-133247D01*
Y-133325D01*
X72487D01*
Y-133404D01*
X72565D01*
Y-133482D01*
Y-133560D01*
X72331D01*
Y-133482D01*
X71392D01*
Y-133404D01*
Y-133325D01*
X70141D01*
Y-133404D01*
X70063D01*
Y-133482D01*
Y-133560D01*
Y-133638D01*
Y-133716D01*
Y-133794D01*
Y-133873D01*
X70141D01*
Y-133951D01*
X70688D01*
Y-134029D01*
Y-134107D01*
X70141D01*
Y-134029D01*
X70063D01*
Y-133951D01*
Y-133873D01*
X68577D01*
Y-133794D01*
Y-133716D01*
X64588D01*
Y-133794D01*
X64510D01*
Y-133873D01*
X63494D01*
Y-133951D01*
X63415D01*
Y-134029D01*
Y-134107D01*
X62868D01*
Y-134186D01*
Y-134264D01*
X62321D01*
Y-134342D01*
Y-134420D01*
X61851D01*
Y-134498D01*
X61773D01*
Y-134576D01*
Y-134655D01*
X61382D01*
Y-134733D01*
Y-134811D01*
X61069D01*
Y-134889D01*
X60991D01*
Y-134968D01*
Y-135046D01*
X60678D01*
Y-135124D01*
X60600D01*
Y-135202D01*
X60287D01*
Y-135280D01*
Y-135359D01*
X59975D01*
Y-135437D01*
X59896D01*
Y-135515D01*
Y-135593D01*
X59740D01*
Y-135671D01*
Y-135750D01*
X59349D01*
Y-135828D01*
Y-135906D01*
X59271D01*
Y-135984D01*
X59193D01*
Y-136062D01*
X59114D01*
Y-136141D01*
X58958D01*
Y-136219D01*
Y-136297D01*
X58645D01*
Y-136375D01*
X58567D01*
Y-136453D01*
Y-136532D01*
X58411D01*
Y-136610D01*
Y-136688D01*
X58254D01*
Y-136766D01*
Y-136844D01*
X58098D01*
Y-136923D01*
X58020D01*
Y-137001D01*
Y-137079D01*
X57863D01*
Y-137157D01*
Y-137235D01*
X57707D01*
Y-137314D01*
Y-137392D01*
X57629D01*
Y-137470D01*
X57472D01*
Y-137548D01*
Y-137626D01*
X57316D01*
Y-137705D01*
Y-137783D01*
X57159D01*
Y-137861D01*
X57081D01*
Y-137939D01*
Y-138017D01*
X56925D01*
Y-138096D01*
Y-138174D01*
X56768D01*
Y-138252D01*
Y-138330D01*
X56534D01*
Y-138408D01*
Y-138487D01*
Y-138565D01*
Y-138643D01*
Y-138721D01*
X56377D01*
Y-138800D01*
Y-138878D01*
X56299D01*
Y-138956D01*
X56221D01*
Y-139034D01*
X56143D01*
Y-139112D01*
X55986D01*
Y-139190D01*
Y-139269D01*
Y-139347D01*
Y-139425D01*
Y-139503D01*
X55830D01*
Y-139582D01*
Y-139660D01*
X55595D01*
Y-139738D01*
Y-139816D01*
Y-139894D01*
Y-139972D01*
Y-140051D01*
X55439D01*
Y-140129D01*
Y-140207D01*
X55204D01*
Y-140285D01*
Y-140364D01*
Y-140442D01*
Y-140520D01*
Y-140598D01*
X55048D01*
Y-140676D01*
Y-140754D01*
Y-140833D01*
Y-140911D01*
Y-140989D01*
X54813D01*
Y-141067D01*
Y-141146D01*
Y-141224D01*
X54891D01*
Y-141302D01*
X54735D01*
Y-141380D01*
X54657D01*
Y-141458D01*
Y-141537D01*
Y-141615D01*
Y-141693D01*
Y-141771D01*
Y-141849D01*
Y-141928D01*
X54500D01*
Y-142006D01*
Y-142084D01*
Y-142162D01*
Y-142240D01*
X54266D01*
Y-142319D01*
Y-142397D01*
Y-142475D01*
Y-142553D01*
Y-142631D01*
Y-142710D01*
Y-142788D01*
Y-142866D01*
X54109D01*
Y-142944D01*
Y-143022D01*
Y-143101D01*
Y-143179D01*
Y-143257D01*
Y-143335D01*
Y-143413D01*
X53875D01*
Y-143492D01*
Y-143570D01*
Y-143648D01*
Y-143726D01*
Y-143804D01*
Y-143883D01*
Y-143961D01*
Y-144039D01*
Y-144117D01*
X53953D01*
Y-144195D01*
Y-144274D01*
X53875D01*
Y-144352D01*
X53718D01*
Y-144430D01*
Y-144508D01*
Y-144586D01*
Y-144665D01*
Y-144743D01*
Y-144821D01*
Y-144899D01*
Y-144977D01*
Y-145056D01*
Y-145134D01*
Y-145212D01*
X53562D01*
Y-145290D01*
Y-145369D01*
Y-145447D01*
Y-145525D01*
Y-145603D01*
Y-145681D01*
Y-145759D01*
Y-145838D01*
Y-145916D01*
Y-145994D01*
Y-146072D01*
Y-146151D01*
Y-146229D01*
Y-146307D01*
Y-146385D01*
Y-146463D01*
Y-146542D01*
Y-146620D01*
Y-146698D01*
Y-146776D01*
Y-146854D01*
Y-146932D01*
Y-147011D01*
Y-147089D01*
Y-147167D01*
Y-147245D01*
Y-147324D01*
Y-147402D01*
Y-147480D01*
Y-147558D01*
Y-147636D01*
Y-147715D01*
Y-147793D01*
Y-147871D01*
Y-147949D01*
Y-148027D01*
Y-148106D01*
Y-148184D01*
Y-148262D01*
Y-148340D01*
Y-148418D01*
Y-148497D01*
Y-148575D01*
Y-148653D01*
Y-148731D01*
Y-148809D01*
Y-148888D01*
Y-148966D01*
Y-149044D01*
Y-149122D01*
Y-149200D01*
Y-149279D01*
Y-149357D01*
X53718D01*
Y-149435D01*
Y-149513D01*
Y-149591D01*
Y-149670D01*
Y-149748D01*
Y-149826D01*
Y-149904D01*
Y-149982D01*
Y-150061D01*
Y-150139D01*
X53953D01*
Y-150217D01*
Y-150295D01*
X53875D01*
Y-150373D01*
Y-150452D01*
Y-150530D01*
Y-150608D01*
Y-150686D01*
Y-150765D01*
Y-150843D01*
Y-150921D01*
Y-150999D01*
X53953D01*
Y-151077D01*
X54109D01*
Y-151155D01*
X54188D01*
Y-151234D01*
X54657D01*
Y-151312D01*
X54735D01*
Y-151390D01*
Y-151468D01*
X55048D01*
Y-151547D01*
Y-151625D01*
X55595D01*
Y-151703D01*
X55673D01*
Y-151781D01*
X55986D01*
Y-151859D01*
Y-151937D01*
X56064D01*
Y-152016D01*
X56377D01*
Y-152094D01*
Y-152172D01*
X56690D01*
Y-152250D01*
X56768D01*
Y-152329D01*
X57081D01*
Y-152407D01*
Y-152485D01*
X57159D01*
Y-152563D01*
X57629D01*
Y-152641D01*
X57707D01*
Y-152719D01*
X58020D01*
Y-152798D01*
Y-152876D01*
X58098D01*
Y-152954D01*
X58411D01*
Y-153032D01*
Y-153111D01*
X58958D01*
Y-153189D01*
Y-153267D01*
X59114D01*
Y-153345D01*
X59193D01*
Y-153423D01*
Y-153501D01*
X59740D01*
Y-153580D01*
Y-153658D01*
X60053D01*
Y-153736D01*
X60131D01*
Y-153814D01*
X60209D01*
Y-153893D01*
X60444D01*
Y-153971D01*
X60522D01*
Y-154049D01*
X60835D01*
Y-154127D01*
Y-154205D01*
X61382D01*
Y-154284D01*
Y-154362D01*
X61460D01*
Y-154440D01*
X61930D01*
Y-154518D01*
Y-154596D01*
X62086D01*
Y-154675D01*
X62164D01*
Y-154753D01*
X62477D01*
Y-154831D01*
Y-154909D01*
X62555D01*
Y-154987D01*
X62868D01*
Y-155066D01*
Y-155144D01*
X63259D01*
Y-155222D01*
Y-155300D01*
X63337D01*
Y-155378D01*
X63806D01*
Y-155457D01*
Y-155535D01*
X63963D01*
Y-155613D01*
X64041D01*
Y-155691D01*
X64510D01*
Y-155769D01*
X64588D01*
Y-155848D01*
Y-155926D01*
X64901D01*
Y-156004D01*
X64979D01*
Y-156082D01*
X65292D01*
Y-156160D01*
Y-156239D01*
X65605D01*
Y-156317D01*
X65683D01*
Y-156395D01*
Y-156473D01*
X65996D01*
Y-156551D01*
X66074D01*
Y-156630D01*
X66231D01*
Y-156708D01*
Y-156786D01*
X66309D01*
Y-156864D01*
X66622D01*
Y-156942D01*
Y-157021D01*
X66935D01*
Y-157099D01*
X67013D01*
Y-157177D01*
X67717D01*
Y-157255D01*
Y-157334D01*
Y-157412D01*
X68108D01*
Y-157490D01*
Y-157568D01*
X68420D01*
Y-157646D01*
X68499D01*
Y-157724D01*
X68812D01*
Y-157803D01*
Y-157881D01*
X68890D01*
Y-157959D01*
X69359D01*
Y-158037D01*
X69437D01*
Y-158115D01*
X69515D01*
Y-158194D01*
X69594D01*
Y-158272D01*
Y-158350D01*
X70141D01*
Y-158428D01*
Y-158507D01*
X70454D01*
Y-158585D01*
X70532D01*
Y-158663D01*
X70845D01*
Y-158741D01*
Y-158819D01*
X70923D01*
Y-158897D01*
X71236D01*
Y-158976D01*
Y-159054D01*
X71627D01*
Y-159132D01*
Y-159210D01*
X71705D01*
Y-159289D01*
X72018D01*
Y-159367D01*
Y-159445D01*
X72331D01*
Y-159523D01*
X72409D01*
Y-159601D01*
X72722D01*
Y-159679D01*
Y-159758D01*
X72800D01*
Y-159836D01*
X73113D01*
Y-159914D01*
Y-159992D01*
X73425D01*
Y-160071D01*
X73504D01*
Y-160149D01*
X73973D01*
Y-160227D01*
X74051D01*
Y-160305D01*
Y-160383D01*
X74364D01*
Y-160462D01*
X74442D01*
Y-160540D01*
X74755D01*
Y-160618D01*
Y-160696D01*
X74833D01*
Y-160774D01*
X75146D01*
Y-160853D01*
Y-160931D01*
X75537D01*
Y-161009D01*
Y-161087D01*
X75850D01*
Y-161165D01*
X75928D01*
Y-161244D01*
Y-161322D01*
X76241D01*
Y-161400D01*
X76319D01*
Y-161478D01*
X76632D01*
Y-161556D01*
Y-161635D01*
X76945D01*
Y-161713D01*
X77023D01*
Y-161791D01*
Y-161869D01*
X77414D01*
Y-161947D01*
Y-162026D01*
X77727D01*
Y-162104D01*
Y-162182D01*
X77805D01*
Y-162260D01*
X78118D01*
Y-162338D01*
Y-162417D01*
X78509D01*
Y-162495D01*
Y-162573D01*
X78821D01*
Y-162651D01*
X78900D01*
Y-162729D01*
Y-162808D01*
X79212D01*
Y-162886D01*
X79291D01*
Y-162964D01*
X79603D01*
Y-163042D01*
Y-163120D01*
X79760D01*
Y-163199D01*
X79994D01*
Y-163277D01*
Y-163355D01*
Y-163433D01*
Y-163512D01*
X79838D01*
Y-163590D01*
X79760D01*
Y-163668D01*
X78118D01*
Y-163746D01*
Y-163824D01*
X76006D01*
Y-163746D01*
Y-163668D01*
X74598D01*
Y-163590D01*
X74520D01*
Y-163512D01*
X74207D01*
Y-163590D01*
Y-163668D01*
Y-163746D01*
Y-163824D01*
X74051D01*
Y-163746D01*
Y-163668D01*
Y-163590D01*
Y-163512D01*
X72878D01*
Y-163433D01*
Y-163355D01*
X72800D01*
Y-163277D01*
X72174D01*
Y-163199D01*
Y-163120D01*
X71236D01*
Y-163042D01*
X71157D01*
Y-162964D01*
X70845D01*
Y-162886D01*
Y-162808D01*
X70767D01*
Y-162729D01*
X70063D01*
Y-162651D01*
Y-162573D01*
X69359D01*
Y-162495D01*
Y-162417D01*
Y-162338D01*
X68577D01*
Y-162417D01*
X68499D01*
Y-162495D01*
X68420D01*
Y-162417D01*
X68342D01*
Y-162338D01*
X68186D01*
Y-162417D01*
X68108D01*
Y-162495D01*
X68029D01*
Y-162573D01*
X67482D01*
Y-162495D01*
Y-162417D01*
X67404D01*
Y-162338D01*
X66778D01*
Y-162417D01*
X66700D01*
Y-162338D01*
X66387D01*
Y-162260D01*
Y-162182D01*
X66074D01*
Y-162260D01*
X65996D01*
Y-162338D01*
X65371D01*
Y-162417D01*
X65292D01*
Y-162495D01*
Y-162573D01*
X64901D01*
Y-162495D01*
Y-162417D01*
X64823D01*
Y-162338D01*
X64510D01*
Y-162260D01*
Y-162182D01*
Y-162104D01*
Y-162026D01*
X64197D01*
Y-161947D01*
X64119D01*
Y-161869D01*
Y-161791D01*
X63728D01*
Y-161713D01*
Y-161635D01*
X63572D01*
Y-161556D01*
Y-161478D01*
X63415D01*
Y-161400D01*
Y-161322D01*
X63337D01*
Y-161244D01*
X63024D01*
Y-161165D01*
Y-161087D01*
X62868D01*
Y-161009D01*
X62790D01*
Y-160931D01*
X63415D01*
Y-161009D01*
Y-161087D01*
X63572D01*
Y-161165D01*
X63650D01*
Y-161244D01*
Y-161322D01*
X63963D01*
Y-161400D01*
X64041D01*
Y-161478D01*
X65292D01*
Y-161556D01*
Y-161635D01*
X65840D01*
Y-161713D01*
X66074D01*
Y-161791D01*
Y-161869D01*
X66778D01*
Y-161791D01*
Y-161713D01*
Y-161635D01*
Y-161556D01*
Y-161478D01*
X66700D01*
Y-161400D01*
X66387D01*
Y-161322D01*
X66309D01*
Y-161244D01*
X65996D01*
Y-161165D01*
Y-161087D01*
X65683D01*
Y-161009D01*
X65605D01*
Y-160931D01*
X65527D01*
Y-160853D01*
X65058D01*
Y-160774D01*
Y-160696D01*
X64667D01*
Y-160618D01*
Y-160540D01*
X64197D01*
Y-160462D01*
X64119D01*
Y-160383D01*
Y-160305D01*
X63963D01*
Y-160227D01*
Y-160149D01*
X63572D01*
Y-160071D01*
Y-159992D01*
X63415D01*
Y-159914D01*
X63181D01*
Y-159836D01*
Y-159758D01*
X62868D01*
Y-159679D01*
X62790D01*
Y-159601D01*
X62477D01*
Y-159523D01*
Y-159445D01*
X62399D01*
Y-159367D01*
X62086D01*
Y-159289D01*
Y-159210D01*
X61930D01*
Y-159132D01*
Y-159054D01*
X61539D01*
Y-158976D01*
Y-158897D01*
X61460D01*
Y-158819D01*
X61148D01*
Y-158741D01*
Y-158663D01*
X60835D01*
Y-158585D01*
X60757D01*
Y-158507D01*
X60678D01*
Y-158428D01*
X60444D01*
Y-158350D01*
X60366D01*
Y-158272D01*
X60209D01*
Y-158194D01*
Y-158115D01*
X59896D01*
Y-158037D01*
X59818D01*
Y-157959D01*
Y-157881D01*
X59505D01*
Y-157803D01*
X59427D01*
Y-157724D01*
X59114D01*
Y-157646D01*
Y-157568D01*
X58802D01*
Y-157490D01*
X58723D01*
Y-157412D01*
Y-157334D01*
X58567D01*
Y-157255D01*
Y-157177D01*
X58020D01*
Y-157099D01*
Y-157021D01*
X57941D01*
Y-156942D01*
X57629D01*
Y-156864D01*
Y-156786D01*
X57472D01*
Y-156708D01*
X57394D01*
Y-156630D01*
X56846D01*
Y-156708D01*
Y-156786D01*
Y-156864D01*
Y-156942D01*
X56925D01*
Y-157021D01*
Y-157099D01*
Y-157177D01*
X56377D01*
Y-157255D01*
Y-157334D01*
X56143D01*
Y-157255D01*
Y-157177D01*
Y-157099D01*
Y-157021D01*
Y-156942D01*
X55673D01*
Y-157021D01*
X55595D01*
Y-157099D01*
Y-157177D01*
X55361D01*
Y-157255D01*
Y-157334D01*
Y-157412D01*
Y-157490D01*
Y-157568D01*
Y-157646D01*
Y-157724D01*
X55752D01*
Y-157803D01*
X55830D01*
Y-157881D01*
Y-157959D01*
X55986D01*
Y-158037D01*
Y-158115D01*
Y-158194D01*
Y-158272D01*
X55752D01*
Y-158194D01*
Y-158115D01*
X55204D01*
Y-158037D01*
Y-157959D01*
X55126D01*
Y-157881D01*
X55048D01*
Y-157803D01*
Y-157724D01*
Y-157646D01*
Y-157568D01*
X54657D01*
Y-157490D01*
Y-157412D01*
Y-157334D01*
X54735D01*
Y-157255D01*
Y-157177D01*
Y-157099D01*
Y-157021D01*
X54657D01*
Y-156942D01*
X54344D01*
Y-156864D01*
Y-156786D01*
Y-156708D01*
Y-156630D01*
X53953D01*
Y-156551D01*
X53875D01*
Y-156473D01*
X53797D01*
Y-156395D01*
X53718D01*
Y-156473D01*
X53562D01*
Y-156551D01*
Y-156630D01*
X53171D01*
Y-156551D01*
Y-156473D01*
Y-156395D01*
X53249D01*
Y-156473D01*
X53484D01*
Y-156395D01*
X53562D01*
Y-156317D01*
Y-156239D01*
X54266D01*
Y-156317D01*
Y-156395D01*
Y-156473D01*
X54657D01*
Y-156395D01*
X54735D01*
Y-156317D01*
Y-156239D01*
Y-156160D01*
Y-156082D01*
X54657D01*
Y-156004D01*
X54344D01*
Y-155926D01*
Y-155848D01*
Y-155769D01*
Y-155691D01*
X54109D01*
Y-155613D01*
Y-155535D01*
X54031D01*
Y-155457D01*
X53640D01*
Y-155535D01*
X53562D01*
Y-155457D01*
Y-155378D01*
Y-155300D01*
Y-155222D01*
Y-155144D01*
X53171D01*
Y-155066D01*
Y-154987D01*
X53093D01*
Y-154909D01*
X53014D01*
Y-154831D01*
X52936D01*
Y-154753D01*
X52623D01*
Y-154675D01*
Y-154596D01*
X52467D01*
Y-154518D01*
X52389D01*
Y-154440D01*
Y-154362D01*
X52232D01*
Y-154284D01*
Y-154205D01*
X52467D01*
Y-154127D01*
Y-154049D01*
Y-153971D01*
Y-153893D01*
Y-153814D01*
X52232D01*
Y-153736D01*
Y-153658D01*
X52311D01*
Y-153580D01*
Y-153501D01*
Y-153423D01*
Y-153345D01*
Y-153267D01*
X52076D01*
Y-153189D01*
Y-153111D01*
X51998D01*
Y-153032D01*
X51685D01*
Y-152954D01*
Y-152876D01*
Y-152798D01*
Y-152719D01*
X51372D01*
Y-152641D01*
X51294D01*
Y-152563D01*
Y-152485D01*
X50903D01*
Y-152563D01*
Y-152641D01*
Y-152719D01*
Y-152798D01*
X50981D01*
Y-152876D01*
X50434D01*
Y-152798D01*
Y-152719D01*
Y-152641D01*
Y-152563D01*
Y-152485D01*
Y-152407D01*
Y-152329D01*
X50825D01*
Y-152250D01*
Y-152172D01*
Y-152094D01*
Y-152016D01*
Y-151937D01*
Y-151859D01*
Y-151781D01*
X50590D01*
Y-151703D01*
Y-151625D01*
X50512D01*
Y-151547D01*
X50356D01*
Y-151468D01*
X50434D01*
Y-151390D01*
Y-151312D01*
Y-151234D01*
Y-151155D01*
Y-151077D01*
Y-150999D01*
Y-150921D01*
Y-150843D01*
X50199D01*
Y-150765D01*
Y-150686D01*
X50590D01*
Y-150608D01*
Y-150530D01*
Y-150452D01*
Y-150373D01*
Y-150295D01*
Y-150217D01*
Y-150139D01*
Y-150061D01*
Y-149982D01*
Y-149904D01*
Y-149826D01*
Y-149748D01*
Y-149670D01*
Y-149591D01*
Y-149513D01*
Y-149435D01*
Y-149357D01*
Y-149279D01*
Y-149200D01*
Y-149122D01*
X50356D01*
Y-149044D01*
X50434D01*
Y-148966D01*
X50356D01*
Y-148888D01*
X50434D01*
Y-148809D01*
X50590D01*
Y-148731D01*
Y-148653D01*
Y-148575D01*
Y-148497D01*
Y-148418D01*
X50747D01*
Y-148340D01*
X50825D01*
Y-148262D01*
Y-148184D01*
Y-148106D01*
X50747D01*
Y-148027D01*
Y-147949D01*
Y-147871D01*
X50981D01*
Y-147793D01*
Y-147715D01*
Y-147636D01*
Y-147558D01*
Y-147480D01*
Y-147402D01*
Y-147324D01*
X50590D01*
Y-147402D01*
Y-147480D01*
X50434D01*
Y-147402D01*
Y-147324D01*
Y-147245D01*
X50356D01*
Y-147167D01*
X50512D01*
Y-147089D01*
X50590D01*
Y-147011D01*
Y-146932D01*
X50747D01*
Y-146854D01*
Y-146776D01*
X50981D01*
Y-146698D01*
Y-146620D01*
Y-146542D01*
Y-146463D01*
Y-146385D01*
Y-146307D01*
Y-146229D01*
Y-146151D01*
Y-146072D01*
Y-145994D01*
Y-145916D01*
Y-145838D01*
X50825D01*
Y-145759D01*
X50747D01*
Y-145681D01*
Y-145603D01*
X50825D01*
Y-145525D01*
Y-145447D01*
Y-145369D01*
Y-145290D01*
Y-145212D01*
Y-145134D01*
Y-145056D01*
Y-144977D01*
X50747D01*
Y-144899D01*
X50199D01*
Y-144821D01*
Y-144743D01*
Y-144665D01*
Y-144586D01*
Y-144508D01*
Y-144430D01*
Y-144352D01*
X50434D01*
Y-144274D01*
Y-144195D01*
X50590D01*
Y-144274D01*
Y-144352D01*
X50981D01*
Y-144274D01*
Y-144195D01*
Y-144117D01*
Y-144039D01*
Y-143961D01*
Y-143883D01*
Y-143804D01*
X51372D01*
Y-143726D01*
Y-143648D01*
Y-143570D01*
X51294D01*
Y-143492D01*
X51372D01*
Y-143413D01*
X51529D01*
Y-143335D01*
Y-143257D01*
Y-143179D01*
Y-143101D01*
Y-143022D01*
Y-142944D01*
Y-142866D01*
X51685D01*
Y-142788D01*
Y-142710D01*
Y-142631D01*
Y-142553D01*
Y-142475D01*
X51841D01*
Y-142553D01*
Y-142631D01*
Y-142710D01*
Y-142788D01*
Y-142866D01*
X52311D01*
Y-142788D01*
Y-142710D01*
Y-142631D01*
X52232D01*
Y-142553D01*
X52311D01*
Y-142475D01*
X52467D01*
Y-142397D01*
Y-142319D01*
Y-142240D01*
Y-142162D01*
Y-142084D01*
X51920D01*
Y-142006D01*
Y-141928D01*
X52232D01*
Y-141849D01*
Y-141771D01*
X52389D01*
Y-141693D01*
Y-141615D01*
X52467D01*
Y-141537D01*
X52623D01*
Y-141458D01*
Y-141380D01*
Y-141302D01*
Y-141224D01*
Y-141146D01*
Y-141067D01*
Y-140989D01*
X52311D01*
Y-141067D01*
X52232D01*
Y-141146D01*
X52076D01*
Y-141224D01*
Y-141302D01*
X51920D01*
Y-141380D01*
X51841D01*
Y-141458D01*
Y-141537D01*
X51529D01*
Y-141615D01*
Y-141693D01*
X51372D01*
Y-141771D01*
Y-141849D01*
X51294D01*
Y-141928D01*
X50825D01*
Y-142006D01*
X50747D01*
Y-142084D01*
X50590D01*
Y-142006D01*
Y-141928D01*
Y-141849D01*
Y-141771D01*
Y-141693D01*
Y-141615D01*
Y-141537D01*
Y-141458D01*
Y-141380D01*
X50825D01*
Y-141302D01*
Y-141224D01*
Y-141146D01*
Y-141067D01*
Y-140989D01*
Y-140911D01*
X50747D01*
Y-140833D01*
Y-140754D01*
X50590D01*
Y-140676D01*
Y-140598D01*
X50747D01*
Y-140520D01*
Y-140442D01*
Y-140364D01*
X50825D01*
Y-140285D01*
Y-140207D01*
Y-140129D01*
X50747D01*
Y-140051D01*
X50434D01*
Y-139972D01*
X50356D01*
Y-139894D01*
X50434D01*
Y-139816D01*
Y-139738D01*
Y-139660D01*
X50356D01*
Y-139582D01*
Y-139503D01*
X50981D01*
Y-139425D01*
Y-139347D01*
Y-139269D01*
Y-139190D01*
Y-139112D01*
X51138D01*
Y-139034D01*
Y-138956D01*
Y-138878D01*
Y-138800D01*
Y-138721D01*
Y-138643D01*
Y-138565D01*
X51294D01*
Y-138643D01*
Y-138721D01*
Y-138800D01*
Y-138878D01*
Y-138956D01*
Y-139034D01*
Y-139112D01*
X51685D01*
Y-139190D01*
Y-139269D01*
Y-139347D01*
Y-139425D01*
Y-139503D01*
X52076D01*
Y-139582D01*
Y-139660D01*
X52154D01*
Y-139738D01*
X52232D01*
Y-139816D01*
Y-139894D01*
Y-139972D01*
Y-140051D01*
X53014D01*
Y-139972D01*
Y-139894D01*
Y-139816D01*
Y-139738D01*
Y-139660D01*
Y-139582D01*
Y-139503D01*
Y-139425D01*
Y-139347D01*
Y-139269D01*
X52545D01*
Y-139347D01*
X52389D01*
Y-139269D01*
X52232D01*
Y-139190D01*
Y-139112D01*
Y-139034D01*
Y-138956D01*
X52467D01*
Y-138878D01*
Y-138800D01*
Y-138721D01*
Y-138643D01*
Y-138565D01*
X52076D01*
Y-138487D01*
Y-138408D01*
Y-138330D01*
Y-138252D01*
Y-138174D01*
Y-138096D01*
Y-138017D01*
X52311D01*
Y-137939D01*
Y-137861D01*
X52232D01*
Y-137783D01*
Y-137705D01*
Y-137626D01*
X52623D01*
Y-137548D01*
Y-137470D01*
Y-137392D01*
Y-137314D01*
Y-137235D01*
Y-137157D01*
Y-137079D01*
Y-137001D01*
Y-136923D01*
Y-136844D01*
Y-136766D01*
X52702D01*
Y-136688D01*
X52780D01*
Y-136766D01*
Y-136844D01*
Y-136923D01*
Y-137001D01*
Y-137079D01*
Y-137157D01*
Y-137235D01*
Y-137314D01*
Y-137392D01*
Y-137470D01*
X53171D01*
Y-137392D01*
Y-137314D01*
X53406D01*
Y-137235D01*
Y-137157D01*
Y-137079D01*
Y-137001D01*
Y-136923D01*
X53562D01*
Y-136844D01*
Y-136766D01*
Y-136688D01*
Y-136610D01*
Y-136532D01*
X53797D01*
Y-136453D01*
Y-136375D01*
Y-136297D01*
Y-136219D01*
Y-136141D01*
Y-136062D01*
Y-135984D01*
X53718D01*
Y-135906D01*
Y-135828D01*
X53953D01*
Y-135906D01*
Y-135984D01*
X54422D01*
Y-135906D01*
X54500D01*
Y-135828D01*
X54891D01*
Y-135750D01*
Y-135671D01*
Y-135593D01*
Y-135515D01*
Y-135437D01*
Y-135359D01*
Y-135280D01*
X54813D01*
Y-135202D01*
X54579D01*
Y-135124D01*
X54657D01*
Y-135046D01*
X54891D01*
Y-135124D01*
Y-135202D01*
X55204D01*
Y-135124D01*
Y-135046D01*
X55439D01*
Y-134968D01*
Y-134889D01*
Y-134811D01*
X55517D01*
Y-134889D01*
X56064D01*
Y-134811D01*
X56143D01*
Y-134733D01*
Y-134655D01*
X56299D01*
Y-134576D01*
Y-134498D01*
X56455D01*
Y-134420D01*
X56534D01*
Y-134342D01*
X56612D01*
Y-134264D01*
X56690D01*
Y-134186D01*
Y-134107D01*
X56846D01*
Y-134029D01*
X56925D01*
Y-133951D01*
X57081D01*
Y-133873D01*
Y-133794D01*
Y-133716D01*
Y-133638D01*
Y-133560D01*
Y-133482D01*
X56846D01*
Y-133560D01*
X56690D01*
Y-133482D01*
Y-133404D01*
X56768D01*
Y-133325D01*
X56846D01*
Y-133247D01*
X56925D01*
Y-133169D01*
X57081D01*
Y-133091D01*
X57159D01*
Y-133169D01*
X57785D01*
Y-133091D01*
Y-133012D01*
X58020D01*
Y-132934D01*
Y-132856D01*
Y-132778D01*
Y-132700D01*
Y-132622D01*
Y-132543D01*
Y-132465D01*
X58723D01*
Y-132387D01*
Y-132309D01*
X58802D01*
Y-132230D01*
X59114D01*
Y-132152D01*
Y-132074D01*
X59271D01*
Y-131996D01*
Y-131918D01*
X59349D01*
Y-131996D01*
Y-132074D01*
X60209D01*
Y-131996D01*
Y-131918D01*
X60366D01*
Y-131839D01*
X60444D01*
Y-131761D01*
Y-131683D01*
X60600D01*
Y-131761D01*
Y-131839D01*
Y-131918D01*
Y-131996D01*
Y-132074D01*
X60991D01*
Y-131996D01*
Y-131918D01*
X61148D01*
Y-131839D01*
X61226D01*
Y-131761D01*
Y-131683D01*
X61148D01*
Y-131605D01*
Y-131527D01*
X61382D01*
Y-131605D01*
Y-131683D01*
Y-131761D01*
Y-131839D01*
Y-131918D01*
X61851D01*
Y-131839D01*
X61930D01*
Y-131761D01*
Y-131683D01*
Y-131605D01*
Y-131527D01*
X62634D01*
Y-131448D01*
X62712D01*
Y-131370D01*
Y-131292D01*
X62634D01*
Y-131214D01*
X62712D01*
Y-131136D01*
X63024D01*
Y-131057D01*
X63103D01*
Y-131136D01*
D02*
G37*
G36*
X54500Y-132543D02*
Y-132622D01*
X54422D01*
Y-132543D01*
Y-132465D01*
X54500D01*
Y-132543D01*
D02*
G37*
G36*
X74755Y-132700D02*
X74833D01*
Y-132778D01*
X74755D01*
Y-132700D01*
X74677D01*
Y-132622D01*
X74755D01*
Y-132700D01*
D02*
G37*
G36*
X55282Y-133482D02*
Y-133560D01*
X55204D01*
Y-133482D01*
Y-133404D01*
X55282D01*
Y-133482D01*
D02*
G37*
G36*
X49339Y-133638D02*
Y-133716D01*
X49104D01*
Y-133638D01*
Y-133560D01*
X49339D01*
Y-133638D01*
D02*
G37*
G36*
X72878D02*
X72956D01*
Y-133716D01*
Y-133794D01*
X72800D01*
Y-133716D01*
X72722D01*
Y-133638D01*
X72643D01*
Y-133560D01*
X72878D01*
Y-133638D01*
D02*
G37*
G36*
X73425Y-133794D02*
X73504D01*
Y-133873D01*
X73269D01*
Y-133794D01*
Y-133716D01*
X73425D01*
Y-133794D01*
D02*
G37*
G36*
X49104D02*
Y-133873D01*
X49026D01*
Y-133951D01*
X48870D01*
Y-133873D01*
Y-133794D01*
Y-133716D01*
X49104D01*
Y-133794D01*
D02*
G37*
G36*
X74051Y-134029D02*
Y-134107D01*
X73660D01*
Y-134029D01*
X73582D01*
Y-133951D01*
X74051D01*
Y-134029D01*
D02*
G37*
G36*
X56377Y-133638D02*
Y-133716D01*
Y-133794D01*
Y-133873D01*
X56064D01*
Y-133951D01*
X55986D01*
Y-134029D01*
Y-134107D01*
X55595D01*
Y-134029D01*
Y-133951D01*
X55673D01*
Y-133873D01*
X55752D01*
Y-133794D01*
X55830D01*
Y-133716D01*
X55908D01*
Y-133638D01*
X55986D01*
Y-133560D01*
X56377D01*
Y-133638D01*
D02*
G37*
G36*
X76788Y-134186D02*
X76866D01*
Y-134264D01*
X76788D01*
Y-134186D01*
X76710D01*
Y-134107D01*
X76788D01*
Y-134186D01*
D02*
G37*
G36*
X71392D02*
X71470D01*
Y-134264D01*
X70845D01*
Y-134186D01*
X70767D01*
Y-134107D01*
X71392D01*
Y-134186D01*
D02*
G37*
G36*
X55204Y-133638D02*
Y-133716D01*
Y-133794D01*
Y-133873D01*
Y-133951D01*
Y-134029D01*
Y-134107D01*
X55439D01*
Y-134186D01*
Y-134264D01*
X55204D01*
Y-134186D01*
Y-134107D01*
X54891D01*
Y-134029D01*
Y-133951D01*
X54970D01*
Y-133873D01*
X55048D01*
Y-133794D01*
Y-133716D01*
Y-133638D01*
Y-133560D01*
X55204D01*
Y-133638D01*
D02*
G37*
G36*
X54500Y-133247D02*
Y-133325D01*
X54344D01*
Y-133404D01*
X54266D01*
Y-133482D01*
Y-133560D01*
Y-133638D01*
Y-133716D01*
Y-133794D01*
Y-133873D01*
Y-133951D01*
Y-134029D01*
Y-134107D01*
Y-134186D01*
Y-134264D01*
Y-134342D01*
Y-134420D01*
X54188D01*
Y-134498D01*
X54031D01*
Y-134420D01*
X53797D01*
Y-134498D01*
Y-134576D01*
X53718D01*
Y-134655D01*
X53562D01*
Y-134576D01*
Y-134498D01*
Y-134420D01*
Y-134342D01*
X53718D01*
Y-134264D01*
X53797D01*
Y-134186D01*
Y-134107D01*
Y-134029D01*
Y-133951D01*
X53718D01*
Y-133873D01*
Y-133794D01*
X53797D01*
Y-133716D01*
X53953D01*
Y-133638D01*
Y-133560D01*
Y-133482D01*
Y-133404D01*
X54031D01*
Y-133325D01*
X54109D01*
Y-133247D01*
Y-133169D01*
X54500D01*
Y-133247D01*
D02*
G37*
G36*
X72174Y-134576D02*
X72252D01*
Y-134655D01*
X72174D01*
Y-134576D01*
X72096D01*
Y-134498D01*
X72174D01*
Y-134576D01*
D02*
G37*
G36*
X74598Y-134733D02*
Y-134811D01*
X74520D01*
Y-134733D01*
Y-134655D01*
X74598D01*
Y-134733D01*
D02*
G37*
G36*
X51138Y-135124D02*
Y-135202D01*
X50903D01*
Y-135124D01*
Y-135046D01*
X51138D01*
Y-135124D01*
D02*
G37*
G36*
X51920Y-135280D02*
Y-135359D01*
X51763D01*
Y-135437D01*
X51685D01*
Y-135359D01*
Y-135280D01*
Y-135202D01*
X51920D01*
Y-135280D01*
D02*
G37*
G36*
X77023Y-134968D02*
Y-135046D01*
X77179D01*
Y-135124D01*
Y-135202D01*
X77492D01*
Y-135280D01*
X77570D01*
Y-135359D01*
X77648D01*
Y-135437D01*
X77727D01*
Y-135515D01*
X77805D01*
Y-135593D01*
X77961D01*
Y-135671D01*
Y-135750D01*
X77727D01*
Y-135671D01*
Y-135593D01*
X77179D01*
Y-135515D01*
Y-135437D01*
Y-135359D01*
Y-135280D01*
Y-135202D01*
X76788D01*
Y-135124D01*
Y-135046D01*
Y-134968D01*
Y-134889D01*
X77023D01*
Y-134968D01*
D02*
G37*
G36*
X51685Y-135671D02*
Y-135750D01*
X51763D01*
Y-135828D01*
Y-135906D01*
X51529D01*
Y-135828D01*
Y-135750D01*
Y-135671D01*
Y-135593D01*
X51685D01*
Y-135671D01*
D02*
G37*
G36*
X50981Y-136141D02*
Y-136219D01*
Y-136297D01*
X50825D01*
Y-136375D01*
X50747D01*
Y-136297D01*
Y-136219D01*
Y-136141D01*
X50903D01*
Y-136062D01*
X50981D01*
Y-136141D01*
D02*
G37*
G36*
X53171Y-136219D02*
Y-136297D01*
X53093D01*
Y-136375D01*
X53014D01*
Y-136453D01*
Y-136532D01*
X52780D01*
Y-136453D01*
Y-136375D01*
X52936D01*
Y-136297D01*
Y-136219D01*
X53014D01*
Y-136141D01*
X53171D01*
Y-136219D01*
D02*
G37*
G36*
X51920Y-136610D02*
Y-136688D01*
X51841D01*
Y-136610D01*
X51763D01*
Y-136532D01*
X51920D01*
Y-136610D01*
D02*
G37*
G36*
X51372Y-136453D02*
Y-136532D01*
X51294D01*
Y-136610D01*
Y-136688D01*
Y-136766D01*
Y-136844D01*
X51216D01*
Y-136923D01*
X51138D01*
Y-136844D01*
Y-136766D01*
Y-136688D01*
Y-136610D01*
Y-136532D01*
Y-136453D01*
Y-136375D01*
X51372D01*
Y-136453D01*
D02*
G37*
G36*
X51138Y-137001D02*
Y-137079D01*
X50981D01*
Y-137001D01*
Y-136923D01*
X51138D01*
Y-137001D01*
D02*
G37*
G36*
X48948D02*
Y-137079D01*
X48870D01*
Y-137001D01*
Y-136923D01*
X48948D01*
Y-137001D01*
D02*
G37*
G36*
X48870Y-137157D02*
Y-137235D01*
Y-137314D01*
X48948D01*
Y-137392D01*
X48792D01*
Y-137470D01*
X48713D01*
Y-137392D01*
Y-137314D01*
Y-137235D01*
Y-137157D01*
Y-137079D01*
X48870D01*
Y-137157D01*
D02*
G37*
G36*
X48713Y-137705D02*
Y-137783D01*
X48479D01*
Y-137705D01*
X48557D01*
Y-137626D01*
X48713D01*
Y-137705D01*
D02*
G37*
G36*
X79291Y-138487D02*
Y-138565D01*
X79212D01*
Y-138487D01*
X79134D01*
Y-138408D01*
X79291D01*
Y-138487D01*
D02*
G37*
G36*
X65996Y-137705D02*
X66074D01*
Y-137783D01*
Y-137861D01*
X66231D01*
Y-137939D01*
Y-138017D01*
X66387D01*
Y-138096D01*
Y-138174D01*
X66465D01*
Y-138252D01*
X66544D01*
Y-138330D01*
Y-138408D01*
Y-138487D01*
Y-138565D01*
Y-138643D01*
Y-138721D01*
Y-138800D01*
X66778D01*
Y-138878D01*
Y-138956D01*
Y-139034D01*
X66700D01*
Y-139112D01*
Y-139190D01*
Y-139269D01*
Y-139347D01*
Y-139425D01*
Y-139503D01*
Y-139582D01*
Y-139660D01*
Y-139738D01*
Y-139816D01*
Y-139894D01*
Y-139972D01*
Y-140051D01*
X66778D01*
Y-140129D01*
Y-140207D01*
Y-140285D01*
Y-140364D01*
X66700D01*
Y-140285D01*
Y-140207D01*
X66544D01*
Y-140129D01*
Y-140051D01*
X66387D01*
Y-139972D01*
Y-139894D01*
X66309D01*
Y-139816D01*
X66153D01*
Y-139738D01*
Y-139660D01*
X65996D01*
Y-139582D01*
Y-139503D01*
X65840D01*
Y-139425D01*
Y-139347D01*
X65762D01*
Y-139269D01*
X65449D01*
Y-139190D01*
Y-139112D01*
X65058D01*
Y-139190D01*
Y-139269D01*
Y-139347D01*
Y-139425D01*
Y-139503D01*
Y-139582D01*
Y-139660D01*
Y-139738D01*
X65292D01*
Y-139816D01*
Y-139894D01*
X65683D01*
Y-139972D01*
Y-140051D01*
X65840D01*
Y-140129D01*
Y-140207D01*
X65918D01*
Y-140285D01*
X65996D01*
Y-140364D01*
X66074D01*
Y-140442D01*
X66231D01*
Y-140520D01*
Y-140598D01*
Y-140676D01*
Y-140754D01*
X66074D01*
Y-140833D01*
Y-140911D01*
X65996D01*
Y-140989D01*
X65527D01*
Y-141067D01*
X65449D01*
Y-141146D01*
X63963D01*
Y-141067D01*
Y-140989D01*
X63572D01*
Y-140911D01*
Y-140833D01*
X63885D01*
Y-140754D01*
X63963D01*
Y-140676D01*
X64276D01*
Y-140598D01*
X64354D01*
Y-140520D01*
Y-140442D01*
Y-140364D01*
Y-140285D01*
Y-140207D01*
Y-140129D01*
Y-140051D01*
X63963D01*
Y-139972D01*
Y-139894D01*
X63885D01*
Y-139816D01*
X63728D01*
Y-139738D01*
Y-139660D01*
X63572D01*
Y-139582D01*
Y-139503D01*
X63337D01*
Y-139425D01*
Y-139347D01*
X63806D01*
Y-139269D01*
Y-139190D01*
Y-139112D01*
Y-139034D01*
Y-138956D01*
Y-138878D01*
Y-138800D01*
Y-138721D01*
X63572D01*
Y-138643D01*
Y-138565D01*
X63415D01*
Y-138487D01*
Y-138408D01*
Y-138330D01*
Y-138252D01*
X63806D01*
Y-138330D01*
Y-138408D01*
X64276D01*
Y-138330D01*
X64354D01*
Y-138252D01*
X64510D01*
Y-138174D01*
Y-138096D01*
Y-138017D01*
Y-137939D01*
Y-137861D01*
X64745D01*
Y-137939D01*
Y-138017D01*
X64901D01*
Y-138096D01*
Y-138174D01*
X64979D01*
Y-138252D01*
X65136D01*
Y-138330D01*
Y-138408D01*
X65292D01*
Y-138487D01*
Y-138565D01*
X65840D01*
Y-138487D01*
Y-138408D01*
Y-138330D01*
Y-138252D01*
Y-138174D01*
Y-138096D01*
Y-138017D01*
Y-137939D01*
Y-137861D01*
Y-137783D01*
Y-137705D01*
Y-137626D01*
X65996D01*
Y-137705D01*
D02*
G37*
G36*
X48166Y-137939D02*
Y-138017D01*
Y-138096D01*
Y-138174D01*
Y-138252D01*
Y-138330D01*
Y-138408D01*
Y-138487D01*
Y-138565D01*
X48010D01*
Y-138487D01*
Y-138408D01*
Y-138330D01*
Y-138252D01*
Y-138174D01*
Y-138096D01*
Y-138017D01*
Y-137939D01*
Y-137861D01*
X48166D01*
Y-137939D01*
D02*
G37*
G36*
X79447Y-138643D02*
Y-138721D01*
X79369D01*
Y-138643D01*
Y-138565D01*
X79447D01*
Y-138643D01*
D02*
G37*
G36*
X48010D02*
Y-138721D01*
X47853D01*
Y-138800D01*
Y-138878D01*
X47775D01*
Y-138800D01*
Y-138721D01*
Y-138643D01*
Y-138565D01*
X48010D01*
Y-138643D01*
D02*
G37*
G36*
X80776Y-138956D02*
X80933D01*
Y-139034D01*
Y-139112D01*
X80698D01*
Y-139034D01*
Y-138956D01*
Y-138878D01*
X80776D01*
Y-138956D01*
D02*
G37*
G36*
X52076Y-138800D02*
Y-138878D01*
Y-138956D01*
X51920D01*
Y-139034D01*
X51841D01*
Y-139112D01*
X51685D01*
Y-139034D01*
Y-138956D01*
X51841D01*
Y-138878D01*
Y-138800D01*
X51998D01*
Y-138721D01*
X52076D01*
Y-138800D01*
D02*
G37*
G36*
X50043Y-139034D02*
Y-139112D01*
X50199D01*
Y-139190D01*
Y-139269D01*
Y-139347D01*
Y-139425D01*
Y-139503D01*
X49887D01*
Y-139425D01*
X49808D01*
Y-139347D01*
X49887D01*
Y-139269D01*
Y-139190D01*
Y-139112D01*
X49808D01*
Y-139034D01*
Y-138956D01*
X50043D01*
Y-139034D01*
D02*
G37*
G36*
X48322Y-139738D02*
X48401D01*
Y-139816D01*
X48322D01*
Y-139894D01*
X48166D01*
Y-139816D01*
Y-139738D01*
Y-139660D01*
X48322D01*
Y-139738D01*
D02*
G37*
G36*
X69906Y-137314D02*
Y-137392D01*
Y-137470D01*
Y-137548D01*
Y-137626D01*
Y-137705D01*
Y-137783D01*
Y-137861D01*
Y-137939D01*
Y-138017D01*
Y-138096D01*
Y-138174D01*
Y-138252D01*
X70219D01*
Y-138174D01*
X70297D01*
Y-138096D01*
Y-138017D01*
X70454D01*
Y-137939D01*
Y-137861D01*
X70610D01*
Y-137783D01*
Y-137705D01*
X70688D01*
Y-137626D01*
X70845D01*
Y-137548D01*
Y-137470D01*
X71001D01*
Y-137392D01*
Y-137314D01*
X71236D01*
Y-137392D01*
Y-137470D01*
Y-137548D01*
Y-137626D01*
Y-137705D01*
Y-137783D01*
Y-137861D01*
X71705D01*
Y-137783D01*
X71783D01*
Y-137705D01*
Y-137626D01*
X72331D01*
Y-137705D01*
Y-137783D01*
Y-137861D01*
Y-137939D01*
Y-138017D01*
X72174D01*
Y-138096D01*
Y-138174D01*
X71940D01*
Y-138252D01*
Y-138330D01*
Y-138408D01*
Y-138487D01*
Y-138565D01*
Y-138643D01*
Y-138721D01*
Y-138800D01*
X72565D01*
Y-138878D01*
X72487D01*
Y-138956D01*
X72409D01*
Y-139034D01*
X72331D01*
Y-139112D01*
X72018D01*
Y-139190D01*
Y-139269D01*
X71861D01*
Y-139347D01*
X71783D01*
Y-139425D01*
Y-139503D01*
X71549D01*
Y-139582D01*
Y-139660D01*
Y-139738D01*
Y-139816D01*
Y-139894D01*
Y-139972D01*
Y-140051D01*
X71940D01*
Y-140129D01*
X72018D01*
Y-140207D01*
Y-140285D01*
X72174D01*
Y-140364D01*
Y-140442D01*
X72018D01*
Y-140520D01*
X71940D01*
Y-140598D01*
X70141D01*
Y-140520D01*
X70063D01*
Y-140442D01*
X69594D01*
Y-140364D01*
X69515D01*
Y-140285D01*
X69594D01*
Y-140207D01*
X69672D01*
Y-140129D01*
X69750D01*
Y-140051D01*
X69906D01*
Y-139972D01*
Y-139894D01*
X70141D01*
Y-139816D01*
Y-139738D01*
Y-139660D01*
Y-139582D01*
Y-139503D01*
X70219D01*
Y-139425D01*
X70297D01*
Y-139347D01*
X70610D01*
Y-139269D01*
Y-139190D01*
X70688D01*
Y-139112D01*
X70845D01*
Y-139034D01*
Y-138956D01*
Y-138878D01*
Y-138800D01*
Y-138721D01*
Y-138643D01*
Y-138565D01*
X70532D01*
Y-138643D01*
X70454D01*
Y-138721D01*
X70141D01*
Y-138800D01*
Y-138878D01*
X70063D01*
Y-138956D01*
X69985D01*
Y-139034D01*
X69906D01*
Y-139112D01*
X69750D01*
Y-139190D01*
Y-139269D01*
X69594D01*
Y-139347D01*
Y-139425D01*
X69515D01*
Y-139503D01*
X69437D01*
Y-139582D01*
X69359D01*
Y-139660D01*
X69203D01*
Y-139582D01*
Y-139503D01*
Y-139425D01*
Y-139347D01*
Y-139269D01*
X68968D01*
Y-139190D01*
Y-139112D01*
X69046D01*
Y-139034D01*
Y-138956D01*
X68968D01*
Y-138878D01*
Y-138800D01*
X69203D01*
Y-138721D01*
Y-138643D01*
Y-138565D01*
Y-138487D01*
Y-138408D01*
Y-138330D01*
Y-138252D01*
Y-138174D01*
Y-138096D01*
Y-138017D01*
Y-137939D01*
Y-137861D01*
X69359D01*
Y-137783D01*
Y-137705D01*
Y-137626D01*
Y-137548D01*
Y-137470D01*
X69515D01*
Y-137392D01*
Y-137314D01*
X69828D01*
Y-137235D01*
X69906D01*
Y-137314D01*
D02*
G37*
G36*
X49104Y-140051D02*
Y-140129D01*
Y-140207D01*
Y-140285D01*
X49261D01*
Y-140364D01*
Y-140442D01*
X49104D01*
Y-140520D01*
Y-140598D01*
Y-140676D01*
Y-140754D01*
X48713D01*
Y-140676D01*
Y-140598D01*
X48557D01*
Y-140520D01*
X48479D01*
Y-140442D01*
Y-140364D01*
Y-140285D01*
X48870D01*
Y-140207D01*
Y-140129D01*
X48948D01*
Y-140051D01*
X49026D01*
Y-139972D01*
X49104D01*
Y-140051D01*
D02*
G37*
G36*
X49261Y-140911D02*
Y-140989D01*
Y-141067D01*
Y-141146D01*
Y-141224D01*
Y-141302D01*
X49104D01*
Y-141224D01*
Y-141146D01*
Y-141067D01*
Y-140989D01*
Y-140911D01*
Y-140833D01*
X49261D01*
Y-140911D01*
D02*
G37*
G36*
X50356Y-141224D02*
X50434D01*
Y-141302D01*
Y-141380D01*
X50199D01*
Y-141302D01*
Y-141224D01*
Y-141146D01*
X50356D01*
Y-141224D01*
D02*
G37*
G36*
X71236Y-141458D02*
Y-141537D01*
X71549D01*
Y-141615D01*
X71627D01*
Y-141693D01*
Y-141771D01*
X72018D01*
Y-141849D01*
Y-141928D01*
X72174D01*
Y-142006D01*
Y-142084D01*
Y-142162D01*
X72096D01*
Y-142084D01*
X71783D01*
Y-142162D01*
Y-142240D01*
Y-142319D01*
Y-142397D01*
Y-142475D01*
X71940D01*
Y-142553D01*
Y-142631D01*
Y-142710D01*
Y-142788D01*
Y-142866D01*
Y-142944D01*
Y-143022D01*
X72331D01*
Y-143101D01*
Y-143179D01*
Y-143257D01*
Y-143335D01*
Y-143413D01*
X72174D01*
Y-143335D01*
X72096D01*
Y-143257D01*
X72018D01*
Y-143179D01*
X71783D01*
Y-143101D01*
X71705D01*
Y-143022D01*
X71392D01*
Y-142944D01*
Y-142866D01*
X70141D01*
Y-142944D01*
Y-143022D01*
X69515D01*
Y-142944D01*
Y-142866D01*
X69594D01*
Y-142788D01*
X69515D01*
Y-142710D01*
X69750D01*
Y-142631D01*
Y-142553D01*
Y-142475D01*
Y-142397D01*
Y-142319D01*
Y-142240D01*
Y-142162D01*
X69828D01*
Y-142084D01*
X69906D01*
Y-142006D01*
Y-141928D01*
X70063D01*
Y-141849D01*
Y-141771D01*
X70219D01*
Y-141693D01*
X70297D01*
Y-141615D01*
Y-141537D01*
X70610D01*
Y-141458D01*
X70688D01*
Y-141380D01*
X71236D01*
Y-141458D01*
D02*
G37*
G36*
X49495Y-142006D02*
Y-142084D01*
Y-142162D01*
Y-142240D01*
X49261D01*
Y-142162D01*
Y-142084D01*
Y-142006D01*
Y-141928D01*
X49495D01*
Y-142006D01*
D02*
G37*
G36*
X48713Y-141067D02*
Y-141146D01*
Y-141224D01*
Y-141302D01*
Y-141380D01*
Y-141458D01*
Y-141537D01*
Y-141615D01*
Y-141693D01*
Y-141771D01*
Y-141849D01*
Y-141928D01*
X48870D01*
Y-142006D01*
Y-142084D01*
Y-142162D01*
Y-142240D01*
X48401D01*
Y-142162D01*
Y-142084D01*
Y-142006D01*
Y-141928D01*
Y-141849D01*
Y-141771D01*
X48322D01*
Y-141693D01*
Y-141615D01*
Y-141537D01*
X48557D01*
Y-141458D01*
Y-141380D01*
Y-141302D01*
Y-141224D01*
Y-141146D01*
Y-141067D01*
Y-140989D01*
X48713D01*
Y-141067D01*
D02*
G37*
G36*
X50590Y-142162D02*
Y-142240D01*
Y-142319D01*
X50434D01*
Y-142240D01*
X50356D01*
Y-142162D01*
X50434D01*
Y-142084D01*
X50590D01*
Y-142162D01*
D02*
G37*
G36*
X47619Y-142397D02*
Y-142475D01*
X47540D01*
Y-142397D01*
Y-142319D01*
X47619D01*
Y-142397D01*
D02*
G37*
G36*
X51294Y-142553D02*
Y-142631D01*
X51216D01*
Y-142710D01*
X51138D01*
Y-142631D01*
Y-142553D01*
Y-142475D01*
X51294D01*
Y-142553D01*
D02*
G37*
G36*
X49104D02*
Y-142631D01*
X48948D01*
Y-142710D01*
X48870D01*
Y-142631D01*
Y-142553D01*
X48948D01*
Y-142475D01*
X49104D01*
Y-142553D01*
D02*
G37*
G36*
X48870Y-142788D02*
Y-142866D01*
X48713D01*
Y-142788D01*
Y-142710D01*
X48870D01*
Y-142788D01*
D02*
G37*
G36*
X49652Y-142866D02*
Y-142944D01*
Y-143022D01*
X49495D01*
Y-142944D01*
Y-142866D01*
X49574D01*
Y-142788D01*
X49652D01*
Y-142866D01*
D02*
G37*
G36*
X50669Y-142710D02*
X50747D01*
Y-142788D01*
X50825D01*
Y-142866D01*
X50981D01*
Y-142944D01*
Y-143022D01*
X50825D01*
Y-143101D01*
X50747D01*
Y-143022D01*
Y-142944D01*
Y-142866D01*
X50590D01*
Y-142788D01*
Y-142710D01*
Y-142631D01*
X50669D01*
Y-142710D01*
D02*
G37*
G36*
X68968Y-143101D02*
X69046D01*
Y-143179D01*
X68812D01*
Y-143101D01*
X68733D01*
Y-143022D01*
X68968D01*
Y-143101D01*
D02*
G37*
G36*
X68264Y-139190D02*
Y-139269D01*
X68186D01*
Y-139347D01*
X68029D01*
Y-139425D01*
Y-139503D01*
Y-139582D01*
Y-139660D01*
X67873D01*
Y-139738D01*
Y-139816D01*
Y-139894D01*
Y-139972D01*
Y-140051D01*
Y-140129D01*
Y-140207D01*
Y-140285D01*
Y-140364D01*
Y-140442D01*
Y-140520D01*
Y-140598D01*
X67717D01*
Y-140676D01*
Y-140754D01*
Y-140833D01*
Y-140911D01*
Y-140989D01*
Y-141067D01*
Y-141146D01*
Y-141224D01*
Y-141302D01*
Y-141380D01*
Y-141458D01*
Y-141537D01*
Y-141615D01*
Y-141693D01*
Y-141771D01*
X68264D01*
Y-141849D01*
Y-141928D01*
X68655D01*
Y-142006D01*
Y-142084D01*
X68733D01*
Y-142162D01*
X68812D01*
Y-142240D01*
X68890D01*
Y-142319D01*
X68968D01*
Y-142397D01*
Y-142475D01*
X68577D01*
Y-142553D01*
Y-142631D01*
Y-142710D01*
Y-142788D01*
Y-142866D01*
X68655D01*
Y-142944D01*
Y-143022D01*
X68499D01*
Y-143101D01*
X68420D01*
Y-143179D01*
X68342D01*
Y-143257D01*
X68264D01*
Y-143335D01*
Y-143413D01*
X67169D01*
Y-143492D01*
Y-143570D01*
X67013D01*
Y-143648D01*
X66935D01*
Y-143726D01*
X66778D01*
Y-143648D01*
Y-143570D01*
Y-143492D01*
Y-143413D01*
X66622D01*
Y-143335D01*
X66544D01*
Y-143257D01*
X66622D01*
Y-143179D01*
Y-143101D01*
Y-143022D01*
X66387D01*
Y-142944D01*
Y-142866D01*
Y-142788D01*
Y-142710D01*
X66622D01*
Y-142631D01*
Y-142553D01*
Y-142475D01*
X66544D01*
Y-142397D01*
Y-142319D01*
X66700D01*
Y-142240D01*
Y-142162D01*
X66856D01*
Y-142084D01*
X66935D01*
Y-142006D01*
Y-141928D01*
X67247D01*
Y-141849D01*
X67326D01*
Y-141771D01*
X67482D01*
Y-141693D01*
Y-141615D01*
Y-141537D01*
Y-141458D01*
Y-141380D01*
Y-141302D01*
Y-141224D01*
Y-141146D01*
Y-141067D01*
Y-140989D01*
Y-140911D01*
Y-140833D01*
Y-140754D01*
X67560D01*
Y-140676D01*
Y-140598D01*
Y-140520D01*
Y-140442D01*
Y-140364D01*
Y-140285D01*
Y-140207D01*
Y-140129D01*
Y-140051D01*
Y-139972D01*
Y-139894D01*
Y-139816D01*
Y-139738D01*
Y-139660D01*
Y-139582D01*
Y-139503D01*
Y-139425D01*
Y-139347D01*
X67482D01*
Y-139269D01*
Y-139190D01*
X67560D01*
Y-139112D01*
X68264D01*
Y-139190D01*
D02*
G37*
G36*
X50043Y-143648D02*
Y-143726D01*
Y-143804D01*
X49808D01*
Y-143726D01*
Y-143648D01*
X49965D01*
Y-143570D01*
X50043D01*
Y-143648D01*
D02*
G37*
G36*
X46446Y-143726D02*
Y-143804D01*
Y-143883D01*
Y-143961D01*
X46289D01*
Y-143883D01*
Y-143804D01*
Y-143726D01*
Y-143648D01*
X46446D01*
Y-143726D01*
D02*
G37*
G36*
X65292Y-142788D02*
Y-142866D01*
X65683D01*
Y-142944D01*
Y-143022D01*
X65840D01*
Y-143101D01*
Y-143179D01*
X65918D01*
Y-143257D01*
X66074D01*
Y-143335D01*
Y-143413D01*
X65840D01*
Y-143492D01*
Y-143570D01*
Y-143648D01*
Y-143726D01*
Y-143804D01*
Y-143883D01*
Y-143961D01*
X65527D01*
Y-144039D01*
X65449D01*
Y-144117D01*
X64979D01*
Y-144195D01*
X64901D01*
Y-144274D01*
Y-144352D01*
X64745D01*
Y-144430D01*
Y-144508D01*
X64588D01*
Y-144586D01*
X64510D01*
Y-144665D01*
X64432D01*
Y-144743D01*
X64354D01*
Y-144821D01*
Y-144899D01*
X64197D01*
Y-144977D01*
Y-145056D01*
X64041D01*
Y-145134D01*
X63963D01*
Y-145056D01*
Y-144977D01*
Y-144899D01*
X63806D01*
Y-144821D01*
X63728D01*
Y-144743D01*
Y-144665D01*
X63572D01*
Y-144586D01*
Y-144508D01*
X63650D01*
Y-144430D01*
Y-144352D01*
Y-144274D01*
Y-144195D01*
Y-144117D01*
Y-144039D01*
Y-143961D01*
Y-143883D01*
Y-143804D01*
Y-143726D01*
Y-143648D01*
Y-143570D01*
X63572D01*
Y-143492D01*
Y-143413D01*
X63728D01*
Y-143335D01*
X63806D01*
Y-143257D01*
X63885D01*
Y-143179D01*
X63963D01*
Y-143101D01*
Y-143022D01*
X64119D01*
Y-142944D01*
Y-142866D01*
X64510D01*
Y-142788D01*
Y-142710D01*
X65292D01*
Y-142788D01*
D02*
G37*
G36*
X71392Y-143492D02*
X71470D01*
Y-143570D01*
Y-143648D01*
X71627D01*
Y-143726D01*
Y-143804D01*
X71783D01*
Y-143883D01*
Y-143961D01*
X71940D01*
Y-144039D01*
Y-144117D01*
Y-144195D01*
Y-144274D01*
Y-144352D01*
X72174D01*
Y-144430D01*
Y-144508D01*
Y-144586D01*
X72096D01*
Y-144665D01*
Y-144743D01*
Y-144821D01*
Y-144899D01*
Y-144977D01*
Y-145056D01*
X72174D01*
Y-145134D01*
Y-145212D01*
X72018D01*
Y-145290D01*
X71940D01*
Y-145369D01*
Y-145447D01*
Y-145525D01*
Y-145603D01*
X71861D01*
Y-145681D01*
X71783D01*
Y-145759D01*
Y-145838D01*
X71627D01*
Y-145916D01*
Y-145994D01*
X71236D01*
Y-146072D01*
Y-146151D01*
X70610D01*
Y-146072D01*
Y-145994D01*
X70141D01*
Y-145916D01*
X70063D01*
Y-145838D01*
X69750D01*
Y-145759D01*
Y-145681D01*
X69672D01*
Y-145603D01*
X69359D01*
Y-145525D01*
Y-145447D01*
X69203D01*
Y-145369D01*
X69124D01*
Y-145290D01*
X69046D01*
Y-145212D01*
X68968D01*
Y-145134D01*
Y-145056D01*
X68812D01*
Y-144977D01*
Y-144899D01*
Y-144821D01*
Y-144743D01*
Y-144665D01*
X68655D01*
Y-144586D01*
Y-144508D01*
Y-144430D01*
Y-144352D01*
Y-144274D01*
Y-144195D01*
X68812D01*
Y-144117D01*
Y-144039D01*
Y-143961D01*
Y-143883D01*
Y-143804D01*
X68968D01*
Y-143726D01*
Y-143648D01*
X69437D01*
Y-143570D01*
X69515D01*
Y-143492D01*
X69594D01*
Y-143413D01*
X71392D01*
Y-143492D01*
D02*
G37*
G36*
X50199Y-144977D02*
Y-145056D01*
Y-145134D01*
Y-145212D01*
Y-145290D01*
Y-145369D01*
Y-145447D01*
Y-145525D01*
Y-145603D01*
Y-145681D01*
Y-145759D01*
Y-145838D01*
X50356D01*
Y-145916D01*
X50434D01*
Y-145994D01*
Y-146072D01*
X50356D01*
Y-146151D01*
Y-146229D01*
Y-146307D01*
Y-146385D01*
X50199D01*
Y-146463D01*
Y-146542D01*
Y-146620D01*
Y-146698D01*
Y-146776D01*
Y-146854D01*
Y-146932D01*
X49808D01*
Y-146854D01*
Y-146776D01*
X49730D01*
Y-146698D01*
X49652D01*
Y-146620D01*
Y-146542D01*
Y-146463D01*
Y-146385D01*
Y-146307D01*
Y-146229D01*
Y-146151D01*
Y-146072D01*
X49808D01*
Y-145994D01*
X49887D01*
Y-145916D01*
Y-145838D01*
Y-145759D01*
Y-145681D01*
X49808D01*
Y-145603D01*
X49574D01*
Y-145525D01*
X49652D01*
Y-145447D01*
X49887D01*
Y-145369D01*
Y-145290D01*
Y-145212D01*
Y-145134D01*
Y-145056D01*
Y-144977D01*
Y-144899D01*
X50199D01*
Y-144977D01*
D02*
G37*
G36*
X72722Y-146072D02*
Y-146151D01*
X72643D01*
Y-146229D01*
X72487D01*
Y-146307D01*
Y-146385D01*
Y-146463D01*
Y-146542D01*
X72409D01*
Y-146620D01*
X72331D01*
Y-146698D01*
Y-146776D01*
X72174D01*
Y-146854D01*
Y-146932D01*
X71783D01*
Y-147011D01*
Y-147089D01*
X71549D01*
Y-147011D01*
Y-146932D01*
X71236D01*
Y-146854D01*
X71157D01*
Y-146776D01*
Y-146698D01*
X71236D01*
Y-146620D01*
X71705D01*
Y-146542D01*
X71783D01*
Y-146463D01*
Y-146385D01*
X71940D01*
Y-146307D01*
Y-146229D01*
X72096D01*
Y-146151D01*
Y-146072D01*
X72565D01*
Y-145994D01*
X72722D01*
Y-146072D01*
D02*
G37*
G36*
X49652Y-147245D02*
Y-147324D01*
X49574D01*
Y-147245D01*
Y-147167D01*
X49652D01*
Y-147245D01*
D02*
G37*
G36*
X67482Y-144274D02*
Y-144352D01*
X67717D01*
Y-144430D01*
Y-144508D01*
X67638D01*
Y-144586D01*
Y-144665D01*
Y-144743D01*
Y-144821D01*
Y-144899D01*
Y-144977D01*
Y-145056D01*
Y-145134D01*
Y-145212D01*
Y-145290D01*
Y-145369D01*
Y-145447D01*
Y-145525D01*
Y-145603D01*
Y-145681D01*
X67717D01*
Y-145759D01*
X67638D01*
Y-145838D01*
X67482D01*
Y-145916D01*
Y-145994D01*
Y-146072D01*
Y-146151D01*
X67326D01*
Y-146229D01*
Y-146307D01*
Y-146385D01*
Y-146463D01*
Y-146542D01*
X67169D01*
Y-146620D01*
Y-146698D01*
X67091D01*
Y-146776D01*
X67013D01*
Y-146854D01*
X66935D01*
Y-146932D01*
X66778D01*
Y-147011D01*
Y-147089D01*
X66465D01*
Y-147167D01*
X66387D01*
Y-147245D01*
Y-147324D01*
X65840D01*
Y-147402D01*
Y-147480D01*
X65605D01*
Y-147402D01*
Y-147324D01*
X65292D01*
Y-147245D01*
X65214D01*
Y-147167D01*
Y-147089D01*
X65058D01*
Y-147011D01*
Y-146932D01*
X64901D01*
Y-146854D01*
Y-146776D01*
X64745D01*
Y-146698D01*
Y-146620D01*
Y-146542D01*
Y-146463D01*
Y-146385D01*
X64510D01*
Y-146307D01*
Y-146229D01*
Y-146151D01*
X64588D01*
Y-146072D01*
Y-145994D01*
Y-145916D01*
Y-145838D01*
Y-145759D01*
Y-145681D01*
Y-145603D01*
Y-145525D01*
X64510D01*
Y-145447D01*
Y-145369D01*
Y-145290D01*
X64667D01*
Y-145212D01*
Y-145134D01*
X64823D01*
Y-145056D01*
X64901D01*
Y-144977D01*
Y-144899D01*
X65058D01*
Y-144821D01*
Y-144743D01*
X65449D01*
Y-144665D01*
Y-144586D01*
X65605D01*
Y-144508D01*
X65762D01*
Y-144430D01*
X65840D01*
Y-144352D01*
X66544D01*
Y-144274D01*
Y-144195D01*
X67482D01*
Y-144274D01*
D02*
G37*
G36*
X45585Y-147636D02*
Y-147715D01*
Y-147793D01*
Y-147871D01*
Y-147949D01*
Y-148027D01*
X45351D01*
Y-147949D01*
Y-147871D01*
Y-147793D01*
Y-147715D01*
X45507D01*
Y-147636D01*
Y-147558D01*
X45585D01*
Y-147636D01*
D02*
G37*
G36*
X68812Y-145759D02*
Y-145838D01*
X68968D01*
Y-145916D01*
X69046D01*
Y-145994D01*
X69124D01*
Y-146072D01*
X69203D01*
Y-146151D01*
X69281D01*
Y-146229D01*
X69594D01*
Y-146307D01*
Y-146385D01*
X69906D01*
Y-146463D01*
X69985D01*
Y-146542D01*
Y-146620D01*
X70688D01*
Y-146698D01*
X70610D01*
Y-146776D01*
X70297D01*
Y-146854D01*
Y-146932D01*
Y-147011D01*
Y-147089D01*
Y-147167D01*
X71079D01*
Y-147245D01*
Y-147324D01*
X71392D01*
Y-147402D01*
X71470D01*
Y-147480D01*
Y-147558D01*
X71627D01*
Y-147636D01*
Y-147715D01*
X71783D01*
Y-147793D01*
Y-147871D01*
X71236D01*
Y-147793D01*
Y-147715D01*
Y-147636D01*
Y-147558D01*
Y-147480D01*
X70845D01*
Y-147558D01*
Y-147636D01*
Y-147715D01*
Y-147793D01*
Y-147871D01*
X71001D01*
Y-147949D01*
X71079D01*
Y-148027D01*
X71001D01*
Y-148106D01*
Y-148184D01*
Y-148262D01*
X71392D01*
Y-148340D01*
Y-148418D01*
X71549D01*
Y-148497D01*
X71627D01*
Y-148575D01*
X71549D01*
Y-148653D01*
Y-148731D01*
Y-148809D01*
X71940D01*
Y-148888D01*
Y-148966D01*
X71783D01*
Y-149044D01*
Y-149122D01*
Y-149200D01*
Y-149279D01*
Y-149357D01*
X71627D01*
Y-149435D01*
Y-149513D01*
X71470D01*
Y-149591D01*
X71392D01*
Y-149670D01*
Y-149748D01*
X71001D01*
Y-149826D01*
Y-149904D01*
X70141D01*
Y-149826D01*
X70063D01*
Y-149748D01*
X69594D01*
Y-149670D01*
Y-149591D01*
Y-149513D01*
Y-149435D01*
Y-149357D01*
X69750D01*
Y-149279D01*
Y-149200D01*
Y-149122D01*
Y-149044D01*
Y-148966D01*
X69359D01*
Y-148888D01*
Y-148809D01*
Y-148731D01*
Y-148653D01*
Y-148575D01*
X68890D01*
Y-148653D01*
X68812D01*
Y-148731D01*
Y-148809D01*
X68655D01*
Y-148888D01*
Y-148966D01*
X68499D01*
Y-149044D01*
X68420D01*
Y-149122D01*
X68342D01*
Y-149200D01*
X68264D01*
Y-149279D01*
Y-149357D01*
X67169D01*
Y-149279D01*
Y-149200D01*
Y-149122D01*
X66935D01*
Y-149044D01*
Y-148966D01*
X66622D01*
Y-149044D01*
X66544D01*
Y-149122D01*
Y-149200D01*
Y-149279D01*
Y-149357D01*
X66700D01*
Y-149435D01*
X66778D01*
Y-149513D01*
Y-149591D01*
X67091D01*
Y-149670D01*
Y-149748D01*
X68420D01*
Y-149670D01*
Y-149591D01*
X68577D01*
Y-149513D01*
Y-149435D01*
X68655D01*
Y-149357D01*
X69203D01*
Y-149435D01*
Y-149513D01*
X69046D01*
Y-149591D01*
X68968D01*
Y-149670D01*
Y-149748D01*
Y-149826D01*
Y-149904D01*
X68812D01*
Y-149982D01*
Y-150061D01*
Y-150139D01*
Y-150217D01*
Y-150295D01*
Y-150373D01*
Y-150452D01*
Y-150530D01*
X68968D01*
Y-150608D01*
Y-150686D01*
X68812D01*
Y-150765D01*
Y-150843D01*
Y-150921D01*
Y-150999D01*
Y-151077D01*
Y-151155D01*
Y-151234D01*
X69124D01*
Y-151312D01*
Y-151390D01*
X69203D01*
Y-151468D01*
Y-151547D01*
X69046D01*
Y-151625D01*
X68968D01*
Y-151703D01*
Y-151781D01*
X68812D01*
Y-151859D01*
Y-151937D01*
Y-152016D01*
Y-152094D01*
Y-152172D01*
X69124D01*
Y-152094D01*
X69203D01*
Y-152016D01*
X69359D01*
Y-151937D01*
Y-151859D01*
Y-151781D01*
Y-151703D01*
Y-151625D01*
X69594D01*
Y-151547D01*
Y-151468D01*
Y-151390D01*
Y-151312D01*
Y-151234D01*
Y-151155D01*
Y-151077D01*
Y-150999D01*
Y-150921D01*
Y-150843D01*
Y-150765D01*
Y-150686D01*
X69515D01*
Y-150608D01*
X69359D01*
Y-150530D01*
Y-150452D01*
Y-150373D01*
Y-150295D01*
Y-150217D01*
Y-150139D01*
Y-150061D01*
Y-149982D01*
Y-149904D01*
Y-149826D01*
Y-149748D01*
X69515D01*
Y-149826D01*
Y-149904D01*
Y-149982D01*
Y-150061D01*
Y-150139D01*
X69750D01*
Y-150217D01*
Y-150295D01*
X70297D01*
Y-150373D01*
Y-150452D01*
X70376D01*
Y-150530D01*
X70532D01*
Y-150608D01*
Y-150686D01*
X70688D01*
Y-150765D01*
Y-150843D01*
X70454D01*
Y-150921D01*
Y-150999D01*
Y-151077D01*
Y-151155D01*
Y-151234D01*
Y-151312D01*
Y-151390D01*
Y-151468D01*
Y-151547D01*
Y-151625D01*
Y-151703D01*
Y-151781D01*
X70845D01*
Y-151859D01*
Y-151937D01*
Y-152016D01*
Y-152094D01*
Y-152172D01*
X70610D01*
Y-152250D01*
Y-152329D01*
X70688D01*
Y-152407D01*
Y-152485D01*
X70532D01*
Y-152563D01*
Y-152641D01*
X70454D01*
Y-152719D01*
X70141D01*
Y-152798D01*
Y-152876D01*
X69906D01*
Y-152954D01*
Y-153032D01*
Y-153111D01*
Y-153189D01*
Y-153267D01*
X70297D01*
Y-153189D01*
Y-153111D01*
X70610D01*
Y-153032D01*
X70688D01*
Y-152954D01*
X71079D01*
Y-153032D01*
X71001D01*
Y-153111D01*
X70845D01*
Y-153189D01*
Y-153267D01*
Y-153345D01*
Y-153423D01*
Y-153501D01*
Y-153580D01*
Y-153658D01*
X71157D01*
Y-153580D01*
X71236D01*
Y-153658D01*
Y-153736D01*
Y-153814D01*
Y-153893D01*
Y-153971D01*
X71001D01*
Y-154049D01*
Y-154127D01*
Y-154205D01*
Y-154284D01*
Y-154362D01*
X70688D01*
Y-154440D01*
Y-154518D01*
X69906D01*
Y-154440D01*
Y-154362D01*
X69515D01*
Y-154284D01*
Y-154205D01*
X69359D01*
Y-154127D01*
Y-154049D01*
Y-153971D01*
Y-153893D01*
Y-153814D01*
Y-153736D01*
Y-153658D01*
Y-153580D01*
Y-153501D01*
Y-153423D01*
Y-153345D01*
Y-153267D01*
Y-153189D01*
Y-153111D01*
Y-153032D01*
Y-152954D01*
Y-152876D01*
X68968D01*
Y-152798D01*
Y-152719D01*
X68812D01*
Y-152641D01*
Y-152563D01*
X68733D01*
Y-152485D01*
X68577D01*
Y-152407D01*
Y-152329D01*
X68420D01*
Y-152250D01*
Y-152172D01*
X67873D01*
Y-152094D01*
Y-152016D01*
X67795D01*
Y-151937D01*
X67482D01*
Y-151859D01*
Y-151781D01*
X67326D01*
Y-151703D01*
Y-151625D01*
Y-151547D01*
Y-151468D01*
Y-151390D01*
X67169D01*
Y-151312D01*
Y-151234D01*
Y-151155D01*
Y-151077D01*
X67326D01*
Y-150999D01*
Y-150921D01*
Y-150843D01*
Y-150765D01*
Y-150686D01*
Y-150608D01*
Y-150530D01*
Y-150452D01*
Y-150373D01*
Y-150295D01*
X66935D01*
Y-150217D01*
Y-150139D01*
X66856D01*
Y-150061D01*
X66778D01*
Y-149982D01*
X66700D01*
Y-149904D01*
X66544D01*
Y-149826D01*
Y-149748D01*
X66622D01*
Y-149670D01*
Y-149591D01*
X66544D01*
Y-149513D01*
X66387D01*
Y-149435D01*
Y-149357D01*
Y-149279D01*
Y-149200D01*
Y-149122D01*
Y-149044D01*
Y-148966D01*
Y-148888D01*
Y-148809D01*
X66778D01*
Y-148731D01*
Y-148653D01*
Y-148575D01*
Y-148497D01*
Y-148418D01*
X66700D01*
Y-148340D01*
X66778D01*
Y-148262D01*
X66935D01*
Y-148184D01*
Y-148106D01*
X67091D01*
Y-148027D01*
Y-147949D01*
X67169D01*
Y-147871D01*
X67326D01*
Y-147949D01*
Y-148027D01*
Y-148106D01*
Y-148184D01*
Y-148262D01*
X67638D01*
Y-148184D01*
X67717D01*
Y-148106D01*
X67873D01*
Y-148027D01*
Y-147949D01*
Y-147871D01*
X68108D01*
Y-147793D01*
Y-147715D01*
Y-147636D01*
Y-147558D01*
Y-147480D01*
X67717D01*
Y-147558D01*
Y-147636D01*
X67560D01*
Y-147715D01*
X67482D01*
Y-147793D01*
Y-147871D01*
X67326D01*
Y-147793D01*
Y-147715D01*
Y-147636D01*
Y-147558D01*
Y-147480D01*
Y-147402D01*
Y-147324D01*
Y-147245D01*
Y-147167D01*
X67482D01*
Y-147089D01*
Y-147011D01*
X67560D01*
Y-146932D01*
X67717D01*
Y-146854D01*
Y-146776D01*
Y-146698D01*
Y-146620D01*
X67795D01*
Y-146542D01*
X67873D01*
Y-146463D01*
Y-146385D01*
X68812D01*
Y-146463D01*
Y-146542D01*
Y-146620D01*
X68968D01*
Y-146698D01*
X69046D01*
Y-146776D01*
X69203D01*
Y-146854D01*
Y-146932D01*
X69046D01*
Y-147011D01*
Y-147089D01*
X68812D01*
Y-147167D01*
Y-147245D01*
Y-147324D01*
Y-147402D01*
Y-147480D01*
Y-147558D01*
X69906D01*
Y-147636D01*
Y-147715D01*
Y-147793D01*
Y-147871D01*
X70063D01*
Y-147949D01*
X70141D01*
Y-148027D01*
Y-148106D01*
X70532D01*
Y-148027D01*
Y-147949D01*
Y-147871D01*
Y-147793D01*
Y-147715D01*
Y-147636D01*
X70297D01*
Y-147558D01*
Y-147480D01*
X69906D01*
Y-147402D01*
Y-147324D01*
Y-147245D01*
Y-147167D01*
Y-147089D01*
X69515D01*
Y-147011D01*
X69594D01*
Y-146932D01*
Y-146854D01*
Y-146776D01*
Y-146698D01*
Y-146620D01*
Y-146542D01*
X69359D01*
Y-146463D01*
Y-146385D01*
X69203D01*
Y-146307D01*
Y-146229D01*
X69124D01*
Y-146151D01*
X68812D01*
Y-146072D01*
Y-145994D01*
X68655D01*
Y-145916D01*
Y-145838D01*
Y-145759D01*
X68577D01*
Y-145681D01*
X68812D01*
Y-145759D01*
D02*
G37*
G36*
X64197Y-146932D02*
X64354D01*
Y-147011D01*
Y-147089D01*
X64432D01*
Y-147167D01*
X64510D01*
Y-147245D01*
X64588D01*
Y-147324D01*
X64745D01*
Y-147402D01*
Y-147480D01*
X64823D01*
Y-147558D01*
X64901D01*
Y-147636D01*
X64979D01*
Y-147715D01*
X65292D01*
Y-147793D01*
Y-147871D01*
X66544D01*
Y-147949D01*
Y-148027D01*
X66309D01*
Y-148106D01*
X66231D01*
Y-148184D01*
X66153D01*
Y-148262D01*
X64901D01*
Y-148184D01*
Y-148106D01*
X64823D01*
Y-148027D01*
X64667D01*
Y-147949D01*
Y-147871D01*
X64510D01*
Y-147793D01*
Y-147715D01*
Y-147636D01*
X64588D01*
Y-147558D01*
X64510D01*
Y-147480D01*
X64354D01*
Y-147402D01*
Y-147324D01*
Y-147245D01*
Y-147167D01*
X64276D01*
Y-147089D01*
X64119D01*
Y-147011D01*
Y-146932D01*
Y-146854D01*
X64197D01*
Y-146932D01*
D02*
G37*
G36*
X50199Y-147949D02*
Y-148027D01*
Y-148106D01*
Y-148184D01*
Y-148262D01*
X50043D01*
Y-148184D01*
Y-148106D01*
Y-148027D01*
X49965D01*
Y-147949D01*
Y-147871D01*
X50199D01*
Y-147949D01*
D02*
G37*
G36*
X45742Y-148184D02*
X45820D01*
Y-148262D01*
X45898D01*
Y-148340D01*
Y-148418D01*
Y-148497D01*
X45976D01*
Y-148575D01*
X45742D01*
Y-148497D01*
Y-148418D01*
X45585D01*
Y-148340D01*
Y-148262D01*
Y-148184D01*
Y-148106D01*
X45742D01*
Y-148184D01*
D02*
G37*
G36*
X48010Y-148340D02*
Y-148418D01*
X48166D01*
Y-148497D01*
Y-148575D01*
Y-148653D01*
X48088D01*
Y-148575D01*
X47775D01*
Y-148497D01*
Y-148418D01*
Y-148340D01*
Y-148262D01*
X48010D01*
Y-148340D01*
D02*
G37*
G36*
X48713D02*
Y-148418D01*
Y-148497D01*
Y-148575D01*
Y-148653D01*
Y-148731D01*
Y-148809D01*
X48557D01*
Y-148731D01*
Y-148653D01*
Y-148575D01*
Y-148497D01*
Y-148418D01*
Y-148340D01*
Y-148262D01*
X48713D01*
Y-148340D01*
D02*
G37*
G36*
X47775Y-148888D02*
Y-148966D01*
X47619D01*
Y-148888D01*
Y-148809D01*
X47775D01*
Y-148888D01*
D02*
G37*
G36*
X82810Y-149513D02*
X82888D01*
Y-149591D01*
X82966D01*
Y-149670D01*
Y-149748D01*
Y-149826D01*
X82888D01*
Y-149748D01*
X82731D01*
Y-149670D01*
Y-149591D01*
Y-149513D01*
Y-149435D01*
X82810D01*
Y-149513D01*
D02*
G37*
G36*
X46446Y-149670D02*
Y-149748D01*
Y-149826D01*
Y-149904D01*
Y-149982D01*
Y-150061D01*
Y-150139D01*
X46524D01*
Y-150217D01*
X46446D01*
Y-150295D01*
X46289D01*
Y-150217D01*
Y-150139D01*
Y-150061D01*
Y-149982D01*
Y-149904D01*
Y-149826D01*
Y-149748D01*
Y-149670D01*
Y-149591D01*
X46446D01*
Y-149670D01*
D02*
G37*
G36*
X47071Y-150765D02*
Y-150843D01*
X46993D01*
Y-150765D01*
Y-150686D01*
X47071D01*
Y-150765D01*
D02*
G37*
G36*
X45742Y-150373D02*
Y-150452D01*
Y-150530D01*
Y-150608D01*
Y-150686D01*
Y-150765D01*
Y-150843D01*
X45585D01*
Y-150765D01*
Y-150686D01*
Y-150608D01*
Y-150530D01*
Y-150452D01*
Y-150373D01*
Y-150295D01*
X45742D01*
Y-150373D01*
D02*
G37*
G36*
X49730Y-150843D02*
X49808D01*
Y-150921D01*
X49887D01*
Y-150999D01*
X49652D01*
Y-150921D01*
Y-150843D01*
Y-150765D01*
X49730D01*
Y-150843D01*
D02*
G37*
G36*
X71627Y-150061D02*
X71705D01*
Y-150139D01*
X71783D01*
Y-150217D01*
Y-150295D01*
X71549D01*
Y-150373D01*
Y-150452D01*
Y-150530D01*
Y-150608D01*
Y-150686D01*
X71783D01*
Y-150765D01*
Y-150843D01*
Y-150921D01*
Y-150999D01*
Y-151077D01*
Y-151155D01*
Y-151234D01*
X71627D01*
Y-151312D01*
Y-151390D01*
X71392D01*
Y-151312D01*
Y-151234D01*
Y-151155D01*
Y-151077D01*
Y-150999D01*
X71236D01*
Y-150921D01*
Y-150843D01*
Y-150765D01*
Y-150686D01*
Y-150608D01*
Y-150530D01*
Y-150452D01*
X71001D01*
Y-150373D01*
Y-150295D01*
X71079D01*
Y-150217D01*
Y-150139D01*
X71549D01*
Y-150061D01*
Y-149982D01*
X71627D01*
Y-150061D01*
D02*
G37*
G36*
X49652Y-151155D02*
Y-151234D01*
Y-151312D01*
Y-151390D01*
Y-151468D01*
Y-151547D01*
Y-151625D01*
X49887D01*
Y-151703D01*
X49808D01*
Y-151781D01*
X49495D01*
Y-151703D01*
Y-151625D01*
Y-151547D01*
Y-151468D01*
Y-151390D01*
X49261D01*
Y-151312D01*
Y-151234D01*
X49417D01*
Y-151155D01*
Y-151077D01*
X49652D01*
Y-151155D01*
D02*
G37*
G36*
X48244Y-152016D02*
X48322D01*
Y-152094D01*
Y-152172D01*
X48166D01*
Y-152094D01*
Y-152016D01*
Y-151937D01*
X48244D01*
Y-152016D01*
D02*
G37*
G36*
X48010Y-152250D02*
Y-152329D01*
X47775D01*
Y-152250D01*
Y-152172D01*
X48010D01*
Y-152250D01*
D02*
G37*
G36*
X48557Y-152641D02*
Y-152719D01*
Y-152798D01*
Y-152876D01*
X48322D01*
Y-152798D01*
Y-152719D01*
Y-152641D01*
Y-152563D01*
X48557D01*
Y-152641D01*
D02*
G37*
G36*
X51685Y-153189D02*
Y-153267D01*
X51060D01*
Y-153189D01*
X51138D01*
Y-153111D01*
X51685D01*
Y-153189D01*
D02*
G37*
G36*
X49104Y-153032D02*
Y-153111D01*
X49495D01*
Y-153189D01*
Y-153267D01*
X49652D01*
Y-153345D01*
Y-153423D01*
X49417D01*
Y-153501D01*
Y-153580D01*
Y-153658D01*
X49495D01*
Y-153736D01*
Y-153814D01*
X49261D01*
Y-153736D01*
Y-153658D01*
X49104D01*
Y-153580D01*
Y-153501D01*
X49026D01*
Y-153423D01*
X48713D01*
Y-153345D01*
Y-153267D01*
X48557D01*
Y-153189D01*
Y-153111D01*
Y-153032D01*
Y-152954D01*
X49104D01*
Y-153032D01*
D02*
G37*
G36*
X46289Y-153580D02*
Y-153658D01*
Y-153736D01*
Y-153814D01*
X46367D01*
Y-153893D01*
X46211D01*
Y-153814D01*
X46133D01*
Y-153736D01*
Y-153658D01*
Y-153580D01*
Y-153501D01*
X46289D01*
Y-153580D01*
D02*
G37*
G36*
X50981Y-154675D02*
Y-154753D01*
X50903D01*
Y-154675D01*
Y-154596D01*
X50981D01*
Y-154675D01*
D02*
G37*
G36*
X53562Y-155613D02*
Y-155691D01*
X53406D01*
Y-155769D01*
X53327D01*
Y-155691D01*
X53171D01*
Y-155613D01*
Y-155535D01*
X53562D01*
Y-155613D01*
D02*
G37*
G36*
X50825Y-155691D02*
X51138D01*
Y-155769D01*
Y-155848D01*
X50981D01*
Y-155926D01*
X50903D01*
Y-155848D01*
X50747D01*
Y-155769D01*
Y-155691D01*
Y-155613D01*
X50825D01*
Y-155691D01*
D02*
G37*
G36*
X53014Y-156004D02*
Y-156082D01*
X52936D01*
Y-156004D01*
Y-155926D01*
X53014D01*
Y-156004D01*
D02*
G37*
G36*
X50981Y-156317D02*
Y-156395D01*
X50903D01*
Y-156317D01*
Y-156239D01*
X50981D01*
Y-156317D01*
D02*
G37*
G36*
X48010Y-156551D02*
Y-156630D01*
X48557D01*
Y-156708D01*
Y-156786D01*
X48635D01*
Y-156864D01*
X48713D01*
Y-156942D01*
Y-157021D01*
Y-157099D01*
Y-157177D01*
X48557D01*
Y-157255D01*
X48479D01*
Y-157177D01*
X48322D01*
Y-157099D01*
Y-157021D01*
X48244D01*
Y-156942D01*
X47931D01*
Y-156864D01*
Y-156786D01*
X47775D01*
Y-156708D01*
Y-156630D01*
Y-156551D01*
Y-156473D01*
X48010D01*
Y-156551D01*
D02*
G37*
G36*
X47149Y-157021D02*
X47228D01*
Y-157099D01*
Y-157177D01*
Y-157255D01*
X47149D01*
Y-157177D01*
X47071D01*
Y-157099D01*
Y-157021D01*
Y-156942D01*
X47149D01*
Y-157021D01*
D02*
G37*
G36*
X57472Y-157255D02*
Y-157334D01*
X57394D01*
Y-157255D01*
Y-157177D01*
X57472D01*
Y-157255D01*
D02*
G37*
G36*
X57159D02*
Y-157334D01*
X57081D01*
Y-157255D01*
X57003D01*
Y-157177D01*
X57159D01*
Y-157255D01*
D02*
G37*
G36*
X53014Y-157099D02*
X53093D01*
Y-157177D01*
X53171D01*
Y-157255D01*
X53249D01*
Y-157334D01*
X53171D01*
Y-157255D01*
X53093D01*
Y-157177D01*
X53014D01*
Y-157099D01*
X52936D01*
Y-157021D01*
X53014D01*
Y-157099D01*
D02*
G37*
G36*
X54188Y-157255D02*
Y-157334D01*
X53953D01*
Y-157412D01*
X53875D01*
Y-157334D01*
Y-157255D01*
X53953D01*
Y-157177D01*
X54188D01*
Y-157255D01*
D02*
G37*
G36*
X56143Y-157490D02*
Y-157568D01*
X55986D01*
Y-157490D01*
Y-157412D01*
X56143D01*
Y-157490D01*
D02*
G37*
G36*
X51685Y-157099D02*
X51763D01*
Y-157177D01*
X51920D01*
Y-157255D01*
Y-157334D01*
X51685D01*
Y-157412D01*
Y-157490D01*
Y-157568D01*
X51529D01*
Y-157490D01*
Y-157412D01*
Y-157334D01*
Y-157255D01*
Y-157177D01*
Y-157099D01*
X51451D01*
Y-157021D01*
X51685D01*
Y-157099D01*
D02*
G37*
G36*
X57707Y-157568D02*
X57863D01*
Y-157646D01*
Y-157724D01*
X57629D01*
Y-157646D01*
Y-157568D01*
Y-157490D01*
X57707D01*
Y-157568D01*
D02*
G37*
G36*
X51841Y-157803D02*
X51920D01*
Y-157881D01*
X51685D01*
Y-157803D01*
Y-157724D01*
X51841D01*
Y-157803D01*
D02*
G37*
G36*
X53953Y-157959D02*
Y-158037D01*
X53875D01*
Y-157959D01*
Y-157881D01*
X53953D01*
Y-157959D01*
D02*
G37*
G36*
X52467Y-158037D02*
Y-158115D01*
X52232D01*
Y-158037D01*
X52154D01*
Y-157959D01*
X52467D01*
Y-158037D01*
D02*
G37*
G36*
X50825Y-157724D02*
X51138D01*
Y-157803D01*
Y-157881D01*
X51216D01*
Y-157959D01*
X51372D01*
Y-158037D01*
X51294D01*
Y-158115D01*
X51138D01*
Y-158037D01*
Y-157959D01*
X50981D01*
Y-157881D01*
X50747D01*
Y-157803D01*
Y-157724D01*
Y-157646D01*
X50825D01*
Y-157724D01*
D02*
G37*
G36*
X54266Y-158194D02*
Y-158272D01*
X54109D01*
Y-158194D01*
X54031D01*
Y-158115D01*
X54266D01*
Y-158194D01*
D02*
G37*
G36*
X52623D02*
X52702D01*
Y-158272D01*
X52623D01*
Y-158194D01*
X52545D01*
Y-158115D01*
X52623D01*
Y-158194D01*
D02*
G37*
G36*
X58723D02*
X58802D01*
Y-158272D01*
Y-158350D01*
X58958D01*
Y-158428D01*
Y-158507D01*
X59114D01*
Y-158585D01*
Y-158663D01*
X58411D01*
Y-158741D01*
X58332D01*
Y-158663D01*
X58176D01*
Y-158585D01*
Y-158507D01*
X58098D01*
Y-158428D01*
X58020D01*
Y-158350D01*
X57941D01*
Y-158272D01*
X57785D01*
Y-158194D01*
X57863D01*
Y-158115D01*
X58723D01*
Y-158194D01*
D02*
G37*
G36*
X55752Y-158741D02*
X55830D01*
Y-158819D01*
X55595D01*
Y-158741D01*
X55517D01*
Y-158663D01*
X55752D01*
Y-158741D01*
D02*
G37*
G36*
X54500Y-158585D02*
Y-158663D01*
X54657D01*
Y-158741D01*
X54735D01*
Y-158819D01*
X54500D01*
Y-158741D01*
X54422D01*
Y-158663D01*
X54266D01*
Y-158585D01*
Y-158507D01*
X54500D01*
Y-158585D01*
D02*
G37*
G36*
X52311Y-158976D02*
Y-159054D01*
X52232D01*
Y-158976D01*
Y-158897D01*
X52311D01*
Y-158976D01*
D02*
G37*
G36*
X51294Y-158741D02*
X51372D01*
Y-158819D01*
X51451D01*
Y-158897D01*
X51607D01*
Y-158819D01*
X51685D01*
Y-158897D01*
Y-158976D01*
Y-159054D01*
X51138D01*
Y-158976D01*
Y-158897D01*
X51060D01*
Y-158819D01*
X50903D01*
Y-158741D01*
X50981D01*
Y-158663D01*
X51294D01*
Y-158741D01*
D02*
G37*
G36*
X59114Y-159132D02*
Y-159210D01*
X58880D01*
Y-159132D01*
X58958D01*
Y-159054D01*
X59114D01*
Y-159132D01*
D02*
G37*
G36*
X56925Y-158194D02*
Y-158272D01*
X56846D01*
Y-158350D01*
Y-158428D01*
Y-158507D01*
X57237D01*
Y-158428D01*
X57316D01*
Y-158507D01*
X57629D01*
Y-158585D01*
Y-158663D01*
Y-158741D01*
Y-158819D01*
X57707D01*
Y-158897D01*
X57863D01*
Y-158976D01*
Y-159054D01*
X57316D01*
Y-159132D01*
Y-159210D01*
X56690D01*
Y-159132D01*
Y-159054D01*
X56534D01*
Y-158976D01*
Y-158897D01*
X56455D01*
Y-158819D01*
X56377D01*
Y-158741D01*
X56299D01*
Y-158663D01*
X56143D01*
Y-158585D01*
Y-158507D01*
Y-158428D01*
Y-158350D01*
X56612D01*
Y-158272D01*
X56690D01*
Y-158194D01*
Y-158115D01*
X56925D01*
Y-158194D01*
D02*
G37*
G36*
X52623Y-159132D02*
X52702D01*
Y-159210D01*
X52623D01*
Y-159132D01*
X52545D01*
Y-159054D01*
X52623D01*
Y-159132D01*
D02*
G37*
G36*
X60835D02*
Y-159210D01*
Y-159289D01*
X60757D01*
Y-159367D01*
Y-159445D01*
Y-159523D01*
Y-159601D01*
X60835D01*
Y-159679D01*
X60757D01*
Y-159601D01*
X60209D01*
Y-159679D01*
Y-159758D01*
Y-159836D01*
Y-159914D01*
Y-159992D01*
X60444D01*
Y-160071D01*
Y-160149D01*
Y-160227D01*
Y-160305D01*
X60209D01*
Y-160227D01*
Y-160149D01*
X60053D01*
Y-160071D01*
Y-159992D01*
Y-159914D01*
Y-159836D01*
Y-159758D01*
X59896D01*
Y-159679D01*
X59818D01*
Y-159601D01*
X59505D01*
Y-159523D01*
X59427D01*
Y-159445D01*
X60053D01*
Y-159367D01*
Y-159289D01*
X60287D01*
Y-159367D01*
Y-159445D01*
X60600D01*
Y-159367D01*
Y-159289D01*
Y-159210D01*
Y-159132D01*
Y-159054D01*
X60835D01*
Y-159132D01*
D02*
G37*
G36*
X62086Y-159679D02*
Y-159758D01*
X61851D01*
Y-159679D01*
Y-159601D01*
X62086D01*
Y-159679D01*
D02*
G37*
G36*
X61226Y-159914D02*
Y-159992D01*
X61148D01*
Y-159914D01*
Y-159836D01*
X61226D01*
Y-159914D01*
D02*
G37*
G36*
X57159D02*
Y-159992D01*
X56925D01*
Y-159914D01*
X56846D01*
Y-159836D01*
X57159D01*
Y-159914D01*
D02*
G37*
G36*
X57629Y-159679D02*
Y-159758D01*
Y-159836D01*
Y-159914D01*
Y-159992D01*
Y-160071D01*
X57707D01*
Y-160149D01*
X57237D01*
Y-160071D01*
Y-159992D01*
X57472D01*
Y-159914D01*
Y-159836D01*
Y-159758D01*
Y-159679D01*
Y-159601D01*
X57629D01*
Y-159679D01*
D02*
G37*
G36*
X57863Y-160227D02*
Y-160305D01*
X57785D01*
Y-160227D01*
Y-160149D01*
X57863D01*
Y-160227D01*
D02*
G37*
G36*
X60835Y-160462D02*
Y-160540D01*
X60600D01*
Y-160462D01*
Y-160383D01*
X60835D01*
Y-160462D01*
D02*
G37*
G36*
X61773Y-160540D02*
Y-160618D01*
Y-160696D01*
X61539D01*
Y-160618D01*
Y-160540D01*
X61695D01*
Y-160462D01*
X61773D01*
Y-160540D01*
D02*
G37*
G36*
X59271Y-160774D02*
X59349D01*
Y-160853D01*
Y-160931D01*
X59114D01*
Y-160853D01*
Y-160774D01*
Y-160696D01*
X59271D01*
Y-160774D01*
D02*
G37*
G36*
X62634D02*
X62712D01*
Y-160853D01*
Y-160931D01*
X62477D01*
Y-161009D01*
Y-161087D01*
X62321D01*
Y-161009D01*
Y-160931D01*
Y-160853D01*
X62242D01*
Y-160774D01*
X62555D01*
Y-160696D01*
X62634D01*
Y-160774D01*
D02*
G37*
G36*
X51920Y-161087D02*
X52232D01*
Y-161165D01*
X52311D01*
Y-161244D01*
X51607D01*
Y-161165D01*
X51685D01*
Y-161087D01*
X51841D01*
Y-161009D01*
X51920D01*
Y-161087D01*
D02*
G37*
G36*
X55282Y-161400D02*
Y-161478D01*
X55204D01*
Y-161400D01*
Y-161322D01*
X55282D01*
Y-161400D01*
D02*
G37*
G36*
X53562Y-161947D02*
Y-162026D01*
X53327D01*
Y-161947D01*
Y-161869D01*
X53562D01*
Y-161947D01*
D02*
G37*
G36*
X62477Y-161713D02*
Y-161791D01*
Y-161869D01*
Y-161947D01*
Y-162026D01*
X62321D01*
Y-162104D01*
X62242D01*
Y-162026D01*
X61773D01*
Y-161947D01*
X61695D01*
Y-161869D01*
X62242D01*
Y-161791D01*
Y-161713D01*
X62321D01*
Y-161635D01*
X62477D01*
Y-161713D01*
D02*
G37*
G36*
X54891Y-162104D02*
Y-162182D01*
X54813D01*
Y-162104D01*
Y-162026D01*
X54891D01*
Y-162104D01*
D02*
G37*
G36*
X63259Y-162495D02*
Y-162573D01*
X63024D01*
Y-162495D01*
Y-162417D01*
X63259D01*
Y-162495D01*
D02*
G37*
G36*
X63806Y-162651D02*
Y-162729D01*
X63415D01*
Y-162651D01*
X63337D01*
Y-162573D01*
X63806D01*
Y-162651D01*
D02*
G37*
G36*
X60209Y-161713D02*
X60287D01*
Y-161791D01*
Y-161869D01*
X60835D01*
Y-161947D01*
Y-162026D01*
X60444D01*
Y-162104D01*
Y-162182D01*
Y-162260D01*
Y-162338D01*
X60287D01*
Y-162417D01*
X60209D01*
Y-162495D01*
Y-162573D01*
X60287D01*
Y-162651D01*
Y-162729D01*
X60209D01*
Y-162651D01*
Y-162573D01*
X60053D01*
Y-162495D01*
Y-162417D01*
X59740D01*
Y-162338D01*
X59662D01*
Y-162260D01*
X60287D01*
Y-162182D01*
Y-162104D01*
Y-162026D01*
Y-161947D01*
Y-161869D01*
X60131D01*
Y-161791D01*
X59271D01*
Y-161869D01*
X59193D01*
Y-161947D01*
X59114D01*
Y-162026D01*
X58723D01*
Y-161947D01*
Y-161869D01*
X59036D01*
Y-161791D01*
X59114D01*
Y-161713D01*
X59193D01*
Y-161635D01*
X60209D01*
Y-161713D01*
D02*
G37*
G36*
X69359Y-162808D02*
Y-162886D01*
Y-162964D01*
X69124D01*
Y-162886D01*
Y-162808D01*
X69281D01*
Y-162729D01*
X69359D01*
Y-162808D01*
D02*
G37*
G36*
X63024Y-162651D02*
Y-162729D01*
Y-162808D01*
Y-162886D01*
Y-162964D01*
X62868D01*
Y-162886D01*
Y-162808D01*
Y-162729D01*
Y-162651D01*
Y-162573D01*
X63024D01*
Y-162651D01*
D02*
G37*
G36*
X60600Y-162886D02*
Y-162964D01*
X60444D01*
Y-162886D01*
X60366D01*
Y-162808D01*
X60600D01*
Y-162886D01*
D02*
G37*
G36*
X61773Y-163199D02*
Y-163277D01*
X61460D01*
Y-163199D01*
X61539D01*
Y-163120D01*
X61773D01*
Y-163199D01*
D02*
G37*
G36*
X59896D02*
Y-163277D01*
X59271D01*
Y-163199D01*
X59349D01*
Y-163120D01*
X59896D01*
Y-163199D01*
D02*
G37*
G36*
X64901Y-163433D02*
X64979D01*
Y-163512D01*
X64901D01*
Y-163433D01*
X64823D01*
Y-163355D01*
X64901D01*
Y-163433D01*
D02*
G37*
G36*
X72174Y-163590D02*
Y-163668D01*
X71940D01*
Y-163590D01*
Y-163512D01*
X72174D01*
Y-163590D01*
D02*
G37*
G36*
X66231D02*
Y-163668D01*
X66153D01*
Y-163590D01*
Y-163512D01*
X66231D01*
Y-163590D01*
D02*
G37*
G36*
X73973Y-164137D02*
X74051D01*
Y-164215D01*
X73660D01*
Y-164137D01*
Y-164059D01*
X73973D01*
Y-164137D01*
D02*
G37*
G36*
X62712Y-164372D02*
Y-164450D01*
X62086D01*
Y-164372D01*
Y-164294D01*
X62712D01*
Y-164372D01*
D02*
G37*
G36*
X7865Y-173832D02*
X8389D01*
Y-173936D01*
X8808D01*
Y-174041D01*
X9122D01*
Y-174146D01*
X9331D01*
Y-174251D01*
Y-174355D01*
Y-174460D01*
Y-174565D01*
Y-174669D01*
X9436D01*
Y-174774D01*
Y-174879D01*
Y-174983D01*
Y-175088D01*
Y-175193D01*
Y-175297D01*
X9331D01*
Y-175193D01*
Y-175088D01*
X9226D01*
Y-174983D01*
Y-174879D01*
X9122D01*
Y-174774D01*
Y-174669D01*
Y-174565D01*
X9017D01*
Y-174460D01*
X8808D01*
Y-174355D01*
X8598D01*
Y-174251D01*
X8284D01*
Y-174146D01*
X7761D01*
Y-174041D01*
X6714D01*
Y-174146D01*
X6295D01*
Y-174251D01*
X6086D01*
Y-174355D01*
X5981D01*
Y-174460D01*
X5667D01*
Y-174565D01*
X5562D01*
Y-174669D01*
X5457D01*
Y-174774D01*
X5353D01*
Y-174879D01*
Y-174983D01*
X5248D01*
Y-175088D01*
X5143D01*
Y-175193D01*
Y-175297D01*
X5039D01*
Y-175402D01*
Y-175507D01*
X4934D01*
Y-175612D01*
Y-175716D01*
Y-175821D01*
X4829D01*
Y-175926D01*
Y-176030D01*
Y-176135D01*
Y-176240D01*
X4725D01*
Y-176344D01*
Y-176449D01*
Y-176554D01*
Y-176658D01*
Y-176763D01*
Y-176868D01*
Y-176973D01*
Y-177077D01*
Y-177182D01*
Y-177287D01*
Y-177391D01*
Y-177496D01*
Y-177601D01*
Y-177705D01*
Y-177810D01*
Y-177915D01*
Y-178019D01*
Y-178124D01*
Y-178229D01*
X4829D01*
Y-178334D01*
Y-178438D01*
X4934D01*
Y-178543D01*
Y-178648D01*
Y-178752D01*
Y-178857D01*
X5039D01*
Y-178962D01*
Y-179066D01*
X5143D01*
Y-179171D01*
Y-179276D01*
X5248D01*
Y-179381D01*
Y-179485D01*
X5353D01*
Y-179590D01*
X5457D01*
Y-179695D01*
X5562D01*
Y-179799D01*
X5667D01*
Y-179904D01*
X5771D01*
Y-180009D01*
X5876D01*
Y-180113D01*
X6086D01*
Y-180218D01*
X6295D01*
Y-180323D01*
X8284D01*
Y-180218D01*
X8703D01*
Y-180113D01*
X8808D01*
Y-180009D01*
X9017D01*
Y-179904D01*
X9122D01*
Y-179799D01*
X9226D01*
Y-179695D01*
X9331D01*
Y-179590D01*
X9436D01*
Y-179695D01*
Y-179799D01*
Y-179904D01*
Y-180009D01*
X9331D01*
Y-180113D01*
Y-180218D01*
X9122D01*
Y-180323D01*
X8703D01*
Y-180427D01*
X8389D01*
Y-180532D01*
X8179D01*
Y-180637D01*
X7028D01*
Y-180742D01*
X6400D01*
Y-180637D01*
X5667D01*
Y-180532D01*
X5248D01*
Y-180427D01*
X4934D01*
Y-180323D01*
X4620D01*
Y-180218D01*
X4515D01*
Y-180113D01*
X4306D01*
Y-180009D01*
X4201D01*
Y-179904D01*
X3992D01*
Y-179799D01*
X3887D01*
Y-179695D01*
Y-179590D01*
X3782D01*
Y-179485D01*
X3678D01*
Y-179381D01*
X3573D01*
Y-179276D01*
Y-179171D01*
X3468D01*
Y-179066D01*
Y-178962D01*
X3364D01*
Y-178857D01*
Y-178752D01*
Y-178648D01*
X3259D01*
Y-178543D01*
Y-178438D01*
Y-178334D01*
Y-178229D01*
X3154D01*
Y-178124D01*
Y-178019D01*
Y-177915D01*
Y-177810D01*
Y-177705D01*
Y-177601D01*
Y-177496D01*
Y-177391D01*
Y-177287D01*
Y-177182D01*
Y-177077D01*
Y-176973D01*
Y-176868D01*
Y-176763D01*
Y-176658D01*
Y-176554D01*
X3259D01*
Y-176449D01*
Y-176344D01*
Y-176240D01*
Y-176135D01*
X3364D01*
Y-176030D01*
Y-175926D01*
Y-175821D01*
X3468D01*
Y-175716D01*
Y-175612D01*
Y-175507D01*
X3573D01*
Y-175402D01*
Y-175297D01*
X3678D01*
Y-175193D01*
X3782D01*
Y-175088D01*
Y-174983D01*
X3887D01*
Y-174879D01*
X3992D01*
Y-174774D01*
X4096D01*
Y-174669D01*
X4201D01*
Y-174565D01*
X4306D01*
Y-174460D01*
X4411D01*
Y-174355D01*
X4620D01*
Y-174251D01*
X4829D01*
Y-174146D01*
X5039D01*
Y-174041D01*
X5353D01*
Y-173936D01*
X5771D01*
Y-173832D01*
X6190D01*
Y-173727D01*
X7865D01*
Y-173832D01*
D02*
G37*
G36*
X36761Y-173936D02*
X37075D01*
Y-174041D01*
X37389D01*
Y-174146D01*
X37703D01*
Y-174251D01*
X37808D01*
Y-174355D01*
X38017D01*
Y-174460D01*
X37912D01*
Y-174565D01*
Y-174669D01*
X37808D01*
Y-174774D01*
Y-174879D01*
X37703D01*
Y-174983D01*
Y-175088D01*
Y-175193D01*
X37598D01*
Y-175297D01*
Y-175402D01*
X37494D01*
Y-175507D01*
Y-175612D01*
Y-175716D01*
X37389D01*
Y-175612D01*
X37179D01*
Y-175507D01*
X36970D01*
Y-175402D01*
X36761D01*
Y-175297D01*
X36342D01*
Y-175193D01*
X35818D01*
Y-175297D01*
X35504D01*
Y-175402D01*
X35400D01*
Y-175507D01*
Y-175612D01*
X35295D01*
Y-175716D01*
Y-175821D01*
X35400D01*
Y-175926D01*
Y-176030D01*
Y-176135D01*
X35504D01*
Y-176240D01*
X35714D01*
Y-176344D01*
X36028D01*
Y-176449D01*
X36446D01*
Y-176554D01*
X36865D01*
Y-176658D01*
X37179D01*
Y-176763D01*
X37389D01*
Y-176868D01*
X37598D01*
Y-176973D01*
X37703D01*
Y-177077D01*
X37808D01*
Y-177182D01*
X37912D01*
Y-177287D01*
Y-177391D01*
X38017D01*
Y-177496D01*
Y-177601D01*
X38122D01*
Y-177705D01*
X38017D01*
Y-177810D01*
X38122D01*
Y-177915D01*
X38226D01*
Y-178019D01*
X38122D01*
Y-178124D01*
Y-178229D01*
Y-178334D01*
Y-178438D01*
Y-178543D01*
Y-178648D01*
Y-178752D01*
X38226D01*
Y-178857D01*
X38122D01*
Y-178962D01*
X38017D01*
Y-179066D01*
X38122D01*
Y-179171D01*
X38017D01*
Y-179276D01*
Y-179381D01*
X37912D01*
Y-179485D01*
Y-179590D01*
X37808D01*
Y-179695D01*
X37598D01*
Y-179799D01*
Y-179904D01*
X37389D01*
Y-180009D01*
X37284D01*
Y-180113D01*
X37179D01*
Y-180218D01*
X36970D01*
Y-180323D01*
X36865D01*
Y-180427D01*
X36656D01*
Y-180532D01*
X36237D01*
Y-180637D01*
X34562D01*
Y-180532D01*
X34143D01*
Y-180427D01*
X33829D01*
Y-180323D01*
X33620D01*
Y-180218D01*
X33306D01*
Y-180113D01*
X33201D01*
Y-180009D01*
Y-179904D01*
X33306D01*
Y-179799D01*
Y-179695D01*
X33410D01*
Y-179590D01*
Y-179485D01*
Y-179381D01*
X33515D01*
Y-179276D01*
Y-179171D01*
Y-179066D01*
X33620D01*
Y-178962D01*
Y-178857D01*
X33724D01*
Y-178752D01*
Y-178648D01*
Y-178543D01*
X33829D01*
Y-178648D01*
X34039D01*
Y-178752D01*
X34143D01*
Y-178857D01*
X34353D01*
Y-178962D01*
X34562D01*
Y-179066D01*
X34876D01*
Y-179171D01*
X35923D01*
Y-179066D01*
X36132D01*
Y-178962D01*
Y-178857D01*
Y-178752D01*
X36237D01*
Y-178648D01*
Y-178543D01*
X36132D01*
Y-178438D01*
Y-178334D01*
X36028D01*
Y-178229D01*
X35923D01*
Y-178124D01*
X35714D01*
Y-178019D01*
X35190D01*
Y-177915D01*
X34562D01*
Y-177810D01*
X34353D01*
Y-177705D01*
X34143D01*
Y-177601D01*
X34039D01*
Y-177496D01*
X33934D01*
Y-177391D01*
X33829D01*
Y-177287D01*
X33724D01*
Y-177182D01*
X33620D01*
Y-177077D01*
Y-176973D01*
X33515D01*
Y-176868D01*
Y-176763D01*
X33410D01*
Y-176658D01*
Y-176554D01*
Y-176449D01*
X33306D01*
Y-176344D01*
Y-176240D01*
Y-176135D01*
X33410D01*
Y-176030D01*
Y-175926D01*
Y-175821D01*
Y-175716D01*
Y-175612D01*
X33515D01*
Y-175507D01*
Y-175402D01*
Y-175297D01*
X33620D01*
Y-175193D01*
Y-175088D01*
X33724D01*
Y-174983D01*
X33829D01*
Y-174879D01*
Y-174774D01*
X33934D01*
Y-174669D01*
X34039D01*
Y-174565D01*
X34143D01*
Y-174460D01*
X34353D01*
Y-174355D01*
X34457D01*
Y-174251D01*
X34562D01*
Y-174146D01*
X34771D01*
Y-174041D01*
X35085D01*
Y-173936D01*
X35504D01*
Y-173832D01*
X36761D01*
Y-173936D01*
D02*
G37*
G36*
X29642Y-174041D02*
X29537D01*
Y-174146D01*
Y-174251D01*
Y-174355D01*
X29432D01*
Y-174460D01*
Y-174565D01*
X29327D01*
Y-174669D01*
Y-174774D01*
X29223D01*
Y-174879D01*
Y-174983D01*
X29327D01*
Y-175088D01*
X29118D01*
Y-175193D01*
Y-175297D01*
X29223D01*
Y-175402D01*
X29118D01*
Y-175507D01*
Y-175612D01*
Y-175716D01*
X29013D01*
Y-175821D01*
Y-175926D01*
Y-176030D01*
X28909D01*
Y-176135D01*
X28804D01*
Y-176240D01*
Y-176344D01*
Y-176449D01*
X28699D01*
Y-176554D01*
Y-176658D01*
Y-176763D01*
X28595D01*
Y-176868D01*
Y-176973D01*
X28490D01*
Y-177077D01*
Y-177182D01*
Y-177287D01*
X28385D01*
Y-177391D01*
Y-177496D01*
Y-177601D01*
X28280D01*
Y-177705D01*
Y-177810D01*
X28176D01*
Y-177915D01*
Y-178019D01*
X28071D01*
Y-178124D01*
Y-178229D01*
Y-178334D01*
X27966D01*
Y-178438D01*
Y-178543D01*
Y-178648D01*
X27862D01*
Y-178752D01*
Y-178857D01*
Y-178962D01*
Y-179066D01*
X27652D01*
Y-179171D01*
Y-179276D01*
Y-179381D01*
X27548D01*
Y-179485D01*
Y-179590D01*
Y-179695D01*
X27443D01*
Y-179799D01*
Y-179904D01*
Y-180009D01*
Y-180113D01*
Y-180218D01*
X27338D01*
Y-180323D01*
Y-180427D01*
Y-180532D01*
X27129D01*
Y-180637D01*
X25559D01*
Y-180532D01*
X25454D01*
Y-180427D01*
Y-180323D01*
X25349D01*
Y-180218D01*
Y-180113D01*
X25244D01*
Y-180009D01*
Y-179904D01*
Y-179799D01*
X25140D01*
Y-179695D01*
Y-179590D01*
Y-179485D01*
X25035D01*
Y-179381D01*
Y-179276D01*
Y-179171D01*
X24930D01*
Y-179066D01*
Y-178962D01*
Y-178857D01*
X24826D01*
Y-178752D01*
Y-178648D01*
X24721D01*
Y-178543D01*
Y-178438D01*
X24616D01*
Y-178334D01*
Y-178229D01*
X24511D01*
Y-178124D01*
Y-178019D01*
Y-177915D01*
X24407D01*
Y-177810D01*
Y-177705D01*
Y-177601D01*
X24302D01*
Y-177496D01*
Y-177391D01*
Y-177287D01*
X24197D01*
Y-177182D01*
Y-177077D01*
Y-176973D01*
X24093D01*
Y-176868D01*
Y-176763D01*
X23988D01*
Y-176658D01*
Y-176554D01*
Y-176449D01*
Y-176344D01*
X23883D01*
Y-176240D01*
Y-176135D01*
Y-176030D01*
Y-175926D01*
X23779D01*
Y-175821D01*
Y-175716D01*
X23674D01*
Y-175612D01*
Y-175507D01*
X23569D01*
Y-175402D01*
Y-175297D01*
Y-175193D01*
X23465D01*
Y-175088D01*
Y-174983D01*
Y-174879D01*
X23360D01*
Y-174774D01*
Y-174669D01*
X23255D01*
Y-174565D01*
Y-174460D01*
Y-174355D01*
X23151D01*
Y-174251D01*
Y-174146D01*
Y-174041D01*
X23046D01*
Y-173936D01*
X25140D01*
Y-174041D01*
X25244D01*
Y-174146D01*
Y-174251D01*
Y-174355D01*
X25349D01*
Y-174460D01*
Y-174565D01*
Y-174669D01*
Y-174774D01*
X25454D01*
Y-174879D01*
Y-174983D01*
X25559D01*
Y-175088D01*
Y-175193D01*
Y-175297D01*
Y-175402D01*
X25663D01*
Y-175507D01*
X25559D01*
Y-175612D01*
Y-175716D01*
Y-175821D01*
X25768D01*
Y-175926D01*
X25663D01*
Y-176030D01*
Y-176135D01*
Y-176240D01*
Y-176344D01*
X25768D01*
Y-176449D01*
Y-176554D01*
Y-176658D01*
X25872D01*
Y-176763D01*
Y-176868D01*
Y-176973D01*
X25977D01*
Y-177077D01*
Y-177182D01*
Y-177287D01*
Y-177391D01*
Y-177496D01*
X26082D01*
Y-177601D01*
Y-177705D01*
Y-177810D01*
X26187D01*
Y-177915D01*
Y-178019D01*
X26396D01*
Y-177915D01*
X26501D01*
Y-177810D01*
X26605D01*
Y-177705D01*
Y-177601D01*
Y-177496D01*
Y-177391D01*
X26710D01*
Y-177287D01*
Y-177182D01*
Y-177077D01*
X26815D01*
Y-176973D01*
Y-176868D01*
Y-176763D01*
Y-176658D01*
Y-176554D01*
X26919D01*
Y-176449D01*
Y-176344D01*
Y-176240D01*
Y-176135D01*
X27024D01*
Y-176030D01*
Y-175926D01*
Y-175821D01*
Y-175716D01*
X27129D01*
Y-175612D01*
Y-175507D01*
Y-175402D01*
Y-175297D01*
X27234D01*
Y-175193D01*
Y-175088D01*
Y-174983D01*
X27338D01*
Y-174879D01*
Y-174774D01*
Y-174669D01*
Y-174565D01*
Y-174460D01*
X27443D01*
Y-174355D01*
Y-174251D01*
Y-174146D01*
X27548D01*
Y-174041D01*
X27443D01*
Y-173936D01*
X29642D01*
Y-174041D01*
D02*
G37*
G36*
X9645Y-179066D02*
Y-179171D01*
Y-179276D01*
X9540D01*
Y-179171D01*
Y-179066D01*
Y-178962D01*
X9645D01*
Y-179066D01*
D02*
G37*
G36*
X9540Y-179381D02*
Y-179485D01*
Y-179590D01*
X9436D01*
Y-179485D01*
Y-179381D01*
Y-179276D01*
X9540D01*
Y-179381D01*
D02*
G37*
G36*
X32364Y-174041D02*
Y-174146D01*
Y-174251D01*
Y-174355D01*
Y-174460D01*
Y-174565D01*
Y-174669D01*
Y-174774D01*
Y-174879D01*
Y-174983D01*
Y-175088D01*
Y-175193D01*
Y-175297D01*
Y-175402D01*
Y-175507D01*
Y-175612D01*
Y-175716D01*
Y-175821D01*
Y-175926D01*
Y-176030D01*
Y-176135D01*
Y-176240D01*
Y-176344D01*
Y-176449D01*
Y-176554D01*
Y-176658D01*
Y-176763D01*
Y-176868D01*
Y-176973D01*
Y-177077D01*
Y-177182D01*
Y-177287D01*
Y-177391D01*
Y-177496D01*
Y-177601D01*
Y-177705D01*
Y-177810D01*
Y-177915D01*
Y-178019D01*
Y-178124D01*
Y-178229D01*
Y-178334D01*
Y-178438D01*
Y-178543D01*
Y-178648D01*
Y-178752D01*
Y-178857D01*
Y-178962D01*
Y-179066D01*
Y-179171D01*
Y-179276D01*
Y-179381D01*
Y-179485D01*
Y-179590D01*
Y-179695D01*
Y-179799D01*
Y-179904D01*
Y-180009D01*
Y-180113D01*
Y-180218D01*
Y-180323D01*
Y-180427D01*
Y-180532D01*
X32259D01*
Y-180637D01*
X30374D01*
Y-180532D01*
X30270D01*
Y-180427D01*
Y-180323D01*
Y-180218D01*
Y-180113D01*
Y-180009D01*
Y-179904D01*
Y-179799D01*
Y-179695D01*
Y-179590D01*
Y-179485D01*
Y-179381D01*
Y-179276D01*
Y-179171D01*
Y-179066D01*
Y-178962D01*
Y-178857D01*
Y-178752D01*
Y-178648D01*
Y-178543D01*
Y-178438D01*
Y-178334D01*
Y-178229D01*
Y-178124D01*
Y-178019D01*
Y-177915D01*
Y-177810D01*
Y-177705D01*
Y-177601D01*
Y-177496D01*
Y-177391D01*
Y-177287D01*
Y-177182D01*
Y-177077D01*
Y-176973D01*
Y-176868D01*
Y-176763D01*
Y-176658D01*
Y-176554D01*
Y-176449D01*
Y-176344D01*
Y-176240D01*
Y-176135D01*
Y-176030D01*
Y-175926D01*
Y-175821D01*
Y-175716D01*
Y-175612D01*
Y-175507D01*
Y-175402D01*
Y-175297D01*
Y-175193D01*
Y-175088D01*
Y-174983D01*
Y-174879D01*
Y-174774D01*
Y-174669D01*
Y-174565D01*
Y-174460D01*
Y-174355D01*
Y-174251D01*
Y-174146D01*
Y-174041D01*
Y-173936D01*
X32364D01*
Y-174041D01*
D02*
G37*
G36*
X21790D02*
X21894D01*
Y-174146D01*
Y-174251D01*
Y-174355D01*
X21999D01*
Y-174460D01*
Y-174565D01*
Y-174669D01*
Y-174774D01*
X22104D01*
Y-174879D01*
Y-174983D01*
Y-175088D01*
Y-175193D01*
X22208D01*
Y-175297D01*
Y-175402D01*
Y-175507D01*
X22313D01*
Y-175612D01*
Y-175716D01*
Y-175821D01*
X22418D01*
Y-175926D01*
Y-176030D01*
Y-176135D01*
X22522D01*
Y-176240D01*
Y-176344D01*
X22627D01*
Y-176449D01*
Y-176554D01*
Y-176658D01*
X22732D01*
Y-176763D01*
Y-176868D01*
X22836D01*
Y-176973D01*
Y-177077D01*
Y-177182D01*
Y-177287D01*
X22941D01*
Y-177391D01*
Y-177496D01*
X23046D01*
Y-177601D01*
Y-177705D01*
Y-177810D01*
X23151D01*
Y-177915D01*
Y-178019D01*
Y-178124D01*
X23255D01*
Y-178229D01*
Y-178334D01*
Y-178438D01*
Y-178543D01*
X23360D01*
Y-178648D01*
X23465D01*
Y-178752D01*
Y-178857D01*
Y-178962D01*
X23569D01*
Y-179066D01*
Y-179171D01*
Y-179276D01*
X23674D01*
Y-179381D01*
Y-179485D01*
Y-179590D01*
X23779D01*
Y-179695D01*
Y-179799D01*
Y-179904D01*
X23883D01*
Y-180009D01*
Y-180113D01*
Y-180218D01*
Y-180323D01*
Y-180427D01*
X23988D01*
Y-180532D01*
X24093D01*
Y-180637D01*
X22208D01*
Y-180532D01*
X21999D01*
Y-180637D01*
X21894D01*
Y-180532D01*
Y-180427D01*
X21790D01*
Y-180323D01*
Y-180218D01*
Y-180113D01*
X21685D01*
Y-180009D01*
Y-179904D01*
Y-179799D01*
X21580D01*
Y-179695D01*
X19591D01*
Y-179799D01*
Y-179904D01*
Y-180009D01*
X19486D01*
Y-180113D01*
Y-180218D01*
Y-180323D01*
Y-180427D01*
X19382D01*
Y-180532D01*
X19172D01*
Y-180637D01*
X17706D01*
Y-180532D01*
X17497D01*
Y-180637D01*
X17183D01*
Y-180532D01*
Y-180427D01*
X17288D01*
Y-180323D01*
Y-180218D01*
Y-180113D01*
X17392D01*
Y-180009D01*
Y-179904D01*
Y-179799D01*
X17497D01*
Y-179695D01*
Y-179590D01*
Y-179485D01*
X17602D01*
Y-179381D01*
Y-179276D01*
X17706D01*
Y-179171D01*
Y-179066D01*
Y-178962D01*
X17811D01*
Y-178857D01*
Y-178752D01*
Y-178648D01*
X17916D01*
Y-178543D01*
Y-178438D01*
Y-178334D01*
Y-178229D01*
X18021D01*
Y-178124D01*
Y-178019D01*
X18125D01*
Y-177915D01*
Y-177810D01*
Y-177705D01*
Y-177601D01*
X18230D01*
Y-177496D01*
Y-177391D01*
Y-177287D01*
X18335D01*
Y-177182D01*
Y-177077D01*
Y-176973D01*
X18439D01*
Y-176868D01*
Y-176763D01*
Y-176658D01*
X18544D01*
Y-176554D01*
Y-176449D01*
Y-176344D01*
Y-176240D01*
X18649D01*
Y-176135D01*
Y-176030D01*
Y-175926D01*
X18753D01*
Y-175821D01*
Y-175716D01*
Y-175612D01*
X18858D01*
Y-175507D01*
Y-175402D01*
Y-175297D01*
X18963D01*
Y-175193D01*
Y-175088D01*
Y-174983D01*
X19068D01*
Y-174879D01*
Y-174774D01*
Y-174669D01*
X19172D01*
Y-174565D01*
Y-174460D01*
Y-174355D01*
X19277D01*
Y-174251D01*
Y-174146D01*
X19382D01*
Y-174041D01*
Y-173936D01*
X21790D01*
Y-174041D01*
D02*
G37*
G36*
X14147D02*
X14670D01*
Y-174146D01*
X14985D01*
Y-174251D01*
X15299D01*
Y-174355D01*
X15508D01*
Y-174460D01*
X15613D01*
Y-174565D01*
X15822D01*
Y-174669D01*
Y-174774D01*
X16031D01*
Y-174879D01*
X16241D01*
Y-174983D01*
X16345D01*
Y-175088D01*
X16450D01*
Y-175193D01*
Y-175297D01*
X16555D01*
Y-175402D01*
X16660D01*
Y-175507D01*
Y-175612D01*
X16764D01*
Y-175716D01*
X16660D01*
Y-175821D01*
X16869D01*
Y-175926D01*
X16764D01*
Y-176030D01*
Y-176135D01*
X16869D01*
Y-176240D01*
Y-176344D01*
Y-176449D01*
Y-176554D01*
X16974D01*
Y-176658D01*
Y-176763D01*
Y-176868D01*
Y-176973D01*
Y-177077D01*
Y-177182D01*
Y-177287D01*
Y-177391D01*
Y-177496D01*
Y-177601D01*
Y-177705D01*
Y-177810D01*
Y-177915D01*
Y-178019D01*
Y-178124D01*
X16869D01*
Y-178229D01*
Y-178334D01*
Y-178438D01*
X16764D01*
Y-178543D01*
Y-178648D01*
X16869D01*
Y-178752D01*
X16660D01*
Y-178857D01*
X16764D01*
Y-178962D01*
X16660D01*
Y-179066D01*
Y-179171D01*
X16555D01*
Y-179276D01*
Y-179381D01*
X16450D01*
Y-179485D01*
X16345D01*
Y-179590D01*
X16241D01*
Y-179695D01*
X16136D01*
Y-179799D01*
X16031D01*
Y-179904D01*
X15822D01*
Y-180009D01*
X15613D01*
Y-180113D01*
X15508D01*
Y-180218D01*
X15299D01*
Y-180323D01*
X15089D01*
Y-180427D01*
X14670D01*
Y-180532D01*
X13623D01*
Y-180637D01*
X11320D01*
Y-180532D01*
X11006D01*
Y-180427D01*
Y-180323D01*
Y-180218D01*
Y-180113D01*
Y-180009D01*
Y-179904D01*
Y-179799D01*
Y-179695D01*
Y-179590D01*
Y-179485D01*
Y-179381D01*
Y-179276D01*
Y-179171D01*
Y-179066D01*
Y-178962D01*
Y-178857D01*
Y-178752D01*
Y-178648D01*
Y-178543D01*
Y-178438D01*
Y-178334D01*
Y-178229D01*
Y-178124D01*
Y-178019D01*
Y-177915D01*
Y-177810D01*
Y-177705D01*
Y-177601D01*
Y-177496D01*
Y-177391D01*
Y-177287D01*
Y-177182D01*
Y-177077D01*
Y-176973D01*
Y-176868D01*
Y-176763D01*
Y-176658D01*
Y-176554D01*
Y-176449D01*
Y-176344D01*
Y-176240D01*
Y-176135D01*
Y-176030D01*
Y-175926D01*
Y-175821D01*
Y-175716D01*
Y-175612D01*
Y-175507D01*
Y-175402D01*
Y-175297D01*
Y-175193D01*
Y-175088D01*
Y-174983D01*
Y-174879D01*
Y-174774D01*
Y-174669D01*
Y-174565D01*
Y-174460D01*
Y-174355D01*
Y-174251D01*
Y-174146D01*
Y-174041D01*
Y-173936D01*
X14147D01*
Y-174041D01*
D02*
G37*
G36*
X-4488Y-173936D02*
X-1976D01*
Y-174041D01*
X-2185D01*
Y-174146D01*
X-2499D01*
Y-174251D01*
X-2604D01*
Y-174355D01*
Y-174460D01*
Y-174565D01*
Y-174669D01*
Y-174774D01*
Y-174879D01*
Y-174983D01*
Y-175088D01*
Y-175193D01*
Y-175297D01*
Y-175402D01*
Y-175507D01*
Y-175612D01*
Y-175716D01*
Y-175821D01*
Y-175926D01*
Y-176030D01*
Y-176135D01*
Y-176240D01*
Y-176344D01*
Y-176449D01*
Y-176554D01*
Y-176658D01*
Y-176763D01*
Y-176868D01*
Y-176973D01*
Y-177077D01*
Y-177182D01*
Y-177287D01*
Y-177391D01*
Y-177496D01*
Y-177601D01*
Y-177705D01*
Y-177810D01*
Y-177915D01*
Y-178019D01*
Y-178124D01*
Y-178229D01*
Y-178334D01*
Y-178438D01*
Y-178543D01*
X-2499D01*
Y-178648D01*
Y-178752D01*
Y-178857D01*
Y-178962D01*
Y-179066D01*
X-2395D01*
Y-179171D01*
Y-179276D01*
Y-179381D01*
X-2290D01*
Y-179485D01*
X-2185D01*
Y-179590D01*
X-2080D01*
Y-179695D01*
Y-179799D01*
X-1976D01*
Y-179904D01*
X-1871D01*
Y-180009D01*
X-1662D01*
Y-180113D01*
X-1557D01*
Y-180218D01*
X-1243D01*
Y-180323D01*
X223D01*
Y-180218D01*
X432D01*
Y-180113D01*
X746D01*
Y-180009D01*
X851D01*
Y-179904D01*
X956D01*
Y-179799D01*
X1060D01*
Y-179695D01*
X1165D01*
Y-179590D01*
X1270D01*
Y-179485D01*
Y-179381D01*
X1374D01*
Y-179276D01*
Y-179171D01*
X1479D01*
Y-179066D01*
Y-178962D01*
X1584D01*
Y-178857D01*
Y-178752D01*
Y-178648D01*
Y-178543D01*
Y-178438D01*
Y-178334D01*
Y-178229D01*
Y-178124D01*
Y-178019D01*
Y-177915D01*
Y-177810D01*
Y-177705D01*
Y-177601D01*
Y-177496D01*
Y-177391D01*
Y-177287D01*
Y-177182D01*
Y-177077D01*
Y-176973D01*
Y-176868D01*
Y-176763D01*
Y-176658D01*
Y-176554D01*
Y-176449D01*
Y-176344D01*
Y-176240D01*
Y-176135D01*
Y-176030D01*
Y-175926D01*
Y-175821D01*
Y-175716D01*
Y-175612D01*
Y-175507D01*
Y-175402D01*
Y-175297D01*
Y-175193D01*
Y-175088D01*
Y-174983D01*
Y-174879D01*
Y-174774D01*
Y-174669D01*
Y-174565D01*
Y-174460D01*
Y-174355D01*
Y-174251D01*
Y-174146D01*
X1270D01*
Y-174041D01*
X956D01*
Y-173936D01*
X2735D01*
Y-174041D01*
X2526D01*
Y-174146D01*
X2317D01*
Y-174251D01*
X2107D01*
Y-174355D01*
Y-174460D01*
Y-174565D01*
Y-174669D01*
Y-174774D01*
Y-174879D01*
Y-174983D01*
Y-175088D01*
Y-175193D01*
Y-175297D01*
Y-175402D01*
Y-175507D01*
Y-175612D01*
Y-175716D01*
Y-175821D01*
Y-175926D01*
Y-176030D01*
Y-176135D01*
Y-176240D01*
Y-176344D01*
Y-176449D01*
Y-176554D01*
Y-176658D01*
Y-176763D01*
Y-176868D01*
Y-176973D01*
Y-177077D01*
Y-177182D01*
Y-177287D01*
Y-177391D01*
Y-177496D01*
Y-177601D01*
Y-177705D01*
Y-177810D01*
Y-177915D01*
Y-178019D01*
Y-178124D01*
Y-178229D01*
Y-178334D01*
Y-178438D01*
Y-178543D01*
X2003D01*
Y-178648D01*
Y-178752D01*
Y-178857D01*
Y-178962D01*
X1898D01*
Y-179066D01*
Y-179171D01*
Y-179276D01*
X1793D01*
Y-179381D01*
Y-179485D01*
X1688D01*
Y-179590D01*
X1584D01*
Y-179695D01*
Y-179799D01*
X1479D01*
Y-179904D01*
X1374D01*
Y-180009D01*
X1165D01*
Y-180113D01*
X1060D01*
Y-180218D01*
X851D01*
Y-180323D01*
X642D01*
Y-180427D01*
X328D01*
Y-180532D01*
X13D01*
Y-180637D01*
X-824D01*
Y-180742D01*
X-1452D01*
Y-180637D01*
X-2080D01*
Y-180532D01*
X-2395D01*
Y-180427D01*
X-2709D01*
Y-180323D01*
X-2918D01*
Y-180218D01*
X-3127D01*
Y-180113D01*
Y-180009D01*
X-3337D01*
Y-179904D01*
X-3441D01*
Y-179799D01*
X-3546D01*
Y-179695D01*
Y-179590D01*
X-3651D01*
Y-179485D01*
Y-179381D01*
Y-179276D01*
X-3756D01*
Y-179171D01*
Y-179066D01*
Y-178962D01*
Y-178857D01*
Y-178752D01*
Y-178648D01*
Y-178543D01*
Y-178438D01*
Y-178334D01*
Y-178229D01*
Y-178124D01*
Y-178019D01*
Y-177915D01*
Y-177810D01*
Y-177705D01*
Y-177601D01*
Y-177496D01*
Y-177391D01*
Y-177287D01*
Y-177182D01*
Y-177077D01*
Y-176973D01*
Y-176868D01*
Y-176763D01*
Y-176658D01*
Y-176554D01*
Y-176449D01*
Y-176344D01*
Y-176240D01*
Y-176135D01*
Y-176030D01*
Y-175926D01*
Y-175821D01*
Y-175716D01*
Y-175612D01*
Y-175507D01*
Y-175402D01*
Y-175297D01*
Y-175193D01*
Y-175088D01*
Y-174983D01*
Y-174879D01*
Y-174774D01*
Y-174669D01*
Y-174565D01*
Y-174460D01*
Y-174355D01*
X-3860D01*
Y-174251D01*
X-3965D01*
Y-174146D01*
X-4174D01*
Y-174041D01*
X-4488D01*
Y-173936D01*
X-4593D01*
Y-173832D01*
X-4488D01*
Y-173936D01*
D02*
G37*
G36*
X39797Y-184301D02*
X40111D01*
Y-184406D01*
X40216D01*
Y-184511D01*
Y-184615D01*
Y-184720D01*
Y-184825D01*
Y-184929D01*
Y-185034D01*
Y-185139D01*
Y-185243D01*
X40111D01*
Y-185139D01*
X39901D01*
Y-185034D01*
X39064D01*
Y-185139D01*
X38959D01*
Y-185243D01*
X38855D01*
Y-185348D01*
X38645D01*
Y-185453D01*
Y-185557D01*
X38540D01*
Y-185662D01*
Y-185767D01*
Y-185872D01*
Y-185976D01*
Y-186081D01*
Y-186186D01*
Y-186290D01*
Y-186395D01*
Y-186500D01*
X38645D01*
Y-186604D01*
Y-186709D01*
X38855D01*
Y-186814D01*
X38959D01*
Y-186918D01*
X39169D01*
Y-187023D01*
X39901D01*
Y-186918D01*
X40111D01*
Y-186814D01*
X40216D01*
Y-186918D01*
Y-187023D01*
Y-187128D01*
Y-187232D01*
Y-187337D01*
Y-187442D01*
Y-187547D01*
Y-187651D01*
X40006D01*
Y-187756D01*
X39169D01*
Y-187651D01*
X38750D01*
Y-187547D01*
X38540D01*
Y-187442D01*
X38436D01*
Y-187337D01*
X38331D01*
Y-187232D01*
X38226D01*
Y-187128D01*
X38122D01*
Y-187023D01*
X38017D01*
Y-186918D01*
Y-186814D01*
X37912D01*
Y-186709D01*
Y-186604D01*
Y-186500D01*
X37808D01*
Y-186395D01*
Y-186290D01*
Y-186186D01*
Y-186081D01*
Y-185976D01*
Y-185872D01*
Y-185767D01*
Y-185662D01*
Y-185557D01*
X37912D01*
Y-185453D01*
Y-185348D01*
Y-185243D01*
X38017D01*
Y-185139D01*
Y-185034D01*
X38122D01*
Y-184929D01*
X38226D01*
Y-184825D01*
X38331D01*
Y-184720D01*
Y-184615D01*
X38540D01*
Y-184511D01*
X38645D01*
Y-184406D01*
X38959D01*
Y-184301D01*
X39169D01*
Y-184196D01*
X39797D01*
Y-184301D01*
D02*
G37*
G36*
X18439D02*
X18753D01*
Y-184406D01*
Y-184511D01*
Y-184615D01*
Y-184720D01*
Y-184825D01*
Y-184929D01*
Y-185034D01*
Y-185139D01*
Y-185243D01*
X18649D01*
Y-185139D01*
X18439D01*
Y-185034D01*
X17706D01*
Y-185139D01*
X17497D01*
Y-185243D01*
X17392D01*
Y-185348D01*
X17183D01*
Y-185453D01*
Y-185557D01*
X17078D01*
Y-185662D01*
Y-185767D01*
Y-185872D01*
Y-185976D01*
Y-186081D01*
Y-186186D01*
Y-186290D01*
Y-186395D01*
Y-186500D01*
X17183D01*
Y-186604D01*
X17288D01*
Y-186709D01*
X17392D01*
Y-186814D01*
X17497D01*
Y-186918D01*
X17706D01*
Y-187023D01*
X18335D01*
Y-186918D01*
X18544D01*
Y-186814D01*
X18753D01*
Y-186918D01*
Y-187023D01*
Y-187128D01*
Y-187232D01*
Y-187337D01*
Y-187442D01*
Y-187547D01*
Y-187651D01*
X18544D01*
Y-187756D01*
X17602D01*
Y-187651D01*
X17392D01*
Y-187547D01*
X17078D01*
Y-187442D01*
X16974D01*
Y-187337D01*
X16869D01*
Y-187232D01*
X16764D01*
Y-187128D01*
X16660D01*
Y-187023D01*
X16555D01*
Y-186918D01*
Y-186814D01*
X16450D01*
Y-186709D01*
Y-186604D01*
Y-186500D01*
X16345D01*
Y-186395D01*
Y-186290D01*
Y-186186D01*
Y-186081D01*
Y-185976D01*
Y-185872D01*
Y-185767D01*
Y-185662D01*
Y-185557D01*
Y-185453D01*
X16450D01*
Y-185348D01*
Y-185243D01*
X16555D01*
Y-185139D01*
Y-185034D01*
X16660D01*
Y-184929D01*
X16764D01*
Y-184825D01*
Y-184720D01*
X16974D01*
Y-184615D01*
X17078D01*
Y-184511D01*
X17183D01*
Y-184406D01*
X17497D01*
Y-184301D01*
X17706D01*
Y-184196D01*
X18439D01*
Y-184301D01*
D02*
G37*
G36*
X6504D02*
X6818D01*
Y-184406D01*
X6923D01*
Y-184511D01*
Y-184615D01*
Y-184720D01*
Y-184825D01*
Y-184929D01*
X7028D01*
Y-185034D01*
X6923D01*
Y-185139D01*
Y-185243D01*
X6818D01*
Y-185139D01*
X6609D01*
Y-185034D01*
X5876D01*
Y-185139D01*
X5667D01*
Y-185243D01*
X5562D01*
Y-185348D01*
X5457D01*
Y-185453D01*
X5353D01*
Y-185557D01*
Y-185662D01*
Y-185767D01*
X5248D01*
Y-185872D01*
Y-185976D01*
Y-186081D01*
Y-186186D01*
X5353D01*
Y-186290D01*
Y-186395D01*
Y-186500D01*
Y-186604D01*
X5457D01*
Y-186709D01*
X5562D01*
Y-186814D01*
X5667D01*
Y-186918D01*
X5876D01*
Y-187023D01*
X6504D01*
Y-186918D01*
X6714D01*
Y-186814D01*
X6923D01*
Y-186918D01*
Y-187023D01*
Y-187128D01*
Y-187232D01*
Y-187337D01*
Y-187442D01*
X7028D01*
Y-187547D01*
X6923D01*
Y-187651D01*
X6609D01*
Y-187756D01*
X5771D01*
Y-187651D01*
X5457D01*
Y-187547D01*
X5248D01*
Y-187442D01*
X5143D01*
Y-187337D01*
X5039D01*
Y-187232D01*
X4934D01*
Y-187128D01*
X4829D01*
Y-187023D01*
X4725D01*
Y-186918D01*
Y-186814D01*
X4620D01*
Y-186709D01*
Y-186604D01*
X4515D01*
Y-186500D01*
Y-186395D01*
Y-186290D01*
Y-186186D01*
X4411D01*
Y-186081D01*
Y-185976D01*
Y-185872D01*
X4515D01*
Y-185767D01*
Y-185662D01*
Y-185557D01*
Y-185453D01*
X4620D01*
Y-185348D01*
Y-185243D01*
Y-185139D01*
X4725D01*
Y-185034D01*
X4829D01*
Y-184929D01*
Y-184825D01*
X4934D01*
Y-184720D01*
X5039D01*
Y-184615D01*
X5248D01*
Y-184511D01*
X5353D01*
Y-184406D01*
X5562D01*
Y-184301D01*
X5876D01*
Y-184196D01*
X6504D01*
Y-184301D01*
D02*
G37*
G36*
X49219Y-184406D02*
X49324D01*
Y-184511D01*
Y-184615D01*
Y-184720D01*
Y-184825D01*
Y-184929D01*
Y-185034D01*
Y-185139D01*
X49428D01*
Y-185243D01*
Y-185348D01*
Y-185453D01*
Y-185557D01*
Y-185662D01*
X49533D01*
Y-185767D01*
Y-185872D01*
Y-185976D01*
Y-186081D01*
Y-186186D01*
Y-186290D01*
X49638D01*
Y-186395D01*
Y-186500D01*
Y-186604D01*
Y-186709D01*
Y-186814D01*
Y-186918D01*
Y-187023D01*
Y-187128D01*
X49742D01*
Y-187232D01*
Y-187337D01*
Y-187442D01*
Y-187547D01*
Y-187651D01*
X49010D01*
Y-187547D01*
X49114D01*
Y-187442D01*
Y-187337D01*
Y-187232D01*
Y-187128D01*
X49010D01*
Y-187023D01*
Y-186918D01*
Y-186814D01*
Y-186709D01*
Y-186604D01*
Y-186500D01*
Y-186395D01*
X48905D01*
Y-186290D01*
Y-186186D01*
Y-186081D01*
Y-185976D01*
Y-185872D01*
X48591D01*
Y-185976D01*
Y-186081D01*
X48486D01*
Y-186186D01*
Y-186290D01*
X48382D01*
Y-186395D01*
Y-186500D01*
Y-186604D01*
X48277D01*
Y-186709D01*
Y-186814D01*
X48172D01*
Y-186918D01*
X48067D01*
Y-187023D01*
Y-187128D01*
Y-187232D01*
X47963D01*
Y-187337D01*
Y-187442D01*
Y-187547D01*
X47858D01*
Y-187651D01*
X47544D01*
Y-187547D01*
Y-187442D01*
Y-187337D01*
X47439D01*
Y-187232D01*
Y-187128D01*
X47335D01*
Y-187023D01*
Y-186918D01*
Y-186814D01*
X47230D01*
Y-186709D01*
Y-186604D01*
Y-186500D01*
Y-186395D01*
X47125D01*
Y-186290D01*
Y-186186D01*
X47021D01*
Y-186081D01*
Y-185976D01*
Y-185872D01*
X46706D01*
Y-185976D01*
X46602D01*
Y-186081D01*
Y-186186D01*
Y-186290D01*
Y-186395D01*
Y-186500D01*
Y-186604D01*
Y-186709D01*
Y-186814D01*
X46497D01*
Y-186918D01*
Y-187023D01*
Y-187128D01*
Y-187232D01*
Y-187337D01*
Y-187442D01*
X46392D01*
Y-187547D01*
Y-187651D01*
X45660D01*
Y-187547D01*
Y-187442D01*
Y-187337D01*
X45764D01*
Y-187232D01*
Y-187128D01*
Y-187023D01*
Y-186918D01*
Y-186814D01*
X45869D01*
Y-186709D01*
Y-186604D01*
Y-186500D01*
Y-186395D01*
Y-186290D01*
Y-186186D01*
X45974D01*
Y-186081D01*
Y-185976D01*
Y-185872D01*
Y-185767D01*
Y-185662D01*
Y-185557D01*
X46078D01*
Y-185453D01*
Y-185348D01*
Y-185243D01*
Y-185139D01*
Y-185034D01*
X46183D01*
Y-184929D01*
Y-184825D01*
Y-184720D01*
Y-184615D01*
Y-184511D01*
Y-184406D01*
X46288D01*
Y-184301D01*
X47021D01*
Y-184406D01*
Y-184511D01*
X47125D01*
Y-184615D01*
X47021D01*
Y-184720D01*
Y-184825D01*
X47230D01*
Y-184929D01*
X47125D01*
Y-185034D01*
X47230D01*
Y-185139D01*
Y-185243D01*
Y-185348D01*
X47335D01*
Y-185453D01*
Y-185557D01*
X47439D01*
Y-185662D01*
Y-185767D01*
X47544D01*
Y-185872D01*
Y-185976D01*
X47858D01*
Y-185872D01*
X47963D01*
Y-185767D01*
Y-185662D01*
X48067D01*
Y-185557D01*
Y-185453D01*
Y-185348D01*
X48172D01*
Y-185243D01*
X48277D01*
Y-185139D01*
Y-185034D01*
Y-184929D01*
X48382D01*
Y-184825D01*
Y-184720D01*
X48486D01*
Y-184615D01*
Y-184511D01*
Y-184406D01*
X48591D01*
Y-184301D01*
X49219D01*
Y-184406D01*
D02*
G37*
G36*
X32887Y-185453D02*
Y-185557D01*
Y-185662D01*
Y-185767D01*
Y-185872D01*
Y-185976D01*
Y-186081D01*
Y-186186D01*
Y-186290D01*
Y-186395D01*
Y-186500D01*
Y-186604D01*
Y-186709D01*
Y-186814D01*
Y-186918D01*
Y-187023D01*
Y-187128D01*
Y-187232D01*
Y-187337D01*
Y-187442D01*
Y-187547D01*
X32992D01*
Y-187651D01*
X32364D01*
Y-187547D01*
X32259D01*
Y-187442D01*
Y-187337D01*
X32154D01*
Y-187232D01*
X32049D01*
Y-187128D01*
X31945D01*
Y-187023D01*
X31840D01*
Y-186918D01*
Y-186814D01*
X31735D01*
Y-186709D01*
X31631D01*
Y-186604D01*
X31526D01*
Y-186500D01*
X31421D01*
Y-186395D01*
Y-186290D01*
X31107D01*
Y-186395D01*
Y-186500D01*
Y-186604D01*
Y-186709D01*
Y-186814D01*
Y-186918D01*
Y-187023D01*
Y-187128D01*
Y-187232D01*
Y-187337D01*
Y-187442D01*
Y-187547D01*
Y-187651D01*
X30688D01*
Y-187547D01*
Y-187442D01*
Y-187337D01*
Y-187232D01*
Y-187128D01*
Y-187023D01*
Y-186918D01*
Y-186814D01*
Y-186709D01*
Y-186604D01*
Y-186500D01*
Y-186395D01*
Y-186290D01*
Y-186186D01*
Y-186081D01*
Y-185976D01*
Y-185872D01*
Y-185767D01*
Y-185662D01*
Y-185557D01*
Y-185453D01*
Y-185348D01*
X31212D01*
Y-185453D01*
X31317D01*
Y-185557D01*
X31421D01*
Y-185662D01*
X31526D01*
Y-185767D01*
Y-185872D01*
X31631D01*
Y-185976D01*
X31735D01*
Y-186081D01*
X31840D01*
Y-186186D01*
Y-186290D01*
X31945D01*
Y-186395D01*
X32049D01*
Y-186500D01*
X32154D01*
Y-186604D01*
X32573D01*
Y-186500D01*
Y-186395D01*
X32468D01*
Y-186290D01*
Y-186186D01*
Y-186081D01*
Y-185976D01*
Y-185872D01*
Y-185767D01*
Y-185662D01*
X32573D01*
Y-185557D01*
X32468D01*
Y-185453D01*
Y-185348D01*
X32887D01*
Y-185453D01*
D02*
G37*
G36*
X57071Y-184406D02*
Y-184511D01*
Y-184615D01*
Y-184720D01*
Y-184825D01*
Y-184929D01*
Y-185034D01*
Y-185139D01*
Y-185243D01*
Y-185348D01*
Y-185453D01*
Y-185557D01*
Y-185662D01*
Y-185767D01*
Y-185872D01*
Y-185976D01*
Y-186081D01*
Y-186186D01*
Y-186290D01*
Y-186395D01*
Y-186500D01*
Y-186604D01*
Y-186709D01*
Y-186814D01*
X56966D01*
Y-186918D01*
Y-187023D01*
Y-187128D01*
X56862D01*
Y-187232D01*
X56757D01*
Y-187337D01*
X56652D01*
Y-187442D01*
X56548D01*
Y-187547D01*
X56443D01*
Y-187651D01*
X56234D01*
Y-187756D01*
X55187D01*
Y-187651D01*
X54873D01*
Y-187547D01*
X54768D01*
Y-187442D01*
X54558D01*
Y-187337D01*
X54454D01*
Y-187232D01*
Y-187128D01*
X54349D01*
Y-187023D01*
Y-186918D01*
Y-186814D01*
Y-186709D01*
Y-186604D01*
Y-186500D01*
X54244D01*
Y-186395D01*
Y-186290D01*
Y-186186D01*
Y-186081D01*
Y-185976D01*
Y-185872D01*
Y-185767D01*
Y-185662D01*
Y-185557D01*
Y-185453D01*
Y-185348D01*
Y-185243D01*
Y-185139D01*
Y-185034D01*
Y-184929D01*
Y-184825D01*
Y-184720D01*
Y-184615D01*
Y-184511D01*
Y-184406D01*
Y-184301D01*
X54977D01*
Y-184406D01*
Y-184511D01*
Y-184615D01*
Y-184720D01*
Y-184825D01*
Y-184929D01*
Y-185034D01*
Y-185139D01*
Y-185243D01*
Y-185348D01*
Y-185453D01*
Y-185557D01*
Y-185662D01*
Y-185767D01*
Y-185872D01*
Y-185976D01*
Y-186081D01*
Y-186186D01*
Y-186290D01*
Y-186395D01*
Y-186500D01*
Y-186604D01*
Y-186709D01*
X55082D01*
Y-186814D01*
Y-186918D01*
X55187D01*
Y-187023D01*
X55396D01*
Y-187128D01*
X55919D01*
Y-187023D01*
X56129D01*
Y-186918D01*
X56234D01*
Y-186814D01*
Y-186709D01*
X56338D01*
Y-186604D01*
X56234D01*
Y-186500D01*
X56338D01*
Y-186395D01*
Y-186290D01*
Y-186186D01*
Y-186081D01*
Y-185976D01*
Y-185872D01*
Y-185767D01*
Y-185662D01*
Y-185557D01*
Y-185453D01*
Y-185348D01*
Y-185243D01*
Y-185139D01*
Y-185034D01*
Y-184929D01*
Y-184825D01*
Y-184720D01*
Y-184615D01*
Y-184511D01*
Y-184406D01*
Y-184301D01*
X57071D01*
Y-184406D01*
D02*
G37*
G36*
X65656D02*
X65865D01*
Y-184511D01*
X66075D01*
Y-184615D01*
X66179D01*
Y-184720D01*
X66284D01*
Y-184825D01*
X66389D01*
Y-184929D01*
Y-185034D01*
Y-185139D01*
X66493D01*
Y-185243D01*
Y-185348D01*
Y-185453D01*
Y-185557D01*
X66389D01*
Y-185662D01*
Y-185767D01*
Y-185872D01*
X66284D01*
Y-185976D01*
X66179D01*
Y-186081D01*
X66075D01*
Y-186186D01*
X65865D01*
Y-186290D01*
X65760D01*
Y-186395D01*
Y-186500D01*
X65865D01*
Y-186604D01*
X65970D01*
Y-186709D01*
Y-186814D01*
X66075D01*
Y-186918D01*
X66179D01*
Y-187023D01*
X66284D01*
Y-187128D01*
Y-187232D01*
X66389D01*
Y-187337D01*
X66598D01*
Y-187442D01*
Y-187547D01*
X66703D01*
Y-187651D01*
X65760D01*
Y-187547D01*
X65656D01*
Y-187442D01*
Y-187337D01*
X65551D01*
Y-187232D01*
Y-187128D01*
X65447D01*
Y-187023D01*
X65342D01*
Y-186918D01*
X65237D01*
Y-186814D01*
Y-186709D01*
Y-186604D01*
X64818D01*
Y-186709D01*
Y-186814D01*
Y-186918D01*
Y-187023D01*
Y-187128D01*
Y-187232D01*
Y-187337D01*
Y-187442D01*
Y-187547D01*
Y-187651D01*
X64086D01*
Y-187547D01*
Y-187442D01*
Y-187337D01*
Y-187232D01*
Y-187128D01*
Y-187023D01*
Y-186918D01*
Y-186814D01*
Y-186709D01*
Y-186604D01*
Y-186500D01*
Y-186395D01*
Y-186290D01*
Y-186186D01*
Y-186081D01*
Y-185976D01*
Y-185872D01*
Y-185767D01*
Y-185662D01*
Y-185557D01*
Y-185453D01*
Y-185348D01*
Y-185243D01*
Y-185139D01*
Y-185034D01*
Y-184929D01*
Y-184825D01*
Y-184720D01*
Y-184615D01*
Y-184511D01*
Y-184406D01*
Y-184301D01*
X65656D01*
Y-184406D01*
D02*
G37*
G36*
X62934D02*
Y-184511D01*
Y-184615D01*
Y-184720D01*
Y-184825D01*
Y-184929D01*
Y-185034D01*
X61887D01*
Y-185139D01*
X61782D01*
Y-185243D01*
Y-185348D01*
Y-185453D01*
Y-185557D01*
X61887D01*
Y-185662D01*
X62934D01*
Y-185767D01*
Y-185872D01*
Y-185976D01*
Y-186081D01*
Y-186186D01*
Y-186290D01*
X62829D01*
Y-186395D01*
X61887D01*
Y-186500D01*
X61782D01*
Y-186604D01*
Y-186709D01*
Y-186814D01*
Y-186918D01*
X61992D01*
Y-187023D01*
X62934D01*
Y-187128D01*
Y-187232D01*
Y-187337D01*
Y-187442D01*
Y-187547D01*
Y-187651D01*
X61154D01*
Y-187547D01*
Y-187442D01*
Y-187337D01*
Y-187232D01*
Y-187128D01*
Y-187023D01*
Y-186918D01*
Y-186814D01*
Y-186709D01*
Y-186604D01*
Y-186500D01*
Y-186395D01*
Y-186290D01*
Y-186186D01*
Y-186081D01*
Y-185976D01*
Y-185872D01*
Y-185767D01*
Y-185662D01*
Y-185557D01*
Y-185453D01*
Y-185348D01*
Y-185243D01*
Y-185139D01*
Y-185034D01*
Y-184929D01*
Y-184825D01*
Y-184720D01*
Y-184615D01*
Y-184511D01*
Y-184406D01*
Y-184301D01*
X62934D01*
Y-184406D01*
D02*
G37*
G36*
X60107D02*
X60212D01*
Y-184511D01*
Y-184615D01*
Y-184720D01*
Y-184825D01*
Y-184929D01*
Y-185034D01*
X59479D01*
Y-185139D01*
Y-185243D01*
Y-185348D01*
Y-185453D01*
Y-185557D01*
Y-185662D01*
Y-185767D01*
Y-185872D01*
Y-185976D01*
Y-186081D01*
Y-186186D01*
Y-186290D01*
Y-186395D01*
Y-186500D01*
Y-186604D01*
Y-186709D01*
Y-186814D01*
Y-186918D01*
Y-187023D01*
Y-187128D01*
Y-187232D01*
Y-187337D01*
Y-187442D01*
Y-187547D01*
Y-187651D01*
X58746D01*
Y-187547D01*
Y-187442D01*
Y-187337D01*
Y-187232D01*
Y-187128D01*
Y-187023D01*
Y-186918D01*
Y-186814D01*
Y-186709D01*
Y-186604D01*
Y-186500D01*
Y-186395D01*
Y-186290D01*
Y-186186D01*
Y-186081D01*
Y-185976D01*
Y-185872D01*
Y-185767D01*
Y-185662D01*
Y-185557D01*
Y-185453D01*
Y-185348D01*
Y-185243D01*
X58641D01*
Y-185139D01*
Y-185034D01*
X58013D01*
Y-184929D01*
Y-184825D01*
Y-184720D01*
Y-184615D01*
Y-184511D01*
X57909D01*
Y-184406D01*
X58013D01*
Y-184301D01*
X60107D01*
Y-184406D01*
D02*
G37*
G36*
X52464D02*
X52779D01*
Y-184511D01*
Y-184615D01*
X52883D01*
Y-184720D01*
X52988D01*
Y-184825D01*
X53093D01*
Y-184929D01*
Y-185034D01*
X53197D01*
Y-185139D01*
Y-185243D01*
Y-185348D01*
Y-185453D01*
Y-185557D01*
Y-185662D01*
Y-185767D01*
Y-185872D01*
Y-185976D01*
X53093D01*
Y-186081D01*
Y-186186D01*
X52988D01*
Y-186290D01*
X52883D01*
Y-186395D01*
X52674D01*
Y-186500D01*
X52464D01*
Y-186604D01*
X51522D01*
Y-186709D01*
Y-186814D01*
Y-186918D01*
Y-187023D01*
Y-187128D01*
Y-187232D01*
Y-187337D01*
Y-187442D01*
Y-187547D01*
Y-187651D01*
X50789D01*
Y-187547D01*
Y-187442D01*
Y-187337D01*
Y-187232D01*
X50894D01*
Y-187128D01*
X50789D01*
Y-187023D01*
Y-186918D01*
Y-186814D01*
Y-186709D01*
Y-186604D01*
Y-186500D01*
Y-186395D01*
Y-186290D01*
Y-186186D01*
Y-186081D01*
Y-185976D01*
Y-185872D01*
Y-185767D01*
Y-185662D01*
Y-185557D01*
Y-185453D01*
Y-185348D01*
Y-185243D01*
Y-185139D01*
Y-185034D01*
Y-184929D01*
Y-184825D01*
Y-184720D01*
Y-184615D01*
Y-184511D01*
X50894D01*
Y-184406D01*
X50789D01*
Y-184301D01*
X52464D01*
Y-184406D01*
D02*
G37*
G36*
X35190Y-185453D02*
X35400D01*
Y-185557D01*
X35504D01*
Y-185662D01*
X35609D01*
Y-185767D01*
X35714D01*
Y-185872D01*
X35818D01*
Y-185976D01*
Y-186081D01*
Y-186186D01*
X35923D01*
Y-186290D01*
Y-186395D01*
Y-186500D01*
Y-186604D01*
Y-186709D01*
Y-186814D01*
X35818D01*
Y-186918D01*
Y-187023D01*
X35714D01*
Y-187128D01*
X35609D01*
Y-187232D01*
X35504D01*
Y-187337D01*
X35400D01*
Y-187442D01*
X35295D01*
Y-187547D01*
X35085D01*
Y-187651D01*
X33934D01*
Y-187547D01*
Y-187442D01*
Y-187337D01*
Y-187232D01*
Y-187128D01*
Y-187023D01*
Y-186918D01*
Y-186814D01*
Y-186709D01*
Y-186604D01*
Y-186500D01*
Y-186395D01*
Y-186290D01*
Y-186186D01*
Y-186081D01*
Y-185976D01*
Y-185872D01*
Y-185767D01*
Y-185662D01*
Y-185557D01*
Y-185453D01*
Y-185348D01*
X35190D01*
Y-185453D01*
D02*
G37*
G36*
X29118D02*
Y-185557D01*
X29223D01*
Y-185662D01*
X29118D01*
Y-185767D01*
X29223D01*
Y-185872D01*
Y-185976D01*
X29327D01*
Y-186081D01*
Y-186186D01*
Y-186290D01*
X29432D01*
Y-186395D01*
Y-186500D01*
Y-186604D01*
X29537D01*
Y-186709D01*
Y-186814D01*
X29642D01*
Y-186918D01*
Y-187023D01*
Y-187128D01*
X29746D01*
Y-187232D01*
Y-187337D01*
X29851D01*
Y-187442D01*
Y-187547D01*
Y-187651D01*
X29327D01*
Y-187547D01*
X29432D01*
Y-187442D01*
X29327D01*
Y-187337D01*
X29223D01*
Y-187232D01*
X28176D01*
Y-187337D01*
Y-187442D01*
Y-187547D01*
X28071D01*
Y-187651D01*
X27548D01*
Y-187547D01*
Y-187442D01*
X27652D01*
Y-187337D01*
X27757D01*
Y-187232D01*
Y-187128D01*
Y-187023D01*
X27862D01*
Y-186918D01*
Y-186814D01*
Y-186709D01*
X27966D01*
Y-186604D01*
Y-186500D01*
Y-186395D01*
X28071D01*
Y-186290D01*
Y-186186D01*
X28176D01*
Y-186081D01*
Y-185976D01*
Y-185872D01*
X28280D01*
Y-185767D01*
Y-185662D01*
X28385D01*
Y-185557D01*
Y-185453D01*
Y-185348D01*
X29118D01*
Y-185453D01*
D02*
G37*
G36*
X24616Y-184406D02*
X24721D01*
Y-184511D01*
Y-184615D01*
Y-184720D01*
Y-184825D01*
Y-184929D01*
Y-185034D01*
Y-185139D01*
Y-185243D01*
Y-185348D01*
Y-185453D01*
Y-185557D01*
Y-185662D01*
Y-185767D01*
Y-185872D01*
Y-185976D01*
Y-186081D01*
Y-186186D01*
Y-186290D01*
Y-186395D01*
Y-186500D01*
Y-186604D01*
Y-186709D01*
Y-186814D01*
Y-186918D01*
Y-187023D01*
X25768D01*
Y-187128D01*
X25663D01*
Y-187232D01*
Y-187337D01*
Y-187442D01*
Y-187547D01*
X25768D01*
Y-187651D01*
X23883D01*
Y-187547D01*
X23988D01*
Y-187442D01*
Y-187337D01*
Y-187232D01*
Y-187128D01*
Y-187023D01*
Y-186918D01*
Y-186814D01*
Y-186709D01*
Y-186604D01*
Y-186500D01*
Y-186395D01*
Y-186290D01*
Y-186186D01*
Y-186081D01*
Y-185976D01*
Y-185872D01*
Y-185767D01*
Y-185662D01*
Y-185557D01*
Y-185453D01*
Y-185348D01*
Y-185243D01*
Y-185139D01*
Y-185034D01*
Y-184929D01*
Y-184825D01*
Y-184720D01*
Y-184615D01*
Y-184511D01*
Y-184406D01*
X23883D01*
Y-184301D01*
X24616D01*
Y-184406D01*
D02*
G37*
G36*
X21790D02*
X21894D01*
Y-184511D01*
Y-184615D01*
Y-184720D01*
X21999D01*
Y-184825D01*
Y-184929D01*
Y-185034D01*
X22104D01*
Y-185139D01*
X21999D01*
Y-185243D01*
X22104D01*
Y-185348D01*
Y-185453D01*
X22208D01*
Y-185557D01*
Y-185662D01*
Y-185767D01*
X22313D01*
Y-185872D01*
Y-185976D01*
Y-186081D01*
X22418D01*
Y-186186D01*
Y-186290D01*
Y-186395D01*
X22522D01*
Y-186500D01*
Y-186604D01*
X22627D01*
Y-186709D01*
Y-186814D01*
Y-186918D01*
X22732D01*
Y-187023D01*
Y-187128D01*
X22836D01*
Y-187232D01*
Y-187337D01*
X22941D01*
Y-187442D01*
Y-187547D01*
X23046D01*
Y-187651D01*
X22208D01*
Y-187547D01*
X22104D01*
Y-187442D01*
X22208D01*
Y-187337D01*
X22104D01*
Y-187232D01*
X21894D01*
Y-187128D01*
X21685D01*
Y-187023D01*
X20952D01*
Y-187128D01*
X20533D01*
Y-187232D01*
Y-187337D01*
Y-187442D01*
X20428D01*
Y-187547D01*
Y-187651D01*
X19696D01*
Y-187547D01*
Y-187442D01*
X19800D01*
Y-187337D01*
Y-187232D01*
X19905D01*
Y-187128D01*
Y-187023D01*
Y-186918D01*
X20010D01*
Y-186814D01*
Y-186709D01*
Y-186604D01*
X20114D01*
Y-186500D01*
Y-186395D01*
X20219D01*
Y-186290D01*
Y-186186D01*
Y-186081D01*
Y-185976D01*
X20324D01*
Y-185872D01*
Y-185767D01*
Y-185662D01*
X20428D01*
Y-185557D01*
Y-185453D01*
X20533D01*
Y-185348D01*
Y-185243D01*
X20638D01*
Y-185139D01*
Y-185034D01*
Y-184929D01*
X20743D01*
Y-184825D01*
Y-184720D01*
Y-184615D01*
X20847D01*
Y-184511D01*
Y-184406D01*
X20952D01*
Y-184301D01*
X21790D01*
Y-184406D01*
D02*
G37*
G36*
X15299D02*
Y-184511D01*
Y-184615D01*
Y-184720D01*
Y-184825D01*
Y-184929D01*
Y-185034D01*
Y-185139D01*
Y-185243D01*
Y-185348D01*
Y-185453D01*
Y-185557D01*
Y-185662D01*
Y-185767D01*
Y-185872D01*
Y-185976D01*
Y-186081D01*
Y-186186D01*
Y-186290D01*
Y-186395D01*
Y-186500D01*
Y-186604D01*
Y-186709D01*
Y-186814D01*
Y-186918D01*
Y-187023D01*
Y-187128D01*
Y-187232D01*
Y-187337D01*
Y-187442D01*
Y-187547D01*
Y-187651D01*
X14566D01*
Y-187547D01*
Y-187442D01*
Y-187337D01*
Y-187232D01*
Y-187128D01*
Y-187023D01*
Y-186918D01*
Y-186814D01*
Y-186709D01*
Y-186604D01*
Y-186500D01*
Y-186395D01*
Y-186290D01*
Y-186186D01*
Y-186081D01*
Y-185976D01*
Y-185872D01*
Y-185767D01*
Y-185662D01*
Y-185557D01*
Y-185453D01*
Y-185348D01*
Y-185243D01*
Y-185139D01*
Y-185034D01*
Y-184929D01*
Y-184825D01*
Y-184720D01*
Y-184615D01*
Y-184511D01*
Y-184406D01*
Y-184301D01*
X15299D01*
Y-184406D01*
D02*
G37*
G36*
X12576D02*
X12891D01*
Y-184511D01*
X12995D01*
Y-184615D01*
X13205D01*
Y-184720D01*
X13100D01*
Y-184825D01*
X13309D01*
Y-184929D01*
X13205D01*
Y-185034D01*
X13309D01*
Y-185139D01*
Y-185243D01*
Y-185348D01*
Y-185453D01*
Y-185557D01*
Y-185662D01*
X13205D01*
Y-185767D01*
X13309D01*
Y-185872D01*
X13205D01*
Y-185976D01*
X13100D01*
Y-186081D01*
X12995D01*
Y-186186D01*
X12786D01*
Y-186290D01*
X12681D01*
Y-186395D01*
Y-186500D01*
X12786D01*
Y-186604D01*
X12891D01*
Y-186709D01*
Y-186814D01*
X12995D01*
Y-186918D01*
X13100D01*
Y-187023D01*
X13205D01*
Y-187128D01*
Y-187232D01*
X13309D01*
Y-187337D01*
X13414D01*
Y-187442D01*
X13519D01*
Y-187547D01*
Y-187651D01*
X12681D01*
Y-187547D01*
X12576D01*
Y-187442D01*
X12472D01*
Y-187337D01*
Y-187232D01*
X12367D01*
Y-187128D01*
Y-187023D01*
X12263D01*
Y-186918D01*
X12158D01*
Y-186814D01*
Y-186709D01*
X12053D01*
Y-186604D01*
X11739D01*
Y-186709D01*
Y-186814D01*
Y-186918D01*
Y-187023D01*
Y-187128D01*
Y-187232D01*
Y-187337D01*
Y-187442D01*
Y-187547D01*
Y-187651D01*
X11006D01*
Y-187547D01*
Y-187442D01*
Y-187337D01*
Y-187232D01*
Y-187128D01*
Y-187023D01*
Y-186918D01*
Y-186814D01*
Y-186709D01*
Y-186604D01*
Y-186500D01*
Y-186395D01*
Y-186290D01*
Y-186186D01*
Y-186081D01*
Y-185976D01*
Y-185872D01*
Y-185767D01*
Y-185662D01*
Y-185557D01*
Y-185453D01*
Y-185348D01*
Y-185243D01*
Y-185139D01*
Y-185034D01*
Y-184929D01*
Y-184825D01*
Y-184720D01*
Y-184615D01*
Y-184511D01*
Y-184406D01*
Y-184301D01*
X12576D01*
Y-184406D01*
D02*
G37*
G36*
X9959D02*
X10064D01*
Y-184511D01*
Y-184615D01*
Y-184720D01*
Y-184825D01*
Y-184929D01*
Y-185034D01*
X9436D01*
Y-185139D01*
Y-185243D01*
Y-185348D01*
X9331D01*
Y-185453D01*
Y-185557D01*
Y-185662D01*
Y-185767D01*
Y-185872D01*
Y-185976D01*
Y-186081D01*
Y-186186D01*
Y-186290D01*
Y-186395D01*
Y-186500D01*
Y-186604D01*
Y-186709D01*
Y-186814D01*
Y-186918D01*
Y-187023D01*
Y-187128D01*
Y-187232D01*
Y-187337D01*
Y-187442D01*
Y-187547D01*
Y-187651D01*
X8598D01*
Y-187547D01*
Y-187442D01*
Y-187337D01*
Y-187232D01*
Y-187128D01*
Y-187023D01*
Y-186918D01*
Y-186814D01*
Y-186709D01*
Y-186604D01*
Y-186500D01*
Y-186395D01*
Y-186290D01*
Y-186186D01*
Y-186081D01*
Y-185976D01*
Y-185872D01*
Y-185767D01*
Y-185662D01*
Y-185557D01*
Y-185453D01*
Y-185348D01*
Y-185243D01*
Y-185139D01*
X8494D01*
Y-185034D01*
X7865D01*
Y-184929D01*
Y-184825D01*
Y-184720D01*
X7761D01*
Y-184615D01*
Y-184511D01*
Y-184406D01*
X7865D01*
Y-184301D01*
X9959D01*
Y-184406D01*
D02*
G37*
G36*
X3468D02*
X3573D01*
Y-184511D01*
Y-184615D01*
Y-184720D01*
Y-184825D01*
Y-184929D01*
Y-185034D01*
X2526D01*
Y-185139D01*
X2421D01*
Y-185243D01*
Y-185348D01*
Y-185453D01*
Y-185557D01*
X2526D01*
Y-185662D01*
X3468D01*
Y-185767D01*
Y-185872D01*
Y-185976D01*
Y-186081D01*
Y-186186D01*
Y-186290D01*
X3364D01*
Y-186395D01*
X2421D01*
Y-186500D01*
Y-186604D01*
Y-186709D01*
Y-186814D01*
Y-186918D01*
Y-187023D01*
X3468D01*
Y-187128D01*
X3573D01*
Y-187232D01*
Y-187337D01*
Y-187442D01*
Y-187547D01*
Y-187651D01*
X1688D01*
Y-187547D01*
Y-187442D01*
Y-187337D01*
Y-187232D01*
Y-187128D01*
Y-187023D01*
Y-186918D01*
Y-186814D01*
Y-186709D01*
Y-186604D01*
Y-186500D01*
Y-186395D01*
Y-186290D01*
Y-186186D01*
Y-186081D01*
Y-185976D01*
Y-185872D01*
Y-185767D01*
Y-185662D01*
Y-185557D01*
Y-185453D01*
Y-185348D01*
Y-185243D01*
Y-185139D01*
Y-185034D01*
Y-184929D01*
Y-184825D01*
Y-184720D01*
Y-184615D01*
Y-184511D01*
Y-184406D01*
Y-184301D01*
X3468D01*
Y-184406D01*
D02*
G37*
G36*
X-301D02*
Y-184511D01*
Y-184615D01*
Y-184720D01*
Y-184825D01*
Y-184929D01*
Y-185034D01*
Y-185139D01*
Y-185243D01*
Y-185348D01*
Y-185453D01*
Y-185557D01*
Y-185662D01*
Y-185767D01*
Y-185872D01*
Y-185976D01*
Y-186081D01*
Y-186186D01*
Y-186290D01*
Y-186395D01*
Y-186500D01*
Y-186604D01*
Y-186709D01*
Y-186814D01*
Y-186918D01*
X-196D01*
Y-187023D01*
X746D01*
Y-187128D01*
Y-187232D01*
Y-187337D01*
Y-187442D01*
Y-187547D01*
X851D01*
Y-187651D01*
X-1034D01*
Y-187547D01*
Y-187442D01*
Y-187337D01*
Y-187232D01*
Y-187128D01*
Y-187023D01*
Y-186918D01*
Y-186814D01*
Y-186709D01*
Y-186604D01*
Y-186500D01*
Y-186395D01*
Y-186290D01*
Y-186186D01*
Y-186081D01*
Y-185976D01*
Y-185872D01*
Y-185767D01*
Y-185662D01*
Y-185557D01*
Y-185453D01*
Y-185348D01*
Y-185243D01*
Y-185139D01*
Y-185034D01*
Y-184929D01*
Y-184825D01*
Y-184720D01*
Y-184615D01*
Y-184511D01*
Y-184406D01*
Y-184301D01*
X-301D01*
Y-184406D01*
D02*
G37*
G36*
X-2185D02*
Y-184511D01*
Y-184615D01*
Y-184720D01*
Y-184825D01*
Y-184929D01*
Y-185034D01*
X-3127D01*
Y-185139D01*
Y-185243D01*
X-3232D01*
Y-185348D01*
Y-185453D01*
Y-185557D01*
X-3023D01*
Y-185662D01*
X-2185D01*
Y-185767D01*
Y-185872D01*
Y-185976D01*
Y-186081D01*
Y-186186D01*
Y-186290D01*
X-2290D01*
Y-186395D01*
X-3127D01*
Y-186500D01*
Y-186604D01*
Y-186709D01*
X-3232D01*
Y-186814D01*
Y-186918D01*
X-3127D01*
Y-187023D01*
X-2185D01*
Y-187128D01*
Y-187232D01*
Y-187337D01*
Y-187442D01*
Y-187547D01*
Y-187651D01*
X-3965D01*
Y-187547D01*
Y-187442D01*
Y-187337D01*
Y-187232D01*
Y-187128D01*
Y-187023D01*
Y-186918D01*
Y-186814D01*
Y-186709D01*
Y-186604D01*
Y-186500D01*
Y-186395D01*
Y-186290D01*
Y-186186D01*
Y-186081D01*
Y-185976D01*
Y-185872D01*
Y-185767D01*
Y-185662D01*
Y-185557D01*
Y-185453D01*
Y-185348D01*
Y-185243D01*
Y-185139D01*
Y-185034D01*
Y-184929D01*
Y-184825D01*
Y-184720D01*
Y-184615D01*
Y-184511D01*
Y-184406D01*
Y-184301D01*
X-2185D01*
Y-184406D01*
D02*
G37*
G36*
X43461Y-184301D02*
X43775D01*
Y-184406D01*
X43880D01*
Y-184511D01*
X44089D01*
Y-184615D01*
X44194D01*
Y-184720D01*
X44298D01*
Y-184825D01*
X44403D01*
Y-184929D01*
X44508D01*
Y-185034D01*
X44613D01*
Y-185139D01*
Y-185243D01*
X44717D01*
Y-185348D01*
Y-185453D01*
X44822D01*
Y-185557D01*
Y-185662D01*
Y-185767D01*
Y-185872D01*
Y-185976D01*
Y-186081D01*
Y-186186D01*
Y-186290D01*
Y-186395D01*
Y-186500D01*
Y-186604D01*
X44717D01*
Y-186709D01*
Y-186814D01*
X44613D01*
Y-186918D01*
X44508D01*
Y-187023D01*
Y-187128D01*
X44403D01*
Y-187232D01*
X44298D01*
Y-187337D01*
X44089D01*
Y-187442D01*
X43984D01*
Y-187547D01*
X43880D01*
Y-187651D01*
X43566D01*
Y-187756D01*
X42519D01*
Y-187651D01*
X42205D01*
Y-187547D01*
X41995D01*
Y-187442D01*
X41891D01*
Y-187337D01*
X41786D01*
Y-187232D01*
X41681D01*
Y-187128D01*
X41576D01*
Y-187023D01*
X41472D01*
Y-186918D01*
Y-186814D01*
X41367D01*
Y-186709D01*
Y-186604D01*
Y-186500D01*
X41262D01*
Y-186395D01*
Y-186290D01*
Y-186186D01*
Y-186081D01*
Y-185976D01*
Y-185872D01*
Y-185767D01*
Y-185662D01*
Y-185557D01*
Y-185453D01*
X41367D01*
Y-185348D01*
Y-185243D01*
Y-185139D01*
X41472D01*
Y-185034D01*
X41576D01*
Y-184929D01*
Y-184825D01*
X41681D01*
Y-184720D01*
X41786D01*
Y-184615D01*
X41995D01*
Y-184511D01*
X42100D01*
Y-184406D01*
X42309D01*
Y-184301D01*
X42623D01*
Y-184196D01*
X43461D01*
Y-184301D01*
D02*
G37*
G36*
X31840Y-189745D02*
X32259D01*
Y-189850D01*
X32468D01*
Y-189954D01*
X32573D01*
Y-190059D01*
X32678D01*
Y-190164D01*
X32887D01*
Y-190269D01*
X32782D01*
Y-190373D01*
X32992D01*
Y-190478D01*
Y-190583D01*
X32887D01*
Y-190687D01*
X32573D01*
Y-190792D01*
X32259D01*
Y-190687D01*
X32154D01*
Y-190583D01*
X32049D01*
Y-190478D01*
X31840D01*
Y-190373D01*
X31107D01*
Y-190478D01*
X31003D01*
Y-190583D01*
X30898D01*
Y-190687D01*
X30793D01*
Y-190792D01*
Y-190897D01*
X30688D01*
Y-191001D01*
Y-191106D01*
Y-191211D01*
X30584D01*
Y-191315D01*
Y-191420D01*
Y-191525D01*
Y-191630D01*
Y-191734D01*
X30688D01*
Y-191839D01*
Y-191944D01*
Y-192048D01*
X30793D01*
Y-192153D01*
Y-192258D01*
X30898D01*
Y-192362D01*
X31003D01*
Y-192467D01*
X31107D01*
Y-192572D01*
X31317D01*
Y-192676D01*
X31840D01*
Y-192572D01*
X32049D01*
Y-192467D01*
X32154D01*
Y-192362D01*
X32259D01*
Y-192258D01*
Y-192153D01*
X32364D01*
Y-192048D01*
Y-191944D01*
X31631D01*
Y-191839D01*
Y-191734D01*
Y-191630D01*
Y-191525D01*
Y-191420D01*
Y-191315D01*
X33201D01*
Y-191420D01*
Y-191525D01*
Y-191630D01*
Y-191734D01*
Y-191839D01*
Y-191944D01*
X33096D01*
Y-192048D01*
Y-192153D01*
Y-192258D01*
X32992D01*
Y-192362D01*
Y-192467D01*
Y-192572D01*
X32887D01*
Y-192676D01*
X32782D01*
Y-192781D01*
X32678D01*
Y-192886D01*
X32573D01*
Y-192991D01*
X32364D01*
Y-193095D01*
X32154D01*
Y-193200D01*
X31840D01*
Y-193305D01*
X31317D01*
Y-193200D01*
X30898D01*
Y-193095D01*
X30688D01*
Y-192991D01*
X30479D01*
Y-192886D01*
X30374D01*
Y-192781D01*
X30270D01*
Y-192676D01*
X30165D01*
Y-192572D01*
X30060D01*
Y-192467D01*
Y-192362D01*
X29956D01*
Y-192258D01*
Y-192153D01*
X29851D01*
Y-192048D01*
Y-191944D01*
Y-191839D01*
X29746D01*
Y-191734D01*
Y-191630D01*
Y-191525D01*
Y-191420D01*
Y-191315D01*
Y-191211D01*
Y-191106D01*
X29851D01*
Y-191001D01*
Y-190897D01*
Y-190792D01*
X29956D01*
Y-190687D01*
Y-190583D01*
X30060D01*
Y-190478D01*
Y-190373D01*
X30270D01*
Y-190269D01*
Y-190164D01*
X30479D01*
Y-190059D01*
X30584D01*
Y-189954D01*
X30688D01*
Y-189850D01*
X30898D01*
Y-189745D01*
X31317D01*
Y-189640D01*
X31840D01*
Y-189745D01*
D02*
G37*
G36*
X5353D02*
X5771D01*
Y-189850D01*
X5981D01*
Y-189954D01*
X6086D01*
Y-190059D01*
X6190D01*
Y-190164D01*
X6295D01*
Y-190269D01*
X6400D01*
Y-190373D01*
X6504D01*
Y-190478D01*
Y-190583D01*
X6295D01*
Y-190687D01*
X6086D01*
Y-190792D01*
X5667D01*
Y-190687D01*
Y-190583D01*
X5562D01*
Y-190478D01*
X5353D01*
Y-190373D01*
X4620D01*
Y-190478D01*
X4515D01*
Y-190583D01*
X4411D01*
Y-190687D01*
X4306D01*
Y-190792D01*
X4201D01*
Y-190897D01*
Y-191001D01*
Y-191106D01*
X4096D01*
Y-191211D01*
Y-191315D01*
Y-191420D01*
Y-191525D01*
Y-191630D01*
Y-191734D01*
Y-191839D01*
X4201D01*
Y-191944D01*
Y-192048D01*
Y-192153D01*
X4306D01*
Y-192258D01*
X4201D01*
Y-192362D01*
X4515D01*
Y-192467D01*
X4620D01*
Y-192572D01*
X4829D01*
Y-192676D01*
X5248D01*
Y-192572D01*
X5562D01*
Y-192467D01*
X5667D01*
Y-192362D01*
Y-192258D01*
X5771D01*
Y-192153D01*
Y-192048D01*
X5667D01*
Y-191944D01*
X5143D01*
Y-191839D01*
Y-191734D01*
Y-191630D01*
Y-191525D01*
Y-191420D01*
Y-191315D01*
X6714D01*
Y-191420D01*
Y-191525D01*
Y-191630D01*
Y-191734D01*
Y-191839D01*
Y-191944D01*
X6609D01*
Y-192048D01*
Y-192153D01*
Y-192258D01*
Y-192362D01*
X6400D01*
Y-192467D01*
Y-192572D01*
Y-192676D01*
X6295D01*
Y-192781D01*
X6190D01*
Y-192886D01*
X6086D01*
Y-192991D01*
X5876D01*
Y-193095D01*
X5771D01*
Y-193200D01*
X5248D01*
Y-193305D01*
X4829D01*
Y-193200D01*
X4411D01*
Y-193095D01*
X4201D01*
Y-192991D01*
X3992D01*
Y-192886D01*
X3887D01*
Y-192781D01*
X3678D01*
Y-192676D01*
Y-192572D01*
X3573D01*
Y-192467D01*
Y-192362D01*
X3468D01*
Y-192258D01*
Y-192153D01*
X3364D01*
Y-192048D01*
Y-191944D01*
Y-191839D01*
Y-191734D01*
X3259D01*
Y-191630D01*
Y-191525D01*
Y-191420D01*
Y-191315D01*
Y-191211D01*
X3364D01*
Y-191106D01*
Y-191001D01*
Y-190897D01*
Y-190792D01*
X3468D01*
Y-190687D01*
Y-190583D01*
X3573D01*
Y-190478D01*
Y-190373D01*
X3678D01*
Y-190269D01*
Y-190164D01*
X3782D01*
Y-190059D01*
X3992D01*
Y-189954D01*
X4096D01*
Y-189850D01*
X4411D01*
Y-189745D01*
X4829D01*
Y-189640D01*
X5353D01*
Y-189745D01*
D02*
G37*
G36*
X28804Y-189850D02*
Y-189954D01*
Y-190059D01*
Y-190164D01*
Y-190269D01*
Y-190373D01*
Y-190478D01*
Y-190583D01*
Y-190687D01*
Y-190792D01*
Y-190897D01*
Y-191001D01*
Y-191106D01*
Y-191211D01*
Y-191315D01*
Y-191420D01*
Y-191525D01*
Y-191630D01*
Y-191734D01*
Y-191839D01*
Y-191944D01*
Y-192048D01*
Y-192153D01*
Y-192258D01*
Y-192362D01*
Y-192467D01*
Y-192572D01*
Y-192676D01*
Y-192781D01*
Y-192886D01*
Y-192991D01*
Y-193095D01*
Y-193200D01*
X28071D01*
Y-193095D01*
X27966D01*
Y-192991D01*
X27862D01*
Y-192886D01*
X27757D01*
Y-192781D01*
Y-192676D01*
X27652D01*
Y-192572D01*
X27548D01*
Y-192467D01*
X27443D01*
Y-192362D01*
Y-192258D01*
X27338D01*
Y-192153D01*
X27234D01*
Y-192048D01*
X27129D01*
Y-191944D01*
Y-191839D01*
X27024D01*
Y-191734D01*
X26919D01*
Y-191630D01*
X26815D01*
Y-191525D01*
X26710D01*
Y-191420D01*
Y-191315D01*
X26605D01*
Y-191211D01*
X26291D01*
Y-191315D01*
Y-191420D01*
Y-191525D01*
Y-191630D01*
Y-191734D01*
Y-191839D01*
Y-191944D01*
Y-192048D01*
Y-192153D01*
Y-192258D01*
Y-192362D01*
Y-192467D01*
Y-192572D01*
Y-192676D01*
Y-192781D01*
Y-192886D01*
Y-192991D01*
Y-193095D01*
X26187D01*
Y-193200D01*
X25559D01*
Y-193095D01*
Y-192991D01*
Y-192886D01*
Y-192781D01*
Y-192676D01*
Y-192572D01*
Y-192467D01*
Y-192362D01*
Y-192258D01*
Y-192153D01*
Y-192048D01*
Y-191944D01*
Y-191839D01*
Y-191734D01*
Y-191630D01*
Y-191525D01*
Y-191420D01*
Y-191315D01*
Y-191211D01*
Y-191106D01*
Y-191001D01*
Y-190897D01*
Y-190792D01*
Y-190687D01*
Y-190583D01*
Y-190478D01*
Y-190373D01*
Y-190269D01*
Y-190164D01*
Y-190059D01*
Y-189954D01*
Y-189850D01*
Y-189745D01*
X26187D01*
Y-189850D01*
X26291D01*
Y-189954D01*
X26396D01*
Y-190059D01*
X26501D01*
Y-190164D01*
X26605D01*
Y-190269D01*
Y-190373D01*
X26710D01*
Y-190478D01*
X26815D01*
Y-190583D01*
X26919D01*
Y-190687D01*
X27024D01*
Y-190792D01*
Y-190897D01*
X27234D01*
Y-191001D01*
X27338D01*
Y-191106D01*
X27443D01*
Y-191211D01*
Y-191315D01*
X27548D01*
Y-191420D01*
X27652D01*
Y-191525D01*
Y-191630D01*
Y-191734D01*
X27966D01*
Y-191630D01*
Y-191525D01*
Y-191420D01*
X28071D01*
Y-191315D01*
Y-191211D01*
Y-191106D01*
X27966D01*
Y-191001D01*
X28071D01*
Y-190897D01*
Y-190792D01*
Y-190687D01*
X27966D01*
Y-190583D01*
Y-190478D01*
Y-190373D01*
Y-190269D01*
Y-190164D01*
Y-190059D01*
Y-189954D01*
X28071D01*
Y-189850D01*
Y-189745D01*
X28804D01*
Y-189850D01*
D02*
G37*
G36*
X12891D02*
X12995D01*
Y-189954D01*
Y-190059D01*
Y-190164D01*
Y-190269D01*
Y-190373D01*
Y-190478D01*
Y-190583D01*
Y-190687D01*
Y-190792D01*
Y-190897D01*
Y-191001D01*
Y-191106D01*
Y-191211D01*
Y-191315D01*
Y-191420D01*
Y-191525D01*
Y-191630D01*
Y-191734D01*
Y-191839D01*
Y-191944D01*
Y-192048D01*
Y-192153D01*
Y-192258D01*
Y-192362D01*
Y-192467D01*
Y-192572D01*
Y-192676D01*
Y-192781D01*
Y-192886D01*
Y-192991D01*
Y-193095D01*
X12891D01*
Y-193200D01*
X12158D01*
Y-193095D01*
X12053D01*
Y-192991D01*
X11948D01*
Y-192886D01*
X11844D01*
Y-192781D01*
Y-192676D01*
Y-192572D01*
X11634D01*
Y-192467D01*
X11530D01*
Y-192362D01*
X11425D01*
Y-192258D01*
Y-192153D01*
X11320D01*
Y-192048D01*
X11215D01*
Y-191944D01*
Y-191839D01*
X11111D01*
Y-191734D01*
X11006D01*
Y-191630D01*
X10901D01*
Y-191525D01*
Y-191420D01*
X10797D01*
Y-191315D01*
X10692D01*
Y-191211D01*
X10587D01*
Y-191106D01*
X10378D01*
Y-191211D01*
Y-191315D01*
Y-191420D01*
Y-191525D01*
Y-191630D01*
Y-191734D01*
Y-191839D01*
Y-191944D01*
Y-192048D01*
Y-192153D01*
Y-192258D01*
Y-192362D01*
Y-192467D01*
Y-192572D01*
Y-192676D01*
Y-192781D01*
Y-192886D01*
Y-192991D01*
Y-193095D01*
Y-193200D01*
X9750D01*
Y-193095D01*
X9645D01*
Y-192991D01*
Y-192886D01*
Y-192781D01*
Y-192676D01*
Y-192572D01*
Y-192467D01*
Y-192362D01*
Y-192258D01*
Y-192153D01*
Y-192048D01*
Y-191944D01*
Y-191839D01*
Y-191734D01*
Y-191630D01*
Y-191525D01*
Y-191420D01*
Y-191315D01*
Y-191211D01*
Y-191106D01*
Y-191001D01*
Y-190897D01*
Y-190792D01*
Y-190687D01*
Y-190583D01*
Y-190478D01*
Y-190373D01*
Y-190269D01*
Y-190164D01*
Y-190059D01*
Y-189954D01*
Y-189850D01*
X9750D01*
Y-189745D01*
X10378D01*
Y-189850D01*
X10483D01*
Y-189954D01*
X10587D01*
Y-190059D01*
X10692D01*
Y-190164D01*
X10797D01*
Y-190269D01*
Y-190373D01*
X10901D01*
Y-190478D01*
X11006D01*
Y-190583D01*
X11111D01*
Y-190687D01*
Y-190792D01*
X11215D01*
Y-190897D01*
X11320D01*
Y-191001D01*
X11425D01*
Y-191106D01*
X11530D01*
Y-191211D01*
Y-191315D01*
X11634D01*
Y-191420D01*
X11739D01*
Y-191525D01*
Y-191630D01*
X11844D01*
Y-191734D01*
X12263D01*
Y-191630D01*
Y-191525D01*
Y-191420D01*
Y-191315D01*
Y-191211D01*
Y-191106D01*
Y-191001D01*
Y-190897D01*
Y-190792D01*
Y-190687D01*
Y-190583D01*
Y-190478D01*
Y-190373D01*
Y-190269D01*
Y-190164D01*
Y-190059D01*
Y-189954D01*
Y-189850D01*
Y-189745D01*
X12891D01*
Y-189850D01*
D02*
G37*
G36*
X2212D02*
X2317D01*
Y-189954D01*
Y-190059D01*
Y-190164D01*
Y-190269D01*
Y-190373D01*
Y-190478D01*
Y-190583D01*
Y-190687D01*
Y-190792D01*
Y-190897D01*
Y-191001D01*
Y-191106D01*
Y-191211D01*
Y-191315D01*
Y-191420D01*
Y-191525D01*
Y-191630D01*
Y-191734D01*
Y-191839D01*
Y-191944D01*
Y-192048D01*
Y-192153D01*
Y-192258D01*
Y-192362D01*
Y-192467D01*
Y-192572D01*
Y-192676D01*
Y-192781D01*
Y-192886D01*
Y-192991D01*
Y-193095D01*
X2212D01*
Y-193200D01*
X1479D01*
Y-193095D01*
X1374D01*
Y-192991D01*
X1270D01*
Y-192886D01*
X1165D01*
Y-192781D01*
Y-192676D01*
Y-192572D01*
X956D01*
Y-192467D01*
X851D01*
Y-192362D01*
Y-192258D01*
X746D01*
Y-192153D01*
X642D01*
Y-192048D01*
X537D01*
Y-191944D01*
Y-191839D01*
X432D01*
Y-191734D01*
X328D01*
Y-191630D01*
X223D01*
Y-191525D01*
Y-191420D01*
X118D01*
Y-191315D01*
X13D01*
Y-191211D01*
X-301D01*
Y-191315D01*
Y-191420D01*
Y-191525D01*
Y-191630D01*
Y-191734D01*
Y-191839D01*
Y-191944D01*
Y-192048D01*
Y-192153D01*
Y-192258D01*
Y-192362D01*
Y-192467D01*
Y-192572D01*
Y-192676D01*
Y-192781D01*
Y-192886D01*
Y-192991D01*
Y-193095D01*
Y-193200D01*
X-1034D01*
Y-193095D01*
Y-192991D01*
Y-192886D01*
Y-192781D01*
Y-192676D01*
Y-192572D01*
Y-192467D01*
Y-192362D01*
Y-192258D01*
Y-192153D01*
Y-192048D01*
Y-191944D01*
Y-191839D01*
Y-191734D01*
Y-191630D01*
Y-191525D01*
Y-191420D01*
Y-191315D01*
Y-191211D01*
Y-191106D01*
Y-191001D01*
Y-190897D01*
Y-190792D01*
Y-190687D01*
Y-190583D01*
Y-190478D01*
Y-190373D01*
Y-190269D01*
Y-190164D01*
Y-190059D01*
Y-189954D01*
Y-189850D01*
X-929D01*
Y-189745D01*
X-301D01*
Y-189850D01*
X-196D01*
Y-189954D01*
X-91D01*
Y-190059D01*
X13D01*
Y-190164D01*
X118D01*
Y-190269D01*
Y-190373D01*
X223D01*
Y-190478D01*
X328D01*
Y-190583D01*
X432D01*
Y-190687D01*
X537D01*
Y-190792D01*
Y-190897D01*
X642D01*
Y-191001D01*
X746D01*
Y-191106D01*
Y-191211D01*
X851D01*
Y-191315D01*
X956D01*
Y-191420D01*
X1060D01*
Y-191525D01*
X1165D01*
Y-191630D01*
Y-191734D01*
X1479D01*
Y-191630D01*
X1584D01*
Y-191525D01*
Y-191420D01*
Y-191315D01*
Y-191211D01*
Y-191106D01*
Y-191001D01*
Y-190897D01*
Y-190792D01*
Y-190687D01*
Y-190583D01*
Y-190478D01*
Y-190373D01*
Y-190269D01*
Y-190164D01*
Y-190059D01*
Y-189954D01*
Y-189850D01*
Y-189745D01*
X2212D01*
Y-189850D01*
D02*
G37*
G36*
X24197D02*
X24302D01*
Y-189954D01*
Y-190059D01*
Y-190164D01*
Y-190269D01*
Y-190373D01*
Y-190478D01*
Y-190583D01*
Y-190687D01*
Y-190792D01*
Y-190897D01*
Y-191001D01*
Y-191106D01*
Y-191211D01*
Y-191315D01*
Y-191420D01*
Y-191525D01*
Y-191630D01*
Y-191734D01*
Y-191839D01*
Y-191944D01*
Y-192048D01*
Y-192153D01*
Y-192258D01*
Y-192362D01*
Y-192467D01*
Y-192572D01*
Y-192676D01*
Y-192781D01*
Y-192886D01*
Y-192991D01*
Y-193095D01*
Y-193200D01*
X23674D01*
Y-193095D01*
Y-192991D01*
Y-192886D01*
Y-192781D01*
Y-192676D01*
Y-192572D01*
Y-192467D01*
Y-192362D01*
Y-192258D01*
Y-192153D01*
Y-192048D01*
Y-191944D01*
Y-191839D01*
Y-191734D01*
Y-191630D01*
Y-191525D01*
Y-191420D01*
Y-191315D01*
Y-191211D01*
Y-191106D01*
Y-191001D01*
Y-190897D01*
Y-190792D01*
Y-190687D01*
Y-190583D01*
Y-190478D01*
Y-190373D01*
Y-190269D01*
Y-190164D01*
Y-190059D01*
Y-189954D01*
Y-189850D01*
Y-189745D01*
X24197D01*
Y-189850D01*
D02*
G37*
G36*
X21371D02*
X21894D01*
Y-189954D01*
X22104D01*
Y-190059D01*
X22208D01*
Y-190164D01*
Y-190269D01*
Y-190373D01*
X22313D01*
Y-190478D01*
Y-190583D01*
Y-190687D01*
Y-190792D01*
X22418D01*
Y-190897D01*
X22313D01*
Y-191001D01*
Y-191106D01*
Y-191211D01*
X22208D01*
Y-191315D01*
Y-191420D01*
Y-191525D01*
X22104D01*
Y-191630D01*
X21894D01*
Y-191734D01*
X21790D01*
Y-191839D01*
Y-191944D01*
Y-192048D01*
X21894D01*
Y-192153D01*
X21999D01*
Y-192258D01*
X22104D01*
Y-192362D01*
Y-192467D01*
X22208D01*
Y-192572D01*
X22313D01*
Y-192676D01*
Y-192781D01*
X22418D01*
Y-192886D01*
X22522D01*
Y-192991D01*
X22627D01*
Y-193095D01*
Y-193200D01*
X21894D01*
Y-193095D01*
X21685D01*
Y-192991D01*
X21580D01*
Y-192886D01*
Y-192781D01*
X21475D01*
Y-192676D01*
Y-192572D01*
X21371D01*
Y-192467D01*
X21266D01*
Y-192362D01*
Y-192258D01*
X21161D01*
Y-192153D01*
X21057D01*
Y-192048D01*
X20743D01*
Y-192153D01*
Y-192258D01*
Y-192362D01*
Y-192467D01*
Y-192572D01*
Y-192676D01*
Y-192781D01*
Y-192886D01*
Y-192991D01*
Y-193095D01*
Y-193200D01*
X20114D01*
Y-193095D01*
Y-192991D01*
Y-192886D01*
Y-192781D01*
Y-192676D01*
Y-192572D01*
Y-192467D01*
Y-192362D01*
Y-192258D01*
Y-192153D01*
Y-192048D01*
Y-191944D01*
Y-191839D01*
Y-191734D01*
Y-191630D01*
Y-191525D01*
Y-191420D01*
Y-191315D01*
Y-191211D01*
Y-191106D01*
Y-191001D01*
Y-190897D01*
Y-190792D01*
Y-190687D01*
Y-190583D01*
Y-190478D01*
Y-190373D01*
Y-190269D01*
Y-190164D01*
Y-190059D01*
Y-189954D01*
Y-189850D01*
Y-189745D01*
X21371D01*
Y-189850D01*
D02*
G37*
G36*
X18858D02*
Y-189954D01*
Y-190059D01*
Y-190164D01*
Y-190269D01*
Y-190373D01*
X18021D01*
Y-190478D01*
X17811D01*
Y-190583D01*
Y-190687D01*
Y-190792D01*
Y-190897D01*
Y-191001D01*
Y-191106D01*
X18753D01*
Y-191211D01*
X18858D01*
Y-191315D01*
Y-191420D01*
Y-191525D01*
Y-191630D01*
Y-191734D01*
X18753D01*
Y-191839D01*
X17811D01*
Y-191944D01*
Y-192048D01*
Y-192153D01*
Y-192258D01*
Y-192362D01*
Y-192467D01*
X18858D01*
Y-192572D01*
Y-192676D01*
Y-192781D01*
Y-192886D01*
Y-192991D01*
Y-193095D01*
Y-193200D01*
X17183D01*
Y-193095D01*
X17078D01*
Y-192991D01*
Y-192886D01*
Y-192781D01*
Y-192676D01*
Y-192572D01*
Y-192467D01*
Y-192362D01*
Y-192258D01*
Y-192153D01*
Y-192048D01*
Y-191944D01*
Y-191839D01*
Y-191734D01*
Y-191630D01*
Y-191525D01*
Y-191420D01*
Y-191315D01*
Y-191211D01*
Y-191106D01*
Y-191001D01*
Y-190897D01*
Y-190792D01*
Y-190687D01*
Y-190583D01*
Y-190478D01*
Y-190373D01*
Y-190269D01*
Y-190164D01*
Y-190059D01*
Y-189954D01*
Y-189850D01*
X17183D01*
Y-189745D01*
X18858D01*
Y-189850D01*
D02*
G37*
G36*
X15822D02*
X15927D01*
Y-189954D01*
Y-190059D01*
Y-190164D01*
Y-190269D01*
Y-190373D01*
X15089D01*
Y-190478D01*
X14880D01*
Y-190583D01*
Y-190687D01*
Y-190792D01*
Y-190897D01*
Y-191001D01*
Y-191106D01*
X15927D01*
Y-191211D01*
Y-191315D01*
Y-191420D01*
Y-191525D01*
Y-191630D01*
Y-191734D01*
X15822D01*
Y-191839D01*
X14880D01*
Y-191944D01*
Y-192048D01*
Y-192153D01*
Y-192258D01*
Y-192362D01*
Y-192467D01*
X15927D01*
Y-192572D01*
Y-192676D01*
Y-192781D01*
Y-192886D01*
Y-192991D01*
Y-193095D01*
X15822D01*
Y-193200D01*
X14147D01*
Y-193095D01*
Y-192991D01*
Y-192886D01*
Y-192781D01*
Y-192676D01*
Y-192572D01*
Y-192467D01*
Y-192362D01*
Y-192258D01*
Y-192153D01*
Y-192048D01*
Y-191944D01*
Y-191839D01*
Y-191734D01*
Y-191630D01*
Y-191525D01*
Y-191420D01*
Y-191315D01*
Y-191211D01*
Y-191106D01*
Y-191001D01*
Y-190897D01*
Y-190792D01*
Y-190687D01*
Y-190583D01*
Y-190478D01*
Y-190373D01*
Y-190269D01*
Y-190164D01*
Y-190059D01*
Y-189954D01*
Y-189850D01*
X14252D01*
Y-189745D01*
X15822D01*
Y-189850D01*
D02*
G37*
G36*
X8389D02*
X8494D01*
Y-189954D01*
Y-190059D01*
Y-190164D01*
Y-190269D01*
Y-190373D01*
Y-190478D01*
Y-190583D01*
Y-190687D01*
Y-190792D01*
Y-190897D01*
Y-191001D01*
Y-191106D01*
Y-191211D01*
Y-191315D01*
Y-191420D01*
Y-191525D01*
Y-191630D01*
Y-191734D01*
Y-191839D01*
Y-191944D01*
Y-192048D01*
Y-192153D01*
Y-192258D01*
Y-192362D01*
Y-192467D01*
Y-192572D01*
Y-192676D01*
Y-192781D01*
Y-192886D01*
Y-192991D01*
Y-193095D01*
X8389D01*
Y-193200D01*
X7761D01*
Y-193095D01*
X7656D01*
Y-192991D01*
Y-192886D01*
Y-192781D01*
Y-192676D01*
Y-192572D01*
Y-192467D01*
Y-192362D01*
Y-192258D01*
Y-192153D01*
Y-192048D01*
Y-191944D01*
Y-191839D01*
Y-191734D01*
Y-191630D01*
Y-191525D01*
Y-191420D01*
Y-191315D01*
Y-191211D01*
Y-191106D01*
Y-191001D01*
Y-190897D01*
Y-190792D01*
Y-190687D01*
Y-190583D01*
Y-190478D01*
Y-190373D01*
Y-190269D01*
Y-190164D01*
Y-190059D01*
Y-189954D01*
Y-189850D01*
X7761D01*
Y-189745D01*
X8389D01*
Y-189850D01*
D02*
G37*
G36*
X-2290D02*
X-2185D01*
Y-189954D01*
Y-190059D01*
Y-190164D01*
Y-190269D01*
Y-190373D01*
X-3127D01*
Y-190478D01*
Y-190583D01*
Y-190687D01*
Y-190792D01*
Y-190897D01*
Y-191001D01*
Y-191106D01*
X-2185D01*
Y-191211D01*
Y-191315D01*
Y-191420D01*
Y-191525D01*
Y-191630D01*
Y-191734D01*
X-2290D01*
Y-191839D01*
X-3127D01*
Y-191944D01*
Y-192048D01*
Y-192153D01*
Y-192258D01*
Y-192362D01*
Y-192467D01*
X-2185D01*
Y-192572D01*
Y-192676D01*
Y-192781D01*
Y-192886D01*
Y-192991D01*
Y-193095D01*
X-2290D01*
Y-193200D01*
X-3965D01*
Y-193095D01*
Y-192991D01*
Y-192886D01*
Y-192781D01*
Y-192676D01*
Y-192572D01*
Y-192467D01*
Y-192362D01*
Y-192258D01*
Y-192153D01*
Y-192048D01*
Y-191944D01*
Y-191839D01*
Y-191734D01*
Y-191630D01*
Y-191525D01*
Y-191420D01*
Y-191315D01*
Y-191211D01*
Y-191106D01*
Y-191001D01*
Y-190897D01*
Y-190792D01*
Y-190687D01*
Y-190583D01*
Y-190478D01*
Y-190373D01*
Y-190269D01*
Y-190164D01*
Y-190059D01*
Y-189954D01*
Y-189850D01*
Y-189745D01*
X-2290D01*
Y-189850D01*
D02*
G37*
%LPC*%
G36*
X51920Y-140442D02*
X51529D01*
Y-140520D01*
Y-140598D01*
Y-140676D01*
Y-140754D01*
Y-140833D01*
X51920D01*
Y-140754D01*
Y-140676D01*
Y-140598D01*
Y-140520D01*
Y-140442D01*
D02*
G37*
G36*
X51372Y-140207D02*
X50981D01*
Y-140285D01*
X50903D01*
Y-140364D01*
Y-140442D01*
Y-140520D01*
Y-140598D01*
Y-140676D01*
Y-140754D01*
Y-140833D01*
X51294D01*
Y-140754D01*
X51372D01*
Y-140676D01*
Y-140598D01*
Y-140520D01*
Y-140442D01*
Y-140364D01*
Y-140285D01*
Y-140207D01*
D02*
G37*
G36*
X51451Y-144274D02*
X51216D01*
Y-144352D01*
X51138D01*
Y-144430D01*
Y-144508D01*
Y-144586D01*
Y-144665D01*
Y-144743D01*
X51529D01*
Y-144665D01*
Y-144586D01*
Y-144508D01*
Y-144430D01*
Y-144352D01*
X51451D01*
Y-144274D01*
D02*
G37*
G36*
X55282Y-155691D02*
X54813D01*
Y-155769D01*
Y-155848D01*
Y-155926D01*
Y-156004D01*
Y-156082D01*
X55282D01*
Y-156004D01*
Y-155926D01*
Y-155848D01*
Y-155769D01*
Y-155691D01*
D02*
G37*
G36*
X56143Y-155848D02*
X55595D01*
Y-155926D01*
Y-156004D01*
Y-156082D01*
Y-156160D01*
Y-156239D01*
X55673D01*
Y-156317D01*
X56064D01*
Y-156239D01*
X56143D01*
Y-156160D01*
Y-156082D01*
Y-156004D01*
Y-155926D01*
Y-155848D01*
D02*
G37*
G36*
X68655Y-147324D02*
X68186D01*
Y-147402D01*
Y-147480D01*
Y-147558D01*
Y-147636D01*
Y-147715D01*
X68655D01*
Y-147636D01*
Y-147558D01*
Y-147480D01*
Y-147402D01*
Y-147324D01*
D02*
G37*
G36*
X71236Y-148418D02*
X70845D01*
Y-148497D01*
Y-148575D01*
X70610D01*
Y-148653D01*
Y-148731D01*
Y-148809D01*
Y-148888D01*
Y-148966D01*
X70688D01*
Y-149044D01*
X71001D01*
Y-148966D01*
Y-148888D01*
X71079D01*
Y-148809D01*
X71236D01*
Y-148731D01*
Y-148653D01*
Y-148575D01*
Y-148497D01*
Y-148418D01*
D02*
G37*
G36*
X70532Y-148966D02*
X70063D01*
Y-149044D01*
Y-149122D01*
Y-149200D01*
Y-149279D01*
Y-149357D01*
X70532D01*
Y-149279D01*
Y-149200D01*
Y-149122D01*
Y-149044D01*
Y-148966D01*
D02*
G37*
G36*
X68655Y-149904D02*
X68264D01*
Y-149982D01*
X68186D01*
Y-150061D01*
Y-150139D01*
Y-150217D01*
Y-150295D01*
X68655D01*
Y-150217D01*
Y-150139D01*
Y-150061D01*
Y-149982D01*
Y-149904D01*
D02*
G37*
G36*
X20743Y-176030D02*
X20324D01*
Y-176135D01*
Y-176240D01*
Y-176344D01*
Y-176449D01*
Y-176554D01*
X20219D01*
Y-176658D01*
Y-176763D01*
Y-176868D01*
X20324D01*
Y-176973D01*
X20219D01*
Y-177077D01*
Y-177182D01*
Y-177287D01*
Y-177391D01*
Y-177496D01*
Y-177601D01*
X20114D01*
Y-177705D01*
Y-177810D01*
Y-177915D01*
X20010D01*
Y-178019D01*
Y-178124D01*
Y-178229D01*
X20114D01*
Y-178334D01*
X21057D01*
Y-178229D01*
X21161D01*
Y-178124D01*
Y-178019D01*
Y-177915D01*
Y-177810D01*
Y-177705D01*
X21057D01*
Y-177601D01*
Y-177496D01*
Y-177391D01*
Y-177287D01*
Y-177182D01*
X20952D01*
Y-177077D01*
Y-176973D01*
Y-176868D01*
Y-176763D01*
Y-176658D01*
X20847D01*
Y-176554D01*
Y-176449D01*
Y-176344D01*
Y-176240D01*
X20743D01*
Y-176135D01*
Y-176030D01*
D02*
G37*
G36*
X14147Y-175821D02*
X13100D01*
Y-175926D01*
Y-176030D01*
Y-176135D01*
Y-176240D01*
Y-176344D01*
Y-176449D01*
Y-176554D01*
Y-176658D01*
Y-176763D01*
Y-176868D01*
Y-176973D01*
Y-177077D01*
Y-177182D01*
Y-177287D01*
Y-177391D01*
Y-177496D01*
Y-177601D01*
Y-177705D01*
Y-177810D01*
Y-177915D01*
Y-178019D01*
Y-178124D01*
Y-178229D01*
Y-178334D01*
Y-178438D01*
Y-178543D01*
Y-178648D01*
Y-178752D01*
X14042D01*
Y-178648D01*
X14356D01*
Y-178543D01*
X14461D01*
Y-178438D01*
X14566D01*
Y-178334D01*
X14670D01*
Y-178229D01*
X14775D01*
Y-178124D01*
X14880D01*
Y-178019D01*
Y-177915D01*
Y-177810D01*
X14985D01*
Y-177705D01*
Y-177601D01*
Y-177496D01*
Y-177391D01*
Y-177287D01*
Y-177182D01*
Y-177077D01*
Y-176973D01*
Y-176868D01*
Y-176763D01*
X14880D01*
Y-176658D01*
Y-176554D01*
X14775D01*
Y-176449D01*
Y-176344D01*
X14670D01*
Y-176240D01*
X14566D01*
Y-176135D01*
X14461D01*
Y-176030D01*
X14356D01*
Y-175926D01*
X14147D01*
Y-175821D01*
D02*
G37*
G36*
X65447Y-185034D02*
X64818D01*
Y-185139D01*
Y-185243D01*
Y-185348D01*
Y-185453D01*
Y-185557D01*
Y-185662D01*
Y-185767D01*
X64923D01*
Y-185872D01*
X65237D01*
Y-185767D01*
X65551D01*
Y-185662D01*
X65656D01*
Y-185557D01*
Y-185453D01*
Y-185348D01*
Y-185243D01*
X65551D01*
Y-185139D01*
X65447D01*
Y-185034D01*
D02*
G37*
G36*
X52360D02*
X51522D01*
Y-185139D01*
Y-185243D01*
Y-185348D01*
Y-185453D01*
Y-185557D01*
Y-185662D01*
Y-185767D01*
Y-185872D01*
X52255D01*
Y-185767D01*
X52464D01*
Y-185662D01*
Y-185557D01*
X52569D01*
Y-185453D01*
Y-185348D01*
X52464D01*
Y-185243D01*
Y-185139D01*
X52360D01*
Y-185034D01*
D02*
G37*
G36*
X34981Y-185767D02*
X34457D01*
Y-185872D01*
X34353D01*
Y-185976D01*
Y-186081D01*
X34457D01*
Y-186186D01*
X34353D01*
Y-186290D01*
Y-186395D01*
X34457D01*
Y-186500D01*
Y-186604D01*
Y-186709D01*
Y-186814D01*
X34353D01*
Y-186918D01*
Y-187023D01*
Y-187128D01*
X34457D01*
Y-187232D01*
X34876D01*
Y-187128D01*
X35085D01*
Y-187023D01*
X35295D01*
Y-186918D01*
Y-186814D01*
Y-186709D01*
X35400D01*
Y-186604D01*
Y-186500D01*
Y-186395D01*
Y-186290D01*
X35295D01*
Y-186186D01*
Y-186081D01*
Y-185976D01*
X35190D01*
Y-185872D01*
X34981D01*
Y-185767D01*
D02*
G37*
G36*
X28909Y-186081D02*
X28595D01*
Y-186186D01*
Y-186290D01*
Y-186395D01*
X28490D01*
Y-186500D01*
Y-186604D01*
Y-186709D01*
Y-186814D01*
X29013D01*
Y-186709D01*
X29118D01*
Y-186604D01*
X29013D01*
Y-186500D01*
Y-186395D01*
Y-186290D01*
Y-186186D01*
X28909D01*
Y-186081D01*
D02*
G37*
G36*
X21475Y-185453D02*
X21161D01*
Y-185557D01*
Y-185662D01*
X21057D01*
Y-185767D01*
Y-185872D01*
Y-185976D01*
Y-186081D01*
X20952D01*
Y-186186D01*
Y-186290D01*
Y-186395D01*
Y-186500D01*
X21685D01*
Y-186395D01*
X21790D01*
Y-186290D01*
Y-186186D01*
X21685D01*
Y-186081D01*
Y-185976D01*
X21580D01*
Y-185872D01*
Y-185767D01*
Y-185662D01*
Y-185557D01*
X21475D01*
Y-185453D01*
D02*
G37*
G36*
X12472Y-185034D02*
X11739D01*
Y-185139D01*
Y-185243D01*
Y-185348D01*
Y-185453D01*
Y-185557D01*
Y-185662D01*
Y-185767D01*
Y-185872D01*
X12263D01*
Y-185767D01*
X12472D01*
Y-185662D01*
X12576D01*
Y-185557D01*
Y-185453D01*
Y-185348D01*
Y-185243D01*
Y-185139D01*
X12472D01*
Y-185034D01*
D02*
G37*
G36*
X43461D02*
X42519D01*
Y-185139D01*
X42414D01*
Y-185243D01*
X42309D01*
Y-185348D01*
X42205D01*
Y-185453D01*
X41995D01*
Y-185557D01*
Y-185662D01*
Y-185767D01*
Y-185872D01*
X41891D01*
Y-185976D01*
Y-186081D01*
X41995D01*
Y-186186D01*
Y-186290D01*
Y-186395D01*
Y-186500D01*
X42205D01*
Y-186604D01*
Y-186709D01*
X42309D01*
Y-186814D01*
X42414D01*
Y-186918D01*
X42623D01*
Y-187023D01*
X43461D01*
Y-186918D01*
X43566D01*
Y-186814D01*
X43775D01*
Y-186709D01*
X43880D01*
Y-186604D01*
Y-186500D01*
X43984D01*
Y-186395D01*
Y-186290D01*
Y-186186D01*
X44089D01*
Y-186081D01*
Y-185976D01*
Y-185872D01*
Y-185767D01*
X43984D01*
Y-185662D01*
Y-185557D01*
Y-185453D01*
X43880D01*
Y-185348D01*
X43775D01*
Y-185243D01*
X43670D01*
Y-185139D01*
X43461D01*
Y-185034D01*
D02*
G37*
G36*
X21266Y-190373D02*
X20847D01*
Y-190478D01*
X20743D01*
Y-190583D01*
Y-190687D01*
Y-190792D01*
Y-190897D01*
Y-191001D01*
Y-191106D01*
Y-191211D01*
Y-191315D01*
X21371D01*
Y-191211D01*
X21580D01*
Y-191106D01*
X21685D01*
Y-191001D01*
Y-190897D01*
Y-190792D01*
Y-190687D01*
X21580D01*
Y-190583D01*
X21475D01*
Y-190478D01*
X21266D01*
Y-190373D01*
D02*
G37*
%LPD*%
D10*
X-80400Y-133434D02*
G03*
X-80400Y-133040I0J197D01*
G01*
D02*
G03*
X-80400Y-133434I0J-197D01*
G01*
D02*
G03*
X-80400Y-133040I0J197D01*
G01*
X4900Y-133698D02*
G03*
X4900Y-133305I0J197D01*
G01*
D02*
G03*
X4900Y-133698I0J-197D01*
G01*
D02*
G03*
X4900Y-133305I0J197D01*
G01*
X68214Y113003D02*
G03*
X68214Y113003I-468J0D01*
G01*
X-73230Y-167965D02*
G03*
X-72673Y-167408I278J278D01*
G01*
D02*
G03*
X-73230Y-167965I-278J-278D01*
G01*
X-56123Y-183403D02*
X-50677D01*
X-38873D02*
X-33427D01*
X76791Y1006D02*
Y1794D01*
X88209D01*
Y1006D02*
Y1794D01*
X76791Y1006D02*
X88209D01*
X76457Y-5096D02*
Y-372D01*
X82719Y22209D02*
X85081D01*
Y10791D02*
Y22209D01*
X82719Y10791D02*
X85081D01*
X82719D02*
Y22209D01*
X76617Y22406D02*
X81341D01*
X63100Y-13600D02*
X108100D01*
Y-33600D02*
Y-13600D01*
X58100Y-33600D02*
X108100D01*
X58100D02*
Y-28600D01*
X86404Y118322D02*
Y175081D01*
X50971D02*
X86404D01*
X50971Y146669D02*
Y175081D01*
X117792Y150415D02*
Y169903D01*
X91808Y138407D02*
Y169903D01*
X29019Y-138800D02*
X31381D01*
X57459Y14255D02*
Y21145D01*
X52341Y11157D02*
Y21145D01*
X69710Y106495D02*
X83490D01*
Y80905D02*
Y106495D01*
X69710Y80905D02*
X83490D01*
X69710D02*
Y106495D01*
X60754Y106003D02*
X67643D01*
X77992Y38708D02*
Y70204D01*
X52008Y38708D02*
Y58196D01*
D11*
X95712Y-183209D02*
G03*
X95712Y-183209I-492J0D01*
G01*
X-43287Y-167256D02*
G03*
X-43287Y-167256I-492J0D01*
G01*
D12*
X104982Y57181D02*
G03*
X104588Y57181I-197J0D01*
G01*
D02*
G03*
X104982Y57181I197J0D01*
G01*
X-121542Y-130284D02*
X-39258D01*
Y175621D01*
X-121542D02*
X-39258D01*
X-121542Y-130284D02*
Y175621D01*
X-36242Y-130549D02*
X46042D01*
Y175357D01*
X-36242D02*
X46042D01*
X-36242Y-130549D02*
Y175357D01*
X115021Y33756D02*
Y39071D01*
X118958D01*
Y46945D01*
X115021D02*
X118958D01*
X115021D02*
Y52260D01*
X101242Y33756D02*
Y39071D01*
Y46945D02*
Y52260D01*
X118158Y61368D02*
Y94832D01*
X100442D02*
X118158D01*
X100442Y61368D02*
Y94832D01*
Y61368D02*
X118158D01*
X14399Y-165874D02*
X16626Y-168101D01*
X18574Y-161698D02*
X20801Y-163926D01*
X-70872Y-153341D02*
X-69733Y-154436D01*
X-80061Y-162553D02*
X-78903Y-163678D01*
X-72152Y-162985D02*
X-70493Y-161326D01*
X-79368Y-155719D02*
X-77695Y-154046D01*
X115700Y98500D02*
X112945D01*
Y99878D01*
X113404Y100337D01*
X114322D01*
X114782Y99878D01*
Y98500D01*
Y99418D02*
X115700Y100337D01*
X114322Y101255D02*
Y103092D01*
X112945Y104010D02*
X115700D01*
Y105388D01*
X115241Y105847D01*
X114782D01*
X114322Y105388D01*
Y104010D01*
Y105388D01*
X113863Y105847D01*
X113404D01*
X112945Y105388D01*
Y104010D01*
X113863Y107224D02*
Y108143D01*
X114322Y108602D01*
X115700D01*
Y107224D01*
X115241Y106765D01*
X114782Y107224D01*
Y108602D01*
X113863Y109520D02*
X115700D01*
X114782D01*
X114322Y109979D01*
X113863Y110438D01*
Y110898D01*
Y112275D02*
X115700D01*
X114782D01*
X114322Y112734D01*
X113863Y113193D01*
Y113653D01*
X115700Y116408D02*
Y115489D01*
X115241Y115030D01*
X114322D01*
X113863Y115489D01*
Y116408D01*
X114322Y116867D01*
X114782D01*
Y115030D01*
X115700Y117785D02*
Y118703D01*
Y118244D01*
X112945D01*
Y117785D01*
X104245Y98100D02*
X107000D01*
Y99937D01*
X105622Y100855D02*
Y102692D01*
X104245Y103610D02*
X107000D01*
Y104988D01*
X106541Y105447D01*
X106082D01*
X105622Y104988D01*
Y103610D01*
Y104988D01*
X105163Y105447D01*
X104704D01*
X104245Y104988D01*
Y103610D01*
X105163Y106824D02*
Y107743D01*
X105622Y108202D01*
X107000D01*
Y106824D01*
X106541Y106365D01*
X106082Y106824D01*
Y108202D01*
X104704Y109579D02*
X105163D01*
Y109120D01*
Y110038D01*
Y109579D01*
X106541D01*
X107000Y110038D01*
X104704Y111875D02*
X105163D01*
Y111416D01*
Y112334D01*
Y111875D01*
X106541D01*
X107000Y112334D01*
Y115089D02*
Y114171D01*
X106541Y113712D01*
X105622D01*
X105163Y114171D01*
Y115089D01*
X105622Y115549D01*
X106082D01*
Y113712D01*
X105163Y116467D02*
X107000D01*
X106082D01*
X105622Y116926D01*
X105163Y117385D01*
Y117844D01*
Y119222D02*
X106541D01*
X107000Y119681D01*
Y121058D01*
X107459D01*
X107918Y120599D01*
Y120140D01*
X107000Y121058D02*
X105163D01*
X-115600Y-185239D02*
Y-186813D01*
X-114813Y-187600D01*
X-114026Y-186813D01*
Y-185239D01*
X-112058Y-187600D02*
X-112845D01*
X-113239Y-187206D01*
Y-186419D01*
X-112845Y-186026D01*
X-112058D01*
X-111664Y-186419D01*
Y-186813D01*
X-113239D01*
X-110877Y-186026D02*
Y-187600D01*
Y-186813D01*
X-110484Y-186419D01*
X-110090Y-186026D01*
X-109696D01*
X-108516Y-187600D02*
X-107335D01*
X-106941Y-187206D01*
X-107335Y-186813D01*
X-108122D01*
X-108516Y-186419D01*
X-108122Y-186026D01*
X-106941D01*
X-106154Y-187600D02*
X-105367D01*
X-105761D01*
Y-186026D01*
X-106154D01*
X-103793Y-187600D02*
X-103006D01*
X-102612Y-187206D01*
Y-186419D01*
X-103006Y-186026D01*
X-103793D01*
X-104186Y-186419D01*
Y-187206D01*
X-103793Y-187600D01*
X-101825D02*
Y-186026D01*
X-100644D01*
X-100251Y-186419D01*
Y-187600D01*
X-97102D02*
X-96315D01*
X-96709D01*
Y-185239D01*
X-97102Y-185632D01*
X-116300Y-182100D02*
Y-179739D01*
X-115513Y-180526D01*
X-114726Y-179739D01*
Y-182100D01*
X-112758D02*
X-113545D01*
X-113939Y-181706D01*
Y-180919D01*
X-113545Y-180526D01*
X-112758D01*
X-112364Y-180919D01*
Y-181313D01*
X-113939D01*
X-111577Y-182100D02*
X-110396D01*
X-110003Y-181706D01*
X-110396Y-181313D01*
X-111184D01*
X-111577Y-180919D01*
X-111184Y-180526D01*
X-110003D01*
X-109216Y-179739D02*
Y-182100D01*
Y-180919D01*
X-108822Y-180526D01*
X-108035D01*
X-107641Y-180919D01*
Y-182100D01*
X-106854Y-179739D02*
Y-181313D01*
X-106067Y-182100D01*
X-105280Y-181313D01*
Y-179739D01*
X-104493Y-182100D02*
X-103706D01*
X-104099D01*
Y-180526D01*
X-104493D01*
X-102525Y-182100D02*
Y-180526D01*
X-101344D01*
X-100951Y-180919D01*
Y-182100D01*
X-98983D02*
X-99770D01*
X-100163Y-181706D01*
Y-180919D01*
X-99770Y-180526D01*
X-98983D01*
X-98589Y-180919D01*
Y-181313D01*
X-100163D01*
X-97802Y-182100D02*
X-96621D01*
X-96228Y-181706D01*
X-96621Y-181313D01*
X-97408D01*
X-97802Y-180919D01*
X-97408Y-180526D01*
X-96228D01*
X-95441Y-182494D02*
X-93866D01*
X-93079Y-182100D02*
Y-179739D01*
X-91899D01*
X-91505Y-180132D01*
Y-180919D01*
X-91899Y-181313D01*
X-93079D01*
X-92292D02*
X-91505Y-182100D01*
X-90718Y-182494D02*
X-89143D01*
X-88356Y-179739D02*
X-86782D01*
X-87569D01*
Y-182100D01*
X-85995Y-179739D02*
Y-182100D01*
Y-180919D01*
X-84421D01*
Y-179739D01*
Y-182100D01*
X-83633Y-182494D02*
X-82059D01*
X-81272Y-179739D02*
Y-182100D01*
X-80485Y-181313D01*
X-79698Y-182100D01*
Y-179739D01*
X-78910D02*
Y-182100D01*
X-77730D01*
X-77336Y-181706D01*
Y-181313D01*
X-77730Y-180919D01*
X-78910D01*
X-77730D01*
X-77336Y-180526D01*
Y-180132D01*
X-77730Y-179739D01*
X-78910D01*
X-74975D02*
X-76549D01*
Y-180919D01*
X-75762Y-180526D01*
X-75368D01*
X-74975Y-180919D01*
Y-181706D01*
X-75368Y-182100D01*
X-76156D01*
X-76549Y-181706D01*
X-72613Y-182100D02*
X-74188D01*
X-72613Y-180526D01*
Y-180132D01*
X-73007Y-179739D01*
X-73794D01*
X-74188Y-180132D01*
X-71826D02*
X-71433Y-179739D01*
X-70645D01*
X-70252Y-180132D01*
Y-181706D01*
X-70645Y-182100D01*
X-71433D01*
X-71826Y-181706D01*
Y-180132D01*
X-69465D02*
X-69071Y-179739D01*
X-68284D01*
X-67891Y-180132D01*
Y-181706D01*
X-68284Y-182100D01*
X-69071D01*
X-69465Y-181706D01*
Y-180132D01*
X106048Y-67739D02*
X105458Y-68329D01*
Y-69510D01*
X106048Y-70100D01*
X108410D01*
X109000Y-69510D01*
Y-68329D01*
X108410Y-67739D01*
X109000Y-65968D02*
Y-64787D01*
X108410Y-64196D01*
X107229D01*
X106639Y-64787D01*
Y-65968D01*
X107229Y-66558D01*
X108410D01*
X109000Y-65968D01*
Y-63016D02*
X106639D01*
Y-62425D01*
X107229Y-61835D01*
X109000D01*
X107229D01*
X106639Y-61245D01*
X107229Y-60654D01*
X109000D01*
Y-59474D02*
X106639D01*
Y-58883D01*
X107229Y-58293D01*
X109000D01*
X107229D01*
X106639Y-57702D01*
X107229Y-57112D01*
X109000D01*
Y-55931D02*
Y-54751D01*
Y-55341D01*
X106639D01*
Y-55931D01*
X109000Y-52980D02*
Y-51209D01*
X108410Y-50618D01*
X107819Y-51209D01*
Y-52389D01*
X107229Y-52980D01*
X106639Y-52389D01*
Y-50618D01*
X109000Y-49437D02*
Y-47666D01*
X108410Y-47076D01*
X107819Y-47666D01*
Y-48847D01*
X107229Y-49437D01*
X106639Y-48847D01*
Y-47076D01*
X109000Y-45895D02*
Y-44714D01*
Y-45305D01*
X106639D01*
Y-45895D01*
X109000Y-42353D02*
Y-41172D01*
X108410Y-40582D01*
X107229D01*
X106639Y-41172D01*
Y-42353D01*
X107229Y-42943D01*
X108410D01*
X109000Y-42353D01*
Y-39401D02*
X106639D01*
Y-37630D01*
X107229Y-37040D01*
X109000D01*
X107900Y-125000D02*
X104358D01*
Y-123229D01*
X104948Y-122639D01*
X106129D01*
X106719Y-123229D01*
Y-125000D01*
Y-123819D02*
X107900Y-122639D01*
Y-119687D02*
Y-120868D01*
X107310Y-121458D01*
X106129D01*
X105539Y-120868D01*
Y-119687D01*
X106129Y-119096D01*
X106719D01*
Y-121458D01*
X107900Y-117916D02*
Y-116145D01*
X107310Y-115554D01*
X106719Y-116145D01*
Y-117325D01*
X106129Y-117916D01*
X105539Y-117325D01*
Y-115554D01*
X107900Y-112602D02*
Y-113783D01*
X107310Y-114374D01*
X106129D01*
X105539Y-113783D01*
Y-112602D01*
X106129Y-112012D01*
X106719D01*
Y-114374D01*
X104948Y-110241D02*
X105539D01*
Y-110831D01*
Y-109651D01*
Y-110241D01*
X107310D01*
X107900Y-109651D01*
X105648Y-90439D02*
X105058Y-91029D01*
Y-92210D01*
X105648Y-92800D01*
X108010D01*
X108600Y-92210D01*
Y-91029D01*
X108010Y-90439D01*
X108600Y-89258D02*
Y-88077D01*
Y-88668D01*
X105058D01*
Y-89258D01*
X108600Y-84535D02*
Y-85716D01*
X108010Y-86306D01*
X106829D01*
X106239Y-85716D01*
Y-84535D01*
X106829Y-83945D01*
X107419D01*
Y-86306D01*
X106239Y-82174D02*
Y-80993D01*
X106829Y-80402D01*
X108600D01*
Y-82174D01*
X108010Y-82764D01*
X107419Y-82174D01*
Y-80402D01*
X106239Y-79222D02*
X108600D01*
X107419D01*
X106829Y-78631D01*
X106239Y-78041D01*
Y-77451D01*
D13*
X-76298Y-195101D02*
Y-197101D01*
Y-196101D01*
X-71300D01*
X-70300Y-197101D01*
Y-198100D01*
X-71300Y-199100D01*
X-70300Y-193102D02*
Y-191103D01*
Y-192102D01*
X-76298D01*
X-75298Y-193102D01*
X115463Y6704D02*
X115922Y6245D01*
X116841D01*
X117300Y6704D01*
Y8541D01*
X116841Y9000D01*
X115922D01*
X115463Y8541D01*
X114545Y9000D02*
X113627D01*
X114086D01*
Y6245D01*
X114545Y6704D01*
X112249Y9000D02*
X111331D01*
X111790D01*
Y6245D01*
X112249Y6704D01*
X60400Y7600D02*
Y10355D01*
X61778D01*
X62237Y9896D01*
Y8978D01*
X61778Y8518D01*
X60400D01*
X61318D02*
X62237Y7600D01*
X63155D02*
X64073D01*
X63614D01*
Y10355D01*
X63155Y9896D01*
X65451Y7600D02*
X66369D01*
X65910D01*
Y10355D01*
X65451Y9896D01*
X55700Y-4800D02*
Y-7555D01*
X54322D01*
X53863Y-7096D01*
Y-6177D01*
X54322Y-5718D01*
X55700D01*
X54782D02*
X53863Y-4800D01*
X52945D02*
X52027D01*
X52486D01*
Y-7555D01*
X52945Y-7096D01*
X50649D02*
X50190Y-7555D01*
X49272D01*
X48812Y-7096D01*
Y-5259D01*
X49272Y-4800D01*
X50190D01*
X50649Y-5259D01*
Y-7096D01*
X90859Y3563D02*
X92696D01*
X93155Y4022D01*
Y4941D01*
X92696Y5400D01*
X90859D01*
X90400Y4941D01*
Y4022D01*
X91318Y4482D02*
X90400Y3563D01*
Y4022D02*
X90859Y3563D01*
X90400Y2645D02*
Y1727D01*
Y2186D01*
X93155D01*
X92696Y2645D01*
X-31600Y161270D02*
Y155272D01*
X-28601D01*
X-27601Y156272D01*
Y157272D01*
X-28601Y158272D01*
X-31600D01*
X-28601D01*
X-27601Y159271D01*
Y160271D01*
X-28601Y161270D01*
X-31600D01*
X-25602D02*
X-21603D01*
X-23603D01*
Y155272D01*
X-15605D02*
X-19604D01*
X-15605Y159271D01*
Y160271D01*
X-16605Y161270D01*
X-18604D01*
X-19604Y160271D01*
X96139Y-78903D02*
Y-76148D01*
X97517D01*
X97976Y-76607D01*
Y-77526D01*
X97517Y-77985D01*
X96139D01*
X97058D02*
X97976Y-78903D01*
X100731Y-76148D02*
X99813Y-76607D01*
X98894Y-77526D01*
Y-78444D01*
X99354Y-78903D01*
X100272D01*
X100731Y-78444D01*
Y-77985D01*
X100272Y-77526D01*
X98894D01*
X51500Y-48000D02*
Y-45245D01*
X52877D01*
X53337Y-45704D01*
Y-46622D01*
X52877Y-47082D01*
X51500D01*
X52418D02*
X53337Y-48000D01*
X56092Y-45245D02*
X54255D01*
Y-46622D01*
X55173Y-46163D01*
X55633D01*
X56092Y-46622D01*
Y-47541D01*
X55633Y-48000D01*
X54714D01*
X54255Y-47541D01*
X51800Y-77300D02*
Y-74545D01*
X53177D01*
X53637Y-75004D01*
Y-75923D01*
X53177Y-76382D01*
X51800D01*
X52718D02*
X53637Y-77300D01*
X55932D02*
Y-74545D01*
X54555Y-75923D01*
X56392D01*
X109400Y-4400D02*
X112155D01*
Y-5777D01*
X111696Y-6237D01*
X110777D01*
X110318Y-5777D01*
Y-4400D01*
Y-5318D02*
X109400Y-6237D01*
X111696Y-7155D02*
X112155Y-7614D01*
Y-8533D01*
X111696Y-8992D01*
X111237D01*
X110777Y-8533D01*
Y-8073D01*
Y-8533D01*
X110318Y-8992D01*
X109859D01*
X109400Y-8533D01*
Y-7614D01*
X109859Y-7155D01*
X53300Y-112600D02*
Y-109845D01*
X54677D01*
X55137Y-110304D01*
Y-111223D01*
X54677Y-111682D01*
X53300D01*
X54218D02*
X55137Y-112600D01*
X56055D02*
X56973D01*
X56514D01*
Y-109845D01*
X56055Y-110304D01*
X96700Y25255D02*
Y22500D01*
X98537D01*
X101292D02*
X99455D01*
X101292Y24337D01*
Y24796D01*
X100832Y25255D01*
X99914D01*
X99455Y24796D01*
X76539Y29352D02*
X77458D01*
X76999D01*
Y26597D01*
X76539D01*
X77458D01*
X80672Y28893D02*
X80213Y29352D01*
X79294D01*
X78835Y28893D01*
Y27056D01*
X79294Y26597D01*
X80213D01*
X80672Y27056D01*
X81590Y26597D02*
X82509D01*
X82049D01*
Y29352D01*
X81590Y28893D01*
X-91096Y-139363D02*
X-91555Y-139822D01*
Y-140741D01*
X-91096Y-141200D01*
X-89259D01*
X-88800Y-140741D01*
Y-139822D01*
X-89259Y-139363D01*
X-91555Y-138445D02*
Y-136608D01*
X-91096D01*
X-89259Y-138445D01*
X-88800D01*
X-104596Y-139463D02*
X-105055Y-139922D01*
Y-140841D01*
X-104596Y-141300D01*
X-102759D01*
X-102300Y-140841D01*
Y-139922D01*
X-102759Y-139463D01*
X-105055Y-136708D02*
X-104596Y-137627D01*
X-103677Y-138545D01*
X-102759D01*
X-102300Y-138086D01*
Y-137168D01*
X-102759Y-136708D01*
X-103218D01*
X-103677Y-137168D01*
Y-138545D01*
X-119000Y162198D02*
Y156200D01*
X-116001D01*
X-115001Y157200D01*
Y158199D01*
X-116001Y159199D01*
X-119000D01*
X-116001D01*
X-115001Y160199D01*
Y161198D01*
X-116001Y162198D01*
X-119000D01*
X-113002D02*
X-109003D01*
X-111003D01*
Y156200D01*
X-107004D02*
X-105005D01*
X-106004D01*
Y162198D01*
X-107004Y161198D01*
X113155Y-29637D02*
Y-28718D01*
Y-29177D01*
X110859D01*
X110400Y-28718D01*
Y-28259D01*
X110859Y-27800D01*
X110400Y-32392D02*
Y-30555D01*
X112237Y-32392D01*
X112696D01*
X113155Y-31933D01*
Y-31014D01*
X112696Y-30555D01*
X93504Y46537D02*
X93045Y46077D01*
Y45159D01*
X93504Y44700D01*
X93963D01*
X94423Y45159D01*
Y46077D01*
X94882Y46537D01*
X95341D01*
X95800Y46077D01*
Y45159D01*
X95341Y44700D01*
X95800Y48832D02*
X93045D01*
X94423Y47455D01*
Y49292D01*
X95900Y-112400D02*
Y-109645D01*
X97277D01*
X97737Y-110104D01*
Y-111022D01*
X97277Y-111482D01*
X95900D01*
X96818D02*
X97737Y-112400D01*
X100492D02*
X98655D01*
X100492Y-110563D01*
Y-110104D01*
X100032Y-109645D01*
X99114D01*
X98655Y-110104D01*
X97900Y7855D02*
Y5100D01*
X99737D01*
X102492Y7855D02*
X100655D01*
Y5100D01*
X102492D01*
X100655Y6477D02*
X101573D01*
X103410Y7855D02*
Y5100D01*
X104788D01*
X105247Y5559D01*
Y7396D01*
X104788Y7855D01*
X103410D01*
X106165Y5100D02*
X107083D01*
X106624D01*
Y7855D01*
X106165Y7396D01*
X106160Y-150688D02*
X105832Y-151016D01*
Y-151672D01*
X106160Y-152000D01*
X106488D01*
X106816Y-151672D01*
Y-151016D01*
X107144Y-150688D01*
X107472D01*
X107800Y-151016D01*
Y-151672D01*
X107472Y-152000D01*
X105832Y-148720D02*
Y-149376D01*
Y-149048D01*
X107472D01*
X107800Y-149376D01*
Y-149704D01*
X107472Y-150032D01*
X107800Y-147080D02*
X105832D01*
X106816Y-148064D01*
Y-146752D01*
X11600Y-150264D02*
Y-150920D01*
X12912Y-152232D01*
X14224Y-150920D01*
Y-150264D01*
X12912Y-152232D02*
Y-154200D01*
X18160D02*
X15536D01*
X18160Y-151576D01*
Y-150920D01*
X17504Y-150264D01*
X16192D01*
X15536Y-150920D01*
X91400Y-172400D02*
Y-169448D01*
X92876D01*
X93368Y-169940D01*
Y-170924D01*
X92876Y-171416D01*
X91400D01*
X92384D02*
X93368Y-172400D01*
X94352Y-171908D02*
X94844Y-172400D01*
X95828D01*
X96320Y-171908D01*
Y-169940D01*
X95828Y-169448D01*
X94844D01*
X94352Y-169940D01*
Y-170432D01*
X94844Y-170924D01*
X96320D01*
X76300Y-43100D02*
Y-40148D01*
X77776D01*
X78268Y-40640D01*
Y-41624D01*
X77776Y-42116D01*
X76300D01*
X79252Y-40148D02*
Y-43100D01*
X80728D01*
X81220Y-42608D01*
Y-42116D01*
X80728Y-41624D01*
X79252D01*
X80728D01*
X81220Y-41132D01*
Y-40640D01*
X80728Y-40148D01*
X79252D01*
X82204Y-40640D02*
X82696Y-40148D01*
X83679D01*
X84171Y-40640D01*
Y-41132D01*
X83679Y-41624D01*
X83188D01*
X83679D01*
X84171Y-42116D01*
Y-42608D01*
X83679Y-43100D01*
X82696D01*
X82204Y-42608D01*
X74400Y-72400D02*
Y-69448D01*
X75876D01*
X76368Y-69940D01*
Y-70924D01*
X75876Y-71416D01*
X74400D01*
X77352Y-69448D02*
Y-72400D01*
X78828D01*
X79320Y-71908D01*
Y-71416D01*
X78828Y-70924D01*
X77352D01*
X78828D01*
X79320Y-70432D01*
Y-69940D01*
X78828Y-69448D01*
X77352D01*
X82271Y-72400D02*
X80304D01*
X82271Y-70432D01*
Y-69940D01*
X81779Y-69448D01*
X80796D01*
X80304Y-69940D01*
X116852Y-192600D02*
X113900D01*
X115376D01*
Y-194568D01*
X116852D01*
X113900D01*
Y-195552D02*
X116852D01*
X115868Y-196536D01*
X116852Y-197520D01*
X113900D01*
Y-198504D02*
Y-199488D01*
Y-198996D01*
X116852D01*
X116360Y-198504D01*
X93952Y124332D02*
Y125316D01*
Y124824D01*
X91492D01*
X91000Y125316D01*
Y125808D01*
X91492Y126300D01*
X93460Y123348D02*
X93952Y122856D01*
Y121872D01*
X93460Y121380D01*
X92968D01*
X92476Y121872D01*
Y122364D01*
Y121872D01*
X91984Y121380D01*
X91492D01*
X91000Y121872D01*
Y122856D01*
X91492Y123348D01*
X-23300Y-132148D02*
X-22316D01*
X-22808D01*
Y-135100D01*
X-23300D01*
X-22316D01*
X-18872Y-132640D02*
X-19364Y-132148D01*
X-20348D01*
X-20840Y-132640D01*
Y-134608D01*
X-20348Y-135100D01*
X-19364D01*
X-18872Y-134608D01*
X-17888Y-132640D02*
X-17396Y-132148D01*
X-16412D01*
X-15921Y-132640D01*
Y-133132D01*
X-16412Y-133624D01*
X-16904D01*
X-16412D01*
X-15921Y-134116D01*
Y-134608D01*
X-16412Y-135100D01*
X-17396D01*
X-17888Y-134608D01*
X66668Y-40140D02*
X66176Y-39648D01*
X65192D01*
X64700Y-40140D01*
Y-42108D01*
X65192Y-42600D01*
X66176D01*
X66668Y-42108D01*
X67652Y-42600D02*
X68636D01*
X68144D01*
Y-39648D01*
X67652Y-40140D01*
X70112D02*
X70604Y-39648D01*
X71588D01*
X72079Y-40140D01*
Y-40632D01*
X71588Y-41124D01*
X72079Y-41616D01*
Y-42108D01*
X71588Y-42600D01*
X70604D01*
X70112Y-42108D01*
Y-41616D01*
X70604Y-41124D01*
X70112Y-40632D01*
Y-40140D01*
X70604Y-41124D02*
X71588D01*
X-88123Y-156413D02*
X-87775Y-156761D01*
X-86383D01*
X-86383Y-155369D01*
X-86731Y-155021D01*
X-86383Y-156761D02*
X-85340Y-157804D01*
X-85688Y-154673D02*
Y-153978D01*
X-84992Y-153282D01*
X-84296D01*
X-83948Y-153630D01*
Y-154325D01*
X-84296Y-154673D01*
X-83948Y-154325D01*
X-83253Y-154325D01*
X-82905Y-154673D01*
Y-155369D01*
X-83600Y-156065D01*
X-84296D01*
X95640Y74068D02*
X95148Y73576D01*
Y72592D01*
X95640Y72100D01*
X96132D01*
X96624Y72592D01*
Y73576D01*
X97116Y74068D01*
X97608D01*
X98100Y73576D01*
Y72592D01*
X97608Y72100D01*
X98100Y77020D02*
Y75052D01*
X96132Y77020D01*
X95640D01*
X95148Y76528D01*
Y75544D01*
X95640Y75052D01*
X108400Y-164100D02*
Y-161148D01*
X109876D01*
X110368Y-161640D01*
Y-162624D01*
X109876Y-163116D01*
X108400D01*
X109384D02*
X110368Y-164100D01*
X111352Y-161640D02*
X111844Y-161148D01*
X112828D01*
X113320Y-161640D01*
Y-162132D01*
X112828Y-162624D01*
X113320Y-163116D01*
Y-163608D01*
X112828Y-164100D01*
X111844D01*
X111352Y-163608D01*
Y-163116D01*
X111844Y-162624D01*
X111352Y-162132D01*
Y-161640D01*
X111844Y-162624D02*
X112828D01*
X97000Y-50300D02*
Y-47348D01*
X98476D01*
X98968Y-47840D01*
Y-48824D01*
X98476Y-49316D01*
X97000D01*
X97984D02*
X98968Y-50300D01*
X99952Y-47348D02*
X101920D01*
Y-47840D01*
X99952Y-49808D01*
Y-50300D01*
X73600Y-106300D02*
Y-103348D01*
X75076D01*
X75568Y-103840D01*
Y-104824D01*
X75076Y-105316D01*
X73600D01*
X76552Y-103348D02*
Y-106300D01*
X78028D01*
X78520Y-105808D01*
Y-105316D01*
X78028Y-104824D01*
X76552D01*
X78028D01*
X78520Y-104332D01*
Y-103840D01*
X78028Y-103348D01*
X76552D01*
X79504Y-106300D02*
X80488D01*
X79996D01*
Y-103348D01*
X79504Y-103840D01*
X-75166Y-135342D02*
Y-138293D01*
X-73198D01*
X-72214D02*
X-71230D01*
X-71722D01*
Y-135342D01*
X-72214Y-135834D01*
X80000Y111752D02*
X80984D01*
X80492D01*
Y108800D01*
X80000D01*
X80984D01*
X84428Y111260D02*
X83936Y111752D01*
X82952D01*
X82460Y111260D01*
Y109292D01*
X82952Y108800D01*
X83936D01*
X84428Y109292D01*
X87379Y108800D02*
X85412D01*
X87379Y110768D01*
Y111260D01*
X86888Y111752D01*
X85904D01*
X85412Y111260D01*
X37668Y-137748D02*
X35700D01*
Y-139224D01*
X36684D01*
X35700D01*
Y-140700D01*
X38652Y-137748D02*
Y-140700D01*
X40620D01*
X41604D02*
X42588D01*
X42096D01*
Y-137748D01*
X41604Y-138240D01*
X48994Y24589D02*
Y21637D01*
X50470D01*
X50962Y22129D01*
Y24097D01*
X50470Y24589D01*
X48994D01*
X51946Y21637D02*
X52930D01*
X52438D01*
Y24589D01*
X51946Y24097D01*
X73968Y75460D02*
X73476Y75952D01*
X72492D01*
X72000Y75460D01*
Y73492D01*
X72492Y73000D01*
X73476D01*
X73968Y73492D01*
X74952Y73000D02*
X75936D01*
X75444D01*
Y75952D01*
X74952Y75460D01*
X77412Y75952D02*
X79379D01*
Y75460D01*
X77412Y73492D01*
Y73000D01*
X114868Y175060D02*
X114376Y175552D01*
X113392D01*
X112900Y175060D01*
Y173092D01*
X113392Y172600D01*
X114376D01*
X114868Y173092D01*
X115852Y172600D02*
X116836D01*
X116344D01*
Y175552D01*
X115852Y175060D01*
X120280Y175552D02*
X119296Y175060D01*
X118312Y174076D01*
Y173092D01*
X118804Y172600D01*
X119788D01*
X120280Y173092D01*
Y173584D01*
X119788Y174076D01*
X118312D01*
X65468Y-70640D02*
X64976Y-70148D01*
X63992D01*
X63500Y-70640D01*
Y-72608D01*
X63992Y-73100D01*
X64976D01*
X65468Y-72608D01*
X66452Y-73100D02*
X67436D01*
X66944D01*
Y-70148D01*
X66452Y-70640D01*
X70880Y-70148D02*
X68912D01*
Y-71624D01*
X69896Y-71132D01*
X70388D01*
X70880Y-71624D01*
Y-72608D01*
X70388Y-73100D01*
X69404D01*
X68912Y-72608D01*
X-9760Y-140132D02*
X-10252Y-140624D01*
Y-141608D01*
X-9760Y-142100D01*
X-7792D01*
X-7300Y-141608D01*
Y-140624D01*
X-7792Y-140132D01*
X-7300Y-139148D02*
Y-138164D01*
Y-138656D01*
X-10252D01*
X-9760Y-139148D01*
X-7300Y-135212D02*
X-10252D01*
X-8776Y-136688D01*
Y-134721D01*
X35860Y-154668D02*
X36352Y-154176D01*
Y-153192D01*
X35860Y-152700D01*
X33892D01*
X33400Y-153192D01*
Y-154176D01*
X33892Y-154668D01*
X33400Y-155652D02*
Y-156636D01*
Y-156144D01*
X36352D01*
X35860Y-155652D01*
Y-158112D02*
X36352Y-158604D01*
Y-159588D01*
X35860Y-160080D01*
X35368D01*
X34876Y-159588D01*
Y-159096D01*
Y-159588D01*
X34384Y-160080D01*
X33892D01*
X33400Y-159588D01*
Y-158604D01*
X33892Y-158112D01*
X45460Y-165068D02*
X45952Y-164576D01*
Y-163592D01*
X45460Y-163100D01*
X43492D01*
X43000Y-163592D01*
Y-164576D01*
X43492Y-165068D01*
X43000Y-166052D02*
Y-167036D01*
Y-166544D01*
X45952D01*
X45460Y-166052D01*
X43000Y-170480D02*
Y-168512D01*
X44968Y-170480D01*
X45460D01*
X45952Y-169988D01*
Y-169004D01*
X45460Y-168512D01*
X66607Y26857D02*
X66115Y27349D01*
X65131D01*
X64639Y26857D01*
Y24889D01*
X65131Y24397D01*
X66115D01*
X66607Y24889D01*
X67591Y24397D02*
X68575D01*
X68083D01*
Y27349D01*
X67591Y26857D01*
X70051D02*
X70543Y27349D01*
X71527D01*
X72019Y26857D01*
Y24889D01*
X71527Y24397D01*
X70543D01*
X70051Y24889D01*
Y26857D01*
X64368Y-104040D02*
X63876Y-103548D01*
X62892D01*
X62400Y-104040D01*
Y-106008D01*
X62892Y-106500D01*
X63876D01*
X64368Y-106008D01*
X65352D02*
X65844Y-106500D01*
X66828D01*
X67320Y-106008D01*
Y-104040D01*
X66828Y-103548D01*
X65844D01*
X65352Y-104040D01*
Y-104532D01*
X65844Y-105024D01*
X67320D01*
X-112632Y-160840D02*
X-113124Y-160348D01*
X-114108D01*
X-114600Y-160840D01*
Y-162808D01*
X-114108Y-163300D01*
X-113124D01*
X-112632Y-162808D01*
X-111648Y-160840D02*
X-111156Y-160348D01*
X-110172D01*
X-109680Y-160840D01*
Y-161332D01*
X-110172Y-161824D01*
X-109680Y-162316D01*
Y-162808D01*
X-110172Y-163300D01*
X-111156D01*
X-111648Y-162808D01*
Y-162316D01*
X-111156Y-161824D01*
X-111648Y-161332D01*
Y-160840D01*
X-111156Y-161824D02*
X-110172D01*
X2832Y-159760D02*
X3324Y-160252D01*
X4308D01*
X4800Y-159760D01*
Y-157792D01*
X4308Y-157300D01*
X3324D01*
X2832Y-157792D01*
X-120Y-160252D02*
X1848D01*
Y-158776D01*
X864Y-159268D01*
X372D01*
X-120Y-158776D01*
Y-157792D01*
X372Y-157300D01*
X1356D01*
X1848Y-157792D01*
X18832Y-148060D02*
X19324Y-148552D01*
X20308D01*
X20800Y-148060D01*
Y-146092D01*
X20308Y-145600D01*
X19324D01*
X18832Y-146092D01*
X16372Y-145600D02*
Y-148552D01*
X17848Y-147076D01*
X15880D01*
X-63268Y-145960D02*
X-62776Y-146452D01*
X-61792D01*
X-61300Y-145960D01*
Y-143992D01*
X-61792Y-143500D01*
X-62776D01*
X-63268Y-143992D01*
X-64252Y-145960D02*
X-64744Y-146452D01*
X-65728D01*
X-66220Y-145960D01*
Y-145468D01*
X-65728Y-144976D01*
X-65236D01*
X-65728D01*
X-66220Y-144484D01*
Y-143992D01*
X-65728Y-143500D01*
X-64744D01*
X-64252Y-143992D01*
X8932Y-147560D02*
X9424Y-148052D01*
X10408D01*
X10900Y-147560D01*
Y-145592D01*
X10408Y-145100D01*
X9424D01*
X8932Y-145592D01*
X5980Y-145100D02*
X7948D01*
X5980Y-147068D01*
Y-147560D01*
X6472Y-148052D01*
X7456D01*
X7948Y-147560D01*
X-47840Y-139068D02*
X-47348Y-138576D01*
Y-137592D01*
X-47840Y-137100D01*
X-49808D01*
X-50300Y-137592D01*
Y-138576D01*
X-49808Y-139068D01*
X-50300Y-140052D02*
Y-141036D01*
Y-140544D01*
X-47348D01*
X-47840Y-140052D01*
D14*
X99100Y16100D02*
D03*
D15*
X-73400Y-142400D02*
D03*
M02*
