G04*
G04 #@! TF.GenerationSoftware,Altium Limited,Altium Designer,19.1.7 (138)*
G04*
G04 Layer_Color=16711935*
%FSLAX25Y25*%
%MOIN*%
G70*
G01*
G75*
%ADD68C,0.07099*%
%ADD69C,0.17158*%
%ADD70C,0.06706*%
%ADD71R,0.06706X0.06706*%
%ADD72C,0.02276*%
%ADD73C,0.12611*%
%ADD74C,0.05918*%
%ADD75C,0.05800*%
%ADD76C,0.03200*%
%ADD77C,0.03556*%
D68*
X-80400Y132137D02*
D03*
Y-86800D02*
D03*
X4900Y131872D02*
D03*
Y-87065D02*
D03*
D69*
X-80400Y166172D02*
D03*
Y-120835D02*
D03*
X4900Y165908D02*
D03*
Y-121100D02*
D03*
D70*
X103100Y-18600D02*
D03*
Y-28600D02*
D03*
X93100Y-18600D02*
D03*
Y-28600D02*
D03*
X83100Y-18600D02*
D03*
Y-28600D02*
D03*
X73100Y-18600D02*
D03*
Y-28600D02*
D03*
X63100Y-18600D02*
D03*
D71*
Y-28600D02*
D03*
D72*
X102718Y43008D02*
D03*
X113545D02*
D03*
D73*
X67900Y121078D02*
D03*
Y144700D02*
D03*
X49396Y132889D02*
D03*
X-96606Y-155450D02*
D03*
X96268D02*
D03*
Y128050D02*
D03*
X-96606D02*
D03*
D74*
X104379Y87942D02*
D03*
Y78100D02*
D03*
Y68257D02*
D03*
D75*
X50200Y-93500D02*
D03*
X45200Y-62200D02*
D03*
X-87900Y-166700D02*
D03*
X31500Y-102400D02*
D03*
X113700Y-102500D02*
D03*
X115400Y25700D02*
D03*
D76*
X45300Y-1800D02*
D03*
X-58100Y-147400D02*
D03*
X71500Y-2800D02*
D03*
X-52600Y-145700D02*
D03*
X-11600Y-159600D02*
D03*
X-13000Y-166800D02*
D03*
X49300Y-117000D02*
D03*
X-8700Y-147900D02*
D03*
X-9900Y-155300D02*
D03*
Y-170000D02*
D03*
X-47200Y-133500D02*
D03*
X-32650Y-125400D02*
D03*
X-9500Y-131000D02*
D03*
X92600Y-8400D02*
D03*
X-40700Y-133100D02*
D03*
X49200Y-53700D02*
D03*
X-6500Y-151600D02*
D03*
X48900Y-82900D02*
D03*
X108800Y-177400D02*
D03*
X91600Y-176900D02*
D03*
D77*
X119000Y-63300D02*
D03*
X118900Y-76400D02*
D03*
X118700Y-90400D02*
D03*
X-119600Y-13200D02*
D03*
Y-25000D02*
D03*
Y-36500D02*
D03*
Y-51100D02*
D03*
X-119500Y-63600D02*
D03*
Y-75400D02*
D03*
X-119300Y-86100D02*
D03*
X102800Y-142200D02*
D03*
X95000Y-141100D02*
D03*
X87600Y-143500D02*
D03*
X84100Y-148700D02*
D03*
X83300Y-156800D02*
D03*
X88200Y-164800D02*
D03*
X86000Y-187500D02*
D03*
X86200Y-194500D02*
D03*
X77500Y-194300D02*
D03*
X68100Y-194400D02*
D03*
X57200Y-194500D02*
D03*
X45800Y-194600D02*
D03*
X36100Y-194500D02*
D03*
X25000D02*
D03*
X14600Y-194400D02*
D03*
X5600Y-194500D02*
D03*
X-4500Y-194400D02*
D03*
X-13900D02*
D03*
X-119400Y-97400D02*
D03*
Y-106200D02*
D03*
Y-115500D02*
D03*
X-119200Y-123400D02*
D03*
X-119500Y-131800D02*
D03*
Y-140000D02*
D03*
X-119300Y-148400D02*
D03*
X-119200Y-156900D02*
D03*
X-119400Y-164500D02*
D03*
X-119200Y-177100D02*
D03*
X-118900Y-185200D02*
D03*
X-118800Y-193200D02*
D03*
X-109900D02*
D03*
X-99900Y-193100D02*
D03*
X-90100D02*
D03*
X-80000D02*
D03*
M02*
