G04*
G04 #@! TF.GenerationSoftware,Altium Limited,Altium Designer,19.1.7 (138)*
G04*
G04 Layer_Color=8421504*
%FSLAX25Y25*%
%MOIN*%
G70*
G01*
G75*
%ADD16R,0.09500X0.20000*%
%ADD17R,0.09000X0.20000*%
%ADD18R,0.02362X0.03543*%
%ADD19R,0.02559X0.04724*%
%ADD20R,0.03543X0.02362*%
%ADD21R,0.03150X0.03150*%
%ADD22R,0.03600X0.02400*%
%ADD23R,0.03543X0.01772*%
%ADD24R,0.06299X0.09843*%
%ADD25R,0.02400X0.03600*%
%ADD26R,0.04724X0.02362*%
G04:AMPARAMS|DCode=27|XSize=23.62mil|YSize=35.43mil|CornerRadius=0mil|HoleSize=0mil|Usage=FLASHONLY|Rotation=45.000|XOffset=0mil|YOffset=0mil|HoleType=Round|Shape=Rectangle|*
%AMROTATEDRECTD27*
4,1,4,0.00418,-0.02088,-0.02088,0.00418,-0.00418,0.02088,0.02088,-0.00418,0.00418,-0.02088,0.0*
%
%ADD27ROTATEDRECTD27*%

%ADD28R,0.03937X0.04724*%
%ADD29R,0.07087X0.13386*%
%ADD30R,0.04528X0.02953*%
%ADD31R,0.03740X0.05512*%
%ADD32R,0.03937X0.03937*%
G04:AMPARAMS|DCode=33|XSize=70.87mil|YSize=39.37mil|CornerRadius=0mil|HoleSize=0mil|Usage=FLASHONLY|Rotation=225.000|XOffset=0mil|YOffset=0mil|HoleType=Round|Shape=Rectangle|*
%AMROTATEDRECTD33*
4,1,4,0.01114,0.03897,0.03897,0.01114,-0.01114,-0.03897,-0.03897,-0.01114,0.01114,0.03897,0.0*
%
%ADD33ROTATEDRECTD33*%

%ADD34R,0.01968X0.04134*%
%ADD35R,0.01181X0.03347*%
%ADD36R,0.03347X0.01181*%
%ADD37R,0.20669X0.20669*%
G04:AMPARAMS|DCode=38|XSize=51.18mil|YSize=41.34mil|CornerRadius=0mil|HoleSize=0mil|Usage=FLASHONLY|Rotation=45.000|XOffset=0mil|YOffset=0mil|HoleType=Round|Shape=Rectangle|*
%AMROTATEDRECTD38*
4,1,4,-0.00348,-0.03271,-0.03271,-0.00348,0.00348,0.03271,0.03271,0.00348,-0.00348,-0.03271,0.0*
%
%ADD38ROTATEDRECTD38*%

%ADD39R,0.06890X0.03740*%
%ADD40R,0.06890X0.12598*%
D16*
X-62025Y-192104D02*
D03*
X-27525D02*
D03*
D17*
X-44775D02*
D03*
D18*
X109747Y13900D02*
D03*
X115653D02*
D03*
X105053Y-6400D02*
D03*
X99147D02*
D03*
X102953Y-176300D02*
D03*
X97047D02*
D03*
X102947Y-168200D02*
D03*
X108853D02*
D03*
X29653Y-156500D02*
D03*
X23747D02*
D03*
X5853Y-152500D02*
D03*
X-53D02*
D03*
X38953Y-166800D02*
D03*
X33047D02*
D03*
D19*
X78720Y-2734D02*
D03*
X86279D02*
D03*
X82500Y5534D02*
D03*
D20*
X52100Y4353D02*
D03*
Y-1553D02*
D03*
X61400D02*
D03*
Y4353D02*
D03*
X98100Y-116847D02*
D03*
Y-122753D02*
D03*
X56100Y-88953D02*
D03*
Y-83047D02*
D03*
X55300Y-123253D02*
D03*
Y-117347D02*
D03*
X56500Y-59153D02*
D03*
Y-53247D02*
D03*
X65300Y-47147D02*
D03*
Y-53053D02*
D03*
X-84700Y-136547D02*
D03*
Y-142453D02*
D03*
X-96400Y-136347D02*
D03*
Y-142253D02*
D03*
X-62600Y-134047D02*
D03*
Y-139953D02*
D03*
X98100Y-83747D02*
D03*
Y-89653D02*
D03*
X99100Y-54047D02*
D03*
Y-59953D02*
D03*
X65000Y-77147D02*
D03*
Y-83053D02*
D03*
X-2700Y-135847D02*
D03*
Y-141753D02*
D03*
X65800Y19753D02*
D03*
Y13847D02*
D03*
X64100Y-111047D02*
D03*
Y-116953D02*
D03*
X18700Y-135847D02*
D03*
Y-141753D02*
D03*
X8900Y-135594D02*
D03*
Y-141500D02*
D03*
X-54200Y-134047D02*
D03*
Y-139953D02*
D03*
D21*
X105800Y1300D02*
D03*
X99300D02*
D03*
D22*
X99100Y19100D02*
D03*
Y13100D02*
D03*
D23*
X96991Y-186063D02*
D03*
Y-190000D02*
D03*
Y-193937D02*
D03*
X108409D02*
D03*
Y-190000D02*
D03*
Y-186063D02*
D03*
D24*
X102700Y-190000D02*
D03*
D25*
X-70400Y-142400D02*
D03*
X-76400D02*
D03*
D26*
X78979Y20240D02*
D03*
Y16500D02*
D03*
Y12760D02*
D03*
X88821D02*
D03*
Y20240D02*
D03*
D27*
X-114888Y-171288D02*
D03*
X-110712Y-167112D02*
D03*
D28*
X104785Y54031D02*
D03*
X111478D02*
D03*
X104785Y31984D02*
D03*
X111478D02*
D03*
D29*
X104800Y168722D02*
D03*
Y145100D02*
D03*
X65000Y63511D02*
D03*
Y39889D02*
D03*
D30*
X75599Y-89304D02*
D03*
X88001D02*
D03*
Y-77296D02*
D03*
X75599D02*
D03*
X75099Y-122804D02*
D03*
X87501D02*
D03*
Y-110796D02*
D03*
X75099D02*
D03*
X76499Y-47796D02*
D03*
X88901D02*
D03*
Y-59804D02*
D03*
X76499D02*
D03*
D31*
X73631Y-83300D02*
D03*
X89969D02*
D03*
X73131Y-116800D02*
D03*
X89469D02*
D03*
X90869Y-53800D02*
D03*
X74531D02*
D03*
D32*
X30200Y-141753D02*
D03*
Y-135847D02*
D03*
D33*
X21080Y-168380D02*
D03*
X14120Y-161420D02*
D03*
D34*
X54900Y22180D02*
D03*
Y13220D02*
D03*
D35*
X-40827Y-165583D02*
D03*
X-38858D02*
D03*
X-36890D02*
D03*
X-34921D02*
D03*
X-32953D02*
D03*
X-30984D02*
D03*
X-29016D02*
D03*
X-27047D02*
D03*
X-25079D02*
D03*
X-23110D02*
D03*
X-21142D02*
D03*
X-19173D02*
D03*
Y-138417D02*
D03*
X-21142D02*
D03*
X-23110D02*
D03*
X-25079D02*
D03*
X-27047D02*
D03*
X-29016D02*
D03*
X-30984D02*
D03*
X-32953D02*
D03*
X-34921D02*
D03*
X-36890D02*
D03*
X-38858D02*
D03*
X-40827D02*
D03*
D36*
X-16417Y-162827D02*
D03*
Y-160858D02*
D03*
Y-158890D02*
D03*
Y-156921D02*
D03*
Y-154953D02*
D03*
Y-152984D02*
D03*
Y-151016D02*
D03*
Y-149047D02*
D03*
Y-147079D02*
D03*
Y-145110D02*
D03*
Y-143142D02*
D03*
Y-141173D02*
D03*
X-43583D02*
D03*
Y-143142D02*
D03*
Y-145110D02*
D03*
Y-147079D02*
D03*
Y-149047D02*
D03*
Y-151016D02*
D03*
Y-152984D02*
D03*
Y-154953D02*
D03*
Y-156921D02*
D03*
Y-158890D02*
D03*
Y-160858D02*
D03*
Y-162827D02*
D03*
D37*
X-30000Y-152000D02*
D03*
D38*
X-80677Y-159126D02*
D03*
X-74274Y-152724D02*
D03*
X-69124Y-157874D02*
D03*
X-75526Y-164277D02*
D03*
D39*
X64198Y102755D02*
D03*
Y93700D02*
D03*
Y84645D02*
D03*
D40*
X89002Y93700D02*
D03*
M02*
