G04*
G04 #@! TF.GenerationSoftware,Altium Limited,Altium Designer,19.1.7 (138)*
G04*
G04 Layer_Physical_Order=2*
G04 Layer_Color=16711680*
%FSLAX25Y25*%
%MOIN*%
G70*
G01*
G75*
%ADD80C,0.00600*%
%ADD82C,0.06299*%
%ADD83C,0.16358*%
%ADD84C,0.05906*%
%ADD85R,0.05906X0.05906*%
%ADD86C,0.01476*%
%ADD87C,0.11811*%
%ADD88C,0.05118*%
%ADD89C,0.05000*%
%ADD90C,0.02400*%
%ADD91C,0.02756*%
G36*
X122385Y176500D02*
Y-110300D01*
X57951D01*
X57760Y-109838D01*
X115349Y-52249D01*
X115548Y-51951D01*
X115618Y-51600D01*
Y-18100D01*
X115548Y-17749D01*
X115349Y-17451D01*
X105649Y-7751D01*
X105351Y-7552D01*
X105000Y-7482D01*
X94152D01*
X93898Y-7102D01*
X93302Y-6704D01*
X92600Y-6565D01*
X91898Y-6704D01*
X91302Y-7102D01*
X90904Y-7698D01*
X90765Y-8400D01*
X90904Y-9102D01*
X91302Y-9698D01*
X91898Y-10096D01*
X92600Y-10235D01*
X93302Y-10096D01*
X93898Y-9698D01*
X94152Y-9318D01*
X104620D01*
X113782Y-18480D01*
Y-51220D01*
X54702Y-110300D01*
X51351D01*
X51160Y-109838D01*
X60849Y-100149D01*
X61048Y-99851D01*
X61118Y-99500D01*
Y-61180D01*
X90904Y-31393D01*
X91308Y-31703D01*
X92173Y-32061D01*
X93100Y-32183D01*
X94027Y-32061D01*
X94892Y-31703D01*
X95634Y-31134D01*
X96203Y-30392D01*
X96561Y-29527D01*
X96683Y-28600D01*
X96561Y-27673D01*
X96203Y-26808D01*
X95634Y-26066D01*
X94892Y-25497D01*
X94027Y-25139D01*
X93100Y-25017D01*
X92173Y-25139D01*
X91308Y-25497D01*
X90566Y-26066D01*
X89997Y-26808D01*
X89639Y-27673D01*
X89517Y-28600D01*
X89639Y-29527D01*
X89796Y-29907D01*
X59551Y-60151D01*
X59352Y-60449D01*
X59318Y-60623D01*
X58818Y-60574D01*
Y-57380D01*
X83096Y-33102D01*
X83295Y-32804D01*
X83365Y-32453D01*
Y-32149D01*
X84027Y-32061D01*
X84892Y-31703D01*
X85634Y-31134D01*
X86203Y-30392D01*
X86561Y-29527D01*
X86683Y-28600D01*
X86561Y-27673D01*
X86203Y-26808D01*
X85634Y-26066D01*
X84892Y-25497D01*
X84027Y-25139D01*
X83100Y-25017D01*
X82173Y-25139D01*
X81308Y-25497D01*
X80566Y-26066D01*
X79997Y-26808D01*
X79639Y-27673D01*
X79517Y-28600D01*
X79639Y-29527D01*
X79997Y-30392D01*
X80566Y-31134D01*
X81275Y-31678D01*
X81314Y-31788D01*
X81345Y-32257D01*
X57251Y-56351D01*
X57052Y-56649D01*
X56982Y-57000D01*
Y-97920D01*
X55704Y-99198D01*
X55349Y-98849D01*
X55548Y-98551D01*
X55618Y-98200D01*
Y-59300D01*
X55548Y-58949D01*
X55349Y-58651D01*
X50929Y-54232D01*
X51035Y-53700D01*
X50896Y-52998D01*
X50498Y-52402D01*
X49902Y-52004D01*
X49200Y-51865D01*
X48498Y-52004D01*
X47902Y-52402D01*
X47504Y-52998D01*
X47365Y-53700D01*
X47504Y-54402D01*
X47902Y-54998D01*
X48498Y-55396D01*
X49200Y-55535D01*
X49565Y-55463D01*
X53782Y-59680D01*
Y-97820D01*
X41302Y-110300D01*
X40351D01*
X40160Y-109838D01*
X46549Y-103449D01*
X46748Y-103151D01*
X46818Y-102800D01*
Y-84420D01*
X47036Y-84216D01*
X47602Y-84198D01*
X48198Y-84596D01*
X48900Y-84735D01*
X49602Y-84596D01*
X50198Y-84198D01*
X50596Y-83602D01*
X50735Y-82900D01*
X50596Y-82198D01*
X50198Y-81602D01*
X49602Y-81204D01*
X48900Y-81065D01*
X48198Y-81204D01*
X47602Y-81602D01*
X47348Y-81982D01*
X46652D01*
X46300Y-82052D01*
X46003Y-82251D01*
X45251Y-83003D01*
X45052Y-83300D01*
X44982Y-83652D01*
Y-102420D01*
X37102Y-110300D01*
X-51682Y-110300D01*
Y-106880D01*
X45380Y-9818D01*
X65800D01*
X66151Y-9748D01*
X66449Y-9549D01*
X71349Y-4649D01*
X71375Y-4610D01*
X71500Y-4635D01*
X72202Y-4496D01*
X72798Y-4098D01*
X73196Y-3502D01*
X73335Y-2800D01*
X73196Y-2098D01*
X72798Y-1502D01*
X72202Y-1104D01*
X71500Y-965D01*
X70798Y-1104D01*
X70202Y-1502D01*
X69804Y-2098D01*
X69665Y-2800D01*
X69782Y-3391D01*
Y-3620D01*
X65420Y-7982D01*
X45000D01*
X44649Y-8052D01*
X44351Y-8251D01*
X-52910Y-105512D01*
X-53410Y-105305D01*
Y-104508D01*
X45449Y-5649D01*
X45648Y-5351D01*
X45718Y-5000D01*
Y-3552D01*
X46002Y-3496D01*
X46598Y-3098D01*
X46996Y-2502D01*
X47135Y-1800D01*
X46996Y-1098D01*
X46598Y-502D01*
X46002Y-104D01*
X45300Y35D01*
X44598Y-104D01*
X44002Y-502D01*
X43604Y-1098D01*
X43465Y-1800D01*
X43604Y-2502D01*
X43882Y-2918D01*
Y-4620D01*
X-54977Y-103479D01*
X-55176Y-103777D01*
X-55245Y-104128D01*
Y-110300D01*
X-122385D01*
Y176500D01*
X122385Y176500D01*
D02*
G37*
G36*
Y-196800D02*
X-122385D01*
Y-111500D01*
X-55245D01*
Y-143248D01*
X-57652Y-145654D01*
X-58100Y-145565D01*
X-58802Y-145704D01*
X-59398Y-146102D01*
X-59796Y-146698D01*
X-59935Y-147400D01*
X-59796Y-148102D01*
X-59398Y-148698D01*
X-58802Y-149096D01*
X-58100Y-149235D01*
X-57398Y-149096D01*
X-56802Y-148698D01*
X-56404Y-148102D01*
X-56265Y-147400D01*
X-56354Y-146952D01*
X-54906Y-145504D01*
X-54561Y-145648D01*
X-54429Y-145733D01*
X-54296Y-146402D01*
X-53898Y-146998D01*
X-53302Y-147396D01*
X-52600Y-147535D01*
X-51898Y-147396D01*
X-51302Y-146998D01*
X-50904Y-146402D01*
X-50765Y-145700D01*
X-50904Y-144998D01*
X-51302Y-144402D01*
X-51682Y-144148D01*
Y-111500D01*
X35249D01*
X35440Y-111962D01*
X14320Y-133082D01*
X5200D01*
X4849Y-133152D01*
X4551Y-133351D01*
X-8252Y-146154D01*
X-8700Y-146065D01*
X-9402Y-146204D01*
X-9998Y-146602D01*
X-10396Y-147198D01*
X-10535Y-147900D01*
X-10396Y-148602D01*
X-9998Y-149198D01*
X-9402Y-149596D01*
X-8700Y-149735D01*
X-7998Y-149596D01*
X-7402Y-149198D01*
X-7004Y-148602D01*
X-6865Y-147900D01*
X-6954Y-147452D01*
X5580Y-134918D01*
X8574D01*
X8623Y-135418D01*
X8449Y-135452D01*
X8151Y-135651D01*
X-6052Y-149854D01*
X-6500Y-149765D01*
X-7202Y-149904D01*
X-7798Y-150302D01*
X-8196Y-150898D01*
X-8335Y-151600D01*
X-8200Y-152282D01*
X-8191Y-152368D01*
X-8456Y-152813D01*
X-8651Y-152852D01*
X-8949Y-153051D01*
X-9452Y-153554D01*
X-9900Y-153465D01*
X-10602Y-153604D01*
X-11198Y-154002D01*
X-11596Y-154598D01*
X-11735Y-155300D01*
X-11596Y-156002D01*
X-11198Y-156598D01*
X-10602Y-156996D01*
X-9900Y-157135D01*
X-9198Y-156996D01*
X-8602Y-156598D01*
X-8204Y-156002D01*
X-8065Y-155300D01*
X-8117Y-155036D01*
X-7755Y-154618D01*
X-5000D01*
X-4649Y-154548D01*
X-4351Y-154349D01*
X10180Y-139818D01*
X10673D01*
X10723Y-140318D01*
X10549Y-140352D01*
X10251Y-140551D01*
X-7880Y-158682D01*
X-10048D01*
X-10302Y-158302D01*
X-10898Y-157904D01*
X-11600Y-157765D01*
X-12302Y-157904D01*
X-12898Y-158302D01*
X-13296Y-158898D01*
X-13435Y-159600D01*
X-13296Y-160302D01*
X-12898Y-160898D01*
X-12302Y-161296D01*
X-11600Y-161435D01*
X-10898Y-161296D01*
X-10302Y-160898D01*
X-10048Y-160518D01*
X-7500D01*
X-7149Y-160448D01*
X-6851Y-160249D01*
X11280Y-142118D01*
X18500D01*
X18851Y-142048D01*
X19149Y-141849D01*
X49498Y-111500D01*
X52849D01*
X53040Y-111962D01*
X49748Y-115254D01*
X49300Y-115165D01*
X48598Y-115304D01*
X48002Y-115702D01*
X47604Y-116298D01*
X47465Y-117000D01*
X47604Y-117702D01*
X48002Y-118298D01*
X48598Y-118696D01*
X49300Y-118835D01*
X50002Y-118696D01*
X50598Y-118298D01*
X50996Y-117702D01*
X51135Y-117000D01*
X51046Y-116552D01*
X56098Y-111500D01*
X122385D01*
Y-196800D01*
D02*
G37*
G36*
X39640Y-111962D02*
X16220Y-135382D01*
X14927D01*
X14877Y-134882D01*
X15051Y-134848D01*
X15349Y-134649D01*
X38498Y-111500D01*
X39449D01*
X39640Y-111962D01*
D02*
G37*
G36*
X45962Y-111733D02*
X46134Y-112268D01*
X18120Y-140282D01*
X17526D01*
X17477Y-139782D01*
X17651Y-139748D01*
X17949Y-139549D01*
X45793Y-111705D01*
X45962Y-111733D01*
D02*
G37*
%LPC*%
G36*
X-80400Y174994D02*
X-82121Y174825D01*
X-83776Y174322D01*
X-85301Y173507D01*
X-86638Y172410D01*
X-87735Y171073D01*
X-88550Y169548D01*
X-89052Y167894D01*
X-89222Y166172D01*
X-89052Y164451D01*
X-88550Y162797D01*
X-87735Y161271D01*
X-86638Y159935D01*
X-85301Y158837D01*
X-83776Y158022D01*
X-82121Y157520D01*
X-80400Y157351D01*
X-78679Y157520D01*
X-77024Y158022D01*
X-75499Y158837D01*
X-74162Y159935D01*
X-73065Y161271D01*
X-72250Y162797D01*
X-71748Y164451D01*
X-71578Y166172D01*
X-71748Y167894D01*
X-72250Y169548D01*
X-73065Y171073D01*
X-74162Y172410D01*
X-75499Y173507D01*
X-77024Y174322D01*
X-78679Y174825D01*
X-80400Y174994D01*
D02*
G37*
G36*
X4900Y174730D02*
X3179Y174560D01*
X1524Y174058D01*
X-1Y173243D01*
X-1338Y172146D01*
X-2435Y170809D01*
X-3250Y169284D01*
X-3752Y167629D01*
X-3922Y165908D01*
X-3752Y164187D01*
X-3250Y162532D01*
X-2435Y161007D01*
X-1338Y159670D01*
X-1Y158573D01*
X1524Y157758D01*
X3179Y157256D01*
X4900Y157086D01*
X6621Y157256D01*
X8276Y157758D01*
X9801Y158573D01*
X11138Y159670D01*
X12235Y161007D01*
X13050Y162532D01*
X13552Y164187D01*
X13722Y165908D01*
X13552Y167629D01*
X13050Y169284D01*
X12235Y170809D01*
X11138Y172146D01*
X9801Y173243D01*
X8276Y174058D01*
X6621Y174560D01*
X4900Y174730D01*
D02*
G37*
G36*
X67900Y151237D02*
X66625Y151111D01*
X65398Y150739D01*
X64268Y150135D01*
X63278Y149322D01*
X62465Y148332D01*
X61861Y147202D01*
X61489Y145975D01*
X61363Y144700D01*
X61489Y143425D01*
X61861Y142198D01*
X62465Y141068D01*
X63278Y140078D01*
X64268Y139265D01*
X65398Y138661D01*
X66625Y138289D01*
X67900Y138163D01*
X69175Y138289D01*
X70402Y138661D01*
X71532Y139265D01*
X72522Y140078D01*
X73335Y141068D01*
X73939Y142198D01*
X74311Y143425D01*
X74437Y144700D01*
X74311Y145975D01*
X73939Y147202D01*
X73335Y148332D01*
X72522Y149322D01*
X71532Y150135D01*
X70402Y150739D01*
X69175Y151111D01*
X67900Y151237D01*
D02*
G37*
G36*
X49396Y139426D02*
X48121Y139300D01*
X46895Y138928D01*
X45764Y138324D01*
X44774Y137511D01*
X43961Y136521D01*
X43357Y135391D01*
X42985Y134164D01*
X42859Y132889D01*
X42985Y131614D01*
X43357Y130387D01*
X43961Y129257D01*
X44774Y128267D01*
X45764Y127454D01*
X46895Y126850D01*
X48121Y126478D01*
X49396Y126352D01*
X50671Y126478D01*
X51898Y126850D01*
X53028Y127454D01*
X54019Y128267D01*
X54831Y129257D01*
X55436Y130387D01*
X55808Y131614D01*
X55933Y132889D01*
X55808Y134164D01*
X55436Y135391D01*
X54831Y136521D01*
X54019Y137511D01*
X53028Y138324D01*
X51898Y138928D01*
X50671Y139300D01*
X49396Y139426D01*
D02*
G37*
G36*
X-80400Y139070D02*
X-81753Y138936D01*
X-83053Y138542D01*
X-84251Y137901D01*
X-85302Y137039D01*
X-86164Y135989D01*
X-86805Y134790D01*
X-87199Y133490D01*
X-87333Y132137D01*
X-87199Y130784D01*
X-86805Y129484D01*
X-86164Y128286D01*
X-85302Y127235D01*
X-84251Y126373D01*
X-83053Y125732D01*
X-81753Y125338D01*
X-80400Y125204D01*
X-79048Y125338D01*
X-77747Y125732D01*
X-76548Y126373D01*
X-75498Y127235D01*
X-74636Y128286D01*
X-73995Y129484D01*
X-73601Y130784D01*
X-73467Y132137D01*
X-73601Y133490D01*
X-73995Y134790D01*
X-74636Y135989D01*
X-75498Y137039D01*
X-76548Y137901D01*
X-77747Y138542D01*
X-79048Y138936D01*
X-80400Y139070D01*
D02*
G37*
G36*
X4900Y138805D02*
X3548Y138672D01*
X2247Y138277D01*
X1048Y137637D01*
X-2Y136775D01*
X-864Y135724D01*
X-1505Y134525D01*
X-1899Y133225D01*
X-2033Y131872D01*
X-1899Y130520D01*
X-1505Y129219D01*
X-864Y128021D01*
X-2Y126970D01*
X1048Y126108D01*
X2247Y125468D01*
X3548Y125073D01*
X4900Y124940D01*
X6252Y125073D01*
X7553Y125468D01*
X8751Y126108D01*
X9802Y126970D01*
X10664Y128021D01*
X11305Y129219D01*
X11699Y130520D01*
X11833Y131872D01*
X11699Y133225D01*
X11305Y134525D01*
X10664Y135724D01*
X9802Y136775D01*
X8751Y137637D01*
X7553Y138277D01*
X6252Y138672D01*
X4900Y138805D01*
D02*
G37*
G36*
X96268Y134587D02*
X94992Y134462D01*
X93766Y134090D01*
X92636Y133486D01*
X91645Y132673D01*
X90832Y131682D01*
X90228Y130552D01*
X89856Y129326D01*
X89731Y128050D01*
X89856Y126775D01*
X90228Y125549D01*
X90832Y124419D01*
X91645Y123428D01*
X92636Y122615D01*
X93766Y122011D01*
X94992Y121639D01*
X96268Y121513D01*
X97543Y121639D01*
X98769Y122011D01*
X99900Y122615D01*
X100890Y123428D01*
X101703Y124419D01*
X102307Y125549D01*
X102679Y126775D01*
X102805Y128050D01*
X102679Y129326D01*
X102307Y130552D01*
X101703Y131682D01*
X100890Y132673D01*
X99900Y133486D01*
X98769Y134090D01*
X97543Y134462D01*
X96268Y134587D01*
D02*
G37*
G36*
X-96606D02*
X-97882Y134462D01*
X-99108Y134090D01*
X-100238Y133486D01*
X-101229Y132673D01*
X-102042Y131682D01*
X-102646Y130552D01*
X-103018Y129326D01*
X-103143Y128050D01*
X-103018Y126775D01*
X-102646Y125549D01*
X-102042Y124419D01*
X-101229Y123428D01*
X-100238Y122615D01*
X-99108Y122011D01*
X-97882Y121639D01*
X-96606Y121513D01*
X-95331Y121639D01*
X-94105Y122011D01*
X-92975Y122615D01*
X-91984Y123428D01*
X-91171Y124419D01*
X-90567Y125549D01*
X-90195Y126775D01*
X-90069Y128050D01*
X-90195Y129326D01*
X-90567Y130552D01*
X-91171Y131682D01*
X-91984Y132673D01*
X-92975Y133486D01*
X-94105Y134090D01*
X-95331Y134462D01*
X-96606Y134587D01*
D02*
G37*
G36*
X67900Y127615D02*
X66625Y127489D01*
X65398Y127117D01*
X64268Y126513D01*
X63278Y125700D01*
X62465Y124710D01*
X61861Y123580D01*
X61489Y122353D01*
X61363Y121078D01*
X61489Y119803D01*
X61861Y118576D01*
X62465Y117446D01*
X63278Y116456D01*
X64268Y115643D01*
X65398Y115039D01*
X66625Y114667D01*
X67900Y114541D01*
X69175Y114667D01*
X70402Y115039D01*
X71532Y115643D01*
X72522Y116456D01*
X73335Y117446D01*
X73939Y118576D01*
X74311Y119803D01*
X74437Y121078D01*
X74311Y122353D01*
X73939Y123580D01*
X73335Y124710D01*
X72522Y125700D01*
X71532Y126513D01*
X70402Y127117D01*
X69175Y127489D01*
X67900Y127615D01*
D02*
G37*
G36*
X104379Y91129D02*
X103554Y91020D01*
X102786Y90702D01*
X102126Y90196D01*
X101619Y89536D01*
X101301Y88767D01*
X101192Y87942D01*
X101301Y87118D01*
X101619Y86349D01*
X102126Y85689D01*
X102786Y85183D01*
X103554Y84865D01*
X104379Y84756D01*
X105203Y84865D01*
X105972Y85183D01*
X106632Y85689D01*
X107138Y86349D01*
X107457Y87118D01*
X107565Y87942D01*
X107457Y88767D01*
X107138Y89536D01*
X106632Y90196D01*
X105972Y90702D01*
X105203Y91020D01*
X104379Y91129D01*
D02*
G37*
G36*
Y81286D02*
X103554Y81178D01*
X102786Y80859D01*
X102126Y80353D01*
X101619Y79693D01*
X101301Y78925D01*
X101192Y78100D01*
X101301Y77275D01*
X101619Y76507D01*
X102126Y75847D01*
X102786Y75340D01*
X103554Y75022D01*
X104379Y74914D01*
X105203Y75022D01*
X105972Y75340D01*
X106632Y75847D01*
X107138Y76507D01*
X107457Y77275D01*
X107565Y78100D01*
X107457Y78925D01*
X107138Y79693D01*
X106632Y80353D01*
X105972Y80859D01*
X105203Y81178D01*
X104379Y81286D01*
D02*
G37*
G36*
Y71444D02*
X103554Y71335D01*
X102786Y71017D01*
X102126Y70511D01*
X101619Y69851D01*
X101301Y69082D01*
X101192Y68257D01*
X101301Y67433D01*
X101619Y66664D01*
X102126Y66004D01*
X102786Y65498D01*
X103554Y65180D01*
X104379Y65071D01*
X105203Y65180D01*
X105972Y65498D01*
X106632Y66004D01*
X107138Y66664D01*
X107457Y67433D01*
X107565Y68257D01*
X107457Y69082D01*
X107138Y69851D01*
X106632Y70511D01*
X105972Y71017D01*
X105203Y71335D01*
X104379Y71444D01*
D02*
G37*
G36*
X113545Y45125D02*
X112735Y44964D01*
X112048Y44505D01*
X111589Y43818D01*
X111428Y43008D01*
X111589Y42198D01*
X112048Y41511D01*
X112735Y41052D01*
X113545Y40891D01*
X114355Y41052D01*
X115042Y41511D01*
X115501Y42198D01*
X115662Y43008D01*
X115501Y43818D01*
X115042Y44505D01*
X114355Y44964D01*
X113545Y45125D01*
D02*
G37*
G36*
X102718D02*
X101908Y44964D01*
X101221Y44505D01*
X100762Y43818D01*
X100601Y43008D01*
X100762Y42198D01*
X101221Y41511D01*
X101908Y41052D01*
X102718Y40891D01*
X103528Y41052D01*
X104215Y41511D01*
X104674Y42198D01*
X104835Y43008D01*
X104674Y43818D01*
X104215Y44505D01*
X103528Y44964D01*
X102718Y45125D01*
D02*
G37*
G36*
X-119600Y-11183D02*
X-120372Y-11337D01*
X-121026Y-11774D01*
X-121463Y-12428D01*
X-121617Y-13200D01*
X-121463Y-13972D01*
X-121026Y-14626D01*
X-120372Y-15063D01*
X-119600Y-15217D01*
X-118828Y-15063D01*
X-118174Y-14626D01*
X-117737Y-13972D01*
X-117583Y-13200D01*
X-117737Y-12428D01*
X-118174Y-11774D01*
X-118828Y-11337D01*
X-119600Y-11183D01*
D02*
G37*
G36*
X103100Y-15017D02*
X102173Y-15139D01*
X101308Y-15497D01*
X100566Y-16066D01*
X99997Y-16808D01*
X99639Y-17673D01*
X99517Y-18600D01*
X99639Y-19527D01*
X99997Y-20392D01*
X100566Y-21134D01*
X101308Y-21703D01*
X102173Y-22061D01*
X103100Y-22183D01*
X104027Y-22061D01*
X104892Y-21703D01*
X105634Y-21134D01*
X106203Y-20392D01*
X106561Y-19527D01*
X106683Y-18600D01*
X106561Y-17673D01*
X106203Y-16808D01*
X105634Y-16066D01*
X104892Y-15497D01*
X104027Y-15139D01*
X103100Y-15017D01*
D02*
G37*
G36*
X93100D02*
X92173Y-15139D01*
X91308Y-15497D01*
X90566Y-16066D01*
X89997Y-16808D01*
X89639Y-17673D01*
X89517Y-18600D01*
X89639Y-19527D01*
X89997Y-20392D01*
X90566Y-21134D01*
X91308Y-21703D01*
X92173Y-22061D01*
X93100Y-22183D01*
X94027Y-22061D01*
X94892Y-21703D01*
X95634Y-21134D01*
X96203Y-20392D01*
X96561Y-19527D01*
X96683Y-18600D01*
X96561Y-17673D01*
X96203Y-16808D01*
X95634Y-16066D01*
X94892Y-15497D01*
X94027Y-15139D01*
X93100Y-15017D01*
D02*
G37*
G36*
X83100D02*
X82173Y-15139D01*
X81308Y-15497D01*
X80566Y-16066D01*
X79997Y-16808D01*
X79639Y-17673D01*
X79517Y-18600D01*
X79639Y-19527D01*
X79997Y-20392D01*
X80566Y-21134D01*
X81308Y-21703D01*
X82173Y-22061D01*
X83100Y-22183D01*
X84027Y-22061D01*
X84892Y-21703D01*
X85634Y-21134D01*
X86203Y-20392D01*
X86561Y-19527D01*
X86683Y-18600D01*
X86561Y-17673D01*
X86203Y-16808D01*
X85634Y-16066D01*
X84892Y-15497D01*
X84027Y-15139D01*
X83100Y-15017D01*
D02*
G37*
G36*
X73100D02*
X72173Y-15139D01*
X71308Y-15497D01*
X70566Y-16066D01*
X69997Y-16808D01*
X69639Y-17673D01*
X69517Y-18600D01*
X69639Y-19527D01*
X69997Y-20392D01*
X70566Y-21134D01*
X71308Y-21703D01*
X72173Y-22061D01*
X73100Y-22183D01*
X74027Y-22061D01*
X74892Y-21703D01*
X75634Y-21134D01*
X76203Y-20392D01*
X76561Y-19527D01*
X76683Y-18600D01*
X76561Y-17673D01*
X76203Y-16808D01*
X75634Y-16066D01*
X74892Y-15497D01*
X74027Y-15139D01*
X73100Y-15017D01*
D02*
G37*
G36*
X-119600Y-22983D02*
X-120372Y-23137D01*
X-121026Y-23574D01*
X-121463Y-24228D01*
X-121617Y-25000D01*
X-121463Y-25772D01*
X-121026Y-26426D01*
X-120372Y-26863D01*
X-119600Y-27017D01*
X-118828Y-26863D01*
X-118174Y-26426D01*
X-117737Y-25772D01*
X-117583Y-25000D01*
X-117737Y-24228D01*
X-118174Y-23574D01*
X-118828Y-23137D01*
X-119600Y-22983D01*
D02*
G37*
G36*
X66653Y-25047D02*
X59547D01*
Y-32153D01*
X66653D01*
Y-25047D01*
D02*
G37*
G36*
X73100Y-25017D02*
X72173Y-25139D01*
X71308Y-25497D01*
X70566Y-26066D01*
X69997Y-26808D01*
X69639Y-27673D01*
X69517Y-28600D01*
X69639Y-29527D01*
X69997Y-30392D01*
X70566Y-31134D01*
X71308Y-31703D01*
X72173Y-32061D01*
X73100Y-32183D01*
X74027Y-32061D01*
X74892Y-31703D01*
X75634Y-31134D01*
X76203Y-30392D01*
X76561Y-29527D01*
X76683Y-28600D01*
X76561Y-27673D01*
X76203Y-26808D01*
X75634Y-26066D01*
X74892Y-25497D01*
X74027Y-25139D01*
X73100Y-25017D01*
D02*
G37*
G36*
X-119600Y-34483D02*
X-120372Y-34637D01*
X-121026Y-35074D01*
X-121463Y-35728D01*
X-121617Y-36500D01*
X-121463Y-37272D01*
X-121026Y-37926D01*
X-120372Y-38363D01*
X-119600Y-38517D01*
X-118828Y-38363D01*
X-118174Y-37926D01*
X-117737Y-37272D01*
X-117583Y-36500D01*
X-117737Y-35728D01*
X-118174Y-35074D01*
X-118828Y-34637D01*
X-119600Y-34483D01*
D02*
G37*
G36*
Y-49083D02*
X-120372Y-49237D01*
X-121026Y-49674D01*
X-121463Y-50328D01*
X-121617Y-51100D01*
X-121463Y-51872D01*
X-121026Y-52526D01*
X-120372Y-52963D01*
X-119600Y-53117D01*
X-118828Y-52963D01*
X-118174Y-52526D01*
X-117737Y-51872D01*
X-117583Y-51100D01*
X-117737Y-50328D01*
X-118174Y-49674D01*
X-118828Y-49237D01*
X-119600Y-49083D01*
D02*
G37*
G36*
X119000Y-61283D02*
X118228Y-61437D01*
X117574Y-61874D01*
X117137Y-62528D01*
X116983Y-63300D01*
X117137Y-64072D01*
X117574Y-64726D01*
X118228Y-65163D01*
X119000Y-65317D01*
X119772Y-65163D01*
X120426Y-64726D01*
X120863Y-64072D01*
X121017Y-63300D01*
X120863Y-62528D01*
X120426Y-61874D01*
X119772Y-61437D01*
X119000Y-61283D01*
D02*
G37*
G36*
X-119500Y-61583D02*
X-120272Y-61737D01*
X-120926Y-62174D01*
X-121363Y-62828D01*
X-121517Y-63600D01*
X-121363Y-64372D01*
X-120926Y-65026D01*
X-120272Y-65463D01*
X-119500Y-65617D01*
X-118728Y-65463D01*
X-118074Y-65026D01*
X-117637Y-64372D01*
X-117483Y-63600D01*
X-117637Y-62828D01*
X-118074Y-62174D01*
X-118728Y-61737D01*
X-119500Y-61583D01*
D02*
G37*
G36*
Y-73383D02*
X-120272Y-73537D01*
X-120926Y-73974D01*
X-121363Y-74628D01*
X-121517Y-75400D01*
X-121363Y-76172D01*
X-120926Y-76826D01*
X-120272Y-77263D01*
X-119500Y-77417D01*
X-118728Y-77263D01*
X-118074Y-76826D01*
X-117637Y-76172D01*
X-117483Y-75400D01*
X-117637Y-74628D01*
X-118074Y-73974D01*
X-118728Y-73537D01*
X-119500Y-73383D01*
D02*
G37*
G36*
X118900Y-74383D02*
X118128Y-74537D01*
X117474Y-74974D01*
X117037Y-75628D01*
X116883Y-76400D01*
X117037Y-77172D01*
X117474Y-77826D01*
X118128Y-78263D01*
X118900Y-78417D01*
X119672Y-78263D01*
X120326Y-77826D01*
X120763Y-77172D01*
X120917Y-76400D01*
X120763Y-75628D01*
X120326Y-74974D01*
X119672Y-74537D01*
X118900Y-74383D01*
D02*
G37*
G36*
X-119300Y-84083D02*
X-120072Y-84237D01*
X-120726Y-84674D01*
X-121163Y-85328D01*
X-121317Y-86100D01*
X-121163Y-86872D01*
X-120726Y-87526D01*
X-120072Y-87963D01*
X-119300Y-88117D01*
X-118528Y-87963D01*
X-117874Y-87526D01*
X-117437Y-86872D01*
X-117283Y-86100D01*
X-117437Y-85328D01*
X-117874Y-84674D01*
X-118528Y-84237D01*
X-119300Y-84083D01*
D02*
G37*
G36*
X118700Y-88383D02*
X117928Y-88537D01*
X117274Y-88974D01*
X116837Y-89628D01*
X116683Y-90400D01*
X116837Y-91172D01*
X117274Y-91826D01*
X117928Y-92263D01*
X118700Y-92417D01*
X119472Y-92263D01*
X120126Y-91826D01*
X120563Y-91172D01*
X120717Y-90400D01*
X120563Y-89628D01*
X120126Y-88974D01*
X119472Y-88537D01*
X118700Y-88383D01*
D02*
G37*
G36*
X-80400Y-79867D02*
X-81753Y-80001D01*
X-83053Y-80395D01*
X-84251Y-81036D01*
X-85302Y-81898D01*
X-86164Y-82948D01*
X-86805Y-84147D01*
X-87199Y-85448D01*
X-87333Y-86800D01*
X-87199Y-88152D01*
X-86805Y-89453D01*
X-86164Y-90652D01*
X-85302Y-91702D01*
X-84251Y-92564D01*
X-83053Y-93205D01*
X-81753Y-93599D01*
X-80400Y-93733D01*
X-79048Y-93599D01*
X-77747Y-93205D01*
X-76548Y-92564D01*
X-75498Y-91702D01*
X-74636Y-90652D01*
X-73995Y-89453D01*
X-73601Y-88152D01*
X-73467Y-86800D01*
X-73601Y-85448D01*
X-73995Y-84147D01*
X-74636Y-82948D01*
X-75498Y-81898D01*
X-76548Y-81036D01*
X-77747Y-80395D01*
X-79048Y-80001D01*
X-80400Y-79867D01*
D02*
G37*
G36*
X4900Y-80132D02*
X3548Y-80265D01*
X2247Y-80660D01*
X1048Y-81300D01*
X-2Y-82162D01*
X-864Y-83213D01*
X-1505Y-84412D01*
X-1899Y-85712D01*
X-2033Y-87065D01*
X-1899Y-88417D01*
X-1505Y-89718D01*
X-864Y-90916D01*
X-2Y-91967D01*
X1048Y-92829D01*
X2247Y-93469D01*
X3548Y-93864D01*
X4900Y-93997D01*
X6252Y-93864D01*
X7553Y-93469D01*
X8751Y-92829D01*
X9802Y-91967D01*
X10664Y-90916D01*
X11305Y-89718D01*
X11699Y-88417D01*
X11833Y-87065D01*
X11699Y-85712D01*
X11305Y-84412D01*
X10664Y-83213D01*
X9802Y-82162D01*
X8751Y-81300D01*
X7553Y-80660D01*
X6252Y-80265D01*
X4900Y-80132D01*
D02*
G37*
G36*
X-119400Y-95383D02*
X-120172Y-95537D01*
X-120826Y-95974D01*
X-121263Y-96628D01*
X-121417Y-97400D01*
X-121263Y-98172D01*
X-120826Y-98826D01*
X-120172Y-99263D01*
X-119400Y-99417D01*
X-118628Y-99263D01*
X-117974Y-98826D01*
X-117537Y-98172D01*
X-117383Y-97400D01*
X-117537Y-96628D01*
X-117974Y-95974D01*
X-118628Y-95537D01*
X-119400Y-95383D01*
D02*
G37*
G36*
Y-104183D02*
X-120172Y-104337D01*
X-120826Y-104774D01*
X-121263Y-105428D01*
X-121417Y-106200D01*
X-121263Y-106972D01*
X-120826Y-107626D01*
X-120172Y-108063D01*
X-119400Y-108217D01*
X-118628Y-108063D01*
X-117974Y-107626D01*
X-117537Y-106972D01*
X-117383Y-106200D01*
X-117537Y-105428D01*
X-117974Y-104774D01*
X-118628Y-104337D01*
X-119400Y-104183D01*
D02*
G37*
G36*
X-32650Y-123565D02*
X-33352Y-123704D01*
X-33948Y-124102D01*
X-34346Y-124698D01*
X-34485Y-125400D01*
X-34425Y-125702D01*
X-40106Y-131383D01*
X-40700Y-131265D01*
X-41402Y-131404D01*
X-41998Y-131802D01*
X-42396Y-132398D01*
X-42535Y-133100D01*
X-42396Y-133802D01*
X-41998Y-134398D01*
X-41402Y-134796D01*
X-40700Y-134935D01*
X-39998Y-134796D01*
X-39402Y-134398D01*
X-39004Y-133802D01*
X-38865Y-133100D01*
X-38925Y-132798D01*
X-33244Y-127117D01*
X-32650Y-127235D01*
X-31948Y-127096D01*
X-31352Y-126698D01*
X-30954Y-126102D01*
X-30815Y-125400D01*
X-30954Y-124698D01*
X-31352Y-124102D01*
X-31948Y-123704D01*
X-32650Y-123565D01*
D02*
G37*
G36*
X-30000Y-119282D02*
X-35700D01*
X-36051Y-119352D01*
X-36349Y-119551D01*
X-47700Y-130903D01*
X-47899Y-131200D01*
X-47969Y-131552D01*
Y-131849D01*
X-48498Y-132202D01*
X-48896Y-132798D01*
X-49035Y-133500D01*
X-48896Y-134202D01*
X-48498Y-134798D01*
X-47902Y-135196D01*
X-47200Y-135335D01*
X-46498Y-135196D01*
X-45902Y-134798D01*
X-45504Y-134202D01*
X-45365Y-133500D01*
X-45504Y-132798D01*
X-45902Y-132202D01*
X-45892Y-131690D01*
X-35320Y-121118D01*
X-30380D01*
X-19849Y-131649D01*
X-19551Y-131848D01*
X-19200Y-131918D01*
X-11052D01*
X-10798Y-132298D01*
X-10202Y-132696D01*
X-9500Y-132835D01*
X-8798Y-132696D01*
X-8202Y-132298D01*
X-7804Y-131702D01*
X-7665Y-131000D01*
X-7804Y-130298D01*
X-8202Y-129702D01*
X-8798Y-129304D01*
X-9500Y-129165D01*
X-10202Y-129304D01*
X-10798Y-129702D01*
X-11052Y-130082D01*
X-18820D01*
X-29351Y-119551D01*
X-29649Y-119352D01*
X-30000Y-119282D01*
D02*
G37*
G36*
X96268Y-148913D02*
X94992Y-149038D01*
X93766Y-149410D01*
X92636Y-150014D01*
X91645Y-150827D01*
X90832Y-151818D01*
X90228Y-152948D01*
X89856Y-154174D01*
X89731Y-155450D01*
X89856Y-156725D01*
X90228Y-157951D01*
X90832Y-159081D01*
X91645Y-160072D01*
X92636Y-160885D01*
X93766Y-161489D01*
X94992Y-161861D01*
X96268Y-161987D01*
X97543Y-161861D01*
X98769Y-161489D01*
X99900Y-160885D01*
X100890Y-160072D01*
X101703Y-159081D01*
X102307Y-157951D01*
X102679Y-156725D01*
X102805Y-155450D01*
X102679Y-154174D01*
X102307Y-152948D01*
X101703Y-151818D01*
X100890Y-150827D01*
X99900Y-150014D01*
X98769Y-149410D01*
X97543Y-149038D01*
X96268Y-148913D01*
D02*
G37*
G36*
X-96606D02*
X-97882Y-149038D01*
X-99108Y-149410D01*
X-100238Y-150014D01*
X-101229Y-150827D01*
X-102042Y-151818D01*
X-102646Y-152948D01*
X-103018Y-154174D01*
X-103143Y-155450D01*
X-103018Y-156725D01*
X-102646Y-157951D01*
X-102042Y-159081D01*
X-101229Y-160072D01*
X-100238Y-160885D01*
X-99108Y-161489D01*
X-97882Y-161861D01*
X-96606Y-161987D01*
X-95331Y-161861D01*
X-94105Y-161489D01*
X-92975Y-160885D01*
X-91984Y-160072D01*
X-91171Y-159081D01*
X-90567Y-157951D01*
X-90195Y-156725D01*
X-90069Y-155450D01*
X-90195Y-154174D01*
X-90567Y-152948D01*
X-91171Y-151818D01*
X-91984Y-150827D01*
X-92975Y-150014D01*
X-94105Y-149410D01*
X-95331Y-149038D01*
X-96606Y-148913D01*
D02*
G37*
G36*
X-39285Y-177716D02*
X-39313Y-177728D01*
X-39343Y-177718D01*
X-39540Y-177820D01*
X-39745Y-177903D01*
X-39757Y-177932D01*
X-39785Y-177946D01*
X-39852Y-178157D01*
X-39938Y-178362D01*
X-39965Y-182722D01*
X-39893Y-182899D01*
X-39855Y-183087D01*
X-39516Y-183595D01*
X-39460Y-183632D01*
X-39435Y-183694D01*
X-39260Y-183766D01*
X-39102Y-183871D01*
X-39037Y-183858D01*
X-38976Y-183884D01*
X-34000Y-183884D01*
X-33544Y-183695D01*
X-33541Y-183694D01*
X-33351Y-183235D01*
X-33351Y-183232D01*
X-33541Y-182775D01*
X-36108Y-180208D01*
X-36135Y-180197D01*
X-36148Y-180171D01*
X-38869Y-177870D01*
X-39081Y-177802D01*
X-39285Y-177716D01*
D02*
G37*
G36*
X-13000Y-164965D02*
X-13702Y-165104D01*
X-14298Y-165502D01*
X-14696Y-166098D01*
X-14835Y-166800D01*
X-14696Y-167502D01*
X-14298Y-168098D01*
X-13702Y-168496D01*
X-13000Y-168635D01*
X-12298Y-168496D01*
X-11702Y-168098D01*
X-11448Y-167718D01*
X-10215D01*
X-10166Y-168218D01*
X-10602Y-168304D01*
X-11198Y-168702D01*
X-11596Y-169298D01*
X-11735Y-170000D01*
X-11596Y-170702D01*
X-11198Y-171298D01*
X-10602Y-171696D01*
X-9900Y-171835D01*
X-9198Y-171696D01*
X-8602Y-171298D01*
X-8348Y-170918D01*
X77720D01*
X88551Y-181749D01*
X88849Y-181948D01*
X89200Y-182018D01*
X105200D01*
X105551Y-181948D01*
X105849Y-181749D01*
X108435Y-179163D01*
X108800Y-179235D01*
X109502Y-179096D01*
X110098Y-178698D01*
X110496Y-178102D01*
X110635Y-177400D01*
X110496Y-176698D01*
X110098Y-176102D01*
X109502Y-175704D01*
X108800Y-175565D01*
X108098Y-175704D01*
X107502Y-176102D01*
X107104Y-176698D01*
X106965Y-177400D01*
X107071Y-177932D01*
X104820Y-180182D01*
X89580D01*
X78749Y-169351D01*
X78451Y-169152D01*
X78100Y-169082D01*
X-8348D01*
X-8602Y-168702D01*
X-9198Y-168304D01*
X-9634Y-168218D01*
X-9585Y-167718D01*
X78620D01*
X88451Y-177549D01*
X88749Y-177748D01*
X89100Y-177818D01*
X90048D01*
X90302Y-178198D01*
X90898Y-178596D01*
X91600Y-178735D01*
X92302Y-178596D01*
X92898Y-178198D01*
X93296Y-177602D01*
X93435Y-176900D01*
X93296Y-176198D01*
X92898Y-175602D01*
X92302Y-175204D01*
X91600Y-175065D01*
X90898Y-175204D01*
X90302Y-175602D01*
X90048Y-175982D01*
X89480D01*
X79649Y-166151D01*
X79351Y-165952D01*
X79000Y-165882D01*
X-11448D01*
X-11702Y-165502D01*
X-12298Y-165104D01*
X-13000Y-164965D01*
D02*
G37*
%LPD*%
D80*
X89100Y-176900D02*
X91600D01*
X79000Y-166800D02*
X89100Y-176900D01*
X-13000Y-166800D02*
X79000D01*
X45151Y-1800D02*
X45300D01*
X44800Y-2152D02*
X45151Y-1800D01*
X44800Y-5000D02*
Y-2152D01*
X-54328Y-104128D02*
X44800Y-5000D01*
X-52600Y-106500D02*
X45000Y-8900D01*
X-54328Y-143628D02*
Y-104128D01*
X-58100Y-147400D02*
X-54328Y-143628D01*
X71052Y-2800D02*
X71500D01*
X70700Y-3151D02*
X71052Y-2800D01*
X70700Y-4000D02*
Y-3151D01*
X65800Y-8900D02*
X70700Y-4000D01*
X45000Y-8900D02*
X65800D01*
X-52600Y-145700D02*
Y-106500D01*
X60200Y-60800D02*
X92400Y-28600D01*
X93100D01*
X60200Y-99500D02*
Y-60800D01*
X18500Y-141200D02*
X60200Y-99500D01*
X10900Y-141200D02*
X18500D01*
X-7500Y-159600D02*
X10900Y-141200D01*
X-11600Y-159600D02*
X-7500D01*
X114700Y-51600D02*
Y-18100D01*
X49300Y-117000D02*
X114700Y-51600D01*
X57900Y-57000D02*
X82447Y-32453D01*
Y-29253D01*
X83100Y-28600D01*
X57900Y-98300D02*
Y-57000D01*
X17300Y-138900D02*
X57900Y-98300D01*
X9800Y-138900D02*
X17300D01*
X-5000Y-153700D02*
X9800Y-138900D01*
X-8300Y-153700D02*
X-5000D01*
X-9900Y-155300D02*
X-8300Y-153700D01*
X-32825Y-125400D02*
X-32650D01*
X-40525Y-133100D02*
X-32825Y-125400D01*
X-40700Y-133100D02*
X-40525D01*
X105000Y-8400D02*
X114700Y-18100D01*
X92600Y-8400D02*
X105000D01*
X-8700Y-147900D02*
X5200Y-134000D01*
X-9900Y-170000D02*
X78100D01*
X-47200Y-133500D02*
X-46900Y-133200D01*
Y-132200D01*
X-47052Y-132048D02*
X-46900Y-132200D01*
X-47052Y-132048D02*
Y-131552D01*
X-35700Y-120200D01*
X-30000D01*
X-19200Y-131000D01*
X-9500D01*
X49200Y-53800D02*
Y-53700D01*
Y-53800D02*
X54700Y-59300D01*
Y-98200D02*
Y-59300D01*
X16600Y-136300D02*
X54700Y-98200D01*
X8800Y-136300D02*
X16600D01*
X-6500Y-151600D02*
X8800Y-136300D01*
X46652Y-82900D02*
X48900D01*
X45900Y-83652D02*
X46652Y-82900D01*
X45900Y-102800D02*
Y-83652D01*
X14700Y-134000D02*
X45900Y-102800D01*
X5200Y-134000D02*
X14700D01*
X108800Y-177500D02*
Y-177400D01*
X105200Y-181100D02*
X108800Y-177500D01*
X89200Y-181100D02*
X105200D01*
X78100Y-170000D02*
X89200Y-181100D01*
D82*
X-80400Y132137D02*
D03*
Y-86800D02*
D03*
X4900Y131872D02*
D03*
Y-87065D02*
D03*
D83*
X-80400Y166172D02*
D03*
Y-120835D02*
D03*
X4900Y165908D02*
D03*
Y-121100D02*
D03*
D84*
X103100Y-18600D02*
D03*
Y-28600D02*
D03*
X93100Y-18600D02*
D03*
Y-28600D02*
D03*
X83100Y-18600D02*
D03*
Y-28600D02*
D03*
X73100Y-18600D02*
D03*
Y-28600D02*
D03*
X63100Y-18600D02*
D03*
D85*
Y-28600D02*
D03*
D86*
X102718Y43008D02*
D03*
X113545D02*
D03*
D87*
X67900Y121078D02*
D03*
Y144700D02*
D03*
X49396Y132889D02*
D03*
X-96606Y-155450D02*
D03*
X96268D02*
D03*
Y128050D02*
D03*
X-96606D02*
D03*
D88*
X104379Y87942D02*
D03*
Y78100D02*
D03*
Y68257D02*
D03*
D89*
X50200Y-93500D02*
D03*
X45200Y-62200D02*
D03*
X-87900Y-166700D02*
D03*
X31500Y-102400D02*
D03*
X113700Y-102500D02*
D03*
X115400Y25700D02*
D03*
D90*
X45300Y-1800D02*
D03*
X-58100Y-147400D02*
D03*
X71500Y-2800D02*
D03*
X-52600Y-145700D02*
D03*
X-11600Y-159600D02*
D03*
X-13000Y-166800D02*
D03*
X49300Y-117000D02*
D03*
X-8700Y-147900D02*
D03*
X-9900Y-155300D02*
D03*
Y-170000D02*
D03*
X-47200Y-133500D02*
D03*
X-32650Y-125400D02*
D03*
X-9500Y-131000D02*
D03*
X92600Y-8400D02*
D03*
X-40700Y-133100D02*
D03*
X49200Y-53700D02*
D03*
X-6500Y-151600D02*
D03*
X48900Y-82900D02*
D03*
X108800Y-177400D02*
D03*
X91600Y-176900D02*
D03*
D91*
X119000Y-63300D02*
D03*
X118900Y-76400D02*
D03*
X118700Y-90400D02*
D03*
X-119600Y-13200D02*
D03*
Y-25000D02*
D03*
Y-36500D02*
D03*
Y-51100D02*
D03*
X-119500Y-63600D02*
D03*
Y-75400D02*
D03*
X-119300Y-86100D02*
D03*
X102800Y-142200D02*
D03*
X95000Y-141100D02*
D03*
X87600Y-143500D02*
D03*
X84100Y-148700D02*
D03*
X83300Y-156800D02*
D03*
X88200Y-164800D02*
D03*
X86000Y-187500D02*
D03*
X86200Y-194500D02*
D03*
X77500Y-194300D02*
D03*
X68100Y-194400D02*
D03*
X57200Y-194500D02*
D03*
X45800Y-194600D02*
D03*
X36100Y-194500D02*
D03*
X25000D02*
D03*
X14600Y-194400D02*
D03*
X5600Y-194500D02*
D03*
X-4500Y-194400D02*
D03*
X-13900D02*
D03*
X-119400Y-97400D02*
D03*
Y-106200D02*
D03*
Y-115500D02*
D03*
X-119200Y-123400D02*
D03*
X-119500Y-131800D02*
D03*
Y-140000D02*
D03*
X-119300Y-148400D02*
D03*
X-119200Y-156900D02*
D03*
X-119400Y-164500D02*
D03*
X-119200Y-177100D02*
D03*
X-118900Y-185200D02*
D03*
X-118800Y-193200D02*
D03*
X-109900D02*
D03*
X-99900Y-193100D02*
D03*
X-90100D02*
D03*
X-80000D02*
D03*
M02*
