G04*
G04 #@! TF.GenerationSoftware,Altium Limited,Altium Designer,19.1.7 (138)*
G04*
G04 Layer_Physical_Order=1*
G04 Layer_Color=255*
%FSLAX25Y25*%
%MOIN*%
G70*
G01*
G75*
%ADD16R,0.09500X0.20000*%
%ADD17R,0.09000X0.20000*%
%ADD18R,0.02362X0.03543*%
%ADD19R,0.02559X0.04724*%
%ADD20R,0.03543X0.02362*%
%ADD21R,0.03150X0.03150*%
%ADD22R,0.03600X0.02400*%
%ADD23R,0.03543X0.01772*%
%ADD24R,0.06299X0.09843*%
%ADD25R,0.02400X0.03600*%
%ADD26R,0.04724X0.02362*%
G04:AMPARAMS|DCode=27|XSize=23.62mil|YSize=35.43mil|CornerRadius=0mil|HoleSize=0mil|Usage=FLASHONLY|Rotation=45.000|XOffset=0mil|YOffset=0mil|HoleType=Round|Shape=Rectangle|*
%AMROTATEDRECTD27*
4,1,4,0.00418,-0.02088,-0.02088,0.00418,-0.00418,0.02088,0.02088,-0.00418,0.00418,-0.02088,0.0*
%
%ADD27ROTATEDRECTD27*%

%ADD28R,0.03937X0.04724*%
%ADD29R,0.07087X0.13386*%
%ADD30R,0.04528X0.02953*%
%ADD31R,0.03740X0.05512*%
%ADD32R,0.03937X0.03937*%
G04:AMPARAMS|DCode=33|XSize=70.87mil|YSize=39.37mil|CornerRadius=0mil|HoleSize=0mil|Usage=FLASHONLY|Rotation=225.000|XOffset=0mil|YOffset=0mil|HoleType=Round|Shape=Rectangle|*
%AMROTATEDRECTD33*
4,1,4,0.01114,0.03897,0.03897,0.01114,-0.01114,-0.03897,-0.03897,-0.01114,0.01114,0.03897,0.0*
%
%ADD33ROTATEDRECTD33*%

%ADD34R,0.01968X0.04134*%
%ADD35R,0.01181X0.03347*%
%ADD36R,0.03347X0.01181*%
%ADD37R,0.20669X0.20669*%
G04:AMPARAMS|DCode=38|XSize=51.18mil|YSize=41.34mil|CornerRadius=0mil|HoleSize=0mil|Usage=FLASHONLY|Rotation=45.000|XOffset=0mil|YOffset=0mil|HoleType=Round|Shape=Rectangle|*
%AMROTATEDRECTD38*
4,1,4,-0.00348,-0.03271,-0.03271,-0.00348,0.00348,0.03271,0.03271,0.00348,-0.00348,-0.03271,0.0*
%
%ADD38ROTATEDRECTD38*%

%ADD39R,0.06890X0.03740*%
%ADD40R,0.06890X0.12598*%
%ADD78C,0.01968*%
%ADD79R,0.02362X0.02362*%
%ADD80C,0.00600*%
%ADD81C,0.02756*%
%ADD82C,0.06299*%
%ADD83C,0.16358*%
%ADD84C,0.05906*%
%ADD85R,0.05906X0.05906*%
%ADD86C,0.01476*%
%ADD87C,0.11811*%
%ADD88C,0.05118*%
%ADD89C,0.05000*%
%ADD90C,0.02400*%
%ADD91C,0.02756*%
G36*
X122385Y-181000D02*
X116818D01*
Y-171267D01*
X116799Y-171172D01*
Y-155015D01*
X116781Y-154926D01*
Y-153964D01*
X117784Y-153548D01*
X118938Y-152663D01*
X119527Y-151895D01*
X119523Y-151892D01*
X119717Y-151602D01*
X119840Y-150983D01*
X119717Y-150365D01*
X119367Y-149841D01*
X119157Y-149701D01*
Y-149099D01*
X119367Y-148959D01*
X119717Y-148435D01*
X119840Y-147817D01*
X119717Y-147198D01*
X119523Y-146908D01*
X119527Y-146905D01*
X118938Y-146137D01*
X117784Y-145252D01*
X116781Y-144836D01*
Y-142501D01*
X115036D01*
Y-105302D01*
X115263Y-105208D01*
X115911Y-104711D01*
X116408Y-104063D01*
X116720Y-103309D01*
X116827Y-102500D01*
X116720Y-101691D01*
X116408Y-100937D01*
X115911Y-100289D01*
X115263Y-99792D01*
X114509Y-99480D01*
X113700Y-99373D01*
X112891Y-99480D01*
X112137Y-99792D01*
X111489Y-100289D01*
X110992Y-100937D01*
X110680Y-101691D01*
X110573Y-102500D01*
X110680Y-103309D01*
X110992Y-104063D01*
X111489Y-104711D01*
X112137Y-105208D01*
X112891Y-105520D01*
X113201Y-105561D01*
Y-143401D01*
X113219Y-143489D01*
Y-144836D01*
X112216Y-145252D01*
X111062Y-146137D01*
X110473Y-146905D01*
X110477Y-146908D01*
X110283Y-147198D01*
X110160Y-147817D01*
X110283Y-148435D01*
X110633Y-148959D01*
X110843Y-149099D01*
Y-149701D01*
X110633Y-149841D01*
X110283Y-150365D01*
X110160Y-150983D01*
X110283Y-151602D01*
X110477Y-151892D01*
X110473Y-151895D01*
X111062Y-152663D01*
X112216Y-153548D01*
X113219Y-153964D01*
Y-154617D01*
X103180Y-164657D01*
X102981Y-164954D01*
X102911Y-165305D01*
Y-165828D01*
X101166D01*
Y-170572D01*
X102030D01*
Y-173928D01*
X101172D01*
Y-178672D01*
X104734D01*
Y-173928D01*
X103865D01*
Y-170572D01*
X104728D01*
Y-167408D01*
X104746Y-167319D01*
Y-165686D01*
X114463Y-155968D01*
X114963Y-156043D01*
Y-171248D01*
X114982Y-171343D01*
Y-181000D01*
X109718D01*
Y-178952D01*
X110098Y-178698D01*
X110496Y-178102D01*
X110635Y-177400D01*
X110496Y-176698D01*
X110098Y-176102D01*
X109718Y-175848D01*
Y-170572D01*
X110634D01*
Y-165828D01*
X107072D01*
Y-170572D01*
X107882D01*
Y-175848D01*
X107502Y-176102D01*
X107104Y-176698D01*
X106965Y-177400D01*
X107104Y-178102D01*
X107502Y-178698D01*
X107882Y-178952D01*
Y-181000D01*
X97965D01*
Y-178672D01*
X98828D01*
Y-173928D01*
X95266D01*
Y-175382D01*
X94966D01*
X94615Y-175452D01*
X94317Y-175651D01*
X93986Y-175982D01*
X93152D01*
X92898Y-175602D01*
X92302Y-175204D01*
X91600Y-175065D01*
X90898Y-175204D01*
X90302Y-175602D01*
X89904Y-176198D01*
X89765Y-176900D01*
X89904Y-177602D01*
X90302Y-178198D01*
X90898Y-178596D01*
X91600Y-178735D01*
X92302Y-178596D01*
X92898Y-178198D01*
X93152Y-177818D01*
X94366D01*
X94717Y-177748D01*
X94766Y-177715D01*
X95266Y-177982D01*
Y-178672D01*
X96130D01*
Y-181000D01*
X90800D01*
Y-186418D01*
X90300Y-186685D01*
X90251Y-186652D01*
X89900Y-186582D01*
X86000D01*
X85649Y-186652D01*
X85351Y-186851D01*
X85152Y-187149D01*
X85082Y-187500D01*
X85152Y-187851D01*
X85351Y-188149D01*
X85649Y-188348D01*
X86000Y-188418D01*
X89520D01*
X90800Y-189698D01*
Y-197000D01*
X-29650Y-197000D01*
Y-184000D01*
X-33194D01*
X-33461Y-183500D01*
X-33351Y-183235D01*
X-33541Y-182775D01*
X-36108Y-180208D01*
X-36135Y-180197D01*
X-36148Y-180171D01*
X-38869Y-177870D01*
X-39081Y-177802D01*
X-39285Y-177716D01*
X-39448Y-177580D01*
X-39651Y-177314D01*
Y-167856D01*
X-39636D01*
Y-163309D01*
X-40158D01*
X-40300Y-163251D01*
X-41309D01*
Y-160080D01*
Y-156143D01*
Y-152206D01*
Y-148269D01*
Y-144332D01*
Y-140690D01*
X-18690D01*
Y-144332D01*
Y-148269D01*
Y-152206D01*
Y-156143D01*
Y-160080D01*
Y-163309D01*
X-38080D01*
Y-167856D01*
X-31662D01*
Y-168156D01*
X-31592Y-168507D01*
X-31393Y-168805D01*
X-24449Y-175749D01*
X-24151Y-175948D01*
X-23800Y-176018D01*
X14359D01*
X14711Y-175948D01*
X15008Y-175749D01*
X18799Y-171958D01*
X19966Y-173126D01*
X24908Y-168184D01*
X31266D01*
Y-169172D01*
X34828D01*
Y-164428D01*
X31266D01*
Y-166349D01*
X24908D01*
X22193Y-163634D01*
X16334Y-169493D01*
X17501Y-170661D01*
X13979Y-174182D01*
X3174D01*
X3089Y-173682D01*
X3289Y-173549D01*
X11839Y-164999D01*
X13006Y-166166D01*
X18866Y-160307D01*
X18174Y-159614D01*
X19780Y-158008D01*
X21966D01*
Y-158872D01*
X25528D01*
Y-154128D01*
X21966D01*
Y-156173D01*
X19400D01*
X19049Y-156243D01*
X18751Y-156442D01*
X16876Y-158317D01*
X15234Y-156674D01*
X9374Y-162534D01*
X10542Y-163701D01*
X2260Y-171982D01*
X-8727D01*
X-8879Y-171482D01*
X-8602Y-171298D01*
X-8204Y-170702D01*
X-8065Y-170000D01*
X-8204Y-169298D01*
X-8602Y-168702D01*
X-9198Y-168304D01*
X-9900Y-168165D01*
X-10602Y-168304D01*
X-11198Y-168702D01*
X-11585Y-169282D01*
X-12000D01*
X-12351Y-169352D01*
X-12649Y-169551D01*
X-12932Y-169834D01*
X-13783D01*
X-13974Y-169372D01*
X-13198Y-168596D01*
X-13000Y-168635D01*
X-12298Y-168496D01*
X-11702Y-168098D01*
X-11304Y-167502D01*
X-11165Y-166800D01*
X-11304Y-166098D01*
X-11702Y-165502D01*
X-12298Y-165104D01*
X-13000Y-164965D01*
X-13702Y-165104D01*
X-14298Y-165502D01*
X-14696Y-166098D01*
X-14835Y-166800D01*
X-14696Y-167499D01*
X-15580Y-168382D01*
X-20131D01*
X-20149Y-168356D01*
X-19881Y-167856D01*
X-17983D01*
Y-164017D01*
X-14144D01*
Y-163744D01*
X-10379D01*
X-10028Y-163674D01*
X-9730Y-163476D01*
X-1144Y-154889D01*
X-934D01*
X-845Y-154872D01*
X1728D01*
Y-151426D01*
X8077Y-145077D01*
X8276Y-144780D01*
X8346Y-144428D01*
Y-143281D01*
X11272D01*
Y-142418D01*
X16328D01*
Y-143534D01*
X21072D01*
Y-142670D01*
X27632D01*
Y-144321D01*
X32768D01*
Y-142670D01*
X54353D01*
X54704Y-142601D01*
X55002Y-142402D01*
X55949Y-141454D01*
X56148Y-141157D01*
X56218Y-140806D01*
Y-125034D01*
X57672D01*
Y-121472D01*
X52928D01*
Y-125034D01*
X54382D01*
Y-140426D01*
X53973Y-140835D01*
X32768D01*
Y-139184D01*
X27632D01*
Y-140835D01*
X21072D01*
Y-139972D01*
X16328D01*
Y-140582D01*
X11272D01*
Y-139719D01*
X8284D01*
X8276Y-139677D01*
X8077Y-139380D01*
X3818Y-135120D01*
Y-133700D01*
X3748Y-133349D01*
X3549Y-133051D01*
X849Y-130351D01*
X551Y-130152D01*
X200Y-130082D01*
X-7948D01*
X-8202Y-129702D01*
X-8798Y-129304D01*
X-9500Y-129165D01*
X-10202Y-129304D01*
X-10798Y-129702D01*
X-11196Y-130298D01*
X-11335Y-131000D01*
X-11196Y-131702D01*
X-10798Y-132298D01*
X-10202Y-132696D01*
X-9500Y-132835D01*
X-8798Y-132696D01*
X-8202Y-132298D01*
X-7948Y-131918D01*
X-180D01*
X1982Y-134080D01*
Y-135500D01*
X2052Y-135851D01*
X2251Y-136149D01*
X6511Y-140408D01*
Y-140619D01*
X6528Y-140708D01*
Y-142292D01*
X6511Y-142381D01*
Y-144048D01*
X431Y-150128D01*
X-845D01*
X-934Y-150111D01*
X-1144D01*
X-6794Y-144461D01*
X-7091Y-144262D01*
X-7443Y-144193D01*
X-12492D01*
X-12733Y-143693D01*
X-12621Y-143552D01*
X-3581D01*
X-3492Y-143534D01*
X-328D01*
Y-139972D01*
X-5072D01*
Y-141716D01*
X-13336D01*
X-13644Y-141777D01*
X-13715Y-141768D01*
X-14144Y-141490D01*
Y-139983D01*
X-15500D01*
Y-77297D01*
X49580Y-12218D01*
X70320D01*
X72182Y-14080D01*
Y-15137D01*
X72173Y-15139D01*
X71308Y-15497D01*
X70566Y-16066D01*
X69997Y-16808D01*
X69639Y-17673D01*
X69517Y-18600D01*
X69639Y-19527D01*
X69997Y-20392D01*
X70566Y-21134D01*
X71308Y-21703D01*
X72173Y-22061D01*
X73100Y-22183D01*
X74027Y-22061D01*
X74892Y-21703D01*
X75634Y-21134D01*
X76203Y-20392D01*
X76561Y-19527D01*
X76683Y-18600D01*
X76561Y-17673D01*
X76203Y-16808D01*
X75634Y-16066D01*
X74892Y-15497D01*
X74027Y-15139D01*
X74018Y-15137D01*
Y-13700D01*
X73948Y-13349D01*
X73749Y-13051D01*
X71715Y-11018D01*
X71922Y-10518D01*
X78820D01*
X82082Y-13780D01*
Y-15176D01*
X81308Y-15497D01*
X80566Y-16066D01*
X79997Y-16808D01*
X79639Y-17673D01*
X79517Y-18600D01*
X79639Y-19527D01*
X79997Y-20392D01*
X80566Y-21134D01*
X81308Y-21703D01*
X82173Y-22061D01*
X83100Y-22183D01*
X84027Y-22061D01*
X84892Y-21703D01*
X85634Y-21134D01*
X86203Y-20392D01*
X86561Y-19527D01*
X86683Y-18600D01*
X86561Y-17673D01*
X86203Y-16808D01*
X85634Y-16066D01*
X84892Y-15497D01*
X84027Y-15139D01*
X83918Y-15124D01*
Y-13400D01*
X83848Y-13049D01*
X83649Y-12751D01*
X80315Y-9418D01*
X80523Y-8918D01*
X84920D01*
X90051Y-14049D01*
X90349Y-14248D01*
X90700Y-14318D01*
X92182D01*
Y-15137D01*
X92173Y-15139D01*
X91308Y-15497D01*
X90566Y-16066D01*
X89997Y-16808D01*
X89639Y-17673D01*
X89517Y-18600D01*
X89639Y-19527D01*
X89997Y-20392D01*
X90566Y-21134D01*
X91308Y-21703D01*
X92173Y-22061D01*
X93100Y-22183D01*
X94027Y-22061D01*
X94892Y-21703D01*
X95634Y-21134D01*
X96203Y-20392D01*
X96561Y-19527D01*
X96683Y-18600D01*
X96561Y-17673D01*
X96203Y-16808D01*
X95634Y-16066D01*
X94892Y-15497D01*
X94027Y-15139D01*
X94018Y-15137D01*
Y-13751D01*
X93948Y-13400D01*
X93749Y-13103D01*
X93397Y-12751D01*
X93100Y-12552D01*
X92748Y-12482D01*
X91618D01*
Y-10464D01*
X92118Y-10139D01*
X92600Y-10235D01*
X93302Y-10096D01*
X93898Y-9698D01*
X94296Y-9102D01*
X94435Y-8400D01*
X94296Y-7698D01*
X93898Y-7102D01*
X93302Y-6704D01*
X92600Y-6565D01*
X91898Y-6704D01*
X91302Y-7102D01*
X90904Y-7698D01*
X90879Y-7827D01*
X90707D01*
X90356Y-7897D01*
X90058Y-8096D01*
X90051Y-8103D01*
X89852Y-8400D01*
X89782Y-8751D01*
Y-10531D01*
X89320Y-10723D01*
X85949Y-7351D01*
X85651Y-7152D01*
X85300Y-7082D01*
X45000D01*
X44649Y-7152D01*
X44351Y-7351D01*
X-20827Y-72529D01*
X-21026Y-72827D01*
X-21095Y-73178D01*
Y-94498D01*
X-33299Y-106701D01*
X-33498Y-106999D01*
X-33568Y-107350D01*
Y-123848D01*
X-33948Y-124102D01*
X-34346Y-124698D01*
X-34485Y-125400D01*
X-34346Y-126102D01*
X-33948Y-126698D01*
X-33352Y-127096D01*
X-32650Y-127235D01*
X-31948Y-127096D01*
X-31352Y-126698D01*
X-30954Y-126102D01*
X-30815Y-125400D01*
X-30954Y-124698D01*
X-31352Y-124102D01*
X-31732Y-123848D01*
Y-107730D01*
X-19529Y-95527D01*
X-19330Y-95229D01*
X-19260Y-94878D01*
Y-73558D01*
X45137Y-9161D01*
X45302Y-9194D01*
X45466Y-9736D01*
X-18266Y-73468D01*
X-18465Y-73766D01*
X-18535Y-74117D01*
Y-135398D01*
X-19280Y-136144D01*
X-34004D01*
Y-128779D01*
X-34073Y-128428D01*
X-34272Y-128130D01*
X-36651Y-125751D01*
X-36949Y-125552D01*
X-37300Y-125482D01*
X-63000D01*
X-63351Y-125552D01*
X-63649Y-125751D01*
X-71049Y-133151D01*
X-71248Y-133449D01*
X-71318Y-133800D01*
Y-140000D01*
X-72200D01*
Y-144800D01*
X-68600D01*
Y-140000D01*
X-69482D01*
Y-134180D01*
X-62620Y-127318D01*
X-37680D01*
X-36538Y-128460D01*
X-36856Y-128848D01*
X-37000Y-128752D01*
X-37352Y-128682D01*
X-43257D01*
X-43608Y-128752D01*
X-43905Y-128951D01*
X-46716Y-131761D01*
X-47200Y-131665D01*
X-47902Y-131804D01*
X-48498Y-132202D01*
X-48896Y-132798D01*
X-49035Y-133500D01*
X-48939Y-133984D01*
X-53126Y-138172D01*
X-56572D01*
Y-139035D01*
X-60228D01*
Y-138172D01*
X-64972D01*
Y-141734D01*
X-63518D01*
Y-148600D01*
X-63498Y-148697D01*
X-63959Y-148943D01*
X-65251Y-147651D01*
X-65549Y-147452D01*
X-65900Y-147382D01*
X-70920D01*
X-71727Y-146575D01*
X-71752Y-146449D01*
X-71951Y-146151D01*
X-74600Y-143502D01*
Y-140000D01*
X-78200D01*
Y-141482D01*
X-82328D01*
Y-140672D01*
X-87072D01*
Y-141535D01*
X-94028D01*
Y-140472D01*
X-98772D01*
Y-141335D01*
X-101753D01*
X-102104Y-141405D01*
X-102402Y-141604D01*
X-110549Y-149751D01*
X-110748Y-150049D01*
X-110818Y-150400D01*
Y-163839D01*
X-111778Y-164800D01*
X-111829Y-164875D01*
X-113648Y-166694D01*
X-110294Y-170048D01*
X-109684Y-169438D01*
X-105173Y-173949D01*
X-104875Y-174148D01*
X-104524Y-174218D01*
X-66600D01*
X-66249Y-174148D01*
X-65951Y-173949D01*
X-55620Y-163618D01*
X-52390D01*
X-52137Y-164049D01*
X-56968Y-172740D01*
X-56986Y-172904D01*
X-57050Y-173056D01*
X-57049Y-197000D01*
X-122385Y-197000D01*
Y176500D01*
X122385Y176500D01*
Y-181000D01*
D02*
G37*
G36*
X48185Y-11018D02*
X-16238Y-75440D01*
X-16700Y-75249D01*
Y-74497D01*
X47280Y-10518D01*
X47978D01*
X48185Y-11018D01*
D02*
G37*
G36*
X-37807Y-134506D02*
X-37923Y-134589D01*
X-38307Y-134695D01*
X-39083Y-133920D01*
X-39004Y-133802D01*
X-38865Y-133100D01*
X-39004Y-132398D01*
X-39402Y-131802D01*
X-39998Y-131404D01*
X-40700Y-131265D01*
X-41402Y-131404D01*
X-41998Y-131802D01*
X-42396Y-132398D01*
X-42535Y-133100D01*
X-42396Y-133802D01*
X-41998Y-134398D01*
X-41402Y-134796D01*
X-40700Y-134935D01*
X-40669Y-134929D01*
X-39954Y-135644D01*
X-40161Y-136144D01*
X-42017D01*
Y-139983D01*
X-45856D01*
Y-142364D01*
Y-146301D01*
Y-150098D01*
X-46804D01*
X-50837Y-146065D01*
X-50765Y-145700D01*
X-50904Y-144998D01*
X-51302Y-144402D01*
X-51898Y-144004D01*
X-52600Y-143865D01*
X-53302Y-144004D01*
X-53898Y-144402D01*
X-54296Y-144998D01*
X-54435Y-145700D01*
X-54296Y-146402D01*
X-53898Y-146998D01*
X-53302Y-147396D01*
X-52600Y-147535D01*
X-52068Y-147430D01*
X-47931Y-151567D01*
X-48037Y-151951D01*
X-48120Y-152067D01*
X-52036D01*
X-56337Y-147765D01*
X-56265Y-147400D01*
X-56404Y-146698D01*
X-56802Y-146102D01*
X-57398Y-145704D01*
X-58100Y-145565D01*
X-58802Y-145704D01*
X-59398Y-146102D01*
X-59796Y-146698D01*
X-59935Y-147400D01*
X-59796Y-148102D01*
X-59398Y-148698D01*
X-58802Y-149096D01*
X-58100Y-149235D01*
X-57568Y-149129D01*
X-53163Y-153535D01*
X-53270Y-153920D01*
X-53352Y-154035D01*
X-55867D01*
X-61682Y-148220D01*
Y-141734D01*
X-60228D01*
Y-140870D01*
X-56572D01*
Y-141734D01*
X-51828D01*
Y-139469D01*
X-47612Y-135253D01*
X-47200Y-135335D01*
X-46498Y-135196D01*
X-45902Y-134798D01*
X-45504Y-134202D01*
X-45365Y-133500D01*
X-45447Y-133088D01*
X-42877Y-130518D01*
X-37807D01*
Y-134506D01*
D02*
G37*
G36*
X118033Y-148800D02*
X111967D01*
X113031Y-146138D01*
X116969D01*
X118033Y-148800D01*
D02*
G37*
G36*
X-2173Y-151677D02*
X-1876Y-151876D01*
X-1834Y-151884D01*
Y-153116D01*
X-1876Y-153124D01*
X-2173Y-153323D01*
X-9606Y-160755D01*
X-9994Y-160436D01*
X-9904Y-160302D01*
X-9765Y-159600D01*
X-9904Y-158898D01*
X-10302Y-158302D01*
X-10898Y-157904D01*
X-11582Y-157768D01*
Y-156853D01*
X-11082Y-156675D01*
X-10602Y-156996D01*
X-9900Y-157135D01*
X-9198Y-156996D01*
X-8602Y-156598D01*
X-8204Y-156002D01*
X-8065Y-155300D01*
X-8204Y-154598D01*
X-8602Y-154002D01*
X-9198Y-153604D01*
X-9697Y-153505D01*
X-10185Y-153018D01*
X-9978Y-152518D01*
X-8052D01*
X-7798Y-152898D01*
X-7202Y-153296D01*
X-6500Y-153435D01*
X-5798Y-153296D01*
X-5202Y-152898D01*
X-4804Y-152302D01*
X-4665Y-151600D01*
X-4804Y-150898D01*
X-5202Y-150302D01*
X-5798Y-149904D01*
X-6500Y-149765D01*
X-7202Y-149904D01*
X-7798Y-150302D01*
X-8052Y-150682D01*
X-10220D01*
X-11695Y-149207D01*
X-11657Y-149014D01*
X-11478Y-148718D01*
X-10318D01*
X-9998Y-149198D01*
X-9402Y-149596D01*
X-8700Y-149735D01*
X-7998Y-149596D01*
X-7402Y-149198D01*
X-7004Y-148602D01*
X-6865Y-147900D01*
X-6916Y-147641D01*
X-6455Y-147395D01*
X-2173Y-151677D01*
D02*
G37*
G36*
X-98772Y-144034D02*
X-94028D01*
Y-143370D01*
X-87072D01*
Y-144234D01*
X-82328D01*
Y-143318D01*
X-78200D01*
Y-144800D01*
X-75898D01*
X-73473Y-147225D01*
X-73448Y-147351D01*
X-73249Y-147649D01*
X-71949Y-148949D01*
X-71651Y-149148D01*
X-71300Y-149218D01*
X-66280D01*
X-64192Y-151306D01*
X-64399Y-151806D01*
X-70699D01*
X-70778Y-151727D01*
X-70853Y-151676D01*
X-73926Y-148604D01*
X-78393Y-153071D01*
X-74622Y-156843D01*
X-71363Y-153585D01*
X-71079Y-153641D01*
X-64557D01*
X-58755Y-159443D01*
X-58753Y-159674D01*
X-58782Y-159862D01*
X-58848Y-160017D01*
X-59049Y-160151D01*
X-61909Y-163011D01*
X-72325D01*
X-75178Y-160157D01*
X-79646Y-164625D01*
X-75874Y-168396D01*
X-72325Y-164846D01*
X-61529D01*
X-61177Y-164776D01*
X-60880Y-164577D01*
X-58020Y-161718D01*
X-57023D01*
X-56815Y-162218D01*
X-66980Y-172382D01*
X-104144D01*
X-108386Y-168140D01*
X-107776Y-167530D01*
X-109844Y-165461D01*
X-109251Y-164868D01*
X-109052Y-164570D01*
X-108982Y-164219D01*
Y-150780D01*
X-101373Y-143170D01*
X-98772D01*
Y-144034D01*
D02*
G37*
G36*
X116969Y-152662D02*
X113031D01*
X111967Y-150000D01*
X118033D01*
X116969Y-152662D01*
D02*
G37*
G36*
X-40300Y-183900D02*
X-40300Y-183900D01*
X-49300D01*
Y-163900D01*
X-49300Y-163900D01*
X-45856D01*
Y-164017D01*
X-41309D01*
Y-163900D01*
X-40300D01*
Y-183900D01*
D02*
G37*
%LPC*%
G36*
X108943Y152393D02*
X100657D01*
Y146715D01*
X93700D01*
X93082Y146592D01*
X92558Y146242D01*
X72244Y125929D01*
X71532Y126513D01*
X70402Y127117D01*
X69175Y127489D01*
X67900Y127615D01*
X66625Y127489D01*
X65398Y127117D01*
X64268Y126513D01*
X63278Y125700D01*
X62465Y124710D01*
X61861Y123580D01*
X61489Y122353D01*
X61363Y121078D01*
X61489Y119803D01*
X61861Y118576D01*
X62465Y117446D01*
X62920Y116891D01*
X62706Y116570D01*
X62583Y115952D01*
Y105225D01*
X60154D01*
Y100285D01*
X68243D01*
Y105225D01*
X65814D01*
Y114493D01*
X66215Y114791D01*
X66625Y114667D01*
X67900Y114541D01*
X69175Y114667D01*
X70402Y115039D01*
X71532Y115643D01*
X72522Y116456D01*
X73335Y117446D01*
X73939Y118576D01*
X74311Y119803D01*
X74437Y121078D01*
X74311Y122353D01*
X74062Y123177D01*
X94369Y143485D01*
X100657D01*
Y137807D01*
X108943D01*
Y152393D01*
D02*
G37*
G36*
X-80400Y139070D02*
X-81753Y138936D01*
X-83053Y138542D01*
X-84251Y137901D01*
X-85302Y137039D01*
X-86164Y135989D01*
X-86805Y134790D01*
X-87199Y133490D01*
X-87333Y132137D01*
X-87199Y130784D01*
X-86805Y129484D01*
X-86164Y128286D01*
X-85302Y127235D01*
X-84251Y126373D01*
X-83053Y125732D01*
X-81753Y125338D01*
X-80400Y125204D01*
X-79048Y125338D01*
X-77747Y125732D01*
X-76548Y126373D01*
X-75498Y127235D01*
X-74636Y128286D01*
X-73995Y129484D01*
X-73601Y130784D01*
X-73467Y132137D01*
X-73601Y133490D01*
X-73995Y134790D01*
X-74636Y135989D01*
X-75498Y137039D01*
X-76548Y137901D01*
X-77747Y138542D01*
X-79048Y138936D01*
X-80400Y139070D01*
D02*
G37*
G36*
X4900Y138805D02*
X3548Y138672D01*
X2247Y138277D01*
X1048Y137637D01*
X-2Y136775D01*
X-864Y135724D01*
X-1505Y134525D01*
X-1899Y133225D01*
X-2033Y131872D01*
X-1899Y130520D01*
X-1505Y129219D01*
X-864Y128021D01*
X-2Y126970D01*
X1048Y126108D01*
X2247Y125468D01*
X3548Y125073D01*
X4900Y124940D01*
X6252Y125073D01*
X7553Y125468D01*
X8751Y126108D01*
X9802Y126970D01*
X10664Y128021D01*
X11305Y129219D01*
X11699Y130520D01*
X11833Y131872D01*
X11699Y133225D01*
X11305Y134525D01*
X10664Y135724D01*
X9802Y136775D01*
X8751Y137637D01*
X7553Y138277D01*
X6252Y138672D01*
X4900Y138805D01*
D02*
G37*
G36*
X96268Y134587D02*
X94992Y134462D01*
X93766Y134090D01*
X92636Y133486D01*
X91645Y132673D01*
X90832Y131682D01*
X90228Y130552D01*
X89856Y129326D01*
X89731Y128050D01*
X89856Y126775D01*
X90228Y125549D01*
X90832Y124419D01*
X91645Y123428D01*
X92636Y122615D01*
X93766Y122011D01*
X94992Y121639D01*
X96268Y121513D01*
X97543Y121639D01*
X98769Y122011D01*
X99900Y122615D01*
X100890Y123428D01*
X101703Y124419D01*
X102307Y125549D01*
X102679Y126775D01*
X102805Y128050D01*
X102679Y129326D01*
X102307Y130552D01*
X101703Y131682D01*
X100890Y132673D01*
X99900Y133486D01*
X98769Y134090D01*
X97543Y134462D01*
X96268Y134587D01*
D02*
G37*
G36*
X-96606D02*
X-97882Y134462D01*
X-99108Y134090D01*
X-100238Y133486D01*
X-101229Y132673D01*
X-102042Y131682D01*
X-102646Y130552D01*
X-103018Y129326D01*
X-103143Y128050D01*
X-103018Y126775D01*
X-102646Y125549D01*
X-102042Y124419D01*
X-101229Y123428D01*
X-100238Y122615D01*
X-99108Y122011D01*
X-97882Y121639D01*
X-96606Y121513D01*
X-95331Y121639D01*
X-94105Y122011D01*
X-92975Y122615D01*
X-91984Y123428D01*
X-91171Y124419D01*
X-90567Y125549D01*
X-90195Y126775D01*
X-90069Y128050D01*
X-90195Y129326D01*
X-90567Y130552D01*
X-91171Y131682D01*
X-91984Y132673D01*
X-92975Y133486D01*
X-94105Y134090D01*
X-95331Y134462D01*
X-96606Y134587D01*
D02*
G37*
G36*
X104379Y91129D02*
X103554Y91020D01*
X102786Y90702D01*
X102126Y90196D01*
X101619Y89536D01*
X101301Y88767D01*
X101192Y87942D01*
X101301Y87118D01*
X101311Y87095D01*
X79342Y65126D01*
X69143D01*
Y70804D01*
X65814D01*
Y82175D01*
X68243D01*
Y87115D01*
X60154D01*
Y82175D01*
X62583D01*
Y70804D01*
X60857D01*
Y56218D01*
X69143D01*
Y61896D01*
X80011D01*
X80629Y62019D01*
X81153Y62369D01*
X103638Y84854D01*
X104379Y84756D01*
X105203Y84865D01*
X105972Y85183D01*
X106632Y85689D01*
X107138Y86349D01*
X107457Y87118D01*
X107565Y87942D01*
X107457Y88767D01*
X107138Y89536D01*
X106632Y90196D01*
X105972Y90702D01*
X105203Y91020D01*
X104379Y91129D01*
D02*
G37*
G36*
Y71444D02*
X103554Y71335D01*
X102786Y71017D01*
X102126Y70511D01*
X101619Y69851D01*
X101301Y69082D01*
X101192Y68257D01*
X101297Y67461D01*
X94958Y61121D01*
X94608Y60597D01*
X94485Y59979D01*
Y31500D01*
X94608Y30882D01*
X94958Y30358D01*
X104785Y20531D01*
Y17838D01*
X104908Y17220D01*
X105258Y16696D01*
X106738Y15215D01*
X106531Y14715D01*
X101500D01*
Y14900D01*
X96700D01*
Y14375D01*
X91783D01*
Y14541D01*
X85859D01*
Y10979D01*
X91783D01*
Y11145D01*
X98760D01*
X99378Y11268D01*
X99427Y11300D01*
X101500D01*
Y11485D01*
X107653D01*
X107948Y11543D01*
X107966Y11528D01*
Y11528D01*
X111528D01*
Y16272D01*
X110250D01*
X108015Y18507D01*
Y21200D01*
X107892Y21818D01*
X107542Y22342D01*
X97715Y32169D01*
Y59310D01*
X103582Y65176D01*
X104379Y65071D01*
X105203Y65180D01*
X105972Y65498D01*
X106632Y66004D01*
X107138Y66664D01*
X107457Y67433D01*
X107565Y68257D01*
X107457Y69082D01*
X107138Y69851D01*
X106632Y70511D01*
X105972Y71017D01*
X105203Y71335D01*
X104379Y71444D01*
D02*
G37*
G36*
Y81286D02*
X103554Y81178D01*
X102786Y80859D01*
X102126Y80353D01*
X101619Y79693D01*
X101301Y78925D01*
X101192Y78100D01*
X101301Y77275D01*
X101619Y76507D01*
X102126Y75847D01*
X102786Y75340D01*
X103554Y75022D01*
X104379Y74914D01*
X105203Y75022D01*
X105972Y75340D01*
X106632Y75847D01*
X107121Y76485D01*
X109131D01*
X111985Y73631D01*
Y59969D01*
X110558Y58542D01*
X110208Y58018D01*
X110085Y57400D01*
Y56994D01*
X108909D01*
Y55647D01*
X107353D01*
Y56994D01*
X102216D01*
Y51069D01*
X107353D01*
Y52416D01*
X108909D01*
Y51069D01*
X114047D01*
Y56994D01*
X114047D01*
X113909Y57325D01*
X114742Y58158D01*
X115092Y58682D01*
X115215Y59300D01*
Y74300D01*
X115092Y74918D01*
X114742Y75442D01*
X110942Y79242D01*
X110418Y79592D01*
X109800Y79715D01*
X107121D01*
X106632Y80353D01*
X105972Y80859D01*
X105203Y81178D01*
X104379Y81286D01*
D02*
G37*
G36*
X113545Y45125D02*
X112735Y44964D01*
X112048Y44505D01*
X111589Y43818D01*
X111428Y43008D01*
X111589Y42198D01*
X112048Y41511D01*
X112735Y41052D01*
X113545Y40891D01*
X114355Y41052D01*
X115042Y41511D01*
X115501Y42198D01*
X115662Y43008D01*
X115501Y43818D01*
X115042Y44505D01*
X114355Y44964D01*
X113545Y45125D01*
D02*
G37*
G36*
X102718D02*
X101908Y44964D01*
X101221Y44505D01*
X100762Y43818D01*
X100601Y43008D01*
X100762Y42198D01*
X101221Y41511D01*
X101908Y41052D01*
X102718Y40891D01*
X103528Y41052D01*
X104215Y41511D01*
X104674Y42198D01*
X104835Y43008D01*
X104674Y43818D01*
X104215Y44505D01*
X103528Y44964D01*
X102718Y45125D01*
D02*
G37*
G36*
X114047Y34946D02*
X108909D01*
Y33599D01*
X107353D01*
Y34946D01*
X102216D01*
Y29022D01*
X107353D01*
Y30369D01*
X108909D01*
Y29022D01*
X111531D01*
Y27953D01*
X111654Y27335D01*
X112004Y26811D01*
X112371Y26444D01*
X112273Y25700D01*
X112380Y24891D01*
X112692Y24137D01*
X113189Y23489D01*
X113837Y22992D01*
X114591Y22680D01*
X115400Y22573D01*
X116209Y22680D01*
X116963Y22992D01*
X117611Y23489D01*
X118108Y24137D01*
X118420Y24891D01*
X118527Y25700D01*
X118420Y26509D01*
X118108Y27263D01*
X117611Y27911D01*
X116963Y28408D01*
X116209Y28720D01*
X115400Y28827D01*
X115138Y28792D01*
X114762Y29122D01*
Y30316D01*
X114639Y30934D01*
X114289Y31458D01*
X114047Y31700D01*
Y34946D01*
D02*
G37*
G36*
X-80400Y174994D02*
X-82121Y174825D01*
X-83776Y174322D01*
X-85301Y173507D01*
X-86638Y172410D01*
X-87735Y171073D01*
X-88550Y169548D01*
X-89052Y167894D01*
X-89222Y166172D01*
X-89052Y164451D01*
X-88550Y162797D01*
X-87735Y161271D01*
X-86638Y159935D01*
X-85301Y158837D01*
X-83776Y158022D01*
X-82121Y157520D01*
X-80400Y157351D01*
X-78679Y157520D01*
X-77024Y158022D01*
X-75499Y158837D01*
X-74162Y159935D01*
X-73065Y161271D01*
X-72250Y162797D01*
X-71873Y164037D01*
X-3707D01*
X-3250Y162532D01*
X-2435Y161007D01*
X-1338Y159670D01*
X-1Y158573D01*
X1524Y157758D01*
X3179Y157256D01*
X4900Y157086D01*
X6621Y157256D01*
X8276Y157758D01*
X9546Y158437D01*
X27683Y140300D01*
Y34500D01*
X27837Y33728D01*
X28274Y33074D01*
X40003Y21345D01*
Y14433D01*
X40156Y13661D01*
X40594Y13007D01*
X49728Y3872D01*
Y2572D01*
X51009D01*
X51131Y2490D01*
X51903Y2336D01*
X52100D01*
X52872Y2490D01*
X52995Y2572D01*
X54472D01*
Y6134D01*
X53158D01*
X53132Y6173D01*
X44036Y15269D01*
Y20164D01*
X53316D01*
Y19513D01*
X56484D01*
Y21291D01*
X56563Y21409D01*
X56717Y22180D01*
X56563Y22952D01*
X56484Y23070D01*
Y24847D01*
X53316D01*
Y24197D01*
X42855D01*
X31717Y35335D01*
Y141135D01*
X31563Y141907D01*
X31126Y142561D01*
X12390Y161297D01*
X13050Y162532D01*
X13552Y164187D01*
X13722Y165908D01*
X13552Y167629D01*
X13050Y169284D01*
X12235Y170809D01*
X11138Y172146D01*
X9801Y173243D01*
X8276Y174058D01*
X6621Y174560D01*
X4900Y174730D01*
X3179Y174560D01*
X1524Y174058D01*
X-1Y173243D01*
X-1338Y172146D01*
X-2435Y170809D01*
X-3250Y169284D01*
X-3618Y168071D01*
X-71802D01*
X-72250Y169548D01*
X-73065Y171073D01*
X-74162Y172410D01*
X-75499Y173507D01*
X-77024Y174322D01*
X-78679Y174825D01*
X-80400Y174994D01*
D02*
G37*
G36*
X81941Y22021D02*
X76016D01*
Y21855D01*
X73740D01*
X73122Y21733D01*
X72598Y21382D01*
X70458Y19242D01*
X70108Y18718D01*
X69985Y18100D01*
Y15462D01*
X68172D01*
Y15628D01*
X63428D01*
Y14835D01*
X56484D01*
Y15887D01*
X53316D01*
Y14000D01*
X53208Y13838D01*
X53085Y13220D01*
X53208Y12602D01*
X53316Y12440D01*
Y10553D01*
X56484D01*
Y11604D01*
X65172D01*
X65791Y11727D01*
X66298Y12066D01*
X68172D01*
Y12232D01*
X70684D01*
X71558Y11358D01*
X72082Y11008D01*
X72700Y10885D01*
X78719D01*
X79192Y10979D01*
X81941D01*
Y14541D01*
X76016D01*
Y14115D01*
X73369D01*
X73215Y14269D01*
Y17431D01*
X74409Y18625D01*
X76016D01*
Y18459D01*
X81941D01*
Y22021D01*
D02*
G37*
G36*
X91783D02*
X85859D01*
Y18459D01*
X91783D01*
Y18459D01*
X92246Y18369D01*
X92758Y17858D01*
X93282Y17508D01*
X93900Y17385D01*
X96700D01*
Y17300D01*
X101500D01*
Y20900D01*
X96700D01*
Y20615D01*
X94569D01*
X93802Y21382D01*
X93278Y21733D01*
X92660Y21855D01*
X91783D01*
Y22021D01*
D02*
G37*
G36*
X84380Y8496D02*
X80620D01*
Y6170D01*
X61602D01*
X61422Y6134D01*
X59028D01*
Y2572D01*
X63772D01*
Y2939D01*
X80620D01*
Y2572D01*
X84380D01*
Y8496D01*
D02*
G37*
G36*
X63772Y228D02*
X59028D01*
Y-635D01*
X54472D01*
Y228D01*
X49728D01*
Y-882D01*
X46852D01*
X46598Y-502D01*
X46002Y-104D01*
X45300Y35D01*
X44598Y-104D01*
X44002Y-502D01*
X43604Y-1098D01*
X43465Y-1800D01*
X43604Y-2502D01*
X44002Y-3098D01*
X44598Y-3496D01*
X45300Y-3635D01*
X46002Y-3496D01*
X46598Y-3098D01*
X46852Y-2718D01*
X49728D01*
Y-3334D01*
X54472D01*
Y-2470D01*
X59028D01*
Y-3334D01*
X63772D01*
Y228D01*
D02*
G37*
G36*
X80600D02*
X76841D01*
Y-1882D01*
X73052D01*
X72798Y-1502D01*
X72202Y-1104D01*
X71500Y-965D01*
X70798Y-1104D01*
X70202Y-1502D01*
X69804Y-2098D01*
X69665Y-2800D01*
X69804Y-3502D01*
X70202Y-4098D01*
X70798Y-4496D01*
X71500Y-4635D01*
X72202Y-4496D01*
X72798Y-4098D01*
X73052Y-3718D01*
X76841D01*
Y-5696D01*
X80600D01*
Y228D01*
D02*
G37*
G36*
X101475Y3475D02*
X97125D01*
Y-875D01*
X97532D01*
Y-4028D01*
X97366D01*
Y-8772D01*
X100928D01*
Y-4028D01*
X100762D01*
Y-875D01*
X101475D01*
Y3475D01*
D02*
G37*
G36*
X106834Y-4028D02*
X103272D01*
Y-8772D01*
X103437D01*
Y-10231D01*
X101958Y-11711D01*
X101608Y-12235D01*
X101485Y-12853D01*
Y-15424D01*
X101308Y-15497D01*
X100566Y-16066D01*
X99997Y-16808D01*
X99639Y-17673D01*
X99517Y-18600D01*
X99639Y-19527D01*
X99997Y-20392D01*
X100566Y-21134D01*
X101308Y-21703D01*
X102173Y-22061D01*
X103100Y-22183D01*
X104027Y-22061D01*
X104892Y-21703D01*
X105634Y-21134D01*
X106203Y-20392D01*
X106561Y-19527D01*
X106683Y-18600D01*
X106561Y-17673D01*
X106203Y-16808D01*
X105634Y-16066D01*
X104892Y-15497D01*
X104715Y-15424D01*
Y-13522D01*
X106195Y-12042D01*
X106545Y-11518D01*
X106668Y-10900D01*
Y-8772D01*
X106834D01*
Y-4028D01*
D02*
G37*
G36*
X63100Y-15017D02*
X62173Y-15139D01*
X61308Y-15497D01*
X60566Y-16066D01*
X59997Y-16808D01*
X59639Y-17673D01*
X59517Y-18600D01*
X59639Y-19527D01*
X59997Y-20392D01*
X60566Y-21134D01*
X61308Y-21703D01*
X62173Y-22061D01*
X63100Y-22183D01*
X64027Y-22061D01*
X64892Y-21703D01*
X65634Y-21134D01*
X66203Y-20392D01*
X66561Y-19527D01*
X66683Y-18600D01*
X66561Y-17673D01*
X66203Y-16808D01*
X65634Y-16066D01*
X64892Y-15497D01*
X64027Y-15139D01*
X63100Y-15017D01*
D02*
G37*
G36*
X103100Y-25017D02*
X102173Y-25139D01*
X101308Y-25497D01*
X100566Y-26066D01*
X99997Y-26808D01*
X99639Y-27673D01*
X99517Y-28600D01*
X99639Y-29527D01*
X99997Y-30392D01*
X100566Y-31134D01*
X101308Y-31703D01*
X102173Y-32061D01*
X103100Y-32183D01*
X104027Y-32061D01*
X104892Y-31703D01*
X105634Y-31134D01*
X106203Y-30392D01*
X106561Y-29527D01*
X106683Y-28600D01*
X106561Y-27673D01*
X106203Y-26808D01*
X105634Y-26066D01*
X104892Y-25497D01*
X104027Y-25139D01*
X103100Y-25017D01*
D02*
G37*
G36*
X93100D02*
X92173Y-25139D01*
X91308Y-25497D01*
X90566Y-26066D01*
X89997Y-26808D01*
X89639Y-27673D01*
X89517Y-28600D01*
X89639Y-29527D01*
X89997Y-30392D01*
X90566Y-31134D01*
X91308Y-31703D01*
X92173Y-32061D01*
X93100Y-32183D01*
X94027Y-32061D01*
X94892Y-31703D01*
X95634Y-31134D01*
X96203Y-30392D01*
X96561Y-29527D01*
X96683Y-28600D01*
X96561Y-27673D01*
X96203Y-26808D01*
X95634Y-26066D01*
X94892Y-25497D01*
X94027Y-25139D01*
X93100Y-25017D01*
D02*
G37*
G36*
X83100D02*
X82173Y-25139D01*
X81308Y-25497D01*
X80566Y-26066D01*
X79997Y-26808D01*
X79639Y-27673D01*
X79517Y-28600D01*
X79639Y-29527D01*
X79997Y-30392D01*
X80566Y-31134D01*
X81308Y-31703D01*
X82173Y-32061D01*
X83100Y-32183D01*
X84027Y-32061D01*
X84892Y-31703D01*
X85634Y-31134D01*
X86203Y-30392D01*
X86561Y-29527D01*
X86683Y-28600D01*
X86561Y-27673D01*
X86203Y-26808D01*
X85634Y-26066D01*
X84892Y-25497D01*
X84027Y-25139D01*
X83100Y-25017D01*
D02*
G37*
G36*
X91764Y-45720D02*
X86037D01*
Y-49872D01*
X91764D01*
Y-45720D01*
D02*
G37*
G36*
X79363D02*
X73635D01*
Y-49872D01*
X79363D01*
Y-45720D01*
D02*
G37*
G36*
X77001Y-50444D02*
X72061D01*
Y-52135D01*
X67672D01*
Y-51272D01*
X62928D01*
Y-52330D01*
X58872D01*
Y-51466D01*
X54128D01*
Y-52782D01*
X50752D01*
X50498Y-52402D01*
X49902Y-52004D01*
X49200Y-51865D01*
X48498Y-52004D01*
X47902Y-52402D01*
X47504Y-52998D01*
X47365Y-53700D01*
X47504Y-54402D01*
X47902Y-54998D01*
X48498Y-55396D01*
X49200Y-55535D01*
X49902Y-55396D01*
X50498Y-54998D01*
X50752Y-54618D01*
X54128D01*
Y-55028D01*
X58872D01*
Y-54165D01*
X62928D01*
Y-54834D01*
X67672D01*
Y-53970D01*
X72061D01*
Y-57156D01*
X77001D01*
Y-50444D01*
D02*
G37*
G36*
X93339D02*
X88399D01*
Y-57156D01*
X93339D01*
Y-54718D01*
X96728D01*
Y-55828D01*
X101472D01*
Y-52266D01*
X96728D01*
Y-52882D01*
X93339D01*
Y-50444D01*
D02*
G37*
G36*
X58872Y-57372D02*
X54128D01*
Y-59636D01*
X52482Y-61282D01*
X48175D01*
X47908Y-60637D01*
X47411Y-59989D01*
X46763Y-59492D01*
X46009Y-59180D01*
X45200Y-59073D01*
X44391Y-59180D01*
X43637Y-59492D01*
X42989Y-59989D01*
X42492Y-60637D01*
X42180Y-61391D01*
X42073Y-62200D01*
X42180Y-63009D01*
X42492Y-63763D01*
X42989Y-64411D01*
X43637Y-64908D01*
X44391Y-65220D01*
X45200Y-65327D01*
X46009Y-65220D01*
X46763Y-64908D01*
X47411Y-64411D01*
X47908Y-63763D01*
X48175Y-63118D01*
X52862D01*
X53213Y-63048D01*
X53511Y-62849D01*
X55426Y-60934D01*
X58872D01*
Y-57372D01*
D02*
G37*
G36*
X91764Y-57728D02*
X86037D01*
Y-61880D01*
X91764D01*
Y-57728D01*
D02*
G37*
G36*
X79363D02*
X73635D01*
Y-61880D01*
X79363D01*
Y-57728D01*
D02*
G37*
G36*
X90865Y-75220D02*
X85137D01*
Y-79373D01*
X90865D01*
Y-75220D01*
D02*
G37*
G36*
X78463D02*
X72735D01*
Y-79373D01*
X78463D01*
Y-75220D01*
D02*
G37*
G36*
X76101Y-79944D02*
X71161D01*
Y-82135D01*
X67372D01*
Y-81272D01*
X62628D01*
Y-82130D01*
X58472D01*
Y-81266D01*
X53728D01*
Y-81982D01*
X50452D01*
X50198Y-81602D01*
X49602Y-81204D01*
X48900Y-81065D01*
X48198Y-81204D01*
X47602Y-81602D01*
X47204Y-82198D01*
X47065Y-82900D01*
X47204Y-83602D01*
X47602Y-84198D01*
X48198Y-84596D01*
X48900Y-84735D01*
X49602Y-84596D01*
X50198Y-84198D01*
X50452Y-83818D01*
X53728D01*
Y-84828D01*
X58472D01*
Y-83965D01*
X62628D01*
Y-84834D01*
X67372D01*
Y-83970D01*
X71161D01*
Y-86656D01*
X76101D01*
Y-79944D01*
D02*
G37*
G36*
X92439D02*
X87499D01*
Y-86656D01*
X92439D01*
Y-84218D01*
X95728D01*
Y-85528D01*
X100472D01*
Y-81966D01*
X95728D01*
Y-82382D01*
X92439D01*
Y-79944D01*
D02*
G37*
G36*
X58472Y-87172D02*
X53728D01*
Y-89436D01*
X52108Y-91057D01*
X51763Y-90792D01*
X51009Y-90480D01*
X50200Y-90373D01*
X49391Y-90480D01*
X48637Y-90792D01*
X47989Y-91289D01*
X47492Y-91937D01*
X47180Y-92691D01*
X47073Y-93500D01*
X47180Y-94309D01*
X47492Y-95063D01*
X47989Y-95711D01*
X48637Y-96208D01*
X49391Y-96520D01*
X50200Y-96627D01*
X51009Y-96520D01*
X51763Y-96208D01*
X52411Y-95711D01*
X52908Y-95063D01*
X53220Y-94309D01*
X53327Y-93500D01*
X53220Y-92691D01*
X53176Y-92584D01*
X55026Y-90734D01*
X58472D01*
Y-87172D01*
D02*
G37*
G36*
X90865Y-87227D02*
X85137D01*
Y-91380D01*
X90865D01*
Y-87227D01*
D02*
G37*
G36*
X78463D02*
X72735D01*
Y-91380D01*
X78463D01*
Y-87227D01*
D02*
G37*
G36*
X-80400Y-79867D02*
X-81753Y-80001D01*
X-83053Y-80395D01*
X-84251Y-81036D01*
X-85302Y-81898D01*
X-86164Y-82948D01*
X-86805Y-84147D01*
X-87199Y-85448D01*
X-87333Y-86800D01*
X-87199Y-88152D01*
X-86805Y-89453D01*
X-86164Y-90652D01*
X-85302Y-91702D01*
X-84251Y-92564D01*
X-83053Y-93205D01*
X-81753Y-93599D01*
X-80400Y-93733D01*
X-79048Y-93599D01*
X-77747Y-93205D01*
X-76548Y-92564D01*
X-75498Y-91702D01*
X-74636Y-90652D01*
X-73995Y-89453D01*
X-73601Y-88152D01*
X-73467Y-86800D01*
X-73601Y-85448D01*
X-73995Y-84147D01*
X-74636Y-82948D01*
X-75498Y-81898D01*
X-76548Y-81036D01*
X-77747Y-80395D01*
X-79048Y-80001D01*
X-80400Y-79867D01*
D02*
G37*
G36*
X4900Y-80132D02*
X3548Y-80265D01*
X2247Y-80660D01*
X1048Y-81300D01*
X-2Y-82162D01*
X-864Y-83213D01*
X-1505Y-84412D01*
X-1899Y-85712D01*
X-2033Y-87065D01*
X-1899Y-88417D01*
X-1505Y-89718D01*
X-864Y-90916D01*
X-2Y-91967D01*
X1048Y-92829D01*
X2247Y-93469D01*
X3548Y-93864D01*
X4900Y-93997D01*
X6252Y-93864D01*
X7553Y-93469D01*
X8751Y-92829D01*
X9802Y-91967D01*
X10664Y-90916D01*
X11305Y-89718D01*
X11699Y-88417D01*
X11833Y-87065D01*
X11699Y-85712D01*
X11305Y-84412D01*
X10664Y-83213D01*
X9802Y-82162D01*
X8751Y-81300D01*
X7553Y-80660D01*
X6252Y-80265D01*
X4900Y-80132D01*
D02*
G37*
G36*
X90364Y-108720D02*
X84637D01*
Y-112873D01*
X90364D01*
Y-108720D01*
D02*
G37*
G36*
X77963D02*
X72235D01*
Y-112873D01*
X77963D01*
Y-108720D01*
D02*
G37*
G36*
X75601Y-113444D02*
X70661D01*
Y-116035D01*
X66472D01*
Y-115172D01*
X61728D01*
Y-116430D01*
X57672D01*
Y-115566D01*
X52928D01*
Y-116082D01*
X50852D01*
X50598Y-115702D01*
X50002Y-115304D01*
X49300Y-115165D01*
X48598Y-115304D01*
X48002Y-115702D01*
X47604Y-116298D01*
X47465Y-117000D01*
X47604Y-117702D01*
X48002Y-118298D01*
X48598Y-118696D01*
X49300Y-118835D01*
X50002Y-118696D01*
X50598Y-118298D01*
X50852Y-117918D01*
X52928D01*
Y-119128D01*
X57672D01*
Y-118265D01*
X61728D01*
Y-118734D01*
X66472D01*
Y-117870D01*
X70661D01*
Y-120156D01*
X75601D01*
Y-113444D01*
D02*
G37*
G36*
X91939D02*
X86999D01*
Y-120156D01*
X91939D01*
Y-117718D01*
X95728D01*
Y-118628D01*
X100472D01*
Y-115066D01*
X95728D01*
Y-115882D01*
X91939D01*
Y-113444D01*
D02*
G37*
G36*
X90364Y-120728D02*
X84637D01*
Y-124880D01*
X90364D01*
Y-120728D01*
D02*
G37*
G36*
X77963D02*
X72235D01*
Y-124880D01*
X77963D01*
Y-120728D01*
D02*
G37*
G36*
X31500Y-99273D02*
X30691Y-99380D01*
X29937Y-99692D01*
X29289Y-100189D01*
X28792Y-100837D01*
X28480Y-101591D01*
X28373Y-102400D01*
X28480Y-103209D01*
X28792Y-103963D01*
X29289Y-104611D01*
X29885Y-105068D01*
Y-133279D01*
X27632D01*
Y-138416D01*
X32768D01*
Y-135500D01*
X32992Y-135165D01*
X33115Y-134547D01*
Y-105068D01*
X33711Y-104611D01*
X34208Y-103963D01*
X34520Y-103209D01*
X34627Y-102400D01*
X34520Y-101591D01*
X34208Y-100837D01*
X33711Y-100189D01*
X33063Y-99692D01*
X32309Y-99380D01*
X31500Y-99273D01*
D02*
G37*
G36*
X96268Y-148913D02*
X94992Y-149038D01*
X93766Y-149410D01*
X92636Y-150014D01*
X91645Y-150827D01*
X90832Y-151818D01*
X90228Y-152948D01*
X89856Y-154174D01*
X89731Y-155450D01*
X89856Y-156725D01*
X90228Y-157951D01*
X90832Y-159081D01*
X91645Y-160072D01*
X92636Y-160885D01*
X93766Y-161489D01*
X94992Y-161861D01*
X96268Y-161987D01*
X97543Y-161861D01*
X98769Y-161489D01*
X99900Y-160885D01*
X100890Y-160072D01*
X101703Y-159081D01*
X102307Y-157951D01*
X102679Y-156725D01*
X102805Y-155450D01*
X102679Y-154174D01*
X102307Y-152948D01*
X101703Y-151818D01*
X100890Y-150827D01*
X99900Y-150014D01*
X98769Y-149410D01*
X97543Y-149038D01*
X96268Y-148913D01*
D02*
G37*
G36*
X-96606D02*
X-97882Y-149038D01*
X-99108Y-149410D01*
X-100238Y-150014D01*
X-101229Y-150827D01*
X-102042Y-151818D01*
X-102646Y-152948D01*
X-103018Y-154174D01*
X-103143Y-155450D01*
X-103018Y-156725D01*
X-102646Y-157951D01*
X-102042Y-159081D01*
X-101229Y-160072D01*
X-100238Y-160885D01*
X-99108Y-161489D01*
X-97882Y-161861D01*
X-96606Y-161987D01*
X-95331Y-161861D01*
X-94105Y-161489D01*
X-92975Y-160885D01*
X-91984Y-160072D01*
X-91171Y-159081D01*
X-90567Y-157951D01*
X-90195Y-156725D01*
X-90069Y-155450D01*
X-90195Y-154174D01*
X-90567Y-152948D01*
X-91171Y-151818D01*
X-91984Y-150827D01*
X-92975Y-150014D01*
X-94105Y-149410D01*
X-95331Y-149038D01*
X-96606Y-148913D01*
D02*
G37*
%LPD*%
D16*
X-62025Y-192104D02*
D03*
X-27525D02*
D03*
D17*
X-44775D02*
D03*
D18*
X109747Y13900D02*
D03*
X115653D02*
D03*
X105053Y-6400D02*
D03*
X99147D02*
D03*
X102953Y-176300D02*
D03*
X97047D02*
D03*
X102947Y-168200D02*
D03*
X108853D02*
D03*
X29653Y-156500D02*
D03*
X23747D02*
D03*
X5853Y-152500D02*
D03*
X-53D02*
D03*
X38953Y-166800D02*
D03*
X33047D02*
D03*
D19*
X78720Y-2734D02*
D03*
X86279D02*
D03*
X82500Y5534D02*
D03*
D20*
X52100Y4353D02*
D03*
Y-1553D02*
D03*
X61400D02*
D03*
Y4353D02*
D03*
X98100Y-116847D02*
D03*
Y-122753D02*
D03*
X56100Y-88953D02*
D03*
Y-83047D02*
D03*
X55300Y-123253D02*
D03*
Y-117347D02*
D03*
X56500Y-59153D02*
D03*
Y-53247D02*
D03*
X65300Y-47147D02*
D03*
Y-53053D02*
D03*
X-84700Y-136547D02*
D03*
Y-142453D02*
D03*
X-96400Y-136347D02*
D03*
Y-142253D02*
D03*
X-62600Y-134047D02*
D03*
Y-139953D02*
D03*
X98100Y-83747D02*
D03*
Y-89653D02*
D03*
X99100Y-54047D02*
D03*
Y-59953D02*
D03*
X65000Y-77147D02*
D03*
Y-83053D02*
D03*
X-2700Y-135847D02*
D03*
Y-141753D02*
D03*
X65800Y19753D02*
D03*
Y13847D02*
D03*
X64100Y-111047D02*
D03*
Y-116953D02*
D03*
X18700Y-135847D02*
D03*
Y-141753D02*
D03*
X8900Y-135594D02*
D03*
Y-141500D02*
D03*
X-54200Y-134047D02*
D03*
Y-139953D02*
D03*
D21*
X105800Y1300D02*
D03*
X99300D02*
D03*
D22*
X99100Y19100D02*
D03*
Y13100D02*
D03*
D23*
X96991Y-186063D02*
D03*
Y-190000D02*
D03*
Y-193937D02*
D03*
X108409D02*
D03*
Y-190000D02*
D03*
Y-186063D02*
D03*
D24*
X102700Y-190000D02*
D03*
D25*
X-70400Y-142400D02*
D03*
X-76400D02*
D03*
D26*
X78979Y20240D02*
D03*
Y16500D02*
D03*
Y12760D02*
D03*
X88821D02*
D03*
Y20240D02*
D03*
D27*
X-114888Y-171288D02*
D03*
X-110712Y-167112D02*
D03*
D28*
X104785Y54031D02*
D03*
X111478D02*
D03*
X104785Y31984D02*
D03*
X111478D02*
D03*
D29*
X104800Y168722D02*
D03*
Y145100D02*
D03*
X65000Y63511D02*
D03*
Y39889D02*
D03*
D30*
X75599Y-89304D02*
D03*
X88001D02*
D03*
Y-77296D02*
D03*
X75599D02*
D03*
X75099Y-122804D02*
D03*
X87501D02*
D03*
Y-110796D02*
D03*
X75099D02*
D03*
X76499Y-47796D02*
D03*
X88901D02*
D03*
Y-59804D02*
D03*
X76499D02*
D03*
D31*
X73631Y-83300D02*
D03*
X89969D02*
D03*
X73131Y-116800D02*
D03*
X89469D02*
D03*
X90869Y-53800D02*
D03*
X74531D02*
D03*
D32*
X30200Y-141753D02*
D03*
Y-135847D02*
D03*
D33*
X21080Y-168380D02*
D03*
X14120Y-161420D02*
D03*
D34*
X54900Y22180D02*
D03*
Y13220D02*
D03*
D35*
X-40827Y-165583D02*
D03*
X-38858D02*
D03*
X-36890D02*
D03*
X-34921D02*
D03*
X-32953D02*
D03*
X-30984D02*
D03*
X-29016D02*
D03*
X-27047D02*
D03*
X-25079D02*
D03*
X-23110D02*
D03*
X-21142D02*
D03*
X-19173D02*
D03*
Y-138417D02*
D03*
X-21142D02*
D03*
X-23110D02*
D03*
X-25079D02*
D03*
X-27047D02*
D03*
X-29016D02*
D03*
X-30984D02*
D03*
X-32953D02*
D03*
X-34921D02*
D03*
X-36890D02*
D03*
X-38858D02*
D03*
X-40827D02*
D03*
D36*
X-16417Y-162827D02*
D03*
Y-160858D02*
D03*
Y-158890D02*
D03*
Y-156921D02*
D03*
Y-154953D02*
D03*
Y-152984D02*
D03*
Y-151016D02*
D03*
Y-149047D02*
D03*
Y-147079D02*
D03*
Y-145110D02*
D03*
Y-143142D02*
D03*
Y-141173D02*
D03*
X-43583D02*
D03*
Y-143142D02*
D03*
Y-145110D02*
D03*
Y-147079D02*
D03*
Y-149047D02*
D03*
Y-151016D02*
D03*
Y-152984D02*
D03*
Y-154953D02*
D03*
Y-156921D02*
D03*
Y-158890D02*
D03*
Y-160858D02*
D03*
Y-162827D02*
D03*
D37*
X-30000Y-152000D02*
D03*
D38*
X-80677Y-159126D02*
D03*
X-74274Y-152724D02*
D03*
X-69124Y-157874D02*
D03*
X-75526Y-164277D02*
D03*
D39*
X64198Y102755D02*
D03*
Y93700D02*
D03*
Y84645D02*
D03*
D40*
X89002Y93700D02*
D03*
D78*
X118225Y-147817D02*
G03*
X111775Y-147817I-3225J-2258D01*
G01*
Y-150983D02*
G03*
X118225Y-150983I3225J2258D01*
G01*
X105053Y-10900D02*
Y-6400D01*
X103100Y-12853D02*
X105053Y-10900D01*
X103100Y-18600D02*
Y-12853D01*
X99147Y-6400D02*
Y1147D01*
X61602Y4554D02*
X81520D01*
X104785Y54031D02*
X111478D01*
X30200Y-135847D02*
X31500Y-134547D01*
Y-102400D01*
X69678Y121078D02*
X93700Y145100D01*
X104800D01*
X64198Y115952D02*
X67900Y119654D01*
X64198Y102755D02*
Y115952D01*
X96100Y31500D02*
Y59979D01*
X104379Y68257D01*
X96100Y31500D02*
X106400Y21200D01*
Y17838D02*
Y21200D01*
Y17838D02*
X109747Y14491D01*
X99100Y13100D02*
X107653D01*
X107900Y13347D02*
X109195D01*
X113146Y27953D02*
X115400Y25700D01*
X113146Y27953D02*
Y30316D01*
X111478Y31984D02*
X113146Y30316D01*
X104785Y31984D02*
X111478D01*
X111700Y54254D02*
Y57400D01*
X113600Y59300D01*
Y74300D01*
X109800Y78100D02*
X113600Y74300D01*
X104379Y78100D02*
X109800D01*
X88821Y12760D02*
X98760D01*
X93900Y19000D02*
X99000D01*
X92660Y20240D02*
X93900Y19000D01*
X88821Y20240D02*
X92660D01*
X71600Y14095D02*
Y18100D01*
X73740Y20240D01*
X78979D01*
X72700Y12500D02*
X78719D01*
X71353Y13847D02*
X72700Y12500D01*
X65800Y13847D02*
X71353D01*
X54700Y13220D02*
X65172D01*
X80011Y63511D02*
X104379Y87879D01*
X65000Y63511D02*
X80011D01*
X64198Y64312D02*
Y84645D01*
D79*
X115000Y-144282D02*
D03*
Y-154134D02*
D03*
D80*
X45200Y-62200D02*
X52862D01*
X55909Y-59153D01*
X56500D01*
X50200Y-93500D02*
X50962D01*
X55509Y-88953D01*
X56100D01*
X98053Y-116800D02*
X98100Y-116847D01*
X89469Y-116800D02*
X98053D01*
X99147Y1147D02*
X99300Y1300D01*
X52100Y-1553D02*
X61400D01*
X51853Y-1800D02*
X52100Y-1553D01*
X45300Y-1800D02*
X51853D01*
X-20178Y-73178D02*
X45000Y-8000D01*
X-58100Y-147400D02*
X-58000D01*
X-52416Y-152984D01*
X-56247Y-154953D02*
X-43583D01*
X-57279Y-156921D02*
X-43583D01*
X-58000Y-158900D02*
X-43593D01*
X-58400Y-160800D02*
X-43641D01*
X-56000Y-162700D02*
X-43709D01*
X-66600Y-173300D02*
X-56000Y-162700D01*
X-52416Y-152984D02*
X-43583D01*
X78654Y-2800D02*
X78720Y-2734D01*
X71500Y-2800D02*
X78654D01*
X45000Y-8000D02*
X85300D01*
X46900Y-9600D02*
X79200D01*
X70700Y-11300D02*
X73100Y-13700D01*
X49200Y-11300D02*
X70700D01*
X-52600Y-145700D02*
X-52500D01*
X-47184Y-151016D01*
X-43583D01*
X-17617Y-74117D02*
X46900Y-9600D01*
X-16417Y-76917D02*
X49200Y-11300D01*
X81520Y4554D02*
X82500Y5534D01*
X61400Y4353D02*
X61602Y4554D01*
X85300Y-8000D02*
X90700Y-13400D01*
X79200Y-9600D02*
X83000Y-13400D01*
X19400Y-157091D02*
X23747D01*
X16184Y-160307D02*
X19400Y-157091D01*
X15234Y-160307D02*
X16184D01*
X23747Y-157091D02*
Y-156500D01*
X14120Y-161420D02*
X15234Y-160307D01*
X32581Y-167266D02*
X33047Y-166800D01*
X22193Y-167266D02*
X32581D01*
X21080Y-168380D02*
X22193Y-167266D01*
X97653Y-83300D02*
X98100Y-83747D01*
X89969Y-83300D02*
X97653D01*
X73383Y-83053D02*
X73631Y-83300D01*
X65000Y-83053D02*
X73383D01*
X64995Y-83047D02*
X65000Y-83053D01*
X56100Y-83047D02*
X64995D01*
X98853Y-53800D02*
X99100Y-54047D01*
X90869Y-53800D02*
X98853D01*
X73783Y-53053D02*
X74531Y-53800D01*
X65300Y-53053D02*
X73783D01*
X65105Y-53247D02*
X65300Y-53053D01*
X56500Y-53247D02*
X65105D01*
X67900Y121078D02*
X69678D01*
X-17617Y-135778D02*
Y-74117D01*
X-20178Y-94878D02*
Y-73178D01*
X92600Y-190200D02*
X96791D01*
X96991Y-190000D01*
X89900Y-187500D02*
X92600Y-190200D01*
X86000Y-187500D02*
X89900D01*
X-12500Y-159048D02*
X-11948Y-159600D01*
X-11600D01*
X-12500Y-159048D02*
Y-155333D01*
X-16417Y-162827D02*
X-10379D01*
X-1524Y-153972D01*
X-13000Y-167100D02*
Y-166800D01*
X-23266Y-172900D02*
X2640D01*
X-23800Y-175100D02*
X14359D01*
X-14559Y-153275D02*
X-12500Y-155333D01*
X-16127Y-153275D02*
X-14559D01*
X-16417Y-152984D02*
X-16127Y-153275D01*
X49300Y-117000D02*
X54953D01*
X-8800Y-147800D02*
X-8700Y-147900D01*
X-9900Y-155300D02*
Y-155100D01*
X-9899Y-155098D01*
Y-154602D01*
X-10600Y-151600D02*
X-6500D01*
X-13153Y-149047D02*
X-10600Y-151600D01*
X-12000Y-170200D02*
X-10100D01*
X-12551Y-170752D02*
X-12000Y-170200D01*
X-22149Y-170752D02*
X-12551D01*
X-10100Y-170200D02*
X-9900Y-170000D01*
X-13484Y-151016D02*
X-9899Y-154602D01*
X-16417Y-151016D02*
X-13484D01*
X-53609Y-139953D02*
X-43257Y-129600D01*
X-32650Y-125400D02*
Y-107350D01*
X-20178Y-94878D01*
X-34921Y-138417D02*
Y-128779D01*
X-37300Y-126400D02*
X-34921Y-128779D01*
X-36890Y-138417D02*
Y-130062D01*
X-37352Y-129600D02*
X-36890Y-130062D01*
X-43257Y-129600D02*
X-37352D01*
X-40700Y-133600D02*
X-38858Y-135442D01*
Y-138417D02*
Y-135442D01*
X-40700Y-133600D02*
Y-133100D01*
X-9500Y-131000D02*
X200D01*
X-16417Y-141173D02*
Y-76917D01*
X-19173Y-137335D02*
X-17617Y-135778D01*
X-19173Y-138417D02*
Y-137335D01*
X-13336Y-142634D02*
X-3581D01*
X-13844Y-143142D02*
X-13336Y-142634D01*
X-16417Y-143142D02*
X-13844D01*
X-3581Y-142634D02*
X-2700Y-141753D01*
X-16417Y-149047D02*
X-13153D01*
X200Y-131000D02*
X2900Y-133700D01*
Y-135500D02*
Y-133700D01*
Y-135500D02*
X7428Y-140028D01*
Y-140619D02*
Y-140028D01*
Y-140619D02*
X8309Y-141500D01*
X8900D01*
X113700Y-102500D02*
X114119Y-102919D01*
Y-143401D02*
Y-102919D01*
Y-143401D02*
X115000Y-144282D01*
X54953Y-117000D02*
X55300Y-117347D01*
X-1524Y-153972D02*
X-934D01*
X-53Y-153091D02*
Y-152500D01*
Y-151909D01*
X90700Y-8751D02*
X90707Y-8744D01*
X92256D01*
X92600Y-8400D01*
X90700Y-13400D02*
Y-8751D01*
X93100Y-18600D02*
Y-13751D01*
X92748Y-13400D02*
X93100Y-13751D01*
X90700Y-13400D02*
X92748D01*
X-104524Y-173300D02*
X-66600D01*
X-110712Y-167112D02*
X-104524Y-173300D01*
X83000Y-18500D02*
Y-13400D01*
Y-18500D02*
X83100Y-18600D01*
X73100D02*
Y-13700D01*
X56047Y-53700D02*
X56500Y-53247D01*
X49200Y-53700D02*
X56047D01*
X-15200Y-169300D02*
X-13000Y-167100D01*
X-934Y-153972D02*
X-53Y-153091D01*
X55953Y-82900D02*
X56100Y-83047D01*
X48900Y-82900D02*
X55953D01*
X18700Y-141753D02*
X30200D01*
X18447Y-141500D02*
X18700Y-141753D01*
X30200D02*
X30200Y-141753D01*
X-11600Y-147800D02*
X-8800D01*
X-16417Y-145110D02*
X-7443D01*
X-1524Y-151028D01*
X-12321Y-147079D02*
X-11600Y-147800D01*
X-16417Y-147079D02*
X-12321D01*
X72978Y-116953D02*
X73131Y-116800D01*
X64100Y-116953D02*
X72978D01*
X63705Y-117347D02*
X64100Y-116953D01*
X55300Y-117347D02*
X63705D01*
X14359Y-175100D02*
X21080Y-168380D01*
X-30744Y-168156D02*
X-23800Y-175100D01*
X-30744Y-168156D02*
Y-165823D01*
X-30984Y-165583D02*
X-30744Y-165823D01*
X2640Y-172900D02*
X14120Y-161420D01*
X-28725Y-167441D02*
X-23266Y-172900D01*
X-28725Y-167441D02*
Y-165873D01*
X-29016Y-165583D02*
X-28725Y-165873D01*
X115900Y-187500D02*
Y-171267D01*
X115881Y-171248D02*
X115900Y-171267D01*
X115881Y-171248D02*
Y-155015D01*
X115000Y-154134D02*
X115881Y-155015D01*
X113400Y-190000D02*
X115900Y-187500D01*
X108409Y-190000D02*
X113400D01*
X102947Y-176295D02*
X102953Y-176300D01*
X102947Y-176295D02*
Y-168200D01*
X103828Y-167319D01*
Y-165305D01*
X115000Y-154134D01*
X108800Y-168253D02*
X108853Y-168200D01*
X108800Y-177400D02*
Y-168253D01*
X108409Y-186063D02*
X108800Y-185672D01*
Y-177400D01*
X-24788Y-168112D02*
X-22149Y-170752D01*
X-24788Y-168112D02*
Y-165873D01*
X-25079Y-165583D02*
X-24788Y-165873D01*
X96991Y-186063D02*
X97047Y-186007D01*
Y-176300D01*
X94366Y-176900D02*
X94966Y-176300D01*
X91600Y-176900D02*
X94366D01*
X94966Y-176300D02*
X97047D01*
X-20961Y-169300D02*
X-15200D01*
X-22820Y-167441D02*
X-20961Y-169300D01*
X-22820Y-167441D02*
Y-165873D01*
X-23110Y-165583D02*
X-22820Y-165873D01*
X-72600Y-147000D02*
Y-146800D01*
X-76400Y-143000D02*
X-72600Y-146800D01*
X-76400Y-143000D02*
Y-142400D01*
X-72600Y-147000D02*
X-71300Y-148300D01*
X-65900D01*
X-57279Y-156921D01*
X-43593Y-158900D02*
X-43583Y-158890D01*
X-64176Y-152724D02*
X-58000Y-158900D01*
X-71079Y-152724D02*
X-64176D01*
X-71427Y-152375D02*
X-71079Y-152724D01*
X-73926Y-152375D02*
X-71427D01*
X-74274Y-152724D02*
X-73926Y-152375D01*
X-43641Y-160800D02*
X-43583Y-160858D01*
X-61529Y-163929D02*
X-58400Y-160800D01*
X-75178Y-163929D02*
X-61529D01*
X-75526Y-164277D02*
X-75178Y-163929D01*
X-43709Y-162700D02*
X-43583Y-162827D01*
X-109900Y-164219D02*
Y-150400D01*
X-111130Y-165448D02*
X-109900Y-164219D01*
X-111130Y-166694D02*
Y-165448D01*
Y-166694D02*
X-110712Y-167112D01*
X-109900Y-150400D02*
X-101753Y-142253D01*
X-96400D01*
X-96200Y-142453D01*
X-84700D01*
X-84647Y-142400D01*
X-76400D01*
X-70400D02*
Y-133800D01*
X-63000Y-126400D01*
X-37300D01*
X-62600Y-148600D02*
X-56247Y-154953D01*
X-62600Y-148600D02*
Y-139953D01*
X-54200D01*
X-53609D01*
X4781Y166054D02*
X4900Y165935D01*
X-80400Y166172D02*
X-80282Y166054D01*
X109747Y13900D02*
Y14491D01*
X109195Y13347D02*
X109747Y13900D01*
X111478Y54031D02*
X111700Y54254D01*
X107653Y13100D02*
X107900Y13347D01*
X98760Y12760D02*
X99100Y13100D01*
X99000Y19000D02*
X99100Y19100D01*
X71353Y13847D02*
X71600Y14095D01*
X78719Y12500D02*
X78979Y12760D01*
X65172Y13220D02*
X65800Y13847D01*
X104379Y87879D02*
Y87942D01*
X64198Y64312D02*
X65000Y63511D01*
X67900Y119654D02*
Y121078D01*
X54353Y-141753D02*
X55300Y-140806D01*
Y-123253D01*
X30200Y-141753D02*
X54353D01*
X8900Y-141500D02*
X18447D01*
X7428Y-142381D02*
X8309Y-141500D01*
X7428Y-144428D02*
Y-142381D01*
X-53Y-151909D02*
X7428Y-144428D01*
X-1524Y-151028D02*
X-934D01*
X-53Y-151909D01*
D81*
X42020Y14433D02*
Y22180D01*
Y14433D02*
X51706Y4747D01*
Y4550D02*
Y4747D01*
Y4550D02*
X51903Y4353D01*
X52100D01*
X29700Y34500D02*
X42020Y22180D01*
X54700D01*
X29700Y34500D02*
Y141135D01*
X4900Y165935D02*
X29700Y141135D01*
X-80282Y166054D02*
X4781D01*
D82*
X-80400Y132137D02*
D03*
Y-86800D02*
D03*
X4900Y131872D02*
D03*
Y-87065D02*
D03*
D83*
X-80400Y166172D02*
D03*
Y-120835D02*
D03*
X4900Y165908D02*
D03*
Y-121100D02*
D03*
D84*
X103100Y-18600D02*
D03*
Y-28600D02*
D03*
X93100Y-18600D02*
D03*
Y-28600D02*
D03*
X83100Y-18600D02*
D03*
Y-28600D02*
D03*
X73100Y-18600D02*
D03*
Y-28600D02*
D03*
X63100Y-18600D02*
D03*
D85*
Y-28600D02*
D03*
D86*
X102718Y43008D02*
D03*
X113545D02*
D03*
D87*
X67900Y121078D02*
D03*
Y144700D02*
D03*
X49396Y132889D02*
D03*
X-96606Y-155450D02*
D03*
X96268D02*
D03*
Y128050D02*
D03*
X-96606D02*
D03*
D88*
X104379Y87942D02*
D03*
Y78100D02*
D03*
Y68257D02*
D03*
D89*
X50200Y-93500D02*
D03*
X45200Y-62200D02*
D03*
X-87900Y-166700D02*
D03*
X31500Y-102400D02*
D03*
X113700Y-102500D02*
D03*
X115400Y25700D02*
D03*
D90*
X45300Y-1800D02*
D03*
X-58100Y-147400D02*
D03*
X71500Y-2800D02*
D03*
X-52600Y-145700D02*
D03*
X-11600Y-159600D02*
D03*
X-13000Y-166800D02*
D03*
X49300Y-117000D02*
D03*
X-8700Y-147900D02*
D03*
X-9900Y-155300D02*
D03*
Y-170000D02*
D03*
X-47200Y-133500D02*
D03*
X-32650Y-125400D02*
D03*
X-9500Y-131000D02*
D03*
X92600Y-8400D02*
D03*
X-40700Y-133100D02*
D03*
X49200Y-53700D02*
D03*
X-6500Y-151600D02*
D03*
X48900Y-82900D02*
D03*
X108800Y-177400D02*
D03*
X91600Y-176900D02*
D03*
D91*
X119000Y-63300D02*
D03*
X118900Y-76400D02*
D03*
X118700Y-90400D02*
D03*
X-119600Y-13200D02*
D03*
Y-25000D02*
D03*
Y-36500D02*
D03*
Y-51100D02*
D03*
X-119500Y-63600D02*
D03*
Y-75400D02*
D03*
X-119300Y-86100D02*
D03*
X102800Y-142200D02*
D03*
X95000Y-141100D02*
D03*
X87600Y-143500D02*
D03*
X84100Y-148700D02*
D03*
X83300Y-156800D02*
D03*
X88200Y-164800D02*
D03*
X86000Y-187500D02*
D03*
X86200Y-194500D02*
D03*
X77500Y-194300D02*
D03*
X68100Y-194400D02*
D03*
X57200Y-194500D02*
D03*
X45800Y-194600D02*
D03*
X36100Y-194500D02*
D03*
X25000D02*
D03*
X14600Y-194400D02*
D03*
X5600Y-194500D02*
D03*
X-4500Y-194400D02*
D03*
X-13900D02*
D03*
X-119400Y-97400D02*
D03*
Y-106200D02*
D03*
Y-115500D02*
D03*
X-119200Y-123400D02*
D03*
X-119500Y-131800D02*
D03*
Y-140000D02*
D03*
X-119300Y-148400D02*
D03*
X-119200Y-156900D02*
D03*
X-119400Y-164500D02*
D03*
X-119200Y-177100D02*
D03*
X-118900Y-185200D02*
D03*
X-118800Y-193200D02*
D03*
X-109900D02*
D03*
X-99900Y-193100D02*
D03*
X-90100D02*
D03*
X-80000D02*
D03*
M02*
