M48
;Layer_Color=9474304
;FILE_FORMAT=2:5
INCH,LZ
;TYPE=PLATED
T1F00S00C0.01200
T2F00S00C0.02012
T3F00S00C0.02800
T4F00S00C0.03150
T5F00S00C0.03937
T6F00S00C0.07480
T7F00S00C0.10906
T8F00S00C0.11811
;TYPE=NON_PLATED
T9F00S00C0.02953
T10F00S00C0.12598
%
T01
X-00099Y-017
X00916Y-01769
X01088Y-01774
X00493Y-0117
X00489Y-00829
X00492Y-00537
X-00095Y-0131
X-00087Y-01479
X-00065Y-01516
X-00099Y-01553
X-00116Y-01596
X-0013Y-01668
X-00526Y-01457
X-00581Y-01474
X-00472Y-01335
X-00407Y-01331
X-003265Y-01254
X00453Y-00018
X00715Y-00028
X00926Y-00084
T02
X-01188Y-01932
X-01189Y-01852
X-01192Y-01771
X-01099Y-01932
X-00999Y-01931
X-00901
X-008
X-00139Y-01944
X-00045
X00056Y-01945
X00146Y-01944
X0025Y-01945
X00361
X00458Y-01946
X00572Y-01945
X00681Y-01944
X00775Y-01943
X00862Y-01945
X0086Y-01875
X00882Y-01648
X00833Y-01568
X00841Y-01487
X00876Y-01435
X0095Y-01411
X01028Y-01422
X01187Y-00904
X01189Y-00764
X0119Y-00633
X-01195Y-00636
Y-00754
X-01193Y-00861
X-01194Y-00974
Y-01062
Y-01155
X-01192Y-01234
X-01195Y-01318
Y-014
X-01193Y-01484
X-01192Y-01569
X-01194Y-01645
X-01196Y-00511
Y-00365
Y-0025
Y-00132
T03
X01137Y-01025
X00502Y-00935
X00315Y-01024
X00452Y-00622
X-00879Y-01667
X01154Y00257
T04
X0104379Y0068257
Y00781
Y0087942
T05
X00631Y-00286
X00731
X00831
X00931
X01031
Y-00186
X00931
X00831
X00731
X00631
T06
X0049396Y0132889
X00679Y0121078
Y01447
T07
X-00804Y-0120835
X00049Y-01211
Y0165908
X-00804Y0166172
T08
X0096268Y-015545
X-0096606
Y012805
X0096268
T09
X0102718Y0043008
X0113545
T10
X-00804Y-00868
X00049Y-0087065
Y0131872
X-00804Y0132137
M30
