G04*
G04 #@! TF.GenerationSoftware,Altium Limited,Altium Designer,19.1.7 (138)*
G04*
G04 Layer_Physical_Order=1*
G04 Layer_Color=255*
%FSLAX25Y25*%
%MOIN*%
G70*
G01*
G75*
%ADD10C,0.00787*%
%ADD18R,0.07087X0.13386*%
%ADD19R,0.04528X0.02953*%
%ADD20R,0.03740X0.05512*%
%ADD21R,0.03600X0.02400*%
%ADD22R,0.03937X0.03937*%
%ADD23R,0.03543X0.05709*%
%ADD24R,0.02400X0.03600*%
G04:AMPARAMS|DCode=25|XSize=70.87mil|YSize=39.37mil|CornerRadius=0mil|HoleSize=0mil|Usage=FLASHONLY|Rotation=225.000|XOffset=0mil|YOffset=0mil|HoleType=Round|Shape=Rectangle|*
%AMROTATEDRECTD25*
4,1,4,0.01114,0.03897,0.03897,0.01114,-0.01114,-0.03897,-0.03897,-0.01114,0.01114,0.03897,0.0*
%
%ADD25ROTATEDRECTD25*%

%ADD26R,0.04724X0.02362*%
%ADD27R,0.01378X0.02362*%
%ADD28R,0.06693X0.04331*%
%ADD29R,0.04921X0.02362*%
%ADD30R,0.01968X0.04134*%
%ADD31R,0.01181X0.03347*%
%ADD32R,0.03347X0.01181*%
%ADD33R,0.20669X0.20669*%
%ADD34R,0.13386X0.07087*%
G04:AMPARAMS|DCode=35|XSize=51.18mil|YSize=41.34mil|CornerRadius=0mil|HoleSize=0mil|Usage=FLASHONLY|Rotation=45.000|XOffset=0mil|YOffset=0mil|HoleType=Round|Shape=Rectangle|*
%AMROTATEDRECTD35*
4,1,4,-0.00348,-0.03271,-0.03271,-0.00348,0.00348,0.03271,0.03271,0.00348,-0.00348,-0.03271,0.0*
%
%ADD35ROTATEDRECTD35*%

%ADD36R,0.06890X0.03740*%
%ADD37R,0.06890X0.12598*%
%ADD38R,0.06299X0.09843*%
%ADD39R,0.03543X0.01772*%
G04:AMPARAMS|DCode=40|XSize=18.11mil|YSize=18.11mil|CornerRadius=4.53mil|HoleSize=0mil|Usage=FLASHONLY|Rotation=180.000|XOffset=0mil|YOffset=0mil|HoleType=Round|Shape=RoundedRectangle|*
%AMROUNDEDRECTD40*
21,1,0.01811,0.00906,0,0,180.0*
21,1,0.00906,0.01811,0,0,180.0*
1,1,0.00906,-0.00453,0.00453*
1,1,0.00906,0.00453,0.00453*
1,1,0.00906,0.00453,-0.00453*
1,1,0.00906,-0.00453,-0.00453*
%
%ADD40ROUNDEDRECTD40*%
G04:AMPARAMS|DCode=41|XSize=36mil|YSize=24mil|CornerRadius=0mil|HoleSize=0mil|Usage=FLASHONLY|Rotation=225.000|XOffset=0mil|YOffset=0mil|HoleType=Round|Shape=Rectangle|*
%AMROTATEDRECTD41*
4,1,4,0.00424,0.02121,0.02121,0.00424,-0.00424,-0.02121,-0.02121,-0.00424,0.00424,0.02121,0.0*
%
%ADD41ROTATEDRECTD41*%

%ADD79C,0.01968*%
%ADD80R,0.02362X0.02362*%
%ADD81C,0.00600*%
%ADD82C,0.01181*%
%ADD83C,0.00602*%
%ADD84C,0.02756*%
%ADD85C,0.06000*%
%ADD86C,0.11811*%
%ADD87C,0.06024*%
%ADD88C,0.13583*%
%ADD89C,0.05118*%
%ADD90R,0.06496X0.06496*%
%ADD91C,0.06496*%
%ADD92C,0.15748*%
%ADD93C,0.02400*%
%ADD94C,0.01634*%
%ADD95C,0.05000*%
G36*
X122385Y-99996D02*
X121885Y-100203D01*
X121139Y-99458D01*
Y-94044D01*
X116199D01*
Y-100756D01*
X119842D01*
X120482Y-101397D01*
Y-110620D01*
X116502Y-114600D01*
X113000D01*
Y-118200D01*
X117800D01*
Y-115898D01*
X121885Y-111813D01*
X122385Y-112020D01*
Y-175000D01*
X116214D01*
Y-155515D01*
X116781D01*
Y-153564D01*
X117784Y-153148D01*
X118938Y-152263D01*
X119527Y-151495D01*
X119523Y-151492D01*
X119717Y-151201D01*
X119840Y-150583D01*
X119717Y-149965D01*
X119367Y-149441D01*
X119157Y-149301D01*
Y-148699D01*
X119367Y-148559D01*
X119717Y-148035D01*
X119840Y-147417D01*
X119717Y-146799D01*
X119523Y-146508D01*
X119527Y-146505D01*
X118938Y-145737D01*
X117784Y-144852D01*
X116897Y-144484D01*
X117017Y-143882D01*
Y-137500D01*
X116863Y-136728D01*
X116426Y-136074D01*
X98426Y-118074D01*
X97772Y-117637D01*
X97000Y-117483D01*
X82835D01*
X76017Y-110665D01*
Y-109814D01*
X92900D01*
Y-109900D01*
X97700D01*
Y-106300D01*
X92900D01*
Y-107386D01*
X75915D01*
X75863Y-107128D01*
X75426Y-106474D01*
X75214Y-106332D01*
Y-105853D01*
X75563Y-105708D01*
X76211Y-105211D01*
X76708Y-104563D01*
X77020Y-103809D01*
X77127Y-103000D01*
X77020Y-102191D01*
X76708Y-101437D01*
X76211Y-100789D01*
X75563Y-100292D01*
X74809Y-99980D01*
X74000Y-99873D01*
X73191Y-99980D01*
X72437Y-100292D01*
X71789Y-100789D01*
X71292Y-101437D01*
X70980Y-102191D01*
X70873Y-103000D01*
X70980Y-103809D01*
X71292Y-104563D01*
X71789Y-105211D01*
X72437Y-105708D01*
X72786Y-105853D01*
Y-106332D01*
X72574Y-106474D01*
X72137Y-107128D01*
X71983Y-107900D01*
Y-111500D01*
X72137Y-112272D01*
X72574Y-112926D01*
X80574Y-120926D01*
X81228Y-121363D01*
X82000Y-121517D01*
X96165D01*
X112983Y-138335D01*
Y-142668D01*
X109118D01*
X108653Y-142761D01*
X108260Y-143024D01*
X108260Y-143024D01*
X107642Y-143642D01*
X107378Y-144035D01*
X107286Y-144500D01*
X107286Y-144500D01*
Y-158797D01*
X101642Y-164442D01*
X101379Y-164835D01*
X101286Y-165300D01*
X101286Y-165300D01*
Y-166000D01*
X100600D01*
Y-170500D01*
X100600Y-170800D01*
X100600D01*
X100600Y-171000D01*
X100600D01*
Y-175000D01*
X97513D01*
Y-170800D01*
X98200D01*
Y-166000D01*
X94600D01*
Y-167482D01*
X93080D01*
X92349Y-166751D01*
X92051Y-166552D01*
X91700Y-166482D01*
X91349Y-166552D01*
X91304Y-166582D01*
X89052D01*
X88798Y-166202D01*
X88418Y-165948D01*
Y-162000D01*
X88348Y-161649D01*
X88149Y-161351D01*
X79718Y-152920D01*
Y-132300D01*
X79648Y-131949D01*
X79449Y-131651D01*
X70118Y-122320D01*
Y-98780D01*
X103449Y-65449D01*
X103648Y-65151D01*
X103718Y-64800D01*
Y-43580D01*
X107580Y-39718D01*
X111898D01*
X112456Y-40444D01*
X113259Y-41061D01*
X114196Y-41449D01*
X115200Y-41581D01*
X116205Y-41449D01*
X117141Y-41061D01*
X117944Y-40444D01*
X118561Y-39641D01*
X118949Y-38704D01*
X119081Y-37700D01*
X118949Y-36696D01*
X118561Y-35759D01*
X117944Y-34956D01*
X117141Y-34339D01*
X116205Y-33951D01*
X115200Y-33819D01*
X114196Y-33951D01*
X113259Y-34339D01*
X112456Y-34956D01*
X111839Y-35759D01*
X111451Y-36696D01*
X111319Y-37700D01*
X111159Y-37882D01*
X107200D01*
X106849Y-37952D01*
X106551Y-38151D01*
X102680Y-42023D01*
X102218Y-41831D01*
Y-29580D01*
X103180Y-28618D01*
X111440D01*
X111451Y-28705D01*
X111839Y-29641D01*
X112456Y-30444D01*
X113259Y-31061D01*
X114196Y-31449D01*
X115200Y-31581D01*
X116205Y-31449D01*
X117141Y-31061D01*
X117944Y-30444D01*
X118561Y-29641D01*
X118949Y-28705D01*
X119081Y-27700D01*
X118949Y-26695D01*
X118561Y-25759D01*
X117944Y-24956D01*
X117141Y-24339D01*
X116205Y-23951D01*
X115200Y-23819D01*
X114196Y-23951D01*
X113259Y-24339D01*
X112456Y-24956D01*
X111839Y-25759D01*
X111451Y-26695D01*
X111440Y-26782D01*
X102800D01*
X102449Y-26852D01*
X102151Y-27051D01*
X100651Y-28551D01*
X100452Y-28849D01*
X100382Y-29200D01*
Y-60120D01*
X99156Y-61347D01*
X98800Y-60997D01*
X98999Y-60700D01*
X99069Y-60348D01*
Y-59851D01*
X99018Y-59593D01*
Y-53651D01*
X99098Y-53598D01*
X99496Y-53002D01*
X99635Y-52300D01*
X99496Y-51598D01*
X99098Y-51002D01*
X98502Y-50604D01*
X97800Y-50465D01*
X97098Y-50604D01*
X96502Y-51002D01*
X96104Y-51598D01*
X95965Y-52300D01*
X96104Y-53002D01*
X96502Y-53598D01*
X97098Y-53996D01*
X97182Y-54012D01*
Y-59800D01*
X97219Y-59983D01*
X92920Y-64282D01*
X74800D01*
X74449Y-64352D01*
X74151Y-64551D01*
X72033Y-66669D01*
X72016Y-66655D01*
X71140Y-66293D01*
X70200Y-66169D01*
X69260Y-66293D01*
X68384Y-66655D01*
X67632Y-67232D01*
X67055Y-67984D01*
X66693Y-68860D01*
X66569Y-69800D01*
X66693Y-70740D01*
X67055Y-71615D01*
X67156Y-71746D01*
X65582Y-73321D01*
X65300Y-73265D01*
X64598Y-73404D01*
X64002Y-73802D01*
X63604Y-74398D01*
X63465Y-75100D01*
X63604Y-75802D01*
X64002Y-76398D01*
X64598Y-76796D01*
X65300Y-76935D01*
X66002Y-76796D01*
X66598Y-76398D01*
X66996Y-75802D01*
X67135Y-75100D01*
X67013Y-74485D01*
X68504Y-72994D01*
X69260Y-73307D01*
X70200Y-73431D01*
X71140Y-73307D01*
X72016Y-72945D01*
X72768Y-72368D01*
X73345Y-71615D01*
X73707Y-70740D01*
X73831Y-69800D01*
X73707Y-68860D01*
X73345Y-67984D01*
X73331Y-67967D01*
X75180Y-66118D01*
X78376D01*
X78476Y-66618D01*
X78385Y-66655D01*
X77632Y-67232D01*
X77055Y-67984D01*
X76693Y-68860D01*
X76569Y-69800D01*
X76693Y-70740D01*
X77055Y-71615D01*
X77632Y-72368D01*
X78385Y-72945D01*
X79260Y-73307D01*
X80200Y-73431D01*
X81140Y-73307D01*
X82016Y-72945D01*
X82768Y-72368D01*
X83345Y-71615D01*
X83707Y-70740D01*
X83831Y-69800D01*
X83707Y-68860D01*
X83345Y-67984D01*
X82768Y-67232D01*
X82016Y-66655D01*
X81924Y-66618D01*
X82024Y-66118D01*
X93300D01*
X93651Y-66048D01*
X93949Y-65849D01*
X94298Y-66204D01*
X86320Y-74182D01*
X75300D01*
X74949Y-74252D01*
X74651Y-74451D01*
X74452Y-74749D01*
X74382Y-75100D01*
Y-80700D01*
X74172Y-80858D01*
X73730Y-80565D01*
X73831Y-79800D01*
X73707Y-78860D01*
X73345Y-77984D01*
X72768Y-77232D01*
X72016Y-76655D01*
X71140Y-76293D01*
X70200Y-76169D01*
X69260Y-76293D01*
X68384Y-76655D01*
X67632Y-77232D01*
X67055Y-77984D01*
X66693Y-78860D01*
X66569Y-79800D01*
X66693Y-80740D01*
X67055Y-81616D01*
X67632Y-82368D01*
X68384Y-82945D01*
X69260Y-83307D01*
X70200Y-83431D01*
X71140Y-83307D01*
X71222Y-83273D01*
X71505Y-83697D01*
X67151Y-88051D01*
X66952Y-88349D01*
X66882Y-88700D01*
Y-127300D01*
X66952Y-127651D01*
X67151Y-127949D01*
X68054Y-128852D01*
X67965Y-129300D01*
X68104Y-130002D01*
X68502Y-130598D01*
X69098Y-130996D01*
X69800Y-131135D01*
X70502Y-130996D01*
X71098Y-130598D01*
X71496Y-130002D01*
X71635Y-129300D01*
X71496Y-128598D01*
X71098Y-128002D01*
X70502Y-127604D01*
X69800Y-127465D01*
X69352Y-127554D01*
X68718Y-126920D01*
Y-124169D01*
X69180Y-123977D01*
X77882Y-132680D01*
Y-153300D01*
X77952Y-153651D01*
X78151Y-153949D01*
X86582Y-162380D01*
Y-165948D01*
X86202Y-166202D01*
X85804Y-166798D01*
X85665Y-167500D01*
X85804Y-168202D01*
X86202Y-168798D01*
X86798Y-169196D01*
X87500Y-169335D01*
X88202Y-169196D01*
X88798Y-168798D01*
X89052Y-168418D01*
X91420D01*
X92051Y-169049D01*
X92349Y-169248D01*
X92700Y-169318D01*
X94600D01*
Y-170800D01*
X95487D01*
Y-175000D01*
X82214D01*
Y-171000D01*
X82121Y-170536D01*
X81858Y-170142D01*
X81464Y-169878D01*
X81000Y-169786D01*
X80536Y-169878D01*
X80142Y-170142D01*
X79878Y-170536D01*
X79786Y-171000D01*
Y-175000D01*
X-30476D01*
Y-177913D01*
X-6146D01*
Y-203346D01*
X-108035D01*
Y-198583D01*
X-43468D01*
Y-191496D01*
X-45634D01*
Y-188248D01*
X-48429Y-183071D01*
Y-175000D01*
X-57701D01*
Y-159800D01*
X-52273D01*
Y-159852D01*
X-47727D01*
Y-159800D01*
X-46600D01*
Y-175000D01*
X-46618D01*
Y-182992D01*
X-45634Y-185591D01*
X-31854D01*
Y-191496D01*
X-35791D01*
Y-194646D01*
X-12957D01*
Y-182992D01*
X-41500D01*
Y-175000D01*
X-41551D01*
Y-166800D01*
X-41649Y-166564D01*
X-41741Y-166341D01*
X-42141Y-165941D01*
X-42600Y-165751D01*
X-45900D01*
X-45951Y-165717D01*
Y-162954D01*
X-45450Y-162596D01*
X-45276Y-162631D01*
X-44998Y-162576D01*
X-44498Y-162885D01*
Y-163691D01*
X-38319D01*
Y-165498D01*
X-38249Y-165849D01*
X-38050Y-166147D01*
X-33549Y-170649D01*
X-33251Y-170848D01*
X-32900Y-170918D01*
X3960D01*
X4311Y-170848D01*
X4608Y-170649D01*
X9199Y-166058D01*
X10366Y-167226D01*
X14413Y-163179D01*
X14488Y-163129D01*
X18699Y-158918D01*
X19000D01*
X19000Y-158918D01*
X21700D01*
Y-160400D01*
X25300D01*
Y-155600D01*
X21700D01*
Y-157082D01*
X19000D01*
X19000Y-157082D01*
X18319D01*
X17968Y-157152D01*
X17670Y-157351D01*
X14940Y-160081D01*
X12593Y-157734D01*
X6734Y-163593D01*
X7901Y-164761D01*
X3579Y-169082D01*
X-7091D01*
X-7282Y-168620D01*
X2239Y-159099D01*
X3407Y-160266D01*
X9266Y-154407D01*
X8099Y-153239D01*
X11420Y-149918D01*
X12700D01*
Y-151400D01*
X16300D01*
Y-146600D01*
X12700D01*
Y-148082D01*
X11040D01*
X10689Y-148152D01*
X10391Y-148351D01*
X6801Y-151942D01*
X5634Y-150774D01*
X-226Y-156634D01*
X941Y-157801D01*
X-8840Y-167582D01*
X-11631D01*
X-11823Y-167120D01*
X-11448Y-166746D01*
X-11000Y-166835D01*
X-10298Y-166696D01*
X-9702Y-166298D01*
X-9304Y-165702D01*
X-9165Y-165000D01*
X-9304Y-164298D01*
X-9702Y-163702D01*
X-10298Y-163304D01*
X-11000Y-163165D01*
X-11702Y-163304D01*
X-12298Y-163702D01*
X-12696Y-164298D01*
X-12835Y-165000D01*
X-12746Y-165448D01*
X-13380Y-166082D01*
X-18631D01*
X-18823Y-165620D01*
X-17520Y-164318D01*
X-15500D01*
X-15149Y-164248D01*
X-14851Y-164049D01*
X-12720Y-161918D01*
X-9552D01*
X-9298Y-162298D01*
X-8702Y-162696D01*
X-8000Y-162835D01*
X-7298Y-162696D01*
X-6702Y-162298D01*
X-6304Y-161702D01*
X-6165Y-161000D01*
X-6304Y-160298D01*
X-6702Y-159702D01*
X-7298Y-159304D01*
X-8000Y-159165D01*
X-8702Y-159304D01*
X-9298Y-159702D01*
X-9552Y-160082D01*
X-13100D01*
X-13451Y-160152D01*
X-13749Y-160351D01*
X-15880Y-162482D01*
X-17900D01*
X-18251Y-162552D01*
X-18549Y-162751D01*
X-20380Y-164582D01*
X-26920D01*
X-27350Y-164153D01*
X-27158Y-163691D01*
X-24400D01*
Y-161070D01*
X-16349D01*
X-15998Y-161000D01*
X-15700Y-160801D01*
X-3117Y-148218D01*
X1500D01*
X1851Y-148148D01*
X2149Y-147949D01*
X34249Y-115849D01*
X34448Y-115551D01*
X34518Y-115200D01*
Y-107600D01*
X34448Y-107249D01*
X34249Y-106951D01*
X23246Y-95948D01*
X23335Y-95500D01*
X23196Y-94798D01*
X22798Y-94202D01*
X22202Y-93804D01*
X21500Y-93665D01*
X20798Y-93804D01*
X20202Y-94202D01*
X19804Y-94798D01*
X19665Y-95500D01*
X19804Y-96202D01*
X20202Y-96798D01*
X20798Y-97196D01*
X21500Y-97335D01*
X21948Y-97246D01*
X32682Y-107980D01*
Y-114820D01*
X1120Y-146382D01*
X-3497D01*
X-3848Y-146452D01*
X-4146Y-146651D01*
X-16729Y-159234D01*
X-17783D01*
X-17975Y-158772D01*
X-3351Y-144149D01*
X-3152Y-143851D01*
X-3082Y-143500D01*
Y-137400D01*
X-2200D01*
Y-132600D01*
X-2385D01*
Y-130400D01*
X-2200D01*
Y-125600D01*
X-2385D01*
Y-124400D01*
X-2200D01*
Y-119600D01*
X-2332D01*
Y-117904D01*
X-2008Y-117418D01*
X-1885Y-116800D01*
Y-115521D01*
X-932D01*
Y-110384D01*
X-6069D01*
Y-111337D01*
X-13206D01*
Y-89337D01*
X-12998Y-89296D01*
X-12402Y-88898D01*
X-12004Y-88302D01*
X-11865Y-87600D01*
X-12004Y-86898D01*
X-12402Y-86302D01*
X-12998Y-85904D01*
X-13700Y-85765D01*
X-14402Y-85904D01*
X-14998Y-86302D01*
X-15396Y-86898D01*
X-15535Y-87600D01*
X-15396Y-88302D01*
X-15041Y-88833D01*
Y-111759D01*
X-15119Y-111811D01*
X-15178Y-111899D01*
X-15266Y-111958D01*
X-15693Y-112385D01*
X-23100D01*
Y-112200D01*
X-27900D01*
Y-112385D01*
X-30100D01*
Y-112200D01*
X-34900D01*
Y-115800D01*
X-33418D01*
Y-116620D01*
X-36149Y-119351D01*
X-36175Y-119390D01*
X-36458Y-119673D01*
X-36500Y-119665D01*
X-37202Y-119804D01*
X-37798Y-120202D01*
X-38196Y-120798D01*
X-38335Y-121500D01*
X-38196Y-122202D01*
X-37798Y-122798D01*
X-37202Y-123196D01*
X-36500Y-123335D01*
X-35798Y-123196D01*
X-35202Y-122798D01*
X-34804Y-122202D01*
X-34665Y-121500D01*
X-34804Y-120798D01*
X-34878Y-120688D01*
X-34851Y-120662D01*
X-34825Y-120623D01*
X-31851Y-117649D01*
X-31652Y-117351D01*
X-31582Y-117000D01*
Y-115800D01*
X-30100D01*
Y-115615D01*
X-27900D01*
Y-115800D01*
X-23100D01*
Y-115615D01*
X-15024D01*
X-14405Y-115492D01*
X-13881Y-115142D01*
X-13307Y-114568D01*
X-6069D01*
Y-115521D01*
X-5115D01*
Y-116144D01*
X-5440Y-116629D01*
X-5563Y-117247D01*
Y-119600D01*
X-5800D01*
Y-123102D01*
X-8780Y-126082D01*
X-9400D01*
X-9751Y-126152D01*
X-10049Y-126351D01*
X-13672Y-129975D01*
X-14100Y-129695D01*
Y-126200D01*
X-18900D01*
Y-129102D01*
X-19249Y-129451D01*
X-19448Y-129749D01*
X-19518Y-130100D01*
Y-131832D01*
X-19612Y-131900D01*
X-20018Y-132019D01*
X-20999Y-131037D01*
Y-122083D01*
X-21069Y-121732D01*
X-21268Y-121434D01*
X-22383Y-120319D01*
X-22304Y-120202D01*
X-22165Y-119500D01*
X-22304Y-118798D01*
X-22702Y-118202D01*
X-23298Y-117804D01*
X-24000Y-117665D01*
X-24702Y-117804D01*
X-25298Y-118202D01*
X-25696Y-118798D01*
X-25835Y-119500D01*
X-25696Y-120202D01*
X-25298Y-120798D01*
X-24702Y-121196D01*
X-24000Y-121335D01*
X-23969Y-121329D01*
X-22835Y-122463D01*
Y-131417D01*
X-22765Y-131768D01*
X-22566Y-132066D01*
X-21481Y-133151D01*
Y-135439D01*
X-21859Y-135817D01*
X-24400D01*
Y-131979D01*
X-24673D01*
Y-127112D01*
X-24202Y-126798D01*
X-23804Y-126202D01*
X-23665Y-125500D01*
X-23804Y-124798D01*
X-24202Y-124202D01*
X-24798Y-123804D01*
X-25500Y-123665D01*
X-26202Y-123804D01*
X-26798Y-124202D01*
X-27196Y-124798D01*
X-27335Y-125500D01*
X-27196Y-126202D01*
X-26798Y-126798D01*
X-26508Y-126991D01*
Y-130005D01*
X-26623Y-130087D01*
X-27008Y-130194D01*
X-29883Y-127320D01*
X-29804Y-127202D01*
X-29665Y-126500D01*
X-29804Y-125798D01*
X-30202Y-125202D01*
X-30798Y-124804D01*
X-31500Y-124665D01*
X-32202Y-124804D01*
X-32798Y-125202D01*
X-33196Y-125798D01*
X-33335Y-126500D01*
X-33196Y-127202D01*
X-32798Y-127798D01*
X-32202Y-128196D01*
X-31500Y-128335D01*
X-31469Y-128329D01*
X-28477Y-131321D01*
Y-131979D01*
X-40421D01*
Y-119900D01*
X-40200D01*
Y-115100D01*
X-43800D01*
Y-119900D01*
X-42256D01*
Y-127057D01*
X-42371Y-127139D01*
X-42756Y-127246D01*
X-43554Y-126448D01*
X-43465Y-126000D01*
X-43604Y-125298D01*
X-44002Y-124702D01*
X-44598Y-124304D01*
X-45300Y-124165D01*
X-46002Y-124304D01*
X-46598Y-124702D01*
X-46996Y-125298D01*
X-47135Y-126000D01*
X-46996Y-126702D01*
X-46598Y-127298D01*
X-46002Y-127696D01*
X-45300Y-127835D01*
X-44852Y-127746D01*
X-44225Y-128373D01*
Y-130900D01*
X-44725Y-131107D01*
X-47957Y-127875D01*
X-48351Y-127612D01*
X-48815Y-127519D01*
X-48815Y-127519D01*
X-49490D01*
X-49702Y-127202D01*
X-50298Y-126804D01*
X-51000Y-126665D01*
X-51702Y-126804D01*
X-52298Y-127202D01*
X-52696Y-127798D01*
X-52835Y-128500D01*
X-52696Y-129202D01*
X-52298Y-129798D01*
X-51702Y-130196D01*
X-51000Y-130335D01*
X-50298Y-130196D01*
X-49926Y-129947D01*
X-49318D01*
X-47749Y-131517D01*
X-47940Y-131979D01*
X-48435D01*
Y-135817D01*
X-52273D01*
Y-138198D01*
Y-141122D01*
X-52773Y-141329D01*
X-53682Y-140420D01*
Y-137800D01*
X-53752Y-137449D01*
X-53951Y-137151D01*
X-56782Y-134320D01*
Y-125652D01*
X-56402Y-125398D01*
X-56004Y-124802D01*
X-55865Y-124100D01*
X-56004Y-123398D01*
X-56402Y-122802D01*
X-56998Y-122404D01*
X-57700Y-122265D01*
X-58402Y-122404D01*
X-58998Y-122802D01*
X-59396Y-123398D01*
X-59535Y-124100D01*
X-59396Y-124802D01*
X-58998Y-125398D01*
X-58618Y-125652D01*
Y-129077D01*
X-59118Y-129285D01*
X-60754Y-127648D01*
X-60665Y-127200D01*
X-60804Y-126498D01*
X-61202Y-125902D01*
X-61798Y-125504D01*
X-62500Y-125365D01*
X-63202Y-125504D01*
X-63798Y-125902D01*
X-64196Y-126498D01*
X-64335Y-127200D01*
X-64196Y-127902D01*
X-63798Y-128498D01*
X-63202Y-128896D01*
X-62500Y-129035D01*
X-62052Y-128946D01*
X-60318Y-130680D01*
Y-134847D01*
X-60818Y-134999D01*
X-60851Y-134949D01*
X-62402Y-133398D01*
X-62004Y-132802D01*
X-61865Y-132100D01*
X-62004Y-131398D01*
X-62402Y-130802D01*
X-62998Y-130404D01*
X-63700Y-130265D01*
X-64402Y-130404D01*
X-64998Y-130802D01*
X-65396Y-131398D01*
X-65535Y-132100D01*
X-65396Y-132802D01*
X-64998Y-133398D01*
X-64559Y-133691D01*
X-64548Y-133749D01*
X-64349Y-134047D01*
X-62418Y-135978D01*
Y-136500D01*
X-62348Y-136851D01*
X-62149Y-137149D01*
X-58968Y-140330D01*
Y-141625D01*
X-59468Y-141832D01*
X-62456Y-138844D01*
X-62367Y-138396D01*
X-62507Y-137693D01*
X-62905Y-137098D01*
X-63500Y-136700D01*
X-64202Y-136560D01*
X-64905Y-136700D01*
X-65500Y-137098D01*
X-65898Y-137693D01*
X-66038Y-138396D01*
X-65898Y-139098D01*
X-65500Y-139693D01*
X-64905Y-140091D01*
X-64202Y-140231D01*
X-63754Y-140142D01*
X-60820Y-143076D01*
Y-144498D01*
X-60750Y-144849D01*
X-60551Y-145147D01*
X-56615Y-149082D01*
X-56715Y-149454D01*
X-56805Y-149582D01*
X-57418D01*
X-62182Y-144818D01*
X-61904Y-144402D01*
X-61765Y-143700D01*
X-61904Y-142998D01*
X-62302Y-142402D01*
X-62898Y-142004D01*
X-63600Y-141865D01*
X-64302Y-142004D01*
X-64898Y-142402D01*
X-65296Y-142998D01*
X-65435Y-143700D01*
X-65346Y-144149D01*
X-65807Y-144396D01*
X-67807Y-142395D01*
X-67879Y-142035D01*
X-68142Y-141642D01*
X-68536Y-141378D01*
X-69000Y-141286D01*
X-76900D01*
X-77364Y-141378D01*
X-77758Y-141642D01*
X-77758Y-141642D01*
X-79400Y-143283D01*
X-84523D01*
X-84641Y-143165D01*
Y-141857D01*
X-63142Y-120358D01*
X-63142Y-120358D01*
X-62879Y-119965D01*
X-62846Y-119800D01*
X-60100D01*
Y-119214D01*
X-57400D01*
Y-119800D01*
X-52600D01*
Y-118714D01*
X-49800D01*
Y-119900D01*
X-46200D01*
Y-115100D01*
X-49800D01*
Y-116286D01*
X-52600D01*
Y-116200D01*
X-57400D01*
Y-116786D01*
X-60100D01*
Y-116200D01*
X-64900D01*
Y-118104D01*
X-65122Y-118436D01*
X-65214Y-118900D01*
X-65214Y-118900D01*
Y-118997D01*
X-86713Y-140496D01*
X-86976Y-140890D01*
X-87068Y-141354D01*
X-87068Y-141354D01*
Y-143165D01*
X-89249Y-145346D01*
X-86703Y-147891D01*
X-86476Y-147664D01*
X-86014Y-147855D01*
Y-160500D01*
X-86014Y-160500D01*
X-85922Y-160965D01*
X-85658Y-161358D01*
X-78658Y-168358D01*
X-78658Y-168358D01*
X-78264Y-168622D01*
X-77800Y-168714D01*
X-68000D01*
X-68000Y-168714D01*
X-67536Y-168622D01*
X-67142Y-168358D01*
X-66642Y-167858D01*
X-66378Y-167464D01*
X-66307Y-167105D01*
X-63812Y-164610D01*
X-63350Y-164801D01*
X-63350Y-175000D01*
X-122385D01*
Y177000D01*
X122385D01*
Y-99996D01*
D02*
G37*
G36*
X101882Y-61869D02*
Y-64420D01*
X69180Y-97123D01*
X68718Y-96931D01*
Y-89080D01*
X75949Y-81849D01*
X76148Y-81551D01*
X76218Y-81200D01*
Y-80841D01*
X76693Y-80740D01*
X77055Y-81616D01*
X77632Y-82368D01*
X78385Y-82945D01*
X79260Y-83307D01*
X80200Y-83431D01*
X81140Y-83307D01*
X82016Y-82945D01*
X82768Y-82368D01*
X83345Y-81616D01*
X83707Y-80740D01*
X83831Y-79800D01*
X83707Y-78860D01*
X83345Y-77984D01*
X82768Y-77232D01*
X82016Y-76655D01*
X81683Y-76518D01*
X81782Y-76018D01*
X86700D01*
X87051Y-75948D01*
X87349Y-75749D01*
X101420Y-61677D01*
X101882Y-61869D01*
D02*
G37*
G36*
X-5800Y-126351D02*
Y-130400D01*
X-5615D01*
Y-132600D01*
X-5800D01*
Y-137400D01*
X-4918D01*
Y-143120D01*
X-19541Y-157744D01*
X-20561D01*
Y-155915D01*
Y-151135D01*
X-20062Y-151086D01*
X-20043Y-151177D01*
X-19844Y-151475D01*
X-19566Y-151753D01*
X-19596Y-151798D01*
X-19735Y-152500D01*
X-19596Y-153202D01*
X-19198Y-153798D01*
X-18602Y-154196D01*
X-17900Y-154335D01*
X-17198Y-154196D01*
X-16602Y-153798D01*
X-16204Y-153202D01*
X-16065Y-152500D01*
X-16204Y-151798D01*
X-16602Y-151202D01*
X-17198Y-150804D01*
X-17900Y-150665D01*
X-18278Y-150300D01*
Y-149770D01*
X-18348Y-149419D01*
X-18547Y-149121D01*
X-19410Y-148258D01*
X-19324Y-147915D01*
X-19217Y-147758D01*
X-18177D01*
X-17929Y-148129D01*
X-17334Y-148526D01*
X-16632Y-148666D01*
X-15929Y-148526D01*
X-15334Y-148129D01*
X-14936Y-147533D01*
X-14796Y-146831D01*
X-14936Y-146129D01*
X-15334Y-145533D01*
X-15929Y-145135D01*
X-16632Y-144996D01*
X-17080Y-145085D01*
X-17326Y-144624D01*
X-10748Y-138046D01*
X-10300Y-138135D01*
X-9598Y-137996D01*
X-9002Y-137598D01*
X-8604Y-137002D01*
X-8465Y-136300D01*
X-8604Y-135598D01*
X-9002Y-135002D01*
X-9598Y-134604D01*
X-10154Y-134494D01*
X-10376Y-134009D01*
X-9502Y-133135D01*
X-9500Y-133135D01*
X-8798Y-132996D01*
X-8202Y-132598D01*
X-7804Y-132002D01*
X-7665Y-131300D01*
X-7804Y-130598D01*
X-8202Y-130002D01*
X-8798Y-129604D01*
X-9500Y-129465D01*
X-9949Y-129554D01*
X-10195Y-129093D01*
X-9020Y-127918D01*
X-8400D01*
X-8049Y-127848D01*
X-7751Y-127649D01*
X-6262Y-126160D01*
X-5800Y-126351D01*
D02*
G37*
G36*
X-64992Y-147806D02*
X-65199Y-148306D01*
X-67299D01*
X-67378Y-148227D01*
X-67453Y-148176D01*
X-70526Y-145104D01*
X-74993Y-149572D01*
X-71222Y-153343D01*
X-67963Y-150085D01*
X-67679Y-150141D01*
X-65357D01*
X-60349Y-155149D01*
X-60350Y-155352D01*
X-60423Y-155701D01*
X-60649Y-155851D01*
X-64309Y-159511D01*
X-68924D01*
X-71779Y-156657D01*
X-76246Y-161125D01*
X-72474Y-164896D01*
X-68924Y-161346D01*
X-63929D01*
X-63832Y-161327D01*
X-63586Y-161788D01*
X-67605Y-165807D01*
X-67965Y-165878D01*
X-68358Y-166142D01*
X-68503Y-166286D01*
X-77297D01*
X-83586Y-159997D01*
Y-146400D01*
X-83624Y-146211D01*
X-83273Y-145711D01*
X-78897D01*
X-78897Y-145711D01*
X-78433Y-145619D01*
X-78039Y-145355D01*
X-76397Y-143714D01*
X-69084D01*
X-64992Y-147806D01*
D02*
G37*
G36*
X118033Y-148400D02*
X111967D01*
X113031Y-145738D01*
X116969D01*
X118033Y-148400D01*
D02*
G37*
G36*
X116969Y-152262D02*
X113031D01*
X111967Y-149600D01*
X118033D01*
X116969Y-152262D01*
D02*
G37*
G36*
X-25108Y-138198D02*
Y-140167D01*
Y-142136D01*
Y-144104D01*
Y-146072D01*
Y-148041D01*
Y-150010D01*
Y-151978D01*
Y-153946D01*
Y-155915D01*
Y-157884D01*
Y-159144D01*
X-44062D01*
Y-157196D01*
X-35559Y-148693D01*
X-35296Y-148299D01*
X-35204Y-147835D01*
X-35296Y-147370D01*
X-35559Y-146976D01*
X-35953Y-146713D01*
X-36417Y-146621D01*
X-36882Y-146713D01*
X-37276Y-146976D01*
X-46134Y-155835D01*
X-46397Y-156228D01*
X-46490Y-156693D01*
X-46490Y-156693D01*
Y-159144D01*
X-47727D01*
Y-157884D01*
Y-155915D01*
Y-153946D01*
Y-151978D01*
Y-150010D01*
Y-148041D01*
Y-146072D01*
Y-144104D01*
Y-142136D01*
Y-140167D01*
Y-138198D01*
Y-136525D01*
X-25108D01*
Y-138198D01*
D02*
G37*
G36*
X110283Y-151201D02*
X110477Y-151492D01*
X110473Y-151495D01*
X111062Y-152263D01*
X112216Y-153148D01*
X113219Y-153564D01*
Y-155515D01*
X113786D01*
Y-175000D01*
X110200D01*
Y-171000D01*
X106600D01*
Y-175000D01*
X104200D01*
Y-171300D01*
X104200Y-171000D01*
X104200D01*
X104200Y-170800D01*
X104200D01*
Y-166000D01*
X104200D01*
X104017Y-165500D01*
X109358Y-160158D01*
X109358Y-160158D01*
X109622Y-159765D01*
X109714Y-159300D01*
X109714Y-159300D01*
Y-150905D01*
X110214Y-150856D01*
X110283Y-151201D01*
D02*
G37*
%LPC*%
G36*
X-104179Y167929D02*
X-105003Y167820D01*
X-105772Y167502D01*
X-106432Y166996D01*
X-106938Y166336D01*
X-107256Y165567D01*
X-107365Y164743D01*
X-107256Y163918D01*
X-106938Y163149D01*
X-106432Y162489D01*
X-105772Y161983D01*
X-105003Y161665D01*
X-104179Y161556D01*
X-103354Y161665D01*
X-102586Y161983D01*
X-101926Y162489D01*
X-101419Y163149D01*
X-101101Y163918D01*
X-100992Y164743D01*
X-101101Y165567D01*
X-101419Y166336D01*
X-101926Y166996D01*
X-102586Y167502D01*
X-103354Y167820D01*
X-104179Y167929D01*
D02*
G37*
G36*
Y158086D02*
X-105003Y157978D01*
X-105772Y157659D01*
X-106432Y157153D01*
X-106938Y156493D01*
X-107256Y155725D01*
X-107365Y154900D01*
X-107256Y154075D01*
X-106938Y153307D01*
X-106432Y152647D01*
X-105772Y152141D01*
X-105003Y151822D01*
X-104179Y151714D01*
X-103354Y151822D01*
X-102586Y152141D01*
X-101926Y152647D01*
X-101419Y153307D01*
X-101101Y154075D01*
X-100992Y154900D01*
X-101101Y155725D01*
X-101419Y156493D01*
X-101926Y157153D01*
X-102586Y157659D01*
X-103354Y157978D01*
X-104179Y158086D01*
D02*
G37*
G36*
X-43496Y143779D02*
X-44945Y143636D01*
X-46338Y143214D01*
X-47622Y142527D01*
X-48748Y141604D01*
X-49672Y140478D01*
X-50358Y139194D01*
X-50780Y137801D01*
X-50923Y136352D01*
X-50780Y134903D01*
X-50358Y133510D01*
X-49672Y132226D01*
X-48748Y131100D01*
X-47622Y130177D01*
X-46338Y129490D01*
X-44945Y129068D01*
X-43496Y128925D01*
X-42047Y129068D01*
X-40654Y129490D01*
X-39370Y130177D01*
X-38244Y131100D01*
X-37321Y132226D01*
X-36634Y133510D01*
X-36212Y134903D01*
X-36069Y136352D01*
X-36212Y137801D01*
X-36634Y139194D01*
X-37321Y140478D01*
X-38244Y141604D01*
X-39370Y142527D01*
X-40654Y143214D01*
X-42047Y143636D01*
X-43496Y143779D01*
D02*
G37*
G36*
X96268Y134587D02*
X94992Y134462D01*
X93766Y134090D01*
X92636Y133486D01*
X91645Y132673D01*
X90832Y131682D01*
X90228Y130552D01*
X89856Y129326D01*
X89731Y128050D01*
X89856Y126775D01*
X90228Y125549D01*
X90832Y124419D01*
X91645Y123428D01*
X92636Y122615D01*
X93766Y122011D01*
X94992Y121639D01*
X96268Y121513D01*
X97543Y121639D01*
X98769Y122011D01*
X99900Y122615D01*
X100890Y123428D01*
X101703Y124419D01*
X102307Y125549D01*
X102679Y126775D01*
X102805Y128050D01*
X102679Y129326D01*
X102307Y130552D01*
X101703Y131682D01*
X100890Y132673D01*
X99900Y133486D01*
X98769Y134090D01*
X97543Y134462D01*
X96268Y134587D01*
D02*
G37*
G36*
X-96606D02*
X-97882Y134462D01*
X-99108Y134090D01*
X-100238Y133486D01*
X-101229Y132673D01*
X-102042Y131682D01*
X-102646Y130552D01*
X-103018Y129326D01*
X-103143Y128050D01*
X-103018Y126775D01*
X-102646Y125549D01*
X-102042Y124419D01*
X-101229Y123428D01*
X-100238Y122615D01*
X-99108Y122011D01*
X-97882Y121639D01*
X-96606Y121513D01*
X-95331Y121639D01*
X-94105Y122011D01*
X-92975Y122615D01*
X-91984Y123428D01*
X-91171Y124419D01*
X-90567Y125549D01*
X-90195Y126775D01*
X-90069Y128050D01*
X-90195Y129326D01*
X-90567Y130552D01*
X-91171Y131682D01*
X-91984Y132673D01*
X-92975Y133486D01*
X-94105Y134090D01*
X-95331Y134462D01*
X-96606Y134587D01*
D02*
G37*
G36*
X74496Y125275D02*
X73047Y125132D01*
X71654Y124710D01*
X70370Y124023D01*
X69244Y123100D01*
X68321Y121974D01*
X67634Y120690D01*
X67212Y119297D01*
X67069Y117848D01*
X67212Y116399D01*
X67634Y115006D01*
X68321Y113722D01*
X69244Y112596D01*
X70370Y111673D01*
X71654Y110986D01*
X73047Y110564D01*
X74496Y110421D01*
X75945Y110564D01*
X77338Y110986D01*
X78622Y111673D01*
X79748Y112596D01*
X80672Y113722D01*
X81358Y115006D01*
X81780Y116399D01*
X81923Y117848D01*
X81780Y119297D01*
X81358Y120690D01*
X80672Y121974D01*
X79748Y123100D01*
X78622Y124023D01*
X77338Y124710D01*
X75945Y125132D01*
X74496Y125275D01*
D02*
G37*
G36*
X106699Y70695D02*
X105875Y70586D01*
X105106Y70268D01*
X104446Y69762D01*
X103940Y69102D01*
X103660Y68426D01*
X99700D01*
Y70200D01*
X96100D01*
Y65400D01*
X99700D01*
Y66591D01*
X103660D01*
X103940Y65916D01*
X104446Y65256D01*
X105106Y64749D01*
X105875Y64431D01*
X106699Y64322D01*
X107524Y64431D01*
X108292Y64749D01*
X108952Y65256D01*
X109459Y65916D01*
X109777Y66684D01*
X109886Y67509D01*
X109777Y68333D01*
X109459Y69102D01*
X108952Y69762D01*
X108292Y70268D01*
X107524Y70586D01*
X106699Y70695D01*
D02*
G37*
G36*
X14900Y69117D02*
X14848D01*
X14076Y68963D01*
X13981Y68900D01*
X12500D01*
Y67117D01*
X7800D01*
Y68900D01*
X6266D01*
X6172Y68963D01*
X5400Y69117D01*
X4628Y68963D01*
X4534Y68900D01*
X3000D01*
Y67117D01*
X-3100D01*
X-3872Y66963D01*
X-4526Y66526D01*
X-5872Y65180D01*
X-6310Y64525D01*
X-6463Y63754D01*
Y60554D01*
X-6818D01*
Y57937D01*
X-11616D01*
Y58587D01*
X-14784D01*
Y57109D01*
X-15063Y56691D01*
X-15217Y55920D01*
X-15063Y55148D01*
X-14784Y54730D01*
Y53253D01*
X-11616D01*
Y53903D01*
X-6818D01*
Y53646D01*
X-5660D01*
Y47021D01*
X-5660Y47021D01*
X-5568Y46556D01*
X-5305Y46163D01*
X-4948Y45806D01*
Y44453D01*
X2748D01*
Y45806D01*
X3758Y46816D01*
X3758Y46816D01*
X4022Y47210D01*
X4114Y47675D01*
X4114Y47675D01*
Y53646D01*
X4618D01*
Y60554D01*
X-125D01*
Y53646D01*
X1686D01*
Y48177D01*
X1524Y48015D01*
X114D01*
Y49395D01*
X198Y49451D01*
X595Y50046D01*
X735Y50748D01*
X595Y51451D01*
X198Y52046D01*
X-398Y52444D01*
X-1100Y52584D01*
X-1802Y52444D01*
X-2398Y52046D01*
X-2733Y51545D01*
X-3208Y51618D01*
X-3232Y51628D01*
Y53646D01*
X-2075D01*
Y60554D01*
X-2430D01*
Y62918D01*
X-2265Y63083D01*
X14670D01*
X14785Y63106D01*
X14900Y63083D01*
X23104D01*
X26013Y60174D01*
X26668Y59737D01*
X27439Y59583D01*
X44296D01*
Y56757D01*
X58882D01*
Y65043D01*
X44296D01*
Y63617D01*
X28275D01*
X25365Y66526D01*
X24711Y66963D01*
X23939Y67117D01*
X17300D01*
Y68900D01*
X15766D01*
X15672Y68963D01*
X14900Y69117D01*
D02*
G37*
G36*
X-77512Y155743D02*
X-78455Y155619D01*
X-79333Y155255D01*
X-80088Y154676D01*
X-80667Y153921D01*
X-81031Y153043D01*
X-81155Y152100D01*
X-81031Y151157D01*
X-80667Y150279D01*
X-80088Y149524D01*
X-79333Y148945D01*
X-78455Y148581D01*
X-77512Y148457D01*
X-76569Y148581D01*
X-76433Y148637D01*
X-16113Y88317D01*
Y83368D01*
X-16122Y83358D01*
X-16559Y82704D01*
X-16713Y81932D01*
Y66632D01*
X-16559Y65861D01*
X-16122Y65206D01*
X-16004Y65127D01*
X-15083Y64206D01*
X-15063Y64109D01*
X-14784Y63691D01*
Y62213D01*
X-11616D01*
Y63691D01*
X-11337Y64109D01*
X-11183Y64880D01*
Y65176D01*
X-11337Y65947D01*
X-11616Y66365D01*
Y67547D01*
X-12679D01*
Y81097D01*
X-12670Y81106D01*
X-12233Y81761D01*
X-12079Y82532D01*
Y89152D01*
X-12233Y89924D01*
X-12670Y90578D01*
X-73906Y151814D01*
X-73869Y152100D01*
X-73993Y153043D01*
X-74357Y153921D01*
X-74936Y154676D01*
X-75690Y155255D01*
X-76569Y155619D01*
X-77512Y155743D01*
D02*
G37*
G36*
X106699Y60852D02*
X105875Y60744D01*
X105106Y60426D01*
X104446Y59919D01*
X103940Y59259D01*
X103621Y58491D01*
X103513Y57666D01*
X103621Y56841D01*
X103901Y56166D01*
X102953Y55218D01*
X81800D01*
X81449Y55148D01*
X81151Y54949D01*
X76679Y50477D01*
X41059D01*
X40708Y50407D01*
X40410Y50208D01*
X34833Y44631D01*
X34634Y44333D01*
X34564Y43982D01*
Y38121D01*
X30926D01*
X30719Y38621D01*
X32149Y40051D01*
X32348Y40349D01*
X32418Y40700D01*
Y42748D01*
X32798Y43002D01*
X33196Y43598D01*
X33335Y44300D01*
X33196Y45002D01*
X32798Y45598D01*
X32202Y45996D01*
X31500Y46135D01*
X30798Y45996D01*
X30202Y45598D01*
X29804Y45002D01*
X29665Y44300D01*
X29804Y43598D01*
X30202Y43002D01*
X30582Y42748D01*
Y41080D01*
X27040Y37537D01*
X26539Y37744D01*
Y38121D01*
X24317D01*
Y43100D01*
X24248Y43451D01*
X24049Y43749D01*
X23449Y44349D01*
X23151Y44548D01*
X22800Y44618D01*
Y46400D01*
X18000D01*
Y42800D01*
X21211D01*
X21300Y42782D01*
X22420D01*
X22482Y42720D01*
Y38121D01*
X20418D01*
Y34881D01*
X20418Y34559D01*
X20418Y34059D01*
Y33518D01*
X13400D01*
X13400Y33518D01*
X4780D01*
X3049Y35249D01*
X2751Y35448D01*
X2400Y35518D01*
X-1720D01*
X-2352Y36150D01*
Y37085D01*
X-2370Y37174D01*
Y37370D01*
X-1870Y37499D01*
X-1749Y37317D01*
X-1451Y37118D01*
X-1100Y37049D01*
X1459D01*
X1810Y37118D01*
X2108Y37317D01*
X2307Y37615D01*
X2377Y37966D01*
X2307Y38317D01*
X2108Y38615D01*
X1810Y38814D01*
X1459Y38884D01*
X-1100D01*
X-1451Y38814D01*
X-1749Y38615D01*
X-1870Y38434D01*
X-2370Y38562D01*
Y39747D01*
X-4948D01*
Y36185D01*
X-4188D01*
Y35770D01*
X-4118Y35419D01*
X-3919Y35121D01*
X-2749Y33951D01*
X-2451Y33752D01*
X-2100Y33682D01*
X2020D01*
X3751Y31951D01*
X4049Y31752D01*
X4400Y31682D01*
X4884D01*
X5359Y31621D01*
Y28059D01*
X5359D01*
Y27881D01*
X5359D01*
Y24319D01*
X5359D01*
Y24141D01*
X5359D01*
Y20579D01*
X7427D01*
X7549Y20497D01*
X8321Y20343D01*
X12273D01*
Y17677D01*
X11529Y16933D01*
X10819D01*
Y16047D01*
X10737Y15924D01*
X10583Y15152D01*
X10703Y14549D01*
X9816Y14182D01*
X8662Y13297D01*
X8073Y12529D01*
X8077Y12526D01*
X7883Y12235D01*
X7760Y11617D01*
X7883Y10999D01*
X8233Y10475D01*
X8443Y10334D01*
Y9733D01*
X8233Y9593D01*
X7883Y9069D01*
X7760Y8450D01*
X7883Y7832D01*
X8077Y7542D01*
X8073Y7539D01*
X8207Y7364D01*
X7986Y6915D01*
X1429D01*
X811Y6792D01*
X287Y6442D01*
X-542Y5613D01*
X-892Y5089D01*
X-1015Y4471D01*
Y-4478D01*
X-1096Y-4598D01*
X-1235Y-5300D01*
X-1096Y-6002D01*
X-698Y-6598D01*
X-102Y-6996D01*
X600Y-7135D01*
X1302Y-6996D01*
X1898Y-6598D01*
X2296Y-6002D01*
X2435Y-5300D01*
X2296Y-4598D01*
X2215Y-4478D01*
Y3685D01*
X10819D01*
Y3519D01*
X14381D01*
Y5470D01*
X15384Y5886D01*
X16538Y6771D01*
X17127Y7539D01*
X17123Y7542D01*
X17317Y7832D01*
X17440Y8450D01*
X17317Y9069D01*
X16967Y9593D01*
X16757Y9733D01*
Y10334D01*
X16967Y10475D01*
X17317Y10999D01*
X17440Y11617D01*
X17317Y12235D01*
X17123Y12526D01*
X17127Y12529D01*
X16538Y13297D01*
X15384Y14182D01*
X15162Y14274D01*
X15065Y14764D01*
X15716Y15416D01*
X16153Y16070D01*
X16306Y16842D01*
Y20343D01*
X19423D01*
X21474Y18292D01*
X22128Y17855D01*
X22900Y17702D01*
X23672Y17855D01*
X24326Y18292D01*
X24905Y18871D01*
X25342Y19525D01*
X25496Y20297D01*
Y26843D01*
X33321D01*
X34093Y26997D01*
X34216Y27079D01*
X36382D01*
Y30641D01*
X34216D01*
X34093Y30723D01*
X33321Y30876D01*
X26539D01*
Y34059D01*
X26539Y34381D01*
X26539Y34881D01*
Y35423D01*
X27140D01*
X27491Y35492D01*
X27789Y35691D01*
X29761Y37663D01*
X30261Y37456D01*
Y34559D01*
X36382D01*
Y37133D01*
X36399Y37221D01*
Y43602D01*
X41439Y48641D01*
X77059D01*
X77410Y48711D01*
X77708Y48910D01*
X82180Y53382D01*
X103333D01*
X103684Y53452D01*
X103982Y53651D01*
X105199Y54868D01*
X105875Y54588D01*
X106699Y54480D01*
X107524Y54588D01*
X108292Y54907D01*
X108952Y55413D01*
X109459Y56073D01*
X109777Y56841D01*
X109886Y57666D01*
X109777Y58491D01*
X109459Y59259D01*
X108952Y59919D01*
X108292Y60426D01*
X107524Y60744D01*
X106699Y60852D01*
D02*
G37*
G36*
Y51010D02*
X105875Y50901D01*
X105106Y50583D01*
X104446Y50077D01*
X103940Y49417D01*
X103660Y48741D01*
X99700D01*
Y49700D01*
X96100D01*
Y44900D01*
X99700D01*
Y46906D01*
X103660D01*
X103940Y46231D01*
X104446Y45571D01*
X105106Y45064D01*
X105875Y44746D01*
X106699Y44637D01*
X107524Y44746D01*
X108292Y45064D01*
X108952Y45571D01*
X109459Y46231D01*
X109777Y46999D01*
X109886Y47824D01*
X109777Y48648D01*
X109459Y49417D01*
X108952Y50077D01*
X108292Y50583D01*
X107524Y50901D01*
X106699Y51010D01*
D02*
G37*
G36*
X7400Y49435D02*
X6698Y49296D01*
X6102Y48898D01*
X5704Y48302D01*
X5565Y47600D01*
X5704Y46898D01*
X6102Y46302D01*
X6186Y46246D01*
Y42500D01*
X5600D01*
Y37700D01*
X6266D01*
X6278Y37635D01*
X6520Y37274D01*
X6204Y36802D01*
X6065Y36100D01*
X6204Y35398D01*
X6602Y34802D01*
X7198Y34404D01*
X7900Y34265D01*
X8602Y34404D01*
X9198Y34802D01*
X9596Y35398D01*
X9735Y36100D01*
X9596Y36802D01*
X9302Y37242D01*
X9200Y37700D01*
X9200Y37700D01*
X9200Y37700D01*
Y42500D01*
X8614D01*
Y46246D01*
X8698Y46302D01*
X9096Y46898D01*
X9235Y47600D01*
X9096Y48302D01*
X8698Y48898D01*
X8102Y49296D01*
X7400Y49435D01*
D02*
G37*
G36*
X114464Y37880D02*
X108737D01*
Y33727D01*
X114464D01*
Y37880D01*
D02*
G37*
G36*
X102063D02*
X96335D01*
Y33727D01*
X102063D01*
Y37880D01*
D02*
G37*
G36*
X99701Y33156D02*
X94761D01*
Y31415D01*
X90600D01*
Y31600D01*
X85800D01*
Y28000D01*
X88762D01*
X88954Y27538D01*
X88516Y27100D01*
X86000D01*
Y26514D01*
X79000D01*
X79000Y26514D01*
X78535Y26421D01*
X78142Y26158D01*
X78142Y26158D01*
X73142Y21158D01*
X72878Y20764D01*
X72786Y20300D01*
X72786Y20300D01*
Y12900D01*
X72786Y12900D01*
X72878Y12436D01*
X73142Y12042D01*
X74342Y10842D01*
X74342Y10842D01*
X74735Y10578D01*
X75200Y10486D01*
X75200Y10486D01*
X81797D01*
X82984Y9299D01*
X82965Y9200D01*
X83104Y8498D01*
X83502Y7902D01*
X84098Y7504D01*
X84800Y7365D01*
X85502Y7504D01*
X86098Y7902D01*
X86496Y8498D01*
X86635Y9200D01*
X86496Y9902D01*
X86098Y10498D01*
X85502Y10896D01*
X84800Y11035D01*
X84701Y11016D01*
X83158Y12558D01*
X82765Y12822D01*
X82300Y12914D01*
X82300Y12914D01*
X75703D01*
X75214Y13403D01*
Y19797D01*
X79503Y24086D01*
X86000D01*
Y23500D01*
X90800D01*
Y24816D01*
X92765Y26781D01*
X93116Y27305D01*
X93239Y27923D01*
Y28185D01*
X94761D01*
Y26444D01*
X99701D01*
Y33156D01*
D02*
G37*
G36*
X-8100Y33935D02*
X-8802Y33796D01*
X-9398Y33398D01*
X-9796Y32802D01*
X-9845Y32552D01*
X-9965Y32373D01*
X-10118Y31602D01*
X-9965Y30830D01*
X-9527Y30176D01*
X-7766Y28414D01*
X-7112Y27977D01*
X-6340Y27823D01*
X-1521D01*
X-750Y27977D01*
X-627Y28059D01*
X1441D01*
Y31621D01*
X-627D01*
X-750Y31703D01*
X-1521Y31857D01*
X-5505D01*
X-6393Y32745D01*
X-6404Y32802D01*
X-6802Y33398D01*
X-7398Y33796D01*
X-8100Y33935D01*
D02*
G37*
G36*
X-102357Y69282D02*
X-110643D01*
Y54696D01*
X-104529D01*
X-104335Y54657D01*
X-84530D01*
X-68859Y38986D01*
X-69012Y38433D01*
X-69980Y38139D01*
X-71110Y37535D01*
X-72100Y36722D01*
X-72913Y35732D01*
X-73517Y34602D01*
X-73889Y33375D01*
X-74015Y32100D01*
X-73889Y30825D01*
X-73517Y29598D01*
X-72913Y28468D01*
X-72100Y27478D01*
X-71110Y26665D01*
X-69980Y26061D01*
X-68753Y25689D01*
X-67478Y25563D01*
X-66203Y25689D01*
X-64976Y26061D01*
X-63846Y26665D01*
X-62856Y27478D01*
X-62043Y28468D01*
X-61439Y29598D01*
X-61253Y30209D01*
X-60675Y30393D01*
X-60470Y30234D01*
Y29132D01*
X-60316Y28360D01*
X-59879Y27706D01*
X-56346Y24173D01*
Y22085D01*
X-48257D01*
Y27025D01*
X-53495D01*
X-56437Y29967D01*
Y31433D01*
X-56590Y32204D01*
X-57027Y32859D01*
X-82269Y58100D01*
X-82923Y58537D01*
X-83695Y58691D01*
X-102357D01*
Y69282D01*
D02*
G37*
G36*
X114464Y25872D02*
X108737D01*
Y21720D01*
X114464D01*
Y25872D01*
D02*
G37*
G36*
X102063D02*
X96335D01*
Y21720D01*
X102063D01*
Y25872D01*
D02*
G37*
G36*
X62200Y37715D02*
X60539Y37551D01*
X58941Y37067D01*
X57469Y36280D01*
X56179Y35221D01*
X55120Y33931D01*
X54333Y32459D01*
X53849Y30861D01*
X53685Y29200D01*
X53849Y27539D01*
X54333Y25941D01*
X55120Y24469D01*
X56179Y23179D01*
X57469Y22120D01*
X58941Y21333D01*
X60539Y20849D01*
X62200Y20685D01*
X63861Y20849D01*
X65459Y21333D01*
X66931Y22120D01*
X68221Y23179D01*
X69280Y24469D01*
X70067Y25941D01*
X70551Y27539D01*
X70715Y29200D01*
X70551Y30861D01*
X70067Y32459D01*
X69280Y33931D01*
X68221Y35221D01*
X66931Y36280D01*
X65459Y37067D01*
X63861Y37551D01*
X62200Y37715D01*
D02*
G37*
G36*
X1441Y24141D02*
X-4484D01*
Y20579D01*
X1441D01*
Y24141D01*
D02*
G37*
G36*
X116039Y33156D02*
X111099D01*
Y26444D01*
X116039D01*
Y28586D01*
X116686D01*
Y20534D01*
X104880D01*
X104880Y20534D01*
X104415Y20442D01*
X104021Y20179D01*
X104021Y20178D01*
X102042Y18199D01*
X101778Y17805D01*
X101686Y17341D01*
X101686Y17340D01*
Y16100D01*
X100500D01*
Y12500D01*
X105300D01*
Y16100D01*
X104114D01*
Y16838D01*
X105383Y18106D01*
X117208D01*
X117208Y18106D01*
X117673Y18199D01*
X118067Y18462D01*
X118758Y19154D01*
X118758Y19154D01*
X119021Y19548D01*
X119114Y20012D01*
X119114Y20012D01*
Y29108D01*
X119114Y29108D01*
X119021Y29573D01*
X118758Y29967D01*
X118758Y29967D01*
X118067Y30658D01*
X117673Y30922D01*
X117208Y31014D01*
X117208Y31014D01*
X116039D01*
Y33156D01*
D02*
G37*
G36*
X115200Y16181D02*
X114196Y16049D01*
X113259Y15661D01*
X112456Y15044D01*
X111839Y14241D01*
X111451Y13305D01*
X111319Y12300D01*
X111451Y11295D01*
X111839Y10359D01*
X112456Y9556D01*
X113259Y8939D01*
X114196Y8551D01*
X115200Y8419D01*
X116205Y8551D01*
X117141Y8939D01*
X117944Y9556D01*
X118561Y10359D01*
X118949Y11295D01*
X119081Y12300D01*
X118949Y13305D01*
X118561Y14241D01*
X117944Y15044D01*
X117141Y15661D01*
X116205Y16049D01*
X115200Y16181D01*
D02*
G37*
G36*
X-104179Y148244D02*
X-105003Y148135D01*
X-105772Y147817D01*
X-106432Y147311D01*
X-106938Y146651D01*
X-107256Y145882D01*
X-107365Y145057D01*
X-107256Y144233D01*
X-106938Y143464D01*
X-106432Y142804D01*
X-105772Y142298D01*
X-105003Y141980D01*
X-104179Y141871D01*
X-103354Y141980D01*
X-102586Y142298D01*
X-101926Y142804D01*
X-101744Y143041D01*
X-87193D01*
X-54017Y109865D01*
Y64843D01*
X-58704D01*
Y56557D01*
X-53428D01*
Y54311D01*
X-53274Y53539D01*
X-52837Y52885D01*
X-44231Y44279D01*
Y15793D01*
X-51109Y8915D01*
X-56346D01*
Y3975D01*
X-48257D01*
Y6063D01*
X-40788Y13531D01*
X-40351Y14186D01*
X-40198Y14957D01*
Y45114D01*
X-40351Y45886D01*
X-40788Y46540D01*
X-49394Y55146D01*
Y56557D01*
X-44118D01*
Y64843D01*
X-49983D01*
Y110700D01*
X-50137Y111472D01*
X-50574Y112126D01*
X-84931Y146484D01*
X-85586Y146921D01*
X-86357Y147074D01*
X-101744D01*
X-101926Y147311D01*
X-102586Y147817D01*
X-103354Y148135D01*
X-104179Y148244D01*
D02*
G37*
G36*
X-115200Y9181D02*
X-116205Y9049D01*
X-117141Y8661D01*
X-117944Y8044D01*
X-118561Y7241D01*
X-118949Y6305D01*
X-119081Y5300D01*
X-118949Y4295D01*
X-118561Y3359D01*
X-117944Y2556D01*
X-117141Y1939D01*
X-116205Y1551D01*
X-115200Y1419D01*
X-114196Y1551D01*
X-113259Y1939D01*
X-112456Y2556D01*
X-111839Y3359D01*
X-111451Y4295D01*
X-111319Y5300D01*
X-111451Y6305D01*
X-111839Y7241D01*
X-112456Y8044D01*
X-113259Y8661D01*
X-114196Y9049D01*
X-115200Y9181D01*
D02*
G37*
G36*
X115200Y6181D02*
X114196Y6049D01*
X113259Y5661D01*
X112456Y5044D01*
X111839Y4241D01*
X111451Y3305D01*
X111319Y2300D01*
X111451Y1295D01*
X111839Y359D01*
X111892Y290D01*
X110520Y-1082D01*
X60952D01*
X60698Y-702D01*
X60102Y-304D01*
X59400Y-165D01*
X58698Y-304D01*
X58102Y-702D01*
X57848Y-1082D01*
X35406D01*
X35400Y-1081D01*
X35048Y-1151D01*
X34750Y-1350D01*
X21850Y-14250D01*
X21651Y-14548D01*
X21581Y-14900D01*
Y-36949D01*
X21202Y-37202D01*
X20804Y-37798D01*
X20665Y-38500D01*
X20804Y-39202D01*
X21202Y-39798D01*
X21798Y-40196D01*
X22500Y-40335D01*
X23202Y-40196D01*
X23798Y-39798D01*
X24196Y-39202D01*
X24335Y-38500D01*
X24196Y-37798D01*
X23798Y-37202D01*
X23419Y-36949D01*
Y-15281D01*
X35782Y-2918D01*
X57848D01*
X58102Y-3298D01*
X58698Y-3696D01*
X59400Y-3835D01*
X60102Y-3696D01*
X60698Y-3298D01*
X60952Y-2918D01*
X110900D01*
X111251Y-2848D01*
X111549Y-2649D01*
X113190Y-1008D01*
X113259Y-1061D01*
X114196Y-1449D01*
X115200Y-1581D01*
X116205Y-1449D01*
X117141Y-1061D01*
X117944Y-444D01*
X118561Y359D01*
X118949Y1295D01*
X119081Y2300D01*
X118949Y3305D01*
X118561Y4241D01*
X117944Y5044D01*
X117141Y5661D01*
X116205Y6049D01*
X115200Y6181D01*
D02*
G37*
G36*
X-103000Y335D02*
X-103702Y196D01*
X-104298Y-202D01*
X-104696Y-798D01*
X-104835Y-1500D01*
X-104696Y-2202D01*
X-104298Y-2798D01*
X-103702Y-3196D01*
X-103000Y-3335D01*
X-102298Y-3196D01*
X-101702Y-2798D01*
X-101304Y-2202D01*
X-101165Y-1500D01*
X-101304Y-798D01*
X-101702Y-202D01*
X-102298Y196D01*
X-103000Y335D01*
D02*
G37*
G36*
X-115200Y-819D02*
X-116205Y-951D01*
X-117141Y-1339D01*
X-117944Y-1956D01*
X-118561Y-2759D01*
X-118949Y-3695D01*
X-119081Y-4700D01*
X-118949Y-5705D01*
X-118561Y-6641D01*
X-117944Y-7444D01*
X-117141Y-8061D01*
X-116205Y-8449D01*
X-115200Y-8581D01*
X-114196Y-8449D01*
X-113259Y-8061D01*
X-112456Y-7444D01*
X-111839Y-6641D01*
X-111451Y-5705D01*
X-111319Y-4700D01*
X-111451Y-3695D01*
X-111839Y-2759D01*
X-112456Y-1956D01*
X-113259Y-1339D01*
X-114196Y-951D01*
X-115200Y-819D01*
D02*
G37*
G36*
X115200Y-3819D02*
X114196Y-3951D01*
X113259Y-4339D01*
X112456Y-4956D01*
X111839Y-5759D01*
X111538Y-6486D01*
X101855D01*
X101391Y-6578D01*
X100997Y-6842D01*
X100997Y-6842D01*
X98953Y-8886D01*
X86800D01*
X86800Y-8886D01*
X86335Y-8979D01*
X85942Y-9242D01*
X85942Y-9242D01*
X84999Y-10184D01*
X84900Y-10165D01*
X84198Y-10304D01*
X83602Y-10702D01*
X83204Y-11298D01*
X83065Y-12000D01*
X83204Y-12702D01*
X83602Y-13298D01*
X84198Y-13696D01*
X84900Y-13835D01*
X85602Y-13696D01*
X86198Y-13298D01*
X86596Y-12702D01*
X86735Y-12000D01*
X86716Y-11901D01*
X87303Y-11314D01*
X99455D01*
X99455Y-11314D01*
X99920Y-11221D01*
X100314Y-10958D01*
X102358Y-8914D01*
X111538D01*
X111839Y-9641D01*
X112456Y-10444D01*
X113259Y-11061D01*
X114196Y-11449D01*
X115200Y-11581D01*
X116205Y-11449D01*
X117141Y-11061D01*
X117944Y-10444D01*
X118561Y-9641D01*
X118949Y-8704D01*
X119081Y-7700D01*
X118949Y-6696D01*
X118561Y-5759D01*
X117944Y-4956D01*
X117141Y-4339D01*
X116205Y-3951D01*
X115200Y-3819D01*
D02*
G37*
G36*
X55100Y-10673D02*
X54291Y-10780D01*
X53537Y-11092D01*
X52889Y-11589D01*
X52392Y-12237D01*
X52080Y-12991D01*
X51973Y-13800D01*
X52071Y-14544D01*
X48661Y-17955D01*
X48311Y-18479D01*
X48188Y-19097D01*
Y-21185D01*
X48219Y-21341D01*
Y-21936D01*
X47216Y-22352D01*
X46062Y-23237D01*
X45473Y-24005D01*
X45477Y-24008D01*
X45283Y-24298D01*
X45160Y-24917D01*
X45283Y-25535D01*
X45633Y-26059D01*
X45843Y-26199D01*
Y-26801D01*
X45633Y-26941D01*
X45283Y-27465D01*
X45160Y-28083D01*
X45283Y-28701D01*
X45477Y-28992D01*
X45473Y-28995D01*
X46062Y-29763D01*
X47216Y-30648D01*
X48219Y-31064D01*
Y-33015D01*
X48385D01*
Y-44700D01*
X48508Y-45318D01*
X48858Y-45842D01*
X49382Y-46192D01*
X50000Y-46315D01*
X64331D01*
X66746Y-48731D01*
X66693Y-48860D01*
X66569Y-49800D01*
X66693Y-50740D01*
X67055Y-51616D01*
X67632Y-52368D01*
X68384Y-52945D01*
X69260Y-53307D01*
X70200Y-53431D01*
X71140Y-53307D01*
X72016Y-52945D01*
X72768Y-52368D01*
X73345Y-51616D01*
X73707Y-50740D01*
X73831Y-49800D01*
X73707Y-48860D01*
X73345Y-47984D01*
X72768Y-47232D01*
X72016Y-46655D01*
X71140Y-46293D01*
X70200Y-46169D01*
X69260Y-46293D01*
X68989Y-46405D01*
X66142Y-43558D01*
X65618Y-43208D01*
X65000Y-43085D01*
X51615D01*
Y-33015D01*
X51781D01*
Y-31064D01*
X52785Y-30648D01*
X53938Y-29763D01*
X54527Y-28995D01*
X54523Y-28992D01*
X54717Y-28701D01*
X54840Y-28083D01*
X54717Y-27465D01*
X54367Y-26941D01*
X54157Y-26801D01*
Y-26199D01*
X54367Y-26059D01*
X54717Y-25535D01*
X54840Y-24917D01*
X54717Y-24298D01*
X54523Y-24008D01*
X54527Y-24005D01*
X53938Y-23237D01*
X52785Y-22352D01*
X51781Y-21936D01*
Y-19601D01*
X51781Y-19601D01*
X51781D01*
X51995Y-19190D01*
X54356Y-16829D01*
X55100Y-16927D01*
X55909Y-16820D01*
X56663Y-16508D01*
X57311Y-16011D01*
X57808Y-15363D01*
X58120Y-14609D01*
X58227Y-13800D01*
X58120Y-12991D01*
X57808Y-12237D01*
X57311Y-11589D01*
X56663Y-11092D01*
X55909Y-10780D01*
X55100Y-10673D01*
D02*
G37*
G36*
X-115200Y-10819D02*
X-116205Y-10951D01*
X-117141Y-11339D01*
X-117944Y-11956D01*
X-118561Y-12759D01*
X-118949Y-13695D01*
X-119081Y-14700D01*
X-118949Y-15705D01*
X-118561Y-16641D01*
X-117944Y-17444D01*
X-117141Y-18061D01*
X-116205Y-18449D01*
X-115200Y-18581D01*
X-114196Y-18449D01*
X-113259Y-18061D01*
X-112456Y-17444D01*
X-111839Y-16641D01*
X-111451Y-15705D01*
X-111319Y-14700D01*
X-111451Y-13695D01*
X-111839Y-12759D01*
X-112456Y-11956D01*
X-113259Y-11339D01*
X-114196Y-10951D01*
X-115200Y-10819D01*
D02*
G37*
G36*
Y-20819D02*
X-116205Y-20951D01*
X-117141Y-21339D01*
X-117944Y-21956D01*
X-118561Y-22759D01*
X-118949Y-23696D01*
X-119081Y-24700D01*
X-118949Y-25705D01*
X-118561Y-26641D01*
X-117944Y-27444D01*
X-117141Y-28061D01*
X-116205Y-28449D01*
X-115200Y-28581D01*
X-114196Y-28449D01*
X-113259Y-28061D01*
X-112456Y-27444D01*
X-111839Y-26641D01*
X-111451Y-25705D01*
X-111440Y-25618D01*
X-80780D01*
X-80046Y-26352D01*
X-80135Y-26800D01*
X-79996Y-27502D01*
X-79598Y-28098D01*
X-79002Y-28496D01*
X-78300Y-28635D01*
X-77598Y-28496D01*
X-77002Y-28098D01*
X-76604Y-27502D01*
X-76465Y-26800D01*
X-76604Y-26098D01*
X-77002Y-25502D01*
X-77598Y-25104D01*
X-78300Y-24965D01*
X-78748Y-25054D01*
X-79751Y-24051D01*
X-80049Y-23852D01*
X-80400Y-23782D01*
X-111440D01*
X-111451Y-23696D01*
X-111839Y-22759D01*
X-112456Y-21956D01*
X-113259Y-21339D01*
X-114196Y-20951D01*
X-115200Y-20819D01*
D02*
G37*
G36*
Y-30819D02*
X-116205Y-30951D01*
X-117141Y-31339D01*
X-117944Y-31956D01*
X-118561Y-32759D01*
X-118949Y-33696D01*
X-119081Y-34700D01*
X-118949Y-35704D01*
X-118561Y-36641D01*
X-117944Y-37444D01*
X-117141Y-38061D01*
X-116205Y-38449D01*
X-115200Y-38581D01*
X-114196Y-38449D01*
X-113259Y-38061D01*
X-112456Y-37444D01*
X-111864Y-36673D01*
X-80421D01*
X-80396Y-36802D01*
X-79998Y-37398D01*
X-79402Y-37796D01*
X-78700Y-37935D01*
X-77998Y-37796D01*
X-77402Y-37398D01*
X-77004Y-36802D01*
X-76865Y-36100D01*
X-77004Y-35398D01*
X-77402Y-34802D01*
X-77998Y-34404D01*
X-78700Y-34265D01*
X-79402Y-34404D01*
X-79998Y-34802D01*
X-80022Y-34838D01*
X-111198D01*
X-111319Y-34700D01*
X-111451Y-33696D01*
X-111839Y-32759D01*
X-112456Y-31956D01*
X-113259Y-31339D01*
X-114196Y-30951D01*
X-115200Y-30819D01*
D02*
G37*
G36*
X80200Y-36169D02*
X79260Y-36293D01*
X78385Y-36655D01*
X77632Y-37233D01*
X77055Y-37984D01*
X76693Y-38860D01*
X76569Y-39800D01*
X76693Y-40740D01*
X77055Y-41616D01*
X77632Y-42368D01*
X78385Y-42945D01*
X79260Y-43307D01*
X80200Y-43431D01*
X81140Y-43307D01*
X82016Y-42945D01*
X82768Y-42368D01*
X83345Y-41616D01*
X83707Y-40740D01*
X83831Y-39800D01*
X83707Y-38860D01*
X83345Y-37984D01*
X82768Y-37233D01*
X82016Y-36655D01*
X81140Y-36293D01*
X80200Y-36169D01*
D02*
G37*
G36*
X-115200Y-40819D02*
X-116205Y-40951D01*
X-117141Y-41339D01*
X-117944Y-41956D01*
X-118561Y-42759D01*
X-118949Y-43696D01*
X-119081Y-44700D01*
X-118949Y-45704D01*
X-118561Y-46641D01*
X-117944Y-47444D01*
X-117141Y-48061D01*
X-116205Y-48449D01*
X-115200Y-48581D01*
X-114196Y-48449D01*
X-113259Y-48061D01*
X-112456Y-47444D01*
X-111839Y-46641D01*
X-111451Y-45704D01*
X-111387Y-45218D01*
X-96180D01*
X-92949Y-48449D01*
X-92651Y-48648D01*
X-92300Y-48718D01*
X-80452D01*
X-80198Y-49098D01*
X-79602Y-49496D01*
X-78900Y-49635D01*
X-78198Y-49496D01*
X-77602Y-49098D01*
X-77204Y-48502D01*
X-77065Y-47800D01*
X-77204Y-47098D01*
X-77602Y-46502D01*
X-78198Y-46104D01*
X-78900Y-45965D01*
X-79602Y-46104D01*
X-80198Y-46502D01*
X-80452Y-46882D01*
X-91920D01*
X-95151Y-43651D01*
X-95449Y-43452D01*
X-95800Y-43382D01*
X-111581D01*
X-111839Y-42759D01*
X-112456Y-41956D01*
X-113259Y-41339D01*
X-114196Y-40951D01*
X-115200Y-40819D01*
D02*
G37*
G36*
X115200Y-43819D02*
X114196Y-43951D01*
X113259Y-44339D01*
X112456Y-44956D01*
X111839Y-45759D01*
X111451Y-46696D01*
X111319Y-47700D01*
X111451Y-48704D01*
X111839Y-49641D01*
X112456Y-50444D01*
X113259Y-51061D01*
X114196Y-51449D01*
X115200Y-51581D01*
X116205Y-51449D01*
X117141Y-51061D01*
X117944Y-50444D01*
X118561Y-49641D01*
X118949Y-48704D01*
X119081Y-47700D01*
X118949Y-46696D01*
X118561Y-45759D01*
X117944Y-44956D01*
X117141Y-44339D01*
X116205Y-43951D01*
X115200Y-43819D01*
D02*
G37*
G36*
X80200Y-46169D02*
X79260Y-46293D01*
X78385Y-46655D01*
X77632Y-47232D01*
X77055Y-47984D01*
X76693Y-48860D01*
X76569Y-49800D01*
X76693Y-50740D01*
X77055Y-51616D01*
X77632Y-52368D01*
X78385Y-52945D01*
X79260Y-53307D01*
X80200Y-53431D01*
X81140Y-53307D01*
X82016Y-52945D01*
X82768Y-52368D01*
X83345Y-51616D01*
X83707Y-50740D01*
X83831Y-49800D01*
X83707Y-48860D01*
X83345Y-47984D01*
X82768Y-47232D01*
X82016Y-46655D01*
X81140Y-46293D01*
X80200Y-46169D01*
D02*
G37*
G36*
X90600Y-54482D02*
X74600D01*
X74249Y-54552D01*
X73951Y-54751D01*
X72033Y-56669D01*
X72016Y-56655D01*
X71140Y-56293D01*
X70200Y-56169D01*
X69260Y-56293D01*
X68384Y-56655D01*
X67632Y-57232D01*
X67055Y-57985D01*
X66693Y-58860D01*
X66569Y-59800D01*
X66693Y-60740D01*
X67055Y-61616D01*
X67632Y-62368D01*
X68384Y-62945D01*
X69260Y-63307D01*
X70200Y-63431D01*
X71140Y-63307D01*
X72016Y-62945D01*
X72768Y-62368D01*
X73345Y-61616D01*
X73707Y-60740D01*
X73831Y-59800D01*
X73707Y-58860D01*
X73345Y-57985D01*
X73331Y-57967D01*
X74980Y-56318D01*
X78003D01*
X78173Y-56818D01*
X77632Y-57232D01*
X77055Y-57985D01*
X76693Y-58860D01*
X76569Y-59800D01*
X76693Y-60740D01*
X77055Y-61616D01*
X77632Y-62368D01*
X78385Y-62945D01*
X79260Y-63307D01*
X80200Y-63431D01*
X81140Y-63307D01*
X82016Y-62945D01*
X82768Y-62368D01*
X83345Y-61616D01*
X83707Y-60740D01*
X83831Y-59800D01*
X83707Y-58860D01*
X83345Y-57985D01*
X82768Y-57232D01*
X82227Y-56818D01*
X82397Y-56318D01*
X90220D01*
X91554Y-57652D01*
X91465Y-58100D01*
X91604Y-58802D01*
X92002Y-59398D01*
X92598Y-59796D01*
X93300Y-59935D01*
X94002Y-59796D01*
X94598Y-59398D01*
X94996Y-58802D01*
X95135Y-58100D01*
X94996Y-57398D01*
X94598Y-56802D01*
X94002Y-56404D01*
X93300Y-56265D01*
X92852Y-56354D01*
X91249Y-54751D01*
X90951Y-54552D01*
X90600Y-54482D01*
D02*
G37*
G36*
X-115200Y-50819D02*
X-116205Y-50951D01*
X-117141Y-51339D01*
X-117944Y-51956D01*
X-118561Y-52759D01*
X-118949Y-53695D01*
X-119081Y-54700D01*
X-118949Y-55704D01*
X-118561Y-56641D01*
X-117944Y-57444D01*
X-117141Y-58061D01*
X-116205Y-58449D01*
X-115200Y-58581D01*
X-114196Y-58449D01*
X-113259Y-58061D01*
X-112456Y-57444D01*
X-111839Y-56641D01*
X-111451Y-55704D01*
X-111319Y-54700D01*
X-111451Y-53695D01*
X-111839Y-52759D01*
X-112456Y-51956D01*
X-113259Y-51339D01*
X-114196Y-50951D01*
X-115200Y-50819D01*
D02*
G37*
G36*
X115200Y-53819D02*
X114196Y-53951D01*
X113259Y-54339D01*
X112456Y-54956D01*
X111839Y-55759D01*
X111451Y-56695D01*
X111319Y-57700D01*
X111451Y-58705D01*
X111839Y-59641D01*
X112456Y-60444D01*
X113259Y-61061D01*
X114196Y-61449D01*
X115200Y-61581D01*
X116205Y-61449D01*
X117141Y-61061D01*
X117944Y-60444D01*
X118561Y-59641D01*
X118949Y-58705D01*
X119081Y-57700D01*
X118949Y-56695D01*
X118561Y-55759D01*
X117944Y-54956D01*
X117141Y-54339D01*
X116205Y-53951D01*
X115200Y-53819D01*
D02*
G37*
G36*
X-89300Y-51285D02*
X-90961Y-51449D01*
X-92559Y-51933D01*
X-94031Y-52720D01*
X-95321Y-53779D01*
X-96380Y-55069D01*
X-97167Y-56541D01*
X-97651Y-58139D01*
X-97815Y-59800D01*
X-97651Y-61461D01*
X-97167Y-63059D01*
X-96380Y-64531D01*
X-95321Y-65821D01*
X-94031Y-66880D01*
X-92559Y-67667D01*
X-90961Y-68151D01*
X-89300Y-68315D01*
X-87639Y-68151D01*
X-86041Y-67667D01*
X-84569Y-66880D01*
X-83279Y-65821D01*
X-82220Y-64531D01*
X-81433Y-63059D01*
X-80949Y-61461D01*
X-80785Y-59800D01*
X-80949Y-58139D01*
X-81433Y-56541D01*
X-82220Y-55069D01*
X-83279Y-53779D01*
X-84569Y-52720D01*
X-86041Y-51933D01*
X-87639Y-51449D01*
X-89300Y-51285D01*
D02*
G37*
G36*
X-115200Y-60819D02*
X-116205Y-60951D01*
X-117141Y-61339D01*
X-117944Y-61956D01*
X-118561Y-62759D01*
X-118949Y-63696D01*
X-119081Y-64700D01*
X-118949Y-65705D01*
X-118561Y-66641D01*
X-117944Y-67444D01*
X-117141Y-68061D01*
X-116205Y-68449D01*
X-115200Y-68581D01*
X-114196Y-68449D01*
X-113259Y-68061D01*
X-112456Y-67444D01*
X-111839Y-66641D01*
X-111451Y-65705D01*
X-111319Y-64700D01*
X-111451Y-63696D01*
X-111839Y-62759D01*
X-112456Y-61956D01*
X-113259Y-61339D01*
X-114196Y-60951D01*
X-115200Y-60819D01*
D02*
G37*
G36*
X90800Y21100D02*
X86000D01*
Y17500D01*
X87482D01*
Y12700D01*
X87552Y12349D01*
X87751Y12051D01*
X89182Y10620D01*
Y7337D01*
X89051Y7249D01*
X85320Y3518D01*
X35700D01*
X35349Y3448D01*
X35051Y3249D01*
X22420Y-9382D01*
X6400D01*
X6049Y-9452D01*
X5751Y-9651D01*
X-9249Y-24651D01*
X-9448Y-24949D01*
X-9518Y-25300D01*
Y-66948D01*
X-9898Y-67202D01*
X-10296Y-67798D01*
X-10435Y-68500D01*
X-10296Y-69202D01*
X-9898Y-69798D01*
X-9302Y-70196D01*
X-8600Y-70335D01*
X-7898Y-70196D01*
X-7302Y-69798D01*
X-6904Y-69202D01*
X-6765Y-68500D01*
X-6904Y-67798D01*
X-7302Y-67202D01*
X-7682Y-66948D01*
Y-25680D01*
X6780Y-11218D01*
X22800D01*
X23151Y-11148D01*
X23449Y-10949D01*
X36080Y1682D01*
X85700D01*
X86051Y1752D01*
X86349Y1951D01*
X90080Y5682D01*
X90100D01*
X90451Y5752D01*
X90749Y5951D01*
X90948Y6249D01*
X91018Y6600D01*
Y11000D01*
X90948Y11351D01*
X90749Y11649D01*
X89318Y13080D01*
Y17500D01*
X90800D01*
Y21100D01*
D02*
G37*
G36*
X115200Y-63819D02*
X114196Y-63951D01*
X113259Y-64339D01*
X112456Y-64956D01*
X111839Y-65759D01*
X111451Y-66695D01*
X111319Y-67700D01*
X111451Y-68704D01*
X111839Y-69641D01*
X112456Y-70444D01*
X113259Y-71061D01*
X114196Y-71449D01*
X115200Y-71581D01*
X116205Y-71449D01*
X117141Y-71061D01*
X117944Y-70444D01*
X118561Y-69641D01*
X118949Y-68704D01*
X119081Y-67700D01*
X118949Y-66695D01*
X118561Y-65759D01*
X117944Y-64956D01*
X117141Y-64339D01*
X116205Y-63951D01*
X115200Y-63819D01*
D02*
G37*
G36*
X60700Y-68765D02*
X59998Y-68904D01*
X59402Y-69302D01*
X59004Y-69898D01*
X58865Y-70600D01*
X59004Y-71302D01*
X59402Y-71898D01*
X59998Y-72296D01*
X60700Y-72435D01*
X61402Y-72296D01*
X61998Y-71898D01*
X62396Y-71302D01*
X62535Y-70600D01*
X62396Y-69898D01*
X61998Y-69302D01*
X61402Y-68904D01*
X60700Y-68765D01*
D02*
G37*
G36*
X-106300Y-56965D02*
X-107002Y-57104D01*
X-107598Y-57502D01*
X-107996Y-58098D01*
X-108135Y-58800D01*
X-107996Y-59502D01*
X-107598Y-60098D01*
X-107218Y-60352D01*
Y-68520D01*
X-111391Y-72693D01*
X-111906Y-72672D01*
X-112456Y-71956D01*
X-113259Y-71339D01*
X-114196Y-70951D01*
X-115200Y-70819D01*
X-116205Y-70951D01*
X-117141Y-71339D01*
X-117944Y-71956D01*
X-118561Y-72759D01*
X-118949Y-73695D01*
X-119081Y-74700D01*
X-118949Y-75704D01*
X-118561Y-76641D01*
X-117944Y-77444D01*
X-117141Y-78061D01*
X-116205Y-78449D01*
X-115200Y-78581D01*
X-114196Y-78449D01*
X-113259Y-78061D01*
X-112456Y-77444D01*
X-111839Y-76641D01*
X-111451Y-75704D01*
X-111319Y-74700D01*
X-111204Y-74570D01*
X-111052D01*
X-110701Y-74500D01*
X-110403Y-74301D01*
X-105651Y-69549D01*
X-105452Y-69251D01*
X-105382Y-68900D01*
Y-60352D01*
X-105002Y-60098D01*
X-104604Y-59502D01*
X-104465Y-58800D01*
X-104604Y-58098D01*
X-105002Y-57502D01*
X-105598Y-57104D01*
X-106300Y-56965D01*
D02*
G37*
G36*
X-99900Y-74165D02*
X-100602Y-74304D01*
X-101198Y-74702D01*
X-101596Y-75298D01*
X-101735Y-76000D01*
X-101596Y-76702D01*
X-101198Y-77298D01*
X-100602Y-77696D01*
X-99900Y-77835D01*
X-99198Y-77696D01*
X-99081Y-77618D01*
X-86052D01*
X-85798Y-77998D01*
X-85202Y-78396D01*
X-84500Y-78535D01*
X-83798Y-78396D01*
X-83202Y-77998D01*
X-82804Y-77402D01*
X-82665Y-76700D01*
X-82804Y-75998D01*
X-83202Y-75402D01*
X-83798Y-75004D01*
X-84500Y-74865D01*
X-85202Y-75004D01*
X-85798Y-75402D01*
X-86052Y-75782D01*
X-98108D01*
X-98204Y-75298D01*
X-98602Y-74702D01*
X-99198Y-74304D01*
X-99900Y-74165D01*
D02*
G37*
G36*
X119048Y-73852D02*
X111352D01*
Y-81548D01*
X119048D01*
Y-73852D01*
D02*
G37*
G36*
X-32500Y-82165D02*
X-33202Y-82304D01*
X-33798Y-82702D01*
X-34196Y-83298D01*
X-34335Y-84000D01*
X-34316Y-84099D01*
X-49003Y-98786D01*
X-63890D01*
X-64500Y-98665D01*
X-65202Y-98804D01*
X-65798Y-99202D01*
X-66196Y-99798D01*
X-66335Y-100500D01*
X-66196Y-101202D01*
X-65798Y-101798D01*
X-65202Y-102196D01*
X-64500Y-102335D01*
X-63798Y-102196D01*
X-63202Y-101798D01*
X-62812Y-101214D01*
X-48500D01*
X-48500Y-101214D01*
X-48035Y-101121D01*
X-47642Y-100858D01*
X-32599Y-85816D01*
X-32500Y-85835D01*
X-31798Y-85696D01*
X-31202Y-85298D01*
X-30804Y-84702D01*
X-30665Y-84000D01*
X-30804Y-83298D01*
X-31202Y-82702D01*
X-31798Y-82304D01*
X-32500Y-82165D01*
D02*
G37*
G36*
X-111352Y-80852D02*
X-119048D01*
Y-88548D01*
X-111352D01*
Y-84918D01*
X-104580D01*
X-103203Y-86294D01*
X-103239Y-86830D01*
X-103498Y-87002D01*
X-103896Y-87598D01*
X-104035Y-88300D01*
X-103896Y-89002D01*
X-103498Y-89598D01*
X-102902Y-89996D01*
X-102200Y-90135D01*
X-101498Y-89996D01*
X-100902Y-89598D01*
X-100504Y-89002D01*
X-100365Y-88300D01*
X-100504Y-87598D01*
X-100902Y-87002D01*
X-101282Y-86748D01*
Y-86000D01*
X-101352Y-85649D01*
X-101551Y-85351D01*
X-103551Y-83351D01*
X-103849Y-83152D01*
X-104200Y-83082D01*
X-111352D01*
Y-80852D01*
D02*
G37*
G36*
X119564Y-89320D02*
X113837D01*
Y-93472D01*
X119564D01*
Y-89320D01*
D02*
G37*
G36*
X107163D02*
X101435D01*
Y-93472D01*
X107163D01*
Y-89320D01*
D02*
G37*
G36*
X-91000Y-80873D02*
X-91809Y-80980D01*
X-92563Y-81292D01*
X-93211Y-81789D01*
X-93708Y-82437D01*
X-94020Y-83191D01*
X-94127Y-84000D01*
X-94020Y-84809D01*
X-93836Y-85254D01*
X-94120Y-85539D01*
X-94470Y-86063D01*
X-94593Y-86681D01*
Y-88319D01*
X-94470Y-88937D01*
X-94120Y-89461D01*
X-92615Y-90966D01*
Y-91700D01*
X-93900D01*
Y-95300D01*
X-89100D01*
Y-91700D01*
X-89385D01*
Y-90297D01*
X-89508Y-89679D01*
X-89858Y-89155D01*
X-91363Y-87650D01*
Y-87506D01*
X-91000Y-87127D01*
X-90191Y-87020D01*
X-89437Y-86708D01*
X-88789Y-86211D01*
X-88292Y-85563D01*
X-87980Y-84809D01*
X-87873Y-84000D01*
X-87980Y-83191D01*
X-88292Y-82437D01*
X-88789Y-81789D01*
X-89437Y-81292D01*
X-90191Y-80980D01*
X-91000Y-80873D01*
D02*
G37*
G36*
X-98935Y-93720D02*
X-104663D01*
Y-97873D01*
X-98935D01*
Y-93720D01*
D02*
G37*
G36*
X-111337D02*
X-117065D01*
Y-97873D01*
X-111337D01*
Y-93720D01*
D02*
G37*
G36*
X97800Y-93100D02*
X93000D01*
Y-94573D01*
X92209D01*
X91858Y-94643D01*
X91561Y-94842D01*
X86648Y-99754D01*
X86200Y-99665D01*
X85498Y-99804D01*
X84902Y-100202D01*
X84504Y-100798D01*
X84365Y-101500D01*
X84504Y-102202D01*
X84902Y-102798D01*
X85498Y-103196D01*
X86200Y-103335D01*
X86902Y-103196D01*
X87498Y-102798D01*
X87896Y-102202D01*
X88035Y-101500D01*
X87946Y-101052D01*
X92500Y-96498D01*
X93000Y-96625D01*
Y-96700D01*
X94382D01*
Y-100300D01*
X92900D01*
Y-103900D01*
X97700D01*
Y-100300D01*
X96218D01*
Y-99713D01*
X99861D01*
Y-100756D01*
X104801D01*
Y-94044D01*
X99861D01*
Y-97878D01*
X96218D01*
Y-96700D01*
X97800D01*
Y-93100D01*
D02*
G37*
G36*
X119564Y-101328D02*
X113837D01*
Y-105480D01*
X119564D01*
Y-101328D01*
D02*
G37*
G36*
X107163D02*
X101435D01*
Y-105480D01*
X107163D01*
Y-101328D01*
D02*
G37*
G36*
X-3300Y-76987D02*
X-36800D01*
X-37188Y-77064D01*
X-37516Y-77284D01*
X-46720Y-86487D01*
X-72700D01*
X-73088Y-86564D01*
X-73416Y-86784D01*
X-87620Y-100987D01*
X-89100D01*
Y-97700D01*
X-93900D01*
Y-101300D01*
X-94324Y-101483D01*
X-94520D01*
X-94851Y-101151D01*
X-95149Y-100952D01*
X-95500Y-100882D01*
X-97361D01*
Y-98444D01*
X-102301D01*
Y-105156D01*
X-97361D01*
Y-102718D01*
X-95880D01*
X-95549Y-103049D01*
X-95251Y-103248D01*
X-94900Y-103318D01*
X-92817D01*
Y-104100D01*
X-94300D01*
Y-107700D01*
X-89500D01*
Y-104100D01*
X-90982D01*
Y-103013D01*
X-87200D01*
X-86812Y-102936D01*
X-86484Y-102717D01*
X-72280Y-88513D01*
X-46300D01*
X-45912Y-88436D01*
X-45584Y-88217D01*
X-36380Y-79013D01*
X-3720D01*
X4287Y-87020D01*
Y-109028D01*
X3905Y-109366D01*
X3900Y-109365D01*
X3198Y-109504D01*
X2602Y-109902D01*
X2204Y-110498D01*
X2065Y-111200D01*
X2204Y-111902D01*
X2602Y-112498D01*
X3198Y-112896D01*
X3900Y-113035D01*
X4602Y-112896D01*
X5198Y-112498D01*
X5596Y-111902D01*
X5735Y-111200D01*
X5619Y-110614D01*
X6016Y-110216D01*
X6236Y-109888D01*
X6313Y-109500D01*
Y-86600D01*
X6236Y-86212D01*
X6016Y-85884D01*
X-2584Y-77284D01*
X-2912Y-77064D01*
X-3300Y-76987D01*
D02*
G37*
G36*
X-3500Y-94873D02*
X-4309Y-94980D01*
X-5063Y-95292D01*
X-5711Y-95789D01*
X-6208Y-96437D01*
X-6520Y-97191D01*
X-6627Y-98000D01*
X-6520Y-98809D01*
X-6208Y-99563D01*
X-5711Y-100211D01*
X-5517Y-100360D01*
Y-104479D01*
X-6069D01*
Y-109616D01*
X-932D01*
Y-104479D01*
X-1483D01*
Y-100360D01*
X-1289Y-100211D01*
X-792Y-99563D01*
X-480Y-98809D01*
X-373Y-98000D01*
X-480Y-97191D01*
X-792Y-96437D01*
X-1289Y-95789D01*
X-1937Y-95292D01*
X-2691Y-94980D01*
X-3500Y-94873D01*
D02*
G37*
G36*
X-98935Y-105728D02*
X-104663D01*
Y-109880D01*
X-98935D01*
Y-105728D01*
D02*
G37*
G36*
X-111337D02*
X-117065D01*
Y-109880D01*
X-111337D01*
Y-105728D01*
D02*
G37*
G36*
X7500Y-112465D02*
X6798Y-112604D01*
X6202Y-113002D01*
X5804Y-113598D01*
X5665Y-114300D01*
X5804Y-115002D01*
X6202Y-115598D01*
X6798Y-115996D01*
X7500Y-116135D01*
X8202Y-115996D01*
X8319Y-115918D01*
X25448D01*
X25702Y-116298D01*
X26298Y-116696D01*
X27000Y-116835D01*
X27702Y-116696D01*
X28298Y-116298D01*
X28696Y-115702D01*
X28835Y-115000D01*
X28696Y-114298D01*
X28298Y-113702D01*
X27702Y-113304D01*
X27000Y-113165D01*
X26298Y-113304D01*
X25702Y-113702D01*
X25448Y-114082D01*
X9292D01*
X9196Y-113598D01*
X8798Y-113002D01*
X8202Y-112604D01*
X7500Y-112465D01*
D02*
G37*
G36*
X-113699Y-98444D02*
X-118639D01*
Y-103338D01*
X-119656D01*
X-120007Y-103408D01*
X-120305Y-103607D01*
X-120749Y-104051D01*
X-120948Y-104349D01*
X-121018Y-104700D01*
Y-111100D01*
X-120948Y-111451D01*
X-120749Y-111749D01*
X-118418Y-114080D01*
Y-114300D01*
X-118400Y-114389D01*
Y-117000D01*
X-113600D01*
Y-113400D01*
X-116642D01*
X-116652Y-113349D01*
X-116851Y-113051D01*
X-119182Y-110720D01*
Y-105174D01*
X-117739D01*
X-117651Y-105156D01*
X-113699D01*
Y-98444D01*
D02*
G37*
G36*
X63200Y-140285D02*
X61539Y-140449D01*
X59941Y-140933D01*
X58469Y-141720D01*
X57179Y-142779D01*
X56120Y-144069D01*
X55333Y-145542D01*
X54849Y-147139D01*
X54685Y-148800D01*
X54849Y-150461D01*
X55333Y-152058D01*
X56120Y-153531D01*
X57179Y-154821D01*
X58469Y-155880D01*
X59941Y-156667D01*
X61539Y-157151D01*
X63200Y-157315D01*
X64861Y-157151D01*
X66459Y-156667D01*
X67931Y-155880D01*
X69221Y-154821D01*
X70280Y-153531D01*
X71067Y-152058D01*
X71551Y-150461D01*
X71715Y-148800D01*
X71551Y-147139D01*
X71067Y-145542D01*
X70280Y-144069D01*
X69221Y-142779D01*
X67931Y-141720D01*
X66459Y-140933D01*
X64861Y-140449D01*
X63200Y-140285D01*
D02*
G37*
G36*
X96268Y-148913D02*
X94992Y-149038D01*
X93766Y-149410D01*
X92636Y-150014D01*
X91645Y-150827D01*
X90832Y-151818D01*
X90228Y-152948D01*
X89856Y-154174D01*
X89731Y-155450D01*
X89856Y-156725D01*
X90228Y-157951D01*
X90832Y-159081D01*
X91645Y-160072D01*
X92636Y-160885D01*
X93766Y-161489D01*
X94992Y-161861D01*
X96268Y-161987D01*
X97543Y-161861D01*
X98769Y-161489D01*
X99900Y-160885D01*
X100890Y-160072D01*
X101703Y-159081D01*
X102307Y-157951D01*
X102679Y-156725D01*
X102805Y-155450D01*
X102679Y-154174D01*
X102307Y-152948D01*
X101703Y-151818D01*
X100890Y-150827D01*
X99900Y-150014D01*
X98769Y-149410D01*
X97543Y-149038D01*
X96268Y-148913D01*
D02*
G37*
G36*
X-96606D02*
X-97882Y-149038D01*
X-99108Y-149410D01*
X-100238Y-150014D01*
X-101229Y-150827D01*
X-102042Y-151818D01*
X-102646Y-152948D01*
X-103018Y-154174D01*
X-103143Y-155450D01*
X-103018Y-156725D01*
X-102646Y-157951D01*
X-102042Y-159081D01*
X-101229Y-160072D01*
X-100238Y-160885D01*
X-99108Y-161489D01*
X-97882Y-161861D01*
X-96606Y-161987D01*
X-95331Y-161861D01*
X-94105Y-161489D01*
X-92975Y-160885D01*
X-91984Y-160072D01*
X-91171Y-159081D01*
X-90567Y-157951D01*
X-90195Y-156725D01*
X-90069Y-155450D01*
X-90195Y-154174D01*
X-90567Y-152948D01*
X-91171Y-151818D01*
X-91984Y-150827D01*
X-92975Y-150014D01*
X-94105Y-149410D01*
X-95331Y-149038D01*
X-96606Y-148913D01*
D02*
G37*
G36*
X-34020Y-175000D02*
X-37957D01*
Y-177913D01*
X-34020D01*
Y-175000D01*
D02*
G37*
%LPD*%
G36*
X13400Y31682D02*
X20418D01*
Y30819D01*
X20418Y30819D01*
Y30641D01*
X20418D01*
X20418Y30319D01*
Y27079D01*
X21462D01*
Y24454D01*
X21250Y24341D01*
X20962Y24237D01*
X20258Y24377D01*
X11283D01*
Y24886D01*
X12400D01*
X12400Y24886D01*
X12865Y24979D01*
X13258Y25242D01*
X15054Y27037D01*
X15102Y27033D01*
X15698Y26635D01*
X16400Y26495D01*
X17102Y26635D01*
X17698Y27033D01*
X18096Y27628D01*
X18235Y28330D01*
X18096Y29032D01*
X17698Y29628D01*
X17102Y30026D01*
X16400Y30165D01*
X15698Y30026D01*
X15102Y29628D01*
X15046Y29544D01*
X14630D01*
X14166Y29452D01*
X13772Y29188D01*
X13772Y29188D01*
X11897Y27314D01*
X11283D01*
Y27881D01*
X11283D01*
Y28059D01*
X11283D01*
Y31621D01*
X11758Y31682D01*
X13400D01*
X13400Y31682D01*
D02*
G37*
G36*
X15633Y10634D02*
X9567D01*
X10632Y13296D01*
X14569D01*
X15633Y10634D01*
D02*
G37*
G36*
X14569Y6772D02*
X10632D01*
X9567Y9434D01*
X15633D01*
X14569Y6772D01*
D02*
G37*
G36*
X53033Y-25900D02*
X46967D01*
X48031Y-23238D01*
X51968D01*
X53033Y-25900D01*
D02*
G37*
G36*
X51968Y-29762D02*
X48031D01*
X46967Y-27100D01*
X53033D01*
X51968Y-29762D01*
D02*
G37*
D10*
X96500Y-185772D02*
Y-168400D01*
Y-185772D02*
X96791Y-186063D01*
X-91500Y-102000D02*
Y-99500D01*
Y-102000D02*
X-87200D01*
X-72700Y-87500D01*
X-22835Y-142913D02*
X-19213D01*
X-14700Y-138400D01*
Y-136900D01*
X-9500Y-131700D01*
Y-131300D01*
X3900Y-110900D02*
X5300Y-109500D01*
X3900Y-111200D02*
Y-110900D01*
X5300Y-109500D02*
Y-86600D01*
X-3300Y-78000D02*
X5300Y-86600D01*
X-36800Y-78000D02*
X-3300D01*
X-46300Y-87500D02*
X-36800Y-78000D01*
X-72700Y-87500D02*
X-46300D01*
X-91500Y-99500D02*
X-91500Y-99500D01*
D18*
X-106500Y85611D02*
D03*
Y61989D02*
D03*
D19*
X-101799Y-95796D02*
D03*
X-114201D02*
D03*
Y-107804D02*
D03*
X-101799D02*
D03*
X99199Y23796D02*
D03*
X111601D02*
D03*
Y35804D02*
D03*
X99199D02*
D03*
X104299Y-91396D02*
D03*
X116701D02*
D03*
Y-103404D02*
D03*
X104299D02*
D03*
D20*
X-99831Y-101800D02*
D03*
X-116169D02*
D03*
X97231Y29800D02*
D03*
X113569D02*
D03*
X118669Y-97400D02*
D03*
X102331D02*
D03*
D21*
X-116000Y-115200D02*
D03*
Y-121200D02*
D03*
X-91500Y-93500D02*
D03*
Y-99500D02*
D03*
X-91900Y-105900D02*
D03*
Y-111900D02*
D03*
X95400Y-94900D02*
D03*
Y-88900D02*
D03*
X14900Y73100D02*
D03*
Y67100D02*
D03*
X5400Y73100D02*
D03*
Y67100D02*
D03*
X88200Y29800D02*
D03*
Y35800D02*
D03*
X102900Y14300D02*
D03*
Y8300D02*
D03*
X88400Y19300D02*
D03*
Y25300D02*
D03*
X115400Y-116400D02*
D03*
Y-122400D02*
D03*
X95300Y-108100D02*
D03*
Y-102100D02*
D03*
X-25500Y-108000D02*
D03*
Y-114000D02*
D03*
X-62500Y-118000D02*
D03*
Y-112000D02*
D03*
X-16500Y-128000D02*
D03*
Y-122000D02*
D03*
X20400Y50600D02*
D03*
Y44600D02*
D03*
X-32500Y-114000D02*
D03*
Y-108000D02*
D03*
X-55000Y-118000D02*
D03*
Y-112000D02*
D03*
D22*
X-3500Y-112953D02*
D03*
Y-107047D02*
D03*
D23*
X-4446Y57100D02*
D03*
X2246D02*
D03*
D24*
X91900Y47300D02*
D03*
X97900D02*
D03*
X102400Y-173400D02*
D03*
X108400D02*
D03*
X102400Y-168400D02*
D03*
X96400D02*
D03*
X-4000Y-122000D02*
D03*
X2000D02*
D03*
Y-128000D02*
D03*
X-4000D02*
D03*
X2000Y-135000D02*
D03*
X-4000D02*
D03*
X7400Y40100D02*
D03*
X13400D02*
D03*
X23500Y-158000D02*
D03*
X29500D02*
D03*
X14500Y-149000D02*
D03*
X20500D02*
D03*
X91900Y67800D02*
D03*
X97900D02*
D03*
X-48000Y-117500D02*
D03*
X-42000D02*
D03*
D25*
X11480Y-162480D02*
D03*
X4520Y-155520D02*
D03*
D26*
X8321Y29840D02*
D03*
Y26100D02*
D03*
Y22360D02*
D03*
X-1521D02*
D03*
Y26100D02*
D03*
Y29840D02*
D03*
D27*
X1459Y46234D02*
D03*
X-1100D02*
D03*
X-3659D02*
D03*
Y37966D02*
D03*
X-1100D02*
D03*
X1459D02*
D03*
D28*
X-1100Y42100D02*
D03*
D29*
X23479Y28860D02*
D03*
Y32600D02*
D03*
Y36340D02*
D03*
X33321D02*
D03*
Y32600D02*
D03*
Y28860D02*
D03*
D30*
X-13200Y64880D02*
D03*
Y55920D02*
D03*
D31*
X-47244Y-161417D02*
D03*
X-45276D02*
D03*
X-43307D02*
D03*
X-41339D02*
D03*
X-39370D02*
D03*
X-37402D02*
D03*
X-35433D02*
D03*
X-33465D02*
D03*
X-31496D02*
D03*
X-29528D02*
D03*
X-27559D02*
D03*
X-25591D02*
D03*
Y-134252D02*
D03*
X-27559D02*
D03*
X-29528D02*
D03*
X-31496D02*
D03*
X-33465D02*
D03*
X-35433D02*
D03*
X-37402D02*
D03*
X-39370D02*
D03*
X-41339D02*
D03*
X-43307D02*
D03*
X-45276D02*
D03*
X-47244D02*
D03*
D32*
X-22835Y-158661D02*
D03*
Y-156693D02*
D03*
Y-154724D02*
D03*
Y-152756D02*
D03*
Y-150787D02*
D03*
Y-148819D02*
D03*
Y-146850D02*
D03*
Y-144882D02*
D03*
Y-142913D02*
D03*
Y-140945D02*
D03*
Y-138976D02*
D03*
Y-137008D02*
D03*
X-50000D02*
D03*
Y-138976D02*
D03*
Y-140945D02*
D03*
Y-142913D02*
D03*
Y-144882D02*
D03*
Y-146850D02*
D03*
Y-148819D02*
D03*
Y-150787D02*
D03*
Y-152756D02*
D03*
Y-154724D02*
D03*
Y-156693D02*
D03*
Y-158661D02*
D03*
D33*
X-36417Y-147835D02*
D03*
D34*
X51589Y60900D02*
D03*
X75211D02*
D03*
X-51411Y60700D02*
D03*
X-27789D02*
D03*
D35*
X-77277Y-155626D02*
D03*
X-70874Y-149223D02*
D03*
X-65724Y-154374D02*
D03*
X-72126Y-160777D02*
D03*
D36*
X-52302Y24555D02*
D03*
Y15500D02*
D03*
Y6445D02*
D03*
D37*
X-27498Y15500D02*
D03*
D38*
X102500Y-190000D02*
D03*
D39*
X108209Y-186063D02*
D03*
Y-190000D02*
D03*
Y-193937D02*
D03*
X96791D02*
D03*
Y-190000D02*
D03*
Y-186063D02*
D03*
D40*
X-47504Y-176083D02*
D03*
D41*
X-90521Y-140679D02*
D03*
X-86279Y-144921D02*
D03*
D79*
X118225Y-147417D02*
G03*
X111775Y-147417I-3225J-2258D01*
G01*
Y-150583D02*
G03*
X118225Y-150583I3225J2258D01*
G01*
X12600Y6772D02*
G03*
X15825Y8450I0J3937D01*
G01*
X9375D02*
G03*
X12600Y6772I3225J2258D01*
G01*
X46775Y-28083D02*
G03*
X53225Y-28083I3225J2258D01*
G01*
X53225Y-24917D02*
G03*
X46775Y-24917I-3225J-2258D01*
G01*
X15825Y11617D02*
G03*
X9375Y11617I-3225J-2258D01*
G01*
X-91000Y-93500D02*
Y-90297D01*
X-4000Y-128000D02*
Y-122600D01*
X-32500Y-114000D02*
X-25500D01*
X-15024D02*
X-14124Y-113100D01*
X-25500Y-114000D02*
X-15024D01*
X-13976Y-112953D02*
X-3500D01*
X-3947Y-117247D02*
X-3500Y-116800D01*
X-3947Y-121948D02*
Y-117247D01*
X-4000Y-122000D02*
X-3947Y-121948D01*
X-3500Y-116800D02*
Y-112953D01*
X-4000Y-135000D02*
Y-128000D01*
X65000Y-44700D02*
X70200Y-49900D01*
X50000Y-44700D02*
X65000D01*
X50000D02*
Y-31234D01*
X600Y4471D02*
X1429Y5300D01*
X12600D01*
X600Y-5300D02*
Y4471D01*
X-91000Y-84703D02*
Y-84000D01*
X-92978Y-86681D02*
X-91000Y-84703D01*
X-92978Y-88319D02*
X-91000Y-90297D01*
X-92978Y-88319D02*
Y-86681D01*
X88200Y29800D02*
X91623D01*
X95047D01*
X89000Y25300D02*
X91623Y27923D01*
X88400Y25300D02*
X89000D01*
X49803Y-19097D02*
X55100Y-13800D01*
X49803Y-21185D02*
Y-19097D01*
Y-21185D02*
X50000Y-21382D01*
X91623Y27923D02*
Y29800D01*
D80*
X115000Y-143882D02*
D03*
Y-153734D02*
D03*
X50000Y-31234D02*
D03*
Y-21382D02*
D03*
X12600Y5300D02*
D03*
Y15152D02*
D03*
D81*
X108300Y-173600D02*
X108500Y-173400D01*
X108300Y-185572D02*
X108500Y-185772D01*
X91700Y-167400D02*
X92700Y-168400D01*
X91700Y-167500D02*
Y-167400D01*
X87500Y-167500D02*
X91700D01*
X92700Y-168400D02*
X96400D01*
X108300Y-180400D02*
Y-173600D01*
Y-185572D02*
Y-180400D01*
X108209Y-186063D02*
X108500Y-185772D01*
X87500Y-167500D02*
Y-162000D01*
X78800Y-153300D02*
X87500Y-162000D01*
X-86279Y-144921D02*
X-85855Y-144497D01*
X14500Y-149000D02*
X14500Y-149000D01*
X11040Y-149000D02*
X14500D01*
X-20563Y-135819D02*
Y-132771D01*
X-21752Y-137008D02*
X-20563Y-135819D01*
X-22835Y-137008D02*
X-21752D01*
X78800Y-153300D02*
Y-132300D01*
X-59000Y-158500D02*
X-50161D01*
X-50000Y-158661D01*
X-67500Y-167000D02*
X-59000Y-158500D01*
X35400Y-2000D02*
X59400D01*
X-106300Y-68900D02*
Y-58800D01*
X93000Y-58100D02*
Y-57800D01*
X74600Y-55400D02*
X90600D01*
X93000Y-57800D01*
X70200Y-59800D02*
X74600Y-55400D01*
X97800Y-52300D02*
X98100Y-52600D01*
Y-59800D02*
Y-52600D01*
X86700Y-75100D02*
X101300Y-60500D01*
X69200Y-98400D02*
X102800Y-64800D01*
X98100Y-59800D02*
X98151Y-59851D01*
Y-60348D02*
Y-59851D01*
X93300Y-65200D02*
X98151Y-60348D01*
X74800Y-65200D02*
X93300D01*
X101300Y-60500D02*
Y-29200D01*
X102800Y-64800D02*
Y-43200D01*
X107200Y-38800D01*
X75300Y-75100D02*
X86700D01*
X101300Y-29200D02*
X102800Y-27700D01*
X70200Y-69800D02*
X74800Y-65200D01*
X65300Y-75100D02*
Y-74900D01*
X70200Y-70000D01*
Y-69800D01*
X-32900Y-170000D02*
X3960D01*
X-37402Y-165498D02*
X-32900Y-170000D01*
X-37402Y-165498D02*
Y-161417D01*
X69200Y-122700D02*
X78800Y-132300D01*
X-4000Y-143500D02*
Y-135000D01*
X-21917Y-131417D02*
X-20563Y-132771D01*
X-24000Y-120000D02*
X-21917Y-122083D01*
Y-131417D02*
Y-122083D01*
X-9400Y-127000D02*
X-8400D01*
X-4000Y-122600D01*
Y-122000D01*
X-32500Y-114000D02*
X-32500Y-114000D01*
X-14124Y-113100D02*
X-13976Y-112953D01*
X88400Y18500D02*
X89700Y19800D01*
X102800Y-27700D02*
X115200D01*
X-1100Y37966D02*
X1459D01*
X95300Y-98795D02*
Y-95491D01*
Y-102100D02*
Y-98795D01*
X100935D02*
X102331Y-97400D01*
X95300Y-98795D02*
X100935D01*
X-120100Y-111100D02*
Y-104700D01*
Y-111100D02*
X-117500Y-113700D01*
Y-114300D02*
Y-113700D01*
Y-114300D02*
X-116600Y-115200D01*
X-116000D01*
X-120100Y-104700D02*
X-119656Y-104256D01*
X-117739D01*
X-116169Y-102686D01*
Y-101800D01*
X-79044Y-35756D02*
X-78700Y-36100D01*
X-114144Y-35756D02*
X-79044D01*
X-115200Y-34700D02*
X-114144Y-35756D01*
X-80400Y-24700D02*
X-78300Y-26800D01*
X-115200Y-24700D02*
X-80400D01*
X-114800Y-44300D02*
X-95800D01*
X-115200Y-44700D02*
X-114800Y-44300D01*
X-95800D02*
X-92300Y-47800D01*
X-78900D01*
X-114152Y-73652D02*
X-111052D01*
X-115200Y-74700D02*
X-114152Y-73652D01*
X-111052D02*
X-106300Y-68900D01*
X-94900Y-102400D02*
X-91900D01*
X-95500Y-101800D02*
X-94900Y-102400D01*
X-99831Y-101800D02*
X-95500D01*
X-91900Y-102400D02*
X-91500Y-102000D01*
X-91900Y-105900D02*
Y-102400D01*
X-99900Y-76349D02*
Y-76000D01*
Y-76349D02*
X-99549Y-76700D01*
X-102200Y-88300D02*
Y-86000D01*
X-99549Y-76700D02*
X-84500D01*
X-115200Y-84700D02*
X-114500Y-84000D01*
X-104200D01*
X-102200Y-86000D01*
X121400Y-111000D02*
Y-101016D01*
X118669Y-98286D02*
X121400Y-101016D01*
X118669Y-98286D02*
Y-97400D01*
X116000Y-116400D02*
X121400Y-111000D01*
X115400Y-116400D02*
X116000D01*
X107200Y-38800D02*
X114100D01*
X115200Y-37700D01*
X59400Y-2000D02*
X110900D01*
X115200Y2300D01*
X93000Y-58100D02*
X93300D01*
X60700Y-70600D02*
X61044Y-70256D01*
X75300Y-81200D02*
Y-75100D01*
X67800Y-88700D02*
X75300Y-81200D01*
X67800Y-127300D02*
Y-88700D01*
X69200Y-122700D02*
Y-98400D01*
X67800Y-127300D02*
X69800Y-129300D01*
X95300Y-95491D02*
X95400D01*
X92209D02*
X95300D01*
X86200Y-101500D02*
X92209Y-95491D01*
X89700Y6600D02*
X90100D01*
X85700Y2600D02*
X89700Y6600D01*
X35700Y2600D02*
X85700D01*
X22800Y-10300D02*
X35700Y2600D01*
X6400Y-10300D02*
X22800D01*
X88400Y12700D02*
Y18500D01*
X35482Y43982D02*
X41059Y49559D01*
X35482Y37221D02*
Y43982D01*
X34601Y36340D02*
X35482Y37221D01*
X33321Y36340D02*
X34601D01*
X31500Y40700D02*
Y44300D01*
X27140Y36340D02*
X31500Y40700D01*
X88400Y12700D02*
X90100Y11000D01*
Y6600D02*
Y11000D01*
X15670Y28330D02*
X16400Y29060D01*
X88400Y18500D02*
Y19300D01*
X41059Y49559D02*
X77059D01*
X-3270Y35770D02*
X-2100Y34600D01*
X77059Y49559D02*
X81800Y54300D01*
X-3659Y37474D02*
Y37966D01*
X81800Y54300D02*
X103333D01*
X-27300Y-165500D02*
X-20000D01*
X-29528Y-163272D02*
X-27300Y-165500D01*
X-29528Y-163272D02*
Y-161417D01*
X21500Y-95500D02*
X33600Y-107600D01*
Y-115200D02*
Y-107600D01*
X-43307Y-134252D02*
Y-127993D01*
X-45300Y-126000D02*
X-43307Y-127993D01*
X-56000Y-141570D02*
X-52688Y-144882D01*
X-50000D01*
X-41339Y-134252D02*
Y-118161D01*
X-42000Y-117500D02*
X-41339Y-118161D01*
X-54600Y-140800D02*
X-52573Y-142827D01*
X-54600Y-140800D02*
Y-137800D01*
X-57700Y-134700D02*
X-54600Y-137800D01*
X-56000Y-141570D02*
Y-139600D01*
X-59400Y-136200D02*
X-56000Y-139600D01*
X-52573Y-142827D02*
X-50087D01*
X-54840Y-146560D02*
X-50291D01*
X-58050Y-143350D02*
X-54840Y-146560D01*
X-50087Y-142827D02*
X-50000Y-142913D01*
X-57700Y-134700D02*
Y-124100D01*
X-59400Y-136200D02*
Y-130300D01*
X-61500Y-136500D02*
Y-135598D01*
X-63700Y-133398D02*
X-61500Y-135598D01*
X-63700Y-133398D02*
Y-132100D01*
X-61500Y-136500D02*
X-58050Y-139950D01*
Y-143350D02*
Y-139950D01*
X-64202Y-138396D02*
X-59902Y-142696D01*
Y-144498D02*
Y-142696D01*
Y-144498D02*
X-55872Y-148528D01*
X-50291D01*
X-57798Y-150500D02*
X-50287D01*
X-63600Y-144698D02*
X-57798Y-150500D01*
X-63600Y-144698D02*
Y-143700D01*
X-59000Y-152500D02*
X-50256D01*
X-69000Y-142500D02*
X-59000Y-152500D01*
X-59700Y-154500D02*
X-50224D01*
X-64977Y-149223D02*
X-59700Y-154500D01*
X-67679Y-149223D02*
X-64977D01*
X-71779Y-160429D02*
X-63929D01*
X-60000Y-156500D01*
X-50193D01*
X-62500Y-127200D02*
X-59400Y-130300D01*
X-50291Y-146560D02*
X-50000Y-146850D01*
X-50291Y-148528D02*
X-50000Y-148819D01*
X-8600Y-25300D02*
X6400Y-10300D01*
X-8600Y-68500D02*
Y-25300D01*
X-13772Y-87600D02*
X-13700D01*
X-14124Y-87951D02*
X-13772Y-87600D01*
X-14124Y-113100D02*
Y-87951D01*
X-20000Y-165500D02*
X-17900Y-163400D01*
X-15500D01*
X-13100Y-161000D01*
X-8000D01*
X-18882Y-144882D02*
X-10300Y-136300D01*
X-16700Y-134300D02*
X-9400Y-127000D01*
X-16700Y-138000D02*
Y-134300D01*
X-28500Y-167000D02*
X-13000D01*
X-31500Y-168500D02*
X-8460D01*
X4520Y-155520D01*
X-13000Y-167000D02*
X-11000Y-165000D01*
X-31496Y-164004D02*
X-28500Y-167000D01*
X3960Y-170000D02*
X11480Y-162480D01*
X-35433Y-164567D02*
X-31500Y-168500D01*
X-22825Y-146841D02*
X-16641D01*
X-22835Y-144882D02*
X-18882D01*
X-20147Y-148819D02*
X-19196Y-149770D01*
X-22835Y-148819D02*
X-20147D01*
X-19700Y-141000D02*
X-16700Y-138000D01*
X-22780Y-141000D02*
X-19700D01*
X-18600Y-137802D02*
Y-130100D01*
X-19798Y-139000D02*
X-18600Y-137802D01*
X-22811Y-139000D02*
X-19798D01*
X-18600Y-130100D02*
X-16500Y-128000D01*
X-16641Y-146841D02*
X-16632Y-146831D01*
X-19161Y-158661D02*
X-4000Y-143500D01*
X-17900Y-152500D02*
Y-152121D01*
X-19196Y-150826D02*
X-17900Y-152121D01*
X7500Y-114648D02*
Y-114300D01*
Y-114648D02*
X7852Y-115000D01*
X1500Y-147300D02*
X33600Y-115200D01*
X-3497Y-147300D02*
X1500D01*
X-16349Y-160152D02*
X-3497Y-147300D01*
X7852Y-115000D02*
X27000D01*
X-19196Y-150826D02*
Y-149770D01*
X-22835Y-146850D02*
X-22825Y-146841D01*
X-25300Y-160152D02*
X-16349D01*
X-25591Y-160442D02*
X-25300Y-160152D01*
X-25591Y-161417D02*
Y-160442D01*
X-68027Y-148875D02*
X-67679Y-149223D01*
X-70526Y-148875D02*
X-68027D01*
X-24000Y-120000D02*
Y-119500D01*
X-25591Y-125591D02*
X-25500Y-125500D01*
X-25591Y-134252D02*
Y-125591D01*
X-31000Y-127500D02*
Y-127487D01*
X-31500Y-126987D02*
X-31000Y-127487D01*
X-31500Y-126987D02*
Y-126500D01*
X-31000Y-127500D02*
X-27559Y-130941D01*
Y-134252D02*
Y-130941D01*
X-50287Y-150500D02*
X-50000Y-150787D01*
X-35500Y-120013D02*
Y-120000D01*
X-36500Y-121013D02*
X-35500Y-120013D01*
X-36500Y-121500D02*
Y-121013D01*
X-35500Y-120000D02*
X-32500Y-117000D01*
Y-114000D01*
X-22835Y-140945D02*
X-22780Y-141000D01*
X-22835Y-138976D02*
X-22811Y-139000D01*
X-22835Y-158661D02*
X-19161D01*
X-50256Y-152500D02*
X-50000Y-152756D01*
X19000Y-158000D02*
X19000Y-158000D01*
X23500D01*
X18319Y-158000D02*
X19000D01*
X13839Y-162480D02*
X18319Y-158000D01*
X11480Y-162480D02*
X13839D01*
X4520Y-155520D02*
X11040Y-149000D01*
X16400Y28860D02*
Y29060D01*
X13400Y32600D02*
Y32600D01*
X8400D02*
X13400D01*
Y32600D02*
X23479D01*
X7400Y38100D02*
Y40100D01*
X4400Y32600D02*
X8400D01*
Y29919D02*
Y32600D01*
X-2100Y34600D02*
X2400D01*
X4400Y32600D01*
X-3270Y35770D02*
Y37085D01*
X103333Y54300D02*
X106699Y57666D01*
X23479Y36340D02*
X27140D01*
X2246Y57100D02*
X2900Y56446D01*
X-4466Y57120D02*
X-4446Y57100D01*
X22800Y43700D02*
X23400Y43100D01*
X21300Y43700D02*
X22800D01*
X20400Y44600D02*
X21300Y43700D01*
X-35433Y-164567D02*
Y-161417D01*
X-31496Y-164004D02*
Y-161417D01*
X-50193Y-156500D02*
X-50000Y-156693D01*
X-72126Y-160777D02*
X-71779Y-160429D01*
X-50224Y-154500D02*
X-50000Y-154724D01*
X-70874Y-149223D02*
X-70526Y-148875D01*
X98424Y47824D02*
X106699D01*
X97900Y47300D02*
X98424Y47824D01*
X98191Y67509D02*
X106699D01*
X97900Y67800D02*
X98191Y67509D01*
X23400Y36419D02*
X23479Y36340D01*
X23400Y36419D02*
Y43100D01*
X-8101Y32098D02*
X-8100Y32100D01*
X-8101Y31602D02*
Y32098D01*
X8321Y22360D02*
Y26100D01*
X7400Y40100D02*
X7400Y40100D01*
X8321Y29840D02*
X8400Y29919D01*
X-3659Y37474D02*
X-3270Y37085D01*
D82*
X-86279Y-144921D02*
X-84800Y-146400D01*
Y-160500D02*
Y-146400D01*
Y-160500D02*
X-77800Y-167500D01*
X-68000D01*
X102500Y-173400D02*
Y-165300D01*
X108500Y-159300D02*
Y-144500D01*
X102500Y-165300D02*
X108500Y-159300D01*
X-76900Y-142500D02*
X-69000D01*
X-78897Y-144497D02*
X-76900Y-142500D01*
X-85855Y-144497D02*
X-78897D01*
X-85855D02*
X-85855Y-144497D01*
X-68000Y-167500D02*
X-67500Y-167000D01*
X-85855Y-144497D02*
Y-141354D01*
X-64000Y-119500D01*
Y-118900D01*
X-63100Y-118000D01*
X-62500D01*
X-55000D01*
X-54500Y-117500D01*
X-48000D01*
X115000Y-143882D02*
Y-143882D01*
X109118Y-143882D02*
X115000D01*
X99455Y-10100D02*
X101855Y-7700D01*
X115200D01*
X86800Y-10100D02*
X99455D01*
X84900Y-12000D02*
X86800Y-10100D01*
X74000Y-108600D02*
X94800D01*
X95300Y-108100D01*
X74000Y-107900D02*
Y-103000D01*
X82300Y11700D02*
X84800Y9200D01*
X75200Y11700D02*
X82300D01*
X74000Y12900D02*
X75200Y11700D01*
X74000Y12900D02*
Y20300D01*
X-4446Y47021D02*
Y57100D01*
Y47021D02*
X-3659Y46234D01*
X-48815Y-128733D02*
X-45276Y-132273D01*
Y-134252D02*
Y-132273D01*
X79000Y25300D02*
X88400D01*
X74000Y20300D02*
X79000Y25300D01*
X-45276Y-161417D02*
Y-156693D01*
X-36417Y-147835D01*
X108500Y-144500D02*
X109118Y-143882D01*
X117208Y29800D02*
X117900Y29108D01*
X113569Y29800D02*
X117208D01*
X117900Y20012D02*
Y29108D01*
X117208Y19320D02*
X117900Y20012D01*
X104880Y19320D02*
X117208D01*
X102900Y17341D02*
X104880Y19320D01*
X102900Y14300D02*
Y17341D01*
X-51000Y-128500D02*
X-50767Y-128733D01*
X-48815D01*
X-64500Y-100500D02*
X-64000Y-100000D01*
X-48500D01*
X-32500Y-84000D01*
X115000Y-187500D02*
Y-153734D01*
X83500Y-190000D02*
X96791D01*
X81000Y-187500D02*
X83500Y-190000D01*
X81000Y-187500D02*
Y-171000D01*
X112500Y-190000D02*
X115000Y-187500D01*
X108209Y-190000D02*
X112500D01*
X14630Y28330D02*
X15670D01*
X12400Y26100D02*
X14630Y28330D01*
X7900Y36100D02*
Y37600D01*
X7400Y38100D02*
X7900Y37600D01*
X2900Y47675D02*
Y56446D01*
X1459Y46234D02*
X2900Y47675D01*
X8321Y26100D02*
X12400D01*
X7400Y40100D02*
Y47600D01*
X-1100Y46234D02*
Y50748D01*
D83*
X22500Y-14900D02*
X35400Y-2000D01*
X22500Y-38500D02*
Y-14900D01*
D84*
X115000Y-143882D02*
X115000Y-143882D01*
Y-137500D01*
X-14696Y66632D02*
X-14657D01*
X-13200Y65176D01*
Y64880D02*
Y65176D01*
X-52000Y61289D02*
X-51411Y60700D01*
X-52000Y61289D02*
Y110700D01*
X74000Y-108600D02*
Y-107900D01*
Y-111500D02*
Y-108600D01*
Y-111500D02*
X82000Y-119500D01*
X-83695Y56674D02*
X-58453Y31433D01*
X-104335Y56674D02*
X-83695D01*
X-106500Y58839D02*
X-104335Y56674D01*
X-106500Y58839D02*
Y61989D01*
X-86357Y145057D02*
X-52000Y110700D01*
X-104179Y145057D02*
X-86357D01*
X-58453Y29132D02*
Y31433D01*
Y29132D02*
X-53876Y24555D01*
X-52302D01*
X-50727Y6445D02*
X-42214Y14957D01*
X-52302Y6445D02*
X-50727D01*
X-42214Y14957D02*
Y45114D01*
X-51411Y54311D02*
X-42214Y45114D01*
X-51411Y54311D02*
Y60700D01*
X14290Y22360D02*
X20258D01*
X8321D02*
X14290D01*
Y16842D02*
Y22360D01*
X12600Y15152D02*
X14290Y16842D01*
X20258Y22360D02*
X22900Y19718D01*
X-77278Y152334D02*
X-14096Y89152D01*
Y82532D02*
Y89152D01*
X23479Y20297D02*
Y28860D01*
X22900Y19718D02*
X23479Y20297D01*
X27439Y61600D02*
X50889D01*
X51589Y60900D01*
X-14696Y81932D02*
X-14096Y82532D01*
X-14696Y66632D02*
Y81932D01*
X14900Y65100D02*
X23939D01*
X-3100D02*
X5400D01*
X-4466Y57120D02*
X-4446Y57139D01*
X-5666Y55920D02*
X-4466Y57120D01*
X-4446Y57139D02*
Y63754D01*
X-13200Y55920D02*
X-5666D01*
X97000Y-119500D02*
X115000Y-137500D01*
X82000Y-119500D02*
X97000D01*
X-3500Y-106447D02*
Y-98000D01*
X-3500Y-106447D02*
X-3500Y-106447D01*
X5400Y65100D02*
X14670D01*
Y66922D01*
X14848Y67100D01*
X14900D01*
X5400Y65100D02*
Y67100D01*
X5400Y67100D02*
X5400Y67100D01*
X23939Y65100D02*
X27439Y61600D01*
X-4446Y63754D02*
X-3100Y65100D01*
X-8101Y31602D02*
X-6340Y29840D01*
X-1521D01*
X23479Y28860D02*
X33321D01*
D85*
X70200Y-39800D02*
D03*
Y-49800D02*
D03*
X80200Y-39800D02*
D03*
Y-49800D02*
D03*
Y-59800D02*
D03*
X70200D02*
D03*
X80200Y-69800D02*
D03*
X70200D02*
D03*
X80200Y-79800D02*
D03*
X70200D02*
D03*
D86*
X-67478Y32100D02*
D03*
X-91100D02*
D03*
X-79289Y13596D02*
D03*
X-96606Y-155450D02*
D03*
X96268D02*
D03*
Y128050D02*
D03*
X-96606D02*
D03*
D87*
X-77512Y102100D02*
D03*
Y152100D02*
D03*
D88*
X74496Y117848D02*
D03*
X-43496Y136352D02*
D03*
D89*
X-104179Y145057D02*
D03*
Y154900D02*
D03*
Y164743D02*
D03*
X106699Y47824D02*
D03*
Y57666D02*
D03*
Y67509D02*
D03*
D90*
X-115200Y-84700D02*
D03*
X115200Y-77700D02*
D03*
D91*
X-115200Y-74700D02*
D03*
Y-64700D02*
D03*
Y-54700D02*
D03*
Y-44700D02*
D03*
Y-34700D02*
D03*
Y-24700D02*
D03*
Y-14700D02*
D03*
Y-4700D02*
D03*
Y5300D02*
D03*
X115200Y-67700D02*
D03*
Y-57700D02*
D03*
Y-47700D02*
D03*
Y-37700D02*
D03*
Y-27700D02*
D03*
Y-17700D02*
D03*
Y-7700D02*
D03*
Y2300D02*
D03*
Y12300D02*
D03*
D92*
X63200Y-148800D02*
D03*
X-89300Y-59800D02*
D03*
X62200Y29200D02*
D03*
D93*
X87500Y-167500D02*
D03*
X108300Y-180400D02*
D03*
X-106300Y-58800D02*
D03*
X97800Y-52300D02*
D03*
X65300Y-75100D02*
D03*
X-78300Y-26800D02*
D03*
X-78700Y-36100D02*
D03*
X-99900Y-76000D02*
D03*
X-102200Y-88300D02*
D03*
X-84500Y-76700D02*
D03*
X93300Y-58100D02*
D03*
X60700Y-70600D02*
D03*
X86200Y-101500D02*
D03*
X31500Y44300D02*
D03*
X59400Y-2000D02*
D03*
X84800Y9200D02*
D03*
X84900Y-12000D02*
D03*
X16400Y28330D02*
D03*
X600Y-5300D02*
D03*
X69800Y-129300D02*
D03*
X-78900Y-47800D02*
D03*
X-45300Y-126000D02*
D03*
X-64202Y-138396D02*
D03*
X-63600Y-143700D02*
D03*
X-57700Y-124100D02*
D03*
X-62500Y-127200D02*
D03*
X-63700Y-132100D02*
D03*
X-8600Y-68500D02*
D03*
X-13700Y-87600D02*
D03*
X-9500Y-131300D02*
D03*
X-10300Y-136300D02*
D03*
X3900Y-111200D02*
D03*
X-16632Y-146831D02*
D03*
X-17900Y-152500D02*
D03*
X7500Y-114300D02*
D03*
X27000Y-115000D02*
D03*
X22500Y-38500D02*
D03*
X21500Y-95500D02*
D03*
X-51000Y-128500D02*
D03*
X-64500Y-100500D02*
D03*
X-32500Y-84000D02*
D03*
X-11000Y-165000D02*
D03*
X-8000Y-161000D02*
D03*
X-24000Y-119500D02*
D03*
X-25500Y-125500D02*
D03*
X-103000Y-1500D02*
D03*
X-31500Y-126500D02*
D03*
X-36500Y-121500D02*
D03*
X7900Y36100D02*
D03*
X-1100Y50748D02*
D03*
X-8100Y32100D02*
D03*
X7400Y47600D02*
D03*
D94*
X-80200Y-161000D02*
D03*
X-81300Y-151100D02*
D03*
X-76800Y-147400D02*
D03*
X-120100Y-127900D02*
D03*
X-111900D02*
D03*
X-120100Y-145900D02*
D03*
Y-172800D02*
D03*
X-93100D02*
D03*
X-65600D02*
D03*
X30700Y-172300D02*
D03*
X58200D02*
D03*
X110100Y-139000D02*
D03*
X105200Y-133800D02*
D03*
X100400Y-129300D02*
D03*
X96000Y-124900D02*
D03*
X88000Y-123500D02*
D03*
X78100Y-122900D02*
D03*
X72700Y-118100D02*
D03*
X59700Y-113600D02*
D03*
X38700Y-113800D02*
D03*
X49400D02*
D03*
D95*
X74000Y-103000D02*
D03*
X-91000Y-84000D02*
D03*
X55100Y-13800D02*
D03*
X81000Y-171000D02*
D03*
X-3500Y-98000D02*
D03*
M02*
