G04*
G04 #@! TF.GenerationSoftware,Altium Limited,Altium Designer,19.1.7 (138)*
G04*
G04 Layer_Physical_Order=2*
G04 Layer_Color=16711680*
%FSLAX25Y25*%
%MOIN*%
G70*
G01*
G75*
%ADD10C,0.00787*%
%ADD81C,0.00600*%
%ADD82C,0.01181*%
%ADD84C,0.02756*%
%ADD85C,0.06000*%
%ADD86C,0.11811*%
%ADD87C,0.06024*%
%ADD88C,0.13583*%
%ADD89C,0.05118*%
%ADD90R,0.06496X0.06496*%
%ADD91C,0.06496*%
%ADD92C,0.15748*%
%ADD93C,0.02400*%
%ADD94C,0.01634*%
%ADD95C,0.05000*%
G36*
X122385Y-175000D02*
X104198D01*
X85818Y-156620D01*
Y-144400D01*
X85748Y-144049D01*
X85549Y-143751D01*
X71546Y-129748D01*
X71635Y-129300D01*
X71496Y-128598D01*
X71098Y-128002D01*
X70502Y-127604D01*
X69800Y-127465D01*
X69098Y-127604D01*
X68502Y-128002D01*
X68104Y-128598D01*
X67965Y-129300D01*
X68104Y-130002D01*
X68502Y-130598D01*
X69098Y-130996D01*
X69800Y-131135D01*
X70248Y-131046D01*
X83982Y-144780D01*
Y-157000D01*
X84052Y-157351D01*
X84251Y-157649D01*
X101140Y-174538D01*
X100949Y-175000D01*
X70798D01*
X63715Y-167918D01*
X63923Y-167418D01*
X76620D01*
X77351Y-168149D01*
X77649Y-168348D01*
X78000Y-168418D01*
X85948D01*
X86202Y-168798D01*
X86798Y-169196D01*
X87500Y-169335D01*
X88202Y-169196D01*
X88798Y-168798D01*
X89196Y-168202D01*
X89335Y-167500D01*
X89196Y-166798D01*
X88798Y-166202D01*
X88202Y-165804D01*
X87500Y-165665D01*
X86798Y-165804D01*
X86202Y-166202D01*
X85948Y-166582D01*
X78380D01*
X77649Y-165851D01*
X77351Y-165652D01*
X77000Y-165582D01*
X-2120D01*
X-6254Y-161448D01*
X-6165Y-161000D01*
X-6304Y-160298D01*
X-6702Y-159702D01*
X-7298Y-159304D01*
X-8000Y-159165D01*
X-8702Y-159304D01*
X-9298Y-159702D01*
X-9696Y-160298D01*
X-9835Y-161000D01*
X-9696Y-161702D01*
X-9298Y-162298D01*
X-8702Y-162696D01*
X-8000Y-162835D01*
X-7552Y-162746D01*
X-6657Y-163641D01*
X-6903Y-164102D01*
X-7000Y-164082D01*
X-9448D01*
X-9702Y-163702D01*
X-10298Y-163304D01*
X-11000Y-163165D01*
X-11702Y-163304D01*
X-12298Y-163702D01*
X-12696Y-164298D01*
X-12835Y-165000D01*
X-12696Y-165702D01*
X-12298Y-166298D01*
X-11702Y-166696D01*
X-11000Y-166835D01*
X-10298Y-166696D01*
X-9702Y-166298D01*
X-9448Y-165918D01*
X-7380D01*
X-4549Y-168749D01*
X-4251Y-168948D01*
X-3900Y-169018D01*
X62220D01*
X67740Y-174538D01*
X67549Y-175000D01*
X-122385D01*
Y-111500D01*
X-97018D01*
Y-121649D01*
X-96948Y-122000D01*
X-96749Y-122297D01*
X-85197Y-133849D01*
X-84900Y-134048D01*
X-84548Y-134118D01*
X-69778D01*
X-65948Y-137947D01*
X-66038Y-138396D01*
X-65898Y-139098D01*
X-65500Y-139693D01*
X-64905Y-140091D01*
X-64202Y-140231D01*
X-63500Y-140091D01*
X-62905Y-139693D01*
X-62507Y-139098D01*
X-62367Y-138396D01*
X-62507Y-137693D01*
X-62905Y-137098D01*
X-63500Y-136700D01*
X-64202Y-136560D01*
X-64651Y-136650D01*
X-68582Y-132718D01*
X-68375Y-132218D01*
X-65512D01*
X-65396Y-132802D01*
X-64998Y-133398D01*
X-64402Y-133796D01*
X-63700Y-133935D01*
X-62998Y-133796D01*
X-62402Y-133398D01*
X-62004Y-132802D01*
X-61865Y-132100D01*
X-62004Y-131398D01*
X-62402Y-130802D01*
X-62998Y-130404D01*
X-63434Y-130318D01*
X-63385Y-129818D01*
X-62852D01*
X-62500Y-129748D01*
X-62203Y-129549D01*
X-62196Y-129542D01*
X-61997Y-129244D01*
X-61933Y-128922D01*
X-61798Y-128896D01*
X-61202Y-128498D01*
X-60804Y-127902D01*
X-60665Y-127200D01*
X-60804Y-126498D01*
X-61202Y-125902D01*
X-61798Y-125504D01*
X-62500Y-125365D01*
X-63202Y-125504D01*
X-63798Y-125902D01*
X-64196Y-126498D01*
X-64335Y-127200D01*
X-64279Y-127482D01*
X-64689Y-127982D01*
X-83020D01*
X-90982Y-120020D01*
Y-113480D01*
X-89002Y-111500D01*
X-87251D01*
X-87060Y-111962D01*
X-88249Y-113151D01*
X-88448Y-113449D01*
X-88518Y-113800D01*
Y-119900D01*
X-88448Y-120251D01*
X-88249Y-120549D01*
X-83749Y-125049D01*
X-83451Y-125248D01*
X-83100Y-125318D01*
X-65400D01*
X-65049Y-125248D01*
X-64751Y-125049D01*
X-63020Y-123318D01*
X-59980D01*
X-59479Y-123819D01*
X-59535Y-124100D01*
X-59396Y-124802D01*
X-58998Y-125398D01*
X-58402Y-125796D01*
X-57700Y-125935D01*
X-56998Y-125796D01*
X-56402Y-125398D01*
X-56004Y-124802D01*
X-55865Y-124100D01*
X-56004Y-123398D01*
X-56402Y-122802D01*
X-56998Y-122404D01*
X-57700Y-122265D01*
X-58315Y-122387D01*
X-58951Y-121751D01*
X-59249Y-121552D01*
X-59600Y-121482D01*
X-63400D01*
X-63751Y-121552D01*
X-64049Y-121751D01*
X-65780Y-123482D01*
X-82720D01*
X-86682Y-119520D01*
Y-114180D01*
X-84002Y-111500D01*
X-55217D01*
X-54714Y-112003D01*
Y-128308D01*
X-54621Y-128773D01*
X-54358Y-129166D01*
X-53965Y-129430D01*
X-53500Y-129522D01*
X-52482D01*
X-52298Y-129798D01*
X-51702Y-130196D01*
X-51000Y-130335D01*
X-50298Y-130196D01*
X-49702Y-129798D01*
X-49304Y-129202D01*
X-49165Y-128500D01*
X-49304Y-127798D01*
X-49702Y-127202D01*
X-50298Y-126804D01*
X-51000Y-126665D01*
X-51702Y-126804D01*
X-51786Y-126860D01*
X-52286Y-126593D01*
Y-111500D01*
X-52286Y-111500D01*
X-34798D01*
X-31918Y-114380D01*
Y-119620D01*
X-32149Y-119851D01*
X-32348Y-120149D01*
X-32418Y-120500D01*
Y-124948D01*
X-32798Y-125202D01*
X-33196Y-125798D01*
X-33335Y-126500D01*
X-33196Y-127202D01*
X-32798Y-127798D01*
X-32202Y-128196D01*
X-31500Y-128335D01*
X-30798Y-128196D01*
X-30202Y-127798D01*
X-29804Y-127202D01*
X-29665Y-126500D01*
X-29804Y-125798D01*
X-30202Y-125202D01*
X-30582Y-124948D01*
Y-120880D01*
X-30351Y-120649D01*
X-30152Y-120351D01*
X-30082Y-120000D01*
Y-114000D01*
X-30152Y-113649D01*
X-30351Y-113351D01*
X-31740Y-111962D01*
X-31549Y-111500D01*
X-29798D01*
X-29418Y-111880D01*
Y-122500D01*
X-29348Y-122851D01*
X-29149Y-123149D01*
X-27246Y-125052D01*
X-27335Y-125500D01*
X-27196Y-126202D01*
X-26798Y-126798D01*
X-26202Y-127196D01*
X-25500Y-127335D01*
X-24798Y-127196D01*
X-24202Y-126798D01*
X-23804Y-126202D01*
X-23665Y-125500D01*
X-23804Y-124798D01*
X-24202Y-124202D01*
X-24798Y-123804D01*
X-25500Y-123665D01*
X-25948Y-123754D01*
X-27582Y-122120D01*
Y-111500D01*
X-24918D01*
Y-117948D01*
X-25298Y-118202D01*
X-25696Y-118798D01*
X-25835Y-119500D01*
X-25696Y-120202D01*
X-25298Y-120798D01*
X-24702Y-121196D01*
X-24000Y-121335D01*
X-23298Y-121196D01*
X-22702Y-120798D01*
X-22304Y-120202D01*
X-22165Y-119500D01*
X-22304Y-118798D01*
X-22702Y-118202D01*
X-23082Y-117948D01*
Y-111500D01*
X1460D01*
X1667Y-112000D01*
X-9916Y-123584D01*
X-10136Y-123912D01*
X-10213Y-124300D01*
Y-129612D01*
X-10798Y-130002D01*
X-11196Y-130598D01*
X-11335Y-131300D01*
X-11196Y-132002D01*
X-10798Y-132598D01*
X-10202Y-132996D01*
X-9500Y-133135D01*
X-8798Y-132996D01*
X-8202Y-132598D01*
X-7804Y-132002D01*
X-7665Y-131300D01*
X-7804Y-130598D01*
X-8187Y-130025D01*
Y-124720D01*
X3564Y-112969D01*
X3900Y-113035D01*
X4602Y-112896D01*
X5198Y-112498D01*
X5596Y-111902D01*
X5676Y-111500D01*
X16748D01*
X16940Y-111962D01*
X-7886Y-136788D01*
X-8393Y-136587D01*
X-8401Y-136299D01*
X8149Y-119749D01*
X8348Y-119451D01*
X8418Y-119100D01*
Y-115852D01*
X8798Y-115598D01*
X9196Y-115002D01*
X9335Y-114300D01*
X9196Y-113598D01*
X8798Y-113002D01*
X8202Y-112604D01*
X7500Y-112465D01*
X6798Y-112604D01*
X6202Y-113002D01*
X5804Y-113598D01*
X5665Y-114300D01*
X5804Y-115002D01*
X6202Y-115598D01*
X6582Y-115852D01*
Y-118720D01*
X-9420Y-134723D01*
X-9598Y-134604D01*
X-10300Y-134465D01*
X-11002Y-134604D01*
X-11598Y-135002D01*
X-11996Y-135598D01*
X-12135Y-136300D01*
X-11996Y-137002D01*
X-11598Y-137598D01*
X-11002Y-137996D01*
X-10300Y-138135D01*
X-9852Y-138046D01*
X-9605Y-138507D01*
X-16183Y-145085D01*
X-16632Y-144996D01*
X-17334Y-145135D01*
X-17929Y-145533D01*
X-18327Y-146129D01*
X-18467Y-146831D01*
X-18327Y-147533D01*
X-17929Y-148129D01*
X-17334Y-148526D01*
X-16632Y-148666D01*
X-15929Y-148526D01*
X-15617Y-148919D01*
X-17452Y-150754D01*
X-17900Y-150665D01*
X-18602Y-150804D01*
X-19198Y-151202D01*
X-19596Y-151798D01*
X-19735Y-152500D01*
X-19596Y-153202D01*
X-19198Y-153798D01*
X-18602Y-154196D01*
X-17900Y-154335D01*
X-17198Y-154196D01*
X-16602Y-153798D01*
X-16204Y-153202D01*
X-16065Y-152500D01*
X-16154Y-152052D01*
X24398Y-111500D01*
X28549D01*
X28740Y-111962D01*
X27448Y-113254D01*
X27000Y-113165D01*
X26298Y-113304D01*
X25702Y-113702D01*
X25304Y-114298D01*
X25165Y-115000D01*
X25304Y-115702D01*
X25702Y-116298D01*
X26298Y-116696D01*
X27000Y-116835D01*
X27702Y-116696D01*
X28298Y-116298D01*
X28696Y-115702D01*
X28835Y-115000D01*
X28746Y-114552D01*
X31798Y-111500D01*
X122385D01*
Y-175000D01*
D02*
G37*
G36*
X21340Y-111962D02*
X-14544Y-147846D01*
X-14936Y-147533D01*
X-14796Y-146831D01*
X-14886Y-146382D01*
X19997Y-111500D01*
X21149D01*
X21340Y-111962D01*
D02*
G37*
G36*
X122385Y-109000D02*
X34951D01*
X34760Y-108538D01*
X50080Y-93218D01*
X78582D01*
Y-94800D01*
X78652Y-95151D01*
X78851Y-95449D01*
X84454Y-101052D01*
X84365Y-101500D01*
X84504Y-102202D01*
X84902Y-102798D01*
X85498Y-103196D01*
X86200Y-103335D01*
X86902Y-103196D01*
X87498Y-102798D01*
X87896Y-102202D01*
X88035Y-101500D01*
X87896Y-100798D01*
X87498Y-100202D01*
X86902Y-99804D01*
X86200Y-99665D01*
X85752Y-99754D01*
X80418Y-94420D01*
Y-92651D01*
X80348Y-92300D01*
X80149Y-92003D01*
X79797Y-91651D01*
X79500Y-91452D01*
X79149Y-91382D01*
X49700D01*
X49349Y-91452D01*
X49051Y-91651D01*
X31702Y-109000D01*
X27551D01*
X27360Y-108538D01*
X47980Y-87918D01*
X55400D01*
X55751Y-87848D01*
X56049Y-87649D01*
X56248Y-87351D01*
X56318Y-87000D01*
Y-85280D01*
X57850Y-83748D01*
X57851Y-83748D01*
X58149Y-83549D01*
X64852Y-76846D01*
X65300Y-76935D01*
X66002Y-76796D01*
X66598Y-76398D01*
X66996Y-75802D01*
X67135Y-75100D01*
X66996Y-74398D01*
X66598Y-73802D01*
X66002Y-73404D01*
X65300Y-73265D01*
X64598Y-73404D01*
X64002Y-73802D01*
X63604Y-74398D01*
X63465Y-75100D01*
X63554Y-75548D01*
X57050Y-82052D01*
X57049Y-82052D01*
X56751Y-82251D01*
X54751Y-84251D01*
X54552Y-84549D01*
X54482Y-84900D01*
Y-86082D01*
X47600D01*
X47249Y-86152D01*
X46951Y-86351D01*
X24302Y-109000D01*
X23150D01*
X22959Y-108538D01*
X47079Y-84418D01*
X47800D01*
X48151Y-84348D01*
X48449Y-84149D01*
X60252Y-72346D01*
X60700Y-72435D01*
X61402Y-72296D01*
X61998Y-71898D01*
X62396Y-71302D01*
X62535Y-70600D01*
X62446Y-70152D01*
X68091Y-64507D01*
X68290Y-64209D01*
X68360Y-63858D01*
Y-63476D01*
X68860Y-63142D01*
X69260Y-63307D01*
X70200Y-63431D01*
X71140Y-63307D01*
X72016Y-62945D01*
X72768Y-62368D01*
X73345Y-61616D01*
X73707Y-60740D01*
X73831Y-59800D01*
X73707Y-58860D01*
X73345Y-57985D01*
X72768Y-57232D01*
X72016Y-56655D01*
X71140Y-56293D01*
X70200Y-56169D01*
X69260Y-56293D01*
X68384Y-56655D01*
X67632Y-57232D01*
X67055Y-57985D01*
X66693Y-58860D01*
X66569Y-59800D01*
X66693Y-60740D01*
X67055Y-61616D01*
X67069Y-61633D01*
X66793Y-61909D01*
X66594Y-62207D01*
X66525Y-62558D01*
Y-63478D01*
X61148Y-68854D01*
X60700Y-68765D01*
X59998Y-68904D01*
X59402Y-69302D01*
X59004Y-69898D01*
X58865Y-70600D01*
X58954Y-71048D01*
X47420Y-82582D01*
X46699D01*
X46348Y-82652D01*
X46051Y-82851D01*
X19902Y-109000D01*
X-23902D01*
X-68882Y-64020D01*
Y-35300D01*
X-68952Y-34949D01*
X-69151Y-34651D01*
X-76554Y-27248D01*
X-76465Y-26800D01*
X-76604Y-26098D01*
X-77002Y-25502D01*
X-77598Y-25104D01*
X-78300Y-24965D01*
X-79002Y-25104D01*
X-79598Y-25502D01*
X-79996Y-26098D01*
X-80135Y-26800D01*
X-79996Y-27502D01*
X-79598Y-28098D01*
X-79002Y-28496D01*
X-78300Y-28635D01*
X-77852Y-28546D01*
X-70718Y-35680D01*
Y-42474D01*
X-71218Y-42523D01*
X-71252Y-42349D01*
X-71451Y-42051D01*
X-76954Y-36548D01*
X-76865Y-36100D01*
X-77004Y-35398D01*
X-77402Y-34802D01*
X-77998Y-34404D01*
X-78700Y-34265D01*
X-79402Y-34404D01*
X-79998Y-34802D01*
X-80396Y-35398D01*
X-80535Y-36100D01*
X-80396Y-36802D01*
X-79998Y-37398D01*
X-79402Y-37796D01*
X-78700Y-37935D01*
X-78252Y-37846D01*
X-73018Y-43080D01*
Y-67900D01*
X-72948Y-68251D01*
X-72749Y-68549D01*
X-32760Y-108538D01*
X-32951Y-109000D01*
X-34702D01*
X-73882Y-69820D01*
Y-46800D01*
X-73952Y-46449D01*
X-74151Y-46151D01*
X-101834Y-18468D01*
Y-2886D01*
X-101702Y-2798D01*
X-101304Y-2202D01*
X-101165Y-1500D01*
X-101304Y-798D01*
X-101702Y-202D01*
X-102298Y196D01*
X-103000Y335D01*
X-103702Y196D01*
X-104298Y-202D01*
X-104696Y-798D01*
X-104835Y-1500D01*
X-104696Y-2202D01*
X-104298Y-2798D01*
X-103702Y-3196D01*
X-103669Y-3202D01*
Y-18848D01*
X-103599Y-19200D01*
X-103400Y-19497D01*
X-75718Y-47180D01*
Y-70200D01*
X-75648Y-70551D01*
X-75449Y-70849D01*
X-37760Y-108538D01*
X-37951Y-109000D01*
X-54283D01*
X-62684Y-100599D01*
X-62665Y-100500D01*
X-62804Y-99798D01*
X-63202Y-99202D01*
X-63798Y-98804D01*
X-64500Y-98665D01*
X-65202Y-98804D01*
X-65798Y-99202D01*
X-66196Y-99798D01*
X-66335Y-100500D01*
X-66196Y-101202D01*
X-65798Y-101798D01*
X-65202Y-102196D01*
X-64500Y-102335D01*
X-64401Y-102316D01*
X-58179Y-108538D01*
X-58370Y-109000D01*
X-80849D01*
X-81040Y-108538D01*
X-77051Y-104549D01*
X-76852Y-104251D01*
X-76782Y-103900D01*
Y-49000D01*
X-76852Y-48649D01*
X-77051Y-48351D01*
X-77154Y-48248D01*
X-77065Y-47800D01*
X-77204Y-47098D01*
X-77602Y-46502D01*
X-78198Y-46104D01*
X-78900Y-45965D01*
X-79602Y-46104D01*
X-80198Y-46502D01*
X-80596Y-47098D01*
X-80735Y-47800D01*
X-80596Y-48502D01*
X-80198Y-49098D01*
X-79602Y-49496D01*
X-78900Y-49635D01*
X-78618Y-49867D01*
Y-103520D01*
X-84098Y-109000D01*
X-85849D01*
X-86040Y-108538D01*
X-82351Y-104849D01*
X-82152Y-104551D01*
X-82082Y-104200D01*
Y-80000D01*
X-82152Y-79649D01*
X-82351Y-79351D01*
X-83197Y-78505D01*
X-83202Y-77998D01*
X-82804Y-77402D01*
X-82665Y-76700D01*
X-82804Y-75998D01*
X-83202Y-75402D01*
X-83798Y-75004D01*
X-84500Y-74865D01*
X-85202Y-75004D01*
X-85798Y-75402D01*
X-86196Y-75998D01*
X-86335Y-76700D01*
X-86196Y-77402D01*
X-85798Y-77998D01*
X-85202Y-78396D01*
X-85118Y-78412D01*
Y-78800D01*
X-85048Y-79151D01*
X-84849Y-79449D01*
X-83918Y-80380D01*
Y-103820D01*
X-89098Y-109000D01*
X-93482D01*
Y-87900D01*
X-93552Y-87549D01*
X-93751Y-87251D01*
X-100229Y-80774D01*
X-100173Y-80405D01*
X-100088Y-80207D01*
X-99851Y-80049D01*
X-99251Y-79449D01*
X-99052Y-79151D01*
X-98982Y-78800D01*
Y-77552D01*
X-98602Y-77298D01*
X-98204Y-76702D01*
X-98065Y-76000D01*
X-98204Y-75298D01*
X-98602Y-74702D01*
X-99198Y-74304D01*
X-99900Y-74165D01*
X-100602Y-74304D01*
X-101198Y-74702D01*
X-101596Y-75298D01*
X-101735Y-76000D01*
X-101696Y-76200D01*
X-102156Y-76446D01*
X-111892Y-66710D01*
X-111839Y-66641D01*
X-111451Y-65705D01*
X-111319Y-64700D01*
X-111451Y-63696D01*
X-111839Y-62759D01*
X-112456Y-61956D01*
X-113259Y-61339D01*
X-114196Y-60951D01*
X-115200Y-60819D01*
X-116205Y-60951D01*
X-117141Y-61339D01*
X-117944Y-61956D01*
X-118561Y-62759D01*
X-118949Y-63696D01*
X-119081Y-64700D01*
X-118949Y-65705D01*
X-118561Y-66641D01*
X-117944Y-67444D01*
X-117141Y-68061D01*
X-116205Y-68449D01*
X-115200Y-68581D01*
X-114196Y-68449D01*
X-113259Y-68061D01*
X-113190Y-68008D01*
X-110515Y-70682D01*
X-110722Y-71182D01*
X-111934D01*
X-112285Y-71252D01*
X-112583Y-71451D01*
X-112813Y-71681D01*
X-113259Y-71339D01*
X-114196Y-70951D01*
X-115200Y-70819D01*
X-116205Y-70951D01*
X-117141Y-71339D01*
X-117944Y-71956D01*
X-118561Y-72759D01*
X-118949Y-73695D01*
X-119081Y-74700D01*
X-118949Y-75704D01*
X-118561Y-76641D01*
X-117944Y-77444D01*
X-117141Y-78061D01*
X-116205Y-78449D01*
X-115200Y-78581D01*
X-114196Y-78449D01*
X-113259Y-78061D01*
X-112456Y-77444D01*
X-111839Y-76641D01*
X-111451Y-75704D01*
X-111319Y-74700D01*
X-111451Y-73695D01*
X-111525Y-73518D01*
X-111191Y-73018D01*
X-110580D01*
X-95318Y-88280D01*
Y-93177D01*
X-95818Y-93385D01*
X-100454Y-88748D01*
X-100365Y-88300D01*
X-100504Y-87598D01*
X-100902Y-87002D01*
X-101498Y-86604D01*
X-102200Y-86465D01*
X-102902Y-86604D01*
X-103498Y-87002D01*
X-103896Y-87598D01*
X-104035Y-88300D01*
X-103896Y-89002D01*
X-103498Y-89598D01*
X-102902Y-89996D01*
X-102200Y-90135D01*
X-101752Y-90046D01*
X-97018Y-94780D01*
Y-109000D01*
X-122000D01*
X-122385Y110336D01*
Y176200D01*
X122385D01*
Y-109000D01*
D02*
G37*
G36*
X-70648Y-64751D02*
X-70449Y-65049D01*
X-26960Y-108538D01*
X-27151Y-109000D01*
X-29702D01*
X-71182Y-67520D01*
Y-64626D01*
X-70682Y-64577D01*
X-70648Y-64751D01*
D02*
G37*
%LPC*%
G36*
X-36500Y-119665D02*
X-37202Y-119804D01*
X-37798Y-120202D01*
X-38052Y-120582D01*
X-38600D01*
X-38951Y-120652D01*
X-39249Y-120851D01*
X-43362Y-124964D01*
X-43860Y-124916D01*
X-44002Y-124702D01*
X-44598Y-124304D01*
X-45300Y-124165D01*
X-46002Y-124304D01*
X-46598Y-124702D01*
X-46996Y-125298D01*
X-47135Y-126000D01*
X-46996Y-126702D01*
X-46598Y-127298D01*
X-46385Y-127440D01*
X-46336Y-127938D01*
X-61180Y-142782D01*
X-62048D01*
X-62302Y-142402D01*
X-62898Y-142004D01*
X-63600Y-141865D01*
X-64302Y-142004D01*
X-64898Y-142402D01*
X-65296Y-142998D01*
X-65435Y-143700D01*
X-65296Y-144402D01*
X-64898Y-144998D01*
X-64302Y-145396D01*
X-63600Y-145535D01*
X-62898Y-145396D01*
X-62302Y-144998D01*
X-62048Y-144618D01*
X-60800D01*
X-60449Y-144548D01*
X-60151Y-144349D01*
X-43701Y-127899D01*
X-38472Y-122670D01*
X-37847Y-122724D01*
X-37798Y-122798D01*
X-37202Y-123196D01*
X-36500Y-123335D01*
X-35798Y-123196D01*
X-35202Y-122798D01*
X-34804Y-122202D01*
X-34665Y-121500D01*
X-34804Y-120798D01*
X-35202Y-120202D01*
X-35798Y-119804D01*
X-36500Y-119665D01*
D02*
G37*
G36*
X63200Y-140285D02*
X61539Y-140449D01*
X59941Y-140933D01*
X58469Y-141720D01*
X57179Y-142779D01*
X56120Y-144069D01*
X55333Y-145542D01*
X54849Y-147139D01*
X54685Y-148800D01*
X54849Y-150461D01*
X55333Y-152058D01*
X56120Y-153531D01*
X57179Y-154821D01*
X58469Y-155880D01*
X59941Y-156667D01*
X61539Y-157151D01*
X63200Y-157315D01*
X64861Y-157151D01*
X66459Y-156667D01*
X67931Y-155880D01*
X69221Y-154821D01*
X70280Y-153531D01*
X71067Y-152058D01*
X71551Y-150461D01*
X71715Y-148800D01*
X71551Y-147139D01*
X71067Y-145542D01*
X70280Y-144069D01*
X69221Y-142779D01*
X67931Y-141720D01*
X66459Y-140933D01*
X64861Y-140449D01*
X63200Y-140285D01*
D02*
G37*
G36*
X96268Y-148913D02*
X94992Y-149038D01*
X93766Y-149410D01*
X92636Y-150014D01*
X91645Y-150827D01*
X90832Y-151818D01*
X90228Y-152948D01*
X89856Y-154174D01*
X89731Y-155450D01*
X89856Y-156725D01*
X90228Y-157951D01*
X90832Y-159081D01*
X91645Y-160072D01*
X92636Y-160885D01*
X93766Y-161489D01*
X94992Y-161861D01*
X96268Y-161987D01*
X97543Y-161861D01*
X98769Y-161489D01*
X99900Y-160885D01*
X100890Y-160072D01*
X101703Y-159081D01*
X102307Y-157951D01*
X102679Y-156725D01*
X102805Y-155450D01*
X102679Y-154174D01*
X102307Y-152948D01*
X101703Y-151818D01*
X100890Y-150827D01*
X99900Y-150014D01*
X98769Y-149410D01*
X97543Y-149038D01*
X96268Y-148913D01*
D02*
G37*
G36*
X-96606D02*
X-97882Y-149038D01*
X-99108Y-149410D01*
X-100238Y-150014D01*
X-101229Y-150827D01*
X-102042Y-151818D01*
X-102646Y-152948D01*
X-103018Y-154174D01*
X-103143Y-155450D01*
X-103018Y-156725D01*
X-102646Y-157951D01*
X-102042Y-159081D01*
X-101229Y-160072D01*
X-100238Y-160885D01*
X-99108Y-161489D01*
X-97882Y-161861D01*
X-96606Y-161987D01*
X-95331Y-161861D01*
X-94105Y-161489D01*
X-92975Y-160885D01*
X-91984Y-160072D01*
X-91171Y-159081D01*
X-90567Y-157951D01*
X-90195Y-156725D01*
X-90069Y-155450D01*
X-90195Y-154174D01*
X-90567Y-152948D01*
X-91171Y-151818D01*
X-91984Y-150827D01*
X-92975Y-150014D01*
X-94105Y-149410D01*
X-95331Y-149038D01*
X-96606Y-148913D01*
D02*
G37*
G36*
X-103679Y158424D02*
Y155400D01*
X-100655D01*
X-100711Y155829D01*
X-101070Y156695D01*
X-101640Y157438D01*
X-102384Y158009D01*
X-103250Y158368D01*
X-103679Y158424D01*
D02*
G37*
G36*
X-104679D02*
X-105108Y158368D01*
X-105974Y158009D01*
X-106717Y157438D01*
X-107288Y156695D01*
X-107646Y155829D01*
X-107703Y155400D01*
X-104679D01*
Y158424D01*
D02*
G37*
G36*
X-100655Y154400D02*
X-103679D01*
Y151376D01*
X-103250Y151433D01*
X-102384Y151791D01*
X-101640Y152362D01*
X-101070Y153105D01*
X-100711Y153971D01*
X-100655Y154400D01*
D02*
G37*
G36*
X-104679D02*
X-107703D01*
X-107646Y153971D01*
X-107288Y153105D01*
X-106717Y152362D01*
X-105974Y151791D01*
X-105108Y151433D01*
X-104679Y151376D01*
Y154400D01*
D02*
G37*
G36*
X-77512Y155743D02*
X-78455Y155619D01*
X-79333Y155255D01*
X-80088Y154676D01*
X-80667Y153921D01*
X-81031Y153043D01*
X-81155Y152100D01*
X-81031Y151157D01*
X-80667Y150279D01*
X-80088Y149524D01*
X-79333Y148945D01*
X-78455Y148581D01*
X-77512Y148457D01*
X-76569Y148581D01*
X-75690Y148945D01*
X-74936Y149524D01*
X-74357Y150279D01*
X-73993Y151157D01*
X-73869Y152100D01*
X-73993Y153043D01*
X-74357Y153921D01*
X-74936Y154676D01*
X-75690Y155255D01*
X-76569Y155619D01*
X-77512Y155743D01*
D02*
G37*
G36*
X-104179Y148244D02*
X-105003Y148135D01*
X-105772Y147817D01*
X-106432Y147311D01*
X-106938Y146651D01*
X-107256Y145882D01*
X-107365Y145057D01*
X-107256Y144233D01*
X-106938Y143464D01*
X-106432Y142804D01*
X-105772Y142298D01*
X-105003Y141980D01*
X-104179Y141871D01*
X-103354Y141980D01*
X-102586Y142298D01*
X-101926Y142804D01*
X-101419Y143464D01*
X-101101Y144233D01*
X-100992Y145057D01*
X-101101Y145882D01*
X-101419Y146651D01*
X-101926Y147311D01*
X-102586Y147817D01*
X-103354Y148135D01*
X-104179Y148244D01*
D02*
G37*
G36*
X-43496Y143779D02*
X-44945Y143636D01*
X-46338Y143214D01*
X-47622Y142527D01*
X-48748Y141604D01*
X-49672Y140478D01*
X-50358Y139194D01*
X-50780Y137801D01*
X-50923Y136352D01*
X-50780Y134903D01*
X-50358Y133510D01*
X-49672Y132226D01*
X-48748Y131100D01*
X-47622Y130177D01*
X-46338Y129490D01*
X-44945Y129068D01*
X-43496Y128925D01*
X-42047Y129068D01*
X-40654Y129490D01*
X-39370Y130177D01*
X-38244Y131100D01*
X-37321Y132226D01*
X-36634Y133510D01*
X-36212Y134903D01*
X-36069Y136352D01*
X-36212Y137801D01*
X-36634Y139194D01*
X-37321Y140478D01*
X-38244Y141604D01*
X-39370Y142527D01*
X-40654Y143214D01*
X-42047Y143636D01*
X-43496Y143779D01*
D02*
G37*
G36*
X96268Y134587D02*
X94992Y134462D01*
X93766Y134090D01*
X92636Y133486D01*
X91645Y132673D01*
X90832Y131682D01*
X90228Y130552D01*
X89856Y129326D01*
X89731Y128050D01*
X89856Y126775D01*
X90228Y125549D01*
X90832Y124419D01*
X91645Y123428D01*
X92636Y122615D01*
X93766Y122011D01*
X94992Y121639D01*
X96268Y121513D01*
X97543Y121639D01*
X98769Y122011D01*
X99900Y122615D01*
X100890Y123428D01*
X101703Y124419D01*
X102307Y125549D01*
X102679Y126775D01*
X102805Y128050D01*
X102679Y129326D01*
X102307Y130552D01*
X101703Y131682D01*
X100890Y132673D01*
X99900Y133486D01*
X98769Y134090D01*
X97543Y134462D01*
X96268Y134587D01*
D02*
G37*
G36*
X-96606D02*
X-97882Y134462D01*
X-99108Y134090D01*
X-100238Y133486D01*
X-101229Y132673D01*
X-102042Y131682D01*
X-102646Y130552D01*
X-103018Y129326D01*
X-103143Y128050D01*
X-103018Y126775D01*
X-102646Y125549D01*
X-102042Y124419D01*
X-101229Y123428D01*
X-100238Y122615D01*
X-99108Y122011D01*
X-97882Y121639D01*
X-96606Y121513D01*
X-95331Y121639D01*
X-94105Y122011D01*
X-92975Y122615D01*
X-91984Y123428D01*
X-91171Y124419D01*
X-90567Y125549D01*
X-90195Y126775D01*
X-90069Y128050D01*
X-90195Y129326D01*
X-90567Y130552D01*
X-91171Y131682D01*
X-91984Y132673D01*
X-92975Y133486D01*
X-94105Y134090D01*
X-95331Y134462D01*
X-96606Y134587D01*
D02*
G37*
G36*
X74496Y125275D02*
X73047Y125132D01*
X71654Y124710D01*
X70370Y124023D01*
X69244Y123100D01*
X68321Y121974D01*
X67634Y120690D01*
X67212Y119297D01*
X67069Y117848D01*
X67212Y116399D01*
X67634Y115006D01*
X68321Y113722D01*
X69244Y112596D01*
X70370Y111673D01*
X71654Y110986D01*
X73047Y110564D01*
X74496Y110421D01*
X75945Y110564D01*
X77338Y110986D01*
X78622Y111673D01*
X79748Y112596D01*
X80672Y113722D01*
X81358Y115006D01*
X81780Y116399D01*
X81923Y117848D01*
X81780Y119297D01*
X81358Y120690D01*
X80672Y121974D01*
X79748Y123100D01*
X78622Y124023D01*
X77338Y124710D01*
X75945Y125132D01*
X74496Y125275D01*
D02*
G37*
G36*
X-77512Y105743D02*
X-78455Y105619D01*
X-79333Y105255D01*
X-80088Y104676D01*
X-80667Y103921D01*
X-81031Y103043D01*
X-81155Y102100D01*
X-81031Y101157D01*
X-80667Y100279D01*
X-80088Y99524D01*
X-79333Y98945D01*
X-78455Y98581D01*
X-77512Y98457D01*
X-76569Y98581D01*
X-75690Y98945D01*
X-74936Y99524D01*
X-74357Y100279D01*
X-73993Y101157D01*
X-73869Y102100D01*
X-73993Y103043D01*
X-74357Y103921D01*
X-74936Y104676D01*
X-75690Y105255D01*
X-76569Y105619D01*
X-77512Y105743D01*
D02*
G37*
G36*
X106699Y70695D02*
X105875Y70586D01*
X105106Y70268D01*
X104446Y69762D01*
X103940Y69102D01*
X103621Y68333D01*
X103513Y67509D01*
X103621Y66684D01*
X103940Y65916D01*
X104446Y65256D01*
X105106Y64749D01*
X105875Y64431D01*
X106699Y64322D01*
X107524Y64431D01*
X108292Y64749D01*
X108952Y65256D01*
X109459Y65916D01*
X109777Y66684D01*
X109886Y67509D01*
X109777Y68333D01*
X109459Y69102D01*
X108952Y69762D01*
X108292Y70268D01*
X107524Y70586D01*
X106699Y70695D01*
D02*
G37*
G36*
Y60852D02*
X105875Y60744D01*
X105106Y60426D01*
X104446Y59919D01*
X103940Y59259D01*
X103621Y58491D01*
X103513Y57666D01*
X103621Y56841D01*
X103940Y56073D01*
X104446Y55413D01*
X105106Y54907D01*
X105875Y54588D01*
X106699Y54480D01*
X107524Y54588D01*
X108292Y54907D01*
X108952Y55413D01*
X109459Y56073D01*
X109777Y56841D01*
X109886Y57666D01*
X109777Y58491D01*
X109459Y59259D01*
X108952Y59919D01*
X108292Y60426D01*
X107524Y60744D01*
X106699Y60852D01*
D02*
G37*
G36*
X-1100Y52584D02*
X-1802Y52444D01*
X-2398Y52046D01*
X-2796Y51451D01*
X-2935Y50748D01*
X-2796Y50046D01*
X-2398Y49451D01*
X-1802Y49053D01*
X-1100Y48913D01*
X-398Y49053D01*
X198Y49451D01*
X254Y49535D01*
X3749D01*
X5584Y47699D01*
X5565Y47600D01*
X5704Y46898D01*
X6102Y46302D01*
X6698Y45904D01*
X7400Y45765D01*
X8102Y45904D01*
X8698Y46302D01*
X9096Y46898D01*
X9235Y47600D01*
X9096Y48302D01*
X8698Y48898D01*
X8102Y49296D01*
X7400Y49435D01*
X7301Y49416D01*
X5110Y51607D01*
X4716Y51870D01*
X4251Y51962D01*
X4251Y51962D01*
X254D01*
X198Y52046D01*
X-398Y52444D01*
X-1100Y52584D01*
D02*
G37*
G36*
X106699Y51010D02*
X105875Y50901D01*
X105106Y50583D01*
X104446Y50077D01*
X103940Y49417D01*
X103621Y48648D01*
X103513Y47824D01*
X103621Y46999D01*
X103940Y46231D01*
X104446Y45571D01*
X105106Y45064D01*
X105875Y44746D01*
X106699Y44637D01*
X107524Y44746D01*
X108292Y45064D01*
X108952Y45571D01*
X109459Y46231D01*
X109777Y46999D01*
X109886Y47824D01*
X109777Y48648D01*
X109459Y49417D01*
X108952Y50077D01*
X108292Y50583D01*
X107524Y50901D01*
X106699Y51010D01*
D02*
G37*
G36*
X7900Y37935D02*
X7198Y37796D01*
X6602Y37398D01*
X6204Y36802D01*
X6065Y36100D01*
X6204Y35398D01*
X6602Y34802D01*
X7198Y34404D01*
X7900Y34265D01*
X8602Y34404D01*
X8606Y34407D01*
X14584Y28429D01*
X14565Y28330D01*
X14704Y27628D01*
X15102Y27033D01*
X15698Y26635D01*
X16400Y26495D01*
X17102Y26635D01*
X17698Y27033D01*
X18096Y27628D01*
X18235Y28330D01*
X18096Y29032D01*
X17698Y29628D01*
X17102Y30026D01*
X16400Y30165D01*
X16301Y30146D01*
X9497Y36950D01*
X9198Y37398D01*
X8602Y37796D01*
X7900Y37935D01*
D02*
G37*
G36*
X-67478Y38637D02*
X-68753Y38511D01*
X-69980Y38139D01*
X-71110Y37535D01*
X-72100Y36722D01*
X-72913Y35732D01*
X-73517Y34602D01*
X-73889Y33375D01*
X-74015Y32100D01*
X-73889Y30825D01*
X-73517Y29598D01*
X-72913Y28468D01*
X-72100Y27478D01*
X-71110Y26665D01*
X-69980Y26061D01*
X-68753Y25689D01*
X-67478Y25563D01*
X-66203Y25689D01*
X-64976Y26061D01*
X-63846Y26665D01*
X-62856Y27478D01*
X-62043Y28468D01*
X-61439Y29598D01*
X-61067Y30825D01*
X-60941Y32100D01*
X-61067Y33375D01*
X-61439Y34602D01*
X-62043Y35732D01*
X-62856Y36722D01*
X-63846Y37535D01*
X-64976Y38139D01*
X-66203Y38511D01*
X-67478Y38637D01*
D02*
G37*
G36*
X-91100D02*
X-92375Y38511D01*
X-93602Y38139D01*
X-94732Y37535D01*
X-95722Y36722D01*
X-96535Y35732D01*
X-97139Y34602D01*
X-97511Y33375D01*
X-97637Y32100D01*
X-97511Y30825D01*
X-97139Y29598D01*
X-96535Y28468D01*
X-95722Y27478D01*
X-94732Y26665D01*
X-93602Y26061D01*
X-92375Y25689D01*
X-91100Y25563D01*
X-89825Y25689D01*
X-88598Y26061D01*
X-87468Y26665D01*
X-86478Y27478D01*
X-85665Y28468D01*
X-85061Y29598D01*
X-84689Y30825D01*
X-84563Y32100D01*
X-84689Y33375D01*
X-85061Y34602D01*
X-85665Y35732D01*
X-86478Y36722D01*
X-87468Y37535D01*
X-88598Y38139D01*
X-89825Y38511D01*
X-91100Y38637D01*
D02*
G37*
G36*
X62200Y37715D02*
X60539Y37551D01*
X58941Y37067D01*
X57469Y36280D01*
X56179Y35221D01*
X55120Y33931D01*
X54333Y32459D01*
X53849Y30861D01*
X53685Y29200D01*
X53849Y27539D01*
X54333Y25941D01*
X55120Y24469D01*
X56179Y23179D01*
X57469Y22120D01*
X58941Y21333D01*
X60539Y20849D01*
X62200Y20685D01*
X63861Y20849D01*
X65459Y21333D01*
X66931Y22120D01*
X68221Y23179D01*
X69280Y24469D01*
X70067Y25941D01*
X70551Y27539D01*
X70715Y29200D01*
X70551Y30861D01*
X70067Y32459D01*
X69280Y33931D01*
X68221Y35221D01*
X66931Y36280D01*
X65459Y37067D01*
X63861Y37551D01*
X62200Y37715D01*
D02*
G37*
G36*
X115200Y16181D02*
X114196Y16049D01*
X113259Y15661D01*
X112456Y15044D01*
X111839Y14241D01*
X111451Y13305D01*
X111319Y12300D01*
X111451Y11295D01*
X111839Y10359D01*
X112456Y9556D01*
X113259Y8939D01*
X114196Y8551D01*
X115200Y8419D01*
X116205Y8551D01*
X117141Y8939D01*
X117944Y9556D01*
X118561Y10359D01*
X118949Y11295D01*
X119081Y12300D01*
X118949Y13305D01*
X118561Y14241D01*
X117944Y15044D01*
X117141Y15661D01*
X116205Y16049D01*
X115200Y16181D01*
D02*
G37*
G36*
X-79289Y20133D02*
X-80564Y20008D01*
X-81791Y19636D01*
X-82921Y19031D01*
X-83911Y18218D01*
X-84724Y17228D01*
X-85328Y16098D01*
X-85700Y14872D01*
X-85826Y13596D01*
X-85700Y12321D01*
X-85328Y11095D01*
X-84724Y9964D01*
X-83911Y8974D01*
X-82921Y8161D01*
X-81791Y7557D01*
X-80564Y7185D01*
X-79289Y7059D01*
X-78014Y7185D01*
X-76787Y7557D01*
X-75657Y8161D01*
X-74667Y8974D01*
X-73854Y9964D01*
X-73250Y11095D01*
X-72878Y12321D01*
X-72752Y13596D01*
X-72878Y14872D01*
X-73250Y16098D01*
X-73854Y17228D01*
X-74667Y18218D01*
X-75657Y19031D01*
X-76787Y19636D01*
X-78014Y20008D01*
X-79289Y20133D01*
D02*
G37*
G36*
X-115200Y9181D02*
X-116205Y9049D01*
X-117141Y8661D01*
X-117944Y8044D01*
X-118561Y7241D01*
X-118949Y6305D01*
X-119081Y5300D01*
X-118949Y4295D01*
X-118561Y3359D01*
X-117944Y2556D01*
X-117141Y1939D01*
X-116205Y1551D01*
X-115200Y1419D01*
X-114196Y1551D01*
X-113259Y1939D01*
X-112456Y2556D01*
X-111839Y3359D01*
X-111451Y4295D01*
X-111319Y5300D01*
X-111451Y6305D01*
X-111839Y7241D01*
X-112456Y8044D01*
X-113259Y8661D01*
X-114196Y9049D01*
X-115200Y9181D01*
D02*
G37*
G36*
X115200Y6181D02*
X114196Y6049D01*
X113259Y5661D01*
X112456Y5044D01*
X111839Y4241D01*
X111451Y3305D01*
X111319Y2300D01*
X111451Y1295D01*
X111839Y359D01*
X112456Y-444D01*
X113259Y-1061D01*
X114196Y-1449D01*
X115200Y-1581D01*
X116205Y-1449D01*
X117141Y-1061D01*
X117944Y-444D01*
X118561Y359D01*
X118949Y1295D01*
X119081Y2300D01*
X118949Y3305D01*
X118561Y4241D01*
X117944Y5044D01*
X117141Y5661D01*
X116205Y6049D01*
X115200Y6181D01*
D02*
G37*
G36*
X31500Y46135D02*
X30798Y45996D01*
X30202Y45598D01*
X29804Y45002D01*
X29665Y44300D01*
X29804Y43598D01*
X30202Y43002D01*
X30798Y42604D01*
X31500Y42465D01*
X31948Y42554D01*
X43982Y30520D01*
Y29100D01*
X44052Y28749D01*
X44251Y28451D01*
X58482Y14220D01*
Y-448D01*
X58102Y-702D01*
X57704Y-1298D01*
X57565Y-2000D01*
X57704Y-2702D01*
X58102Y-3298D01*
X58698Y-3696D01*
X59400Y-3835D01*
X60102Y-3696D01*
X60698Y-3298D01*
X61096Y-2702D01*
X61235Y-2000D01*
X61096Y-1298D01*
X60698Y-702D01*
X60318Y-448D01*
Y14600D01*
X60248Y14951D01*
X60049Y15249D01*
X45818Y29480D01*
Y30900D01*
X45748Y31251D01*
X45549Y31549D01*
X33246Y43852D01*
X33335Y44300D01*
X33196Y45002D01*
X32798Y45598D01*
X32202Y45996D01*
X31500Y46135D01*
D02*
G37*
G36*
X-104179Y167929D02*
X-105003Y167820D01*
X-105772Y167502D01*
X-106432Y166996D01*
X-106938Y166336D01*
X-107256Y165567D01*
X-107365Y164743D01*
X-107256Y163918D01*
X-106938Y163149D01*
X-106432Y162489D01*
X-105772Y161983D01*
X-105003Y161665D01*
X-104179Y161556D01*
X-103354Y161665D01*
X-102586Y161983D01*
X-101926Y162489D01*
X-101744Y162726D01*
X-74078D01*
X-65717Y154365D01*
Y139100D01*
X-65563Y138328D01*
X-65126Y137674D01*
X-64127Y136675D01*
X-63926Y136374D01*
X-52826Y125274D01*
X-34017Y106465D01*
Y71200D01*
X-33863Y70428D01*
X-33426Y69774D01*
X-17017Y53365D01*
Y39000D01*
X-16863Y38228D01*
X-16426Y37574D01*
X-9526Y30674D01*
X-9018Y30334D01*
Y3400D01*
X-8948Y3049D01*
X-8749Y2751D01*
X-1146Y-4852D01*
X-1235Y-5300D01*
X-1096Y-6002D01*
X-698Y-6598D01*
X-102Y-6996D01*
X600Y-7135D01*
X1302Y-6996D01*
X1898Y-6598D01*
X2296Y-6002D01*
X2435Y-5300D01*
X2296Y-4598D01*
X1898Y-4002D01*
X1302Y-3604D01*
X600Y-3465D01*
X152Y-3554D01*
X-7182Y3780D01*
Y30334D01*
X-6674Y30674D01*
X-6237Y31328D01*
X-6083Y32100D01*
X-6237Y32872D01*
X-6674Y33526D01*
X-12983Y39835D01*
Y54200D01*
X-13137Y54972D01*
X-13574Y55626D01*
X-29983Y72035D01*
Y107300D01*
X-30137Y108072D01*
X-30574Y108726D01*
X-49974Y128126D01*
X-59548Y137699D01*
X-59749Y138001D01*
X-61683Y139935D01*
Y155200D01*
X-61837Y155972D01*
X-62274Y156626D01*
X-71816Y166168D01*
X-72471Y166606D01*
X-73242Y166759D01*
X-101744D01*
X-101926Y166996D01*
X-102586Y167502D01*
X-103354Y167820D01*
X-104179Y167929D01*
D02*
G37*
G36*
X-115200Y-819D02*
X-116205Y-951D01*
X-117141Y-1339D01*
X-117944Y-1956D01*
X-118561Y-2759D01*
X-118949Y-3695D01*
X-119081Y-4700D01*
X-118949Y-5705D01*
X-118561Y-6641D01*
X-117944Y-7444D01*
X-117141Y-8061D01*
X-116205Y-8449D01*
X-115200Y-8581D01*
X-114196Y-8449D01*
X-113259Y-8061D01*
X-112456Y-7444D01*
X-111839Y-6641D01*
X-111451Y-5705D01*
X-111319Y-4700D01*
X-111451Y-3695D01*
X-111839Y-2759D01*
X-112456Y-1956D01*
X-113259Y-1339D01*
X-114196Y-951D01*
X-115200Y-819D01*
D02*
G37*
G36*
X84500Y23514D02*
X84035Y23422D01*
X83642Y23158D01*
X83378Y22764D01*
X83286Y22300D01*
X83378Y21836D01*
X83642Y21442D01*
X83686Y21397D01*
Y10621D01*
X83502Y10498D01*
X83104Y9902D01*
X82965Y9200D01*
X83104Y8498D01*
X83502Y7902D01*
X83686Y7779D01*
Y-10646D01*
X83602Y-10702D01*
X83546Y-10786D01*
X66503D01*
X64968Y-9251D01*
X64574Y-8988D01*
X64109Y-8896D01*
X64109Y-8896D01*
X41391D01*
X41391Y-8896D01*
X40926Y-8988D01*
X40532Y-9251D01*
X40532Y-9251D01*
X-32401Y-82184D01*
X-32500Y-82165D01*
X-33202Y-82304D01*
X-33798Y-82702D01*
X-34196Y-83298D01*
X-34335Y-84000D01*
X-34196Y-84702D01*
X-33798Y-85298D01*
X-33202Y-85696D01*
X-32500Y-85835D01*
X-31798Y-85696D01*
X-31202Y-85298D01*
X-30804Y-84702D01*
X-30665Y-84000D01*
X-30684Y-83901D01*
X41893Y-11323D01*
X52024D01*
X52245Y-11772D01*
X52043Y-12035D01*
X51690Y-12886D01*
X51636Y-13300D01*
X58564D01*
X58510Y-12886D01*
X58157Y-12035D01*
X57955Y-11772D01*
X58176Y-11323D01*
X63607D01*
X65142Y-12858D01*
X65142Y-12858D01*
X65535Y-13122D01*
X66000Y-13214D01*
X66000Y-13214D01*
X83546D01*
X83602Y-13298D01*
X84198Y-13696D01*
X84900Y-13835D01*
X85602Y-13696D01*
X86198Y-13298D01*
X86596Y-12702D01*
X86735Y-12000D01*
X86596Y-11298D01*
X86198Y-10702D01*
X86114Y-10646D01*
Y7926D01*
X86496Y8498D01*
X86635Y9200D01*
X86496Y9902D01*
X86114Y10474D01*
Y21900D01*
X86114Y21900D01*
X86022Y22365D01*
X85758Y22758D01*
X85758Y22758D01*
X85358Y23158D01*
X84965Y23422D01*
X84500Y23514D01*
D02*
G37*
G36*
X115200Y-3819D02*
X114196Y-3951D01*
X113259Y-4339D01*
X112456Y-4956D01*
X111839Y-5759D01*
X111451Y-6696D01*
X111319Y-7700D01*
X111451Y-8704D01*
X111839Y-9641D01*
X112456Y-10444D01*
X113259Y-11061D01*
X114196Y-11449D01*
X115200Y-11581D01*
X116205Y-11449D01*
X117141Y-11061D01*
X117944Y-10444D01*
X118561Y-9641D01*
X118949Y-8704D01*
X119081Y-7700D01*
X118949Y-6696D01*
X118561Y-5759D01*
X117944Y-4956D01*
X117141Y-4339D01*
X116205Y-3951D01*
X115200Y-3819D01*
D02*
G37*
G36*
X58564Y-14300D02*
X55600D01*
Y-17264D01*
X56014Y-17210D01*
X56865Y-16857D01*
X57596Y-16296D01*
X58157Y-15565D01*
X58510Y-14714D01*
X58564Y-14300D01*
D02*
G37*
G36*
X54600D02*
X51636D01*
X51690Y-14714D01*
X52043Y-15565D01*
X52604Y-16296D01*
X53335Y-16857D01*
X54186Y-17210D01*
X54600Y-17264D01*
Y-14300D01*
D02*
G37*
G36*
X-115200Y-10819D02*
X-116205Y-10951D01*
X-117141Y-11339D01*
X-117944Y-11956D01*
X-118561Y-12759D01*
X-118949Y-13695D01*
X-119081Y-14700D01*
X-118949Y-15705D01*
X-118561Y-16641D01*
X-117944Y-17444D01*
X-117141Y-18061D01*
X-116205Y-18449D01*
X-115200Y-18581D01*
X-114196Y-18449D01*
X-113259Y-18061D01*
X-112456Y-17444D01*
X-111839Y-16641D01*
X-111451Y-15705D01*
X-111319Y-14700D01*
X-111451Y-13695D01*
X-111839Y-12759D01*
X-112456Y-11956D01*
X-113259Y-11339D01*
X-114196Y-10951D01*
X-115200Y-10819D01*
D02*
G37*
G36*
X115200Y-13819D02*
X114196Y-13951D01*
X113259Y-14339D01*
X112456Y-14956D01*
X111839Y-15759D01*
X111451Y-16695D01*
X111319Y-17700D01*
X111451Y-18704D01*
X111839Y-19641D01*
X112456Y-20444D01*
X113259Y-21061D01*
X114196Y-21449D01*
X115200Y-21581D01*
X116205Y-21449D01*
X117141Y-21061D01*
X117944Y-20444D01*
X118561Y-19641D01*
X118949Y-18704D01*
X119081Y-17700D01*
X118949Y-16695D01*
X118561Y-15759D01*
X117944Y-14956D01*
X117141Y-14339D01*
X116205Y-13951D01*
X115200Y-13819D01*
D02*
G37*
G36*
X-115200Y-20819D02*
X-116205Y-20951D01*
X-117141Y-21339D01*
X-117944Y-21956D01*
X-118561Y-22759D01*
X-118949Y-23696D01*
X-119081Y-24700D01*
X-118949Y-25705D01*
X-118561Y-26641D01*
X-117944Y-27444D01*
X-117141Y-28061D01*
X-116205Y-28449D01*
X-115200Y-28581D01*
X-114196Y-28449D01*
X-113259Y-28061D01*
X-112456Y-27444D01*
X-111839Y-26641D01*
X-111451Y-25705D01*
X-111319Y-24700D01*
X-111451Y-23696D01*
X-111839Y-22759D01*
X-112456Y-21956D01*
X-113259Y-21339D01*
X-114196Y-20951D01*
X-115200Y-20819D01*
D02*
G37*
G36*
X115200Y-23819D02*
X114196Y-23951D01*
X113259Y-24339D01*
X112456Y-24956D01*
X111839Y-25759D01*
X111451Y-26695D01*
X111319Y-27700D01*
X111451Y-28705D01*
X111839Y-29641D01*
X112456Y-30444D01*
X113259Y-31061D01*
X114196Y-31449D01*
X115200Y-31581D01*
X116205Y-31449D01*
X117141Y-31061D01*
X117944Y-30444D01*
X118561Y-29641D01*
X118949Y-28705D01*
X119081Y-27700D01*
X118949Y-26695D01*
X118561Y-25759D01*
X117944Y-24956D01*
X117141Y-24339D01*
X116205Y-23951D01*
X115200Y-23819D01*
D02*
G37*
G36*
X-115200Y-30819D02*
X-116205Y-30951D01*
X-117141Y-31339D01*
X-117944Y-31956D01*
X-118561Y-32759D01*
X-118949Y-33696D01*
X-119081Y-34700D01*
X-118949Y-35704D01*
X-118561Y-36641D01*
X-117944Y-37444D01*
X-117141Y-38061D01*
X-116205Y-38449D01*
X-115200Y-38581D01*
X-114196Y-38449D01*
X-113259Y-38061D01*
X-112456Y-37444D01*
X-111839Y-36641D01*
X-111451Y-35704D01*
X-111319Y-34700D01*
X-111451Y-33696D01*
X-111839Y-32759D01*
X-112456Y-31956D01*
X-113259Y-31339D01*
X-114196Y-30951D01*
X-115200Y-30819D01*
D02*
G37*
G36*
X115200Y-33819D02*
X114196Y-33951D01*
X113259Y-34339D01*
X112456Y-34956D01*
X111839Y-35759D01*
X111451Y-36696D01*
X111319Y-37700D01*
X111451Y-38704D01*
X111839Y-39641D01*
X112456Y-40444D01*
X113259Y-41061D01*
X114196Y-41449D01*
X115200Y-41581D01*
X116205Y-41449D01*
X117141Y-41061D01*
X117944Y-40444D01*
X118561Y-39641D01*
X118949Y-38704D01*
X119081Y-37700D01*
X118949Y-36696D01*
X118561Y-35759D01*
X117944Y-34956D01*
X117141Y-34339D01*
X116205Y-33951D01*
X115200Y-33819D01*
D02*
G37*
G36*
X80200Y-36169D02*
X79260Y-36293D01*
X78385Y-36655D01*
X77632Y-37233D01*
X77055Y-37984D01*
X76693Y-38860D01*
X76569Y-39800D01*
X76693Y-40740D01*
X77055Y-41616D01*
X77632Y-42368D01*
X78385Y-42945D01*
X79260Y-43307D01*
X80200Y-43431D01*
X81140Y-43307D01*
X82016Y-42945D01*
X82768Y-42368D01*
X83345Y-41616D01*
X83707Y-40740D01*
X83831Y-39800D01*
X83707Y-38860D01*
X83345Y-37984D01*
X82768Y-37233D01*
X82016Y-36655D01*
X81140Y-36293D01*
X80200Y-36169D01*
D02*
G37*
G36*
X70200D02*
X69260Y-36293D01*
X68384Y-36655D01*
X67632Y-37233D01*
X67055Y-37984D01*
X66693Y-38860D01*
X66569Y-39800D01*
X66693Y-40740D01*
X67055Y-41616D01*
X67632Y-42368D01*
X68384Y-42945D01*
X69260Y-43307D01*
X70200Y-43431D01*
X71140Y-43307D01*
X72016Y-42945D01*
X72768Y-42368D01*
X73345Y-41616D01*
X73707Y-40740D01*
X73831Y-39800D01*
X73707Y-38860D01*
X73345Y-37984D01*
X72768Y-37233D01*
X72016Y-36655D01*
X71140Y-36293D01*
X70200Y-36169D01*
D02*
G37*
G36*
X-115200Y-40819D02*
X-116205Y-40951D01*
X-117141Y-41339D01*
X-117944Y-41956D01*
X-118561Y-42759D01*
X-118949Y-43696D01*
X-119081Y-44700D01*
X-118949Y-45704D01*
X-118561Y-46641D01*
X-117944Y-47444D01*
X-117141Y-48061D01*
X-116205Y-48449D01*
X-115200Y-48581D01*
X-114196Y-48449D01*
X-113259Y-48061D01*
X-112456Y-47444D01*
X-111839Y-46641D01*
X-111451Y-45704D01*
X-111319Y-44700D01*
X-111451Y-43696D01*
X-111839Y-42759D01*
X-112456Y-41956D01*
X-113259Y-41339D01*
X-114196Y-40951D01*
X-115200Y-40819D01*
D02*
G37*
G36*
X115200Y-43819D02*
X114196Y-43951D01*
X113259Y-44339D01*
X112456Y-44956D01*
X111839Y-45759D01*
X111451Y-46696D01*
X111319Y-47700D01*
X111451Y-48704D01*
X111839Y-49641D01*
X111892Y-49710D01*
X110220Y-51382D01*
X99352D01*
X99098Y-51002D01*
X98502Y-50604D01*
X97800Y-50465D01*
X97098Y-50604D01*
X96502Y-51002D01*
X96104Y-51598D01*
X95965Y-52300D01*
X96104Y-53002D01*
X96502Y-53598D01*
X97098Y-53996D01*
X97800Y-54135D01*
X98502Y-53996D01*
X99098Y-53598D01*
X99352Y-53218D01*
X110600D01*
X110951Y-53148D01*
X111249Y-52949D01*
X113190Y-51008D01*
X113259Y-51061D01*
X114196Y-51449D01*
X115200Y-51581D01*
X116205Y-51449D01*
X117141Y-51061D01*
X117944Y-50444D01*
X118561Y-49641D01*
X118949Y-48704D01*
X119081Y-47700D01*
X118949Y-46696D01*
X118561Y-45759D01*
X117944Y-44956D01*
X117141Y-44339D01*
X116205Y-43951D01*
X115200Y-43819D01*
D02*
G37*
G36*
X80200Y-46169D02*
X79260Y-46293D01*
X78385Y-46655D01*
X77632Y-47232D01*
X77055Y-47984D01*
X76693Y-48860D01*
X76569Y-49800D01*
X76693Y-50740D01*
X77055Y-51616D01*
X77632Y-52368D01*
X78385Y-52945D01*
X79260Y-53307D01*
X80200Y-53431D01*
X81140Y-53307D01*
X82016Y-52945D01*
X82768Y-52368D01*
X83345Y-51616D01*
X83707Y-50740D01*
X83831Y-49800D01*
X83707Y-48860D01*
X83345Y-47984D01*
X82768Y-47232D01*
X82016Y-46655D01*
X81140Y-46293D01*
X80200Y-46169D01*
D02*
G37*
G36*
X70200D02*
X69260Y-46293D01*
X68384Y-46655D01*
X67632Y-47232D01*
X67055Y-47984D01*
X66693Y-48860D01*
X66569Y-49800D01*
X66693Y-50740D01*
X67055Y-51616D01*
X67632Y-52368D01*
X68384Y-52945D01*
X69260Y-53307D01*
X70200Y-53431D01*
X71140Y-53307D01*
X72016Y-52945D01*
X72768Y-52368D01*
X73345Y-51616D01*
X73707Y-50740D01*
X73831Y-49800D01*
X73707Y-48860D01*
X73345Y-47984D01*
X72768Y-47232D01*
X72016Y-46655D01*
X71140Y-46293D01*
X70200Y-46169D01*
D02*
G37*
G36*
X115200Y-53819D02*
X114196Y-53951D01*
X113259Y-54339D01*
X112456Y-54956D01*
X111839Y-55759D01*
X111451Y-56695D01*
X111413Y-56982D01*
X94718D01*
X94598Y-56802D01*
X94002Y-56404D01*
X93300Y-56265D01*
X92598Y-56404D01*
X92002Y-56802D01*
X91604Y-57398D01*
X91465Y-58100D01*
X91604Y-58802D01*
X92002Y-59398D01*
X92598Y-59796D01*
X93300Y-59935D01*
X94002Y-59796D01*
X94598Y-59398D01*
X94985Y-58818D01*
X111498D01*
X111839Y-59641D01*
X112456Y-60444D01*
X113259Y-61061D01*
X114196Y-61449D01*
X115200Y-61581D01*
X116205Y-61449D01*
X117141Y-61061D01*
X117944Y-60444D01*
X118561Y-59641D01*
X118949Y-58705D01*
X119081Y-57700D01*
X118949Y-56695D01*
X118561Y-55759D01*
X117944Y-54956D01*
X117141Y-54339D01*
X116205Y-53951D01*
X115200Y-53819D01*
D02*
G37*
G36*
X-115200Y-50819D02*
X-116205Y-50951D01*
X-117141Y-51339D01*
X-117944Y-51956D01*
X-118561Y-52759D01*
X-118949Y-53695D01*
X-119081Y-54700D01*
X-118949Y-55704D01*
X-118561Y-56641D01*
X-117944Y-57444D01*
X-117141Y-58061D01*
X-116205Y-58449D01*
X-115200Y-58581D01*
X-114196Y-58449D01*
X-113259Y-58061D01*
X-112456Y-57444D01*
X-111839Y-56641D01*
X-111451Y-55704D01*
X-111319Y-54700D01*
X-111451Y-53695D01*
X-111839Y-52759D01*
X-112456Y-51956D01*
X-113259Y-51339D01*
X-114196Y-50951D01*
X-115200Y-50819D01*
D02*
G37*
G36*
X-106300Y-56965D02*
X-107002Y-57104D01*
X-107598Y-57502D01*
X-107996Y-58098D01*
X-108135Y-58800D01*
X-107996Y-59502D01*
X-107598Y-60098D01*
X-107002Y-60496D01*
X-106300Y-60635D01*
X-105598Y-60496D01*
X-105002Y-60098D01*
X-104604Y-59502D01*
X-104465Y-58800D01*
X-104604Y-58098D01*
X-105002Y-57502D01*
X-105598Y-57104D01*
X-106300Y-56965D01*
D02*
G37*
G36*
X80200Y-56169D02*
X79260Y-56293D01*
X78385Y-56655D01*
X77632Y-57232D01*
X77055Y-57985D01*
X76693Y-58860D01*
X76569Y-59800D01*
X76693Y-60740D01*
X77055Y-61616D01*
X77632Y-62368D01*
X78385Y-62945D01*
X79260Y-63307D01*
X80200Y-63431D01*
X81140Y-63307D01*
X82016Y-62945D01*
X82768Y-62368D01*
X83345Y-61616D01*
X83707Y-60740D01*
X83831Y-59800D01*
X83707Y-58860D01*
X83345Y-57985D01*
X82768Y-57232D01*
X82016Y-56655D01*
X81140Y-56293D01*
X80200Y-56169D01*
D02*
G37*
G36*
X115700Y-63481D02*
Y-67200D01*
X119419D01*
X119339Y-66591D01*
X118911Y-65558D01*
X118230Y-64670D01*
X117342Y-63989D01*
X116309Y-63561D01*
X115700Y-63481D01*
D02*
G37*
G36*
X114700Y-63481D02*
X114091Y-63561D01*
X113058Y-63989D01*
X112170Y-64670D01*
X111489Y-65558D01*
X111061Y-66591D01*
X110981Y-67200D01*
X114700D01*
Y-63481D01*
D02*
G37*
G36*
X-89300Y-51285D02*
X-90961Y-51449D01*
X-92559Y-51933D01*
X-94031Y-52720D01*
X-95321Y-53779D01*
X-96380Y-55069D01*
X-97167Y-56541D01*
X-97651Y-58139D01*
X-97815Y-59800D01*
X-97651Y-61461D01*
X-97167Y-63059D01*
X-96380Y-64531D01*
X-95321Y-65821D01*
X-94031Y-66880D01*
X-92559Y-67667D01*
X-90961Y-68151D01*
X-89300Y-68315D01*
X-87639Y-68151D01*
X-86041Y-67667D01*
X-84569Y-66880D01*
X-83279Y-65821D01*
X-82220Y-64531D01*
X-81433Y-63059D01*
X-80949Y-61461D01*
X-80785Y-59800D01*
X-80949Y-58139D01*
X-81433Y-56541D01*
X-82220Y-55069D01*
X-83279Y-53779D01*
X-84569Y-52720D01*
X-86041Y-51933D01*
X-87639Y-51449D01*
X-89300Y-51285D01*
D02*
G37*
G36*
X-8600Y-66665D02*
X-9302Y-66804D01*
X-9898Y-67202D01*
X-9984Y-67331D01*
X-10048D01*
X-10400Y-67401D01*
X-10697Y-67600D01*
X-14349Y-71251D01*
X-14548Y-71549D01*
X-14618Y-71900D01*
Y-86048D01*
X-14998Y-86302D01*
X-15396Y-86898D01*
X-15535Y-87600D01*
X-15396Y-88302D01*
X-14998Y-88898D01*
X-14402Y-89296D01*
X-13700Y-89435D01*
X-12998Y-89296D01*
X-12402Y-88898D01*
X-12004Y-88302D01*
X-11865Y-87600D01*
X-12004Y-86898D01*
X-12402Y-86302D01*
X-12782Y-86048D01*
Y-72280D01*
X-10264Y-69762D01*
X-9898Y-69798D01*
X-9302Y-70196D01*
X-8600Y-70335D01*
X-7898Y-70196D01*
X-7302Y-69798D01*
X-6904Y-69202D01*
X-6765Y-68500D01*
X-6904Y-67798D01*
X-7302Y-67202D01*
X-7898Y-66804D01*
X-8600Y-66665D01*
D02*
G37*
G36*
X119419Y-68200D02*
X115700D01*
Y-71919D01*
X116309Y-71839D01*
X117342Y-71411D01*
X118230Y-70730D01*
X118911Y-69842D01*
X119339Y-68809D01*
X119419Y-68200D01*
D02*
G37*
G36*
X114700D02*
X110981D01*
X111061Y-68809D01*
X111489Y-69842D01*
X112170Y-70730D01*
X113058Y-71411D01*
X114091Y-71839D01*
X114700Y-71919D01*
Y-68200D01*
D02*
G37*
G36*
X80200Y-66169D02*
X79260Y-66293D01*
X78385Y-66655D01*
X77632Y-67232D01*
X77055Y-67984D01*
X76693Y-68860D01*
X76569Y-69800D01*
X76693Y-70740D01*
X77055Y-71615D01*
X77632Y-72368D01*
X78385Y-72945D01*
X79260Y-73307D01*
X80200Y-73431D01*
X81140Y-73307D01*
X82016Y-72945D01*
X82768Y-72368D01*
X83345Y-71615D01*
X83707Y-70740D01*
X83831Y-69800D01*
X83707Y-68860D01*
X83345Y-67984D01*
X82768Y-67232D01*
X82016Y-66655D01*
X81140Y-66293D01*
X80200Y-66169D01*
D02*
G37*
G36*
X70200D02*
X69260Y-66293D01*
X68384Y-66655D01*
X67632Y-67232D01*
X67055Y-67984D01*
X66693Y-68860D01*
X66569Y-69800D01*
X66693Y-70740D01*
X67055Y-71615D01*
X67632Y-72368D01*
X68384Y-72945D01*
X69260Y-73307D01*
X70200Y-73431D01*
X71140Y-73307D01*
X72016Y-72945D01*
X72768Y-72368D01*
X73345Y-71615D01*
X73707Y-70740D01*
X73831Y-69800D01*
X73707Y-68860D01*
X73345Y-67984D01*
X72768Y-67232D01*
X72016Y-66655D01*
X71140Y-66293D01*
X70200Y-66169D01*
D02*
G37*
G36*
X119048Y-73852D02*
X111352D01*
Y-81548D01*
X119048D01*
Y-73852D01*
D02*
G37*
G36*
X80200Y-76169D02*
X79260Y-76293D01*
X78385Y-76655D01*
X77632Y-77232D01*
X77055Y-77984D01*
X76693Y-78860D01*
X76569Y-79800D01*
X76693Y-80740D01*
X77055Y-81616D01*
X77632Y-82368D01*
X78385Y-82945D01*
X79260Y-83307D01*
X80200Y-83431D01*
X81140Y-83307D01*
X82016Y-82945D01*
X82768Y-82368D01*
X83345Y-81616D01*
X83707Y-80740D01*
X83831Y-79800D01*
X83707Y-78860D01*
X83345Y-77984D01*
X82768Y-77232D01*
X82016Y-76655D01*
X81140Y-76293D01*
X80200Y-76169D01*
D02*
G37*
G36*
X70200D02*
X69260Y-76293D01*
X68384Y-76655D01*
X67632Y-77232D01*
X67055Y-77984D01*
X66693Y-78860D01*
X66569Y-79800D01*
X66693Y-80740D01*
X67055Y-81616D01*
X67632Y-82368D01*
X68384Y-82945D01*
X69260Y-83307D01*
X70200Y-83431D01*
X71140Y-83307D01*
X72016Y-82945D01*
X72768Y-82368D01*
X73345Y-81616D01*
X73707Y-80740D01*
X73831Y-79800D01*
X73707Y-78860D01*
X73345Y-77984D01*
X72768Y-77232D01*
X72016Y-76655D01*
X71140Y-76293D01*
X70200Y-76169D01*
D02*
G37*
G36*
X-90500Y-80536D02*
Y-83500D01*
X-87536D01*
X-87590Y-83086D01*
X-87943Y-82235D01*
X-88504Y-81504D01*
X-89235Y-80943D01*
X-90086Y-80590D01*
X-90500Y-80536D01*
D02*
G37*
G36*
X-91500D02*
X-91914Y-80590D01*
X-92765Y-80943D01*
X-93496Y-81504D01*
X-94057Y-82235D01*
X-94410Y-83086D01*
X-94464Y-83500D01*
X-91500D01*
Y-80536D01*
D02*
G37*
G36*
X-87536Y-84500D02*
X-90500D01*
Y-87464D01*
X-90086Y-87410D01*
X-89235Y-87057D01*
X-88504Y-86496D01*
X-87943Y-85765D01*
X-87590Y-84914D01*
X-87536Y-84500D01*
D02*
G37*
G36*
X-91500D02*
X-94464D01*
X-94410Y-84914D01*
X-94057Y-85765D01*
X-93496Y-86496D01*
X-92765Y-87057D01*
X-91914Y-87410D01*
X-91500Y-87464D01*
Y-84500D01*
D02*
G37*
G36*
X-111352Y-80852D02*
X-119048D01*
Y-88548D01*
X-111352D01*
Y-80852D01*
D02*
G37*
G36*
X22500Y-36665D02*
X21798Y-36804D01*
X21202Y-37202D01*
X20804Y-37798D01*
X20665Y-38500D01*
X20804Y-39202D01*
X20878Y-39312D01*
X20851Y-39338D01*
X20652Y-39636D01*
X20582Y-39987D01*
Y-93948D01*
X20202Y-94202D01*
X19804Y-94798D01*
X19665Y-95500D01*
X19804Y-96202D01*
X20202Y-96798D01*
X20798Y-97196D01*
X21500Y-97335D01*
X22202Y-97196D01*
X22798Y-96798D01*
X23196Y-96202D01*
X23335Y-95500D01*
X23196Y-94798D01*
X22798Y-94202D01*
X22418Y-93948D01*
Y-40823D01*
X22500Y-40335D01*
X23202Y-40196D01*
X23798Y-39798D01*
X24196Y-39202D01*
X24335Y-38500D01*
X24196Y-37798D01*
X23798Y-37202D01*
X23202Y-36804D01*
X22500Y-36665D01*
D02*
G37*
G36*
X-3000Y-94536D02*
Y-97500D01*
X-36D01*
X-90Y-97086D01*
X-443Y-96235D01*
X-1004Y-95504D01*
X-1735Y-94943D01*
X-2586Y-94590D01*
X-3000Y-94536D01*
D02*
G37*
G36*
X-4000D02*
X-4414Y-94590D01*
X-5265Y-94943D01*
X-5996Y-95504D01*
X-6557Y-96235D01*
X-6910Y-97086D01*
X-6964Y-97500D01*
X-4000D01*
Y-94536D01*
D02*
G37*
G36*
X-36Y-98500D02*
X-3000D01*
Y-101464D01*
X-2586Y-101410D01*
X-1735Y-101057D01*
X-1004Y-100496D01*
X-443Y-99765D01*
X-90Y-98914D01*
X-36Y-98500D01*
D02*
G37*
G36*
X-4000D02*
X-6964D01*
X-6910Y-98914D01*
X-6557Y-99765D01*
X-5996Y-100496D01*
X-5265Y-101057D01*
X-4414Y-101410D01*
X-4000Y-101464D01*
Y-98500D01*
D02*
G37*
G36*
X74500Y-99536D02*
Y-102500D01*
X77464D01*
X77410Y-102086D01*
X77057Y-101235D01*
X76496Y-100504D01*
X75765Y-99943D01*
X74914Y-99590D01*
X74500Y-99536D01*
D02*
G37*
G36*
X73500D02*
X73086Y-99590D01*
X72235Y-99943D01*
X71504Y-100504D01*
X70943Y-101235D01*
X70590Y-102086D01*
X70536Y-102500D01*
X73500D01*
Y-99536D01*
D02*
G37*
G36*
X77464Y-103500D02*
X74500D01*
Y-106464D01*
X74914Y-106410D01*
X75765Y-106057D01*
X76496Y-105496D01*
X77057Y-104765D01*
X77410Y-103914D01*
X77464Y-103500D01*
D02*
G37*
G36*
X73500D02*
X70536D01*
X70590Y-103914D01*
X70943Y-104765D01*
X71504Y-105496D01*
X72235Y-106057D01*
X73086Y-106410D01*
X73500Y-106464D01*
Y-103500D01*
D02*
G37*
%LPD*%
D10*
X-9500Y-131300D02*
Y-131000D01*
X-9200Y-130700D01*
Y-124300D01*
X3900Y-111200D01*
D81*
X69800Y-129300D02*
X84900Y-144400D01*
Y-157000D02*
Y-144400D01*
Y-157000D02*
X106400Y-178500D01*
X-87600Y-113800D02*
X-77700Y-103900D01*
X-78900Y-47800D02*
X-77700Y-49000D01*
Y-103900D02*
Y-49000D01*
X106400Y-178500D02*
X108300Y-180400D01*
X73000Y-178500D02*
X106400D01*
X62600Y-168100D02*
X73000Y-178500D01*
X-2500Y-166500D02*
X77000D01*
X78000Y-167500D01*
X87500D01*
X-8000Y-161000D02*
X-2500Y-166500D01*
X22500Y-38987D02*
Y-38500D01*
X21500Y-39987D02*
X22500Y-38987D01*
X21500Y-95500D02*
Y-39987D01*
X47800Y-83500D02*
X60700Y-70600D01*
X67442Y-63858D01*
Y-62558D01*
X70200Y-59800D01*
X110600Y-52300D02*
X115200Y-47700D01*
X97800Y-52300D02*
X110600D01*
X-3900Y-168100D02*
X62600D01*
X-7000Y-165000D02*
X-3900Y-168100D01*
X-8100Y3400D02*
X600Y-5300D01*
X-8100Y3400D02*
Y32100D01*
X-69800Y-64400D02*
Y-35300D01*
X-78300Y-26800D02*
X-69800Y-35300D01*
X-72100Y-67900D02*
Y-42700D01*
X-78700Y-36100D02*
X-72100Y-42700D01*
X-24000Y-119500D02*
Y-110200D01*
X-69800Y-64400D02*
X-24000Y-110200D01*
X-72100Y-67900D02*
X-28500Y-111500D01*
X-102752Y-18848D02*
X-74800Y-46800D01*
Y-70200D02*
Y-46800D01*
Y-70200D02*
X-31000Y-114000D01*
X-102752Y-18848D02*
Y-1749D01*
X-100500Y-79400D02*
X-99900Y-78800D01*
Y-76000D01*
X-102200Y-88300D02*
X-96100Y-94400D01*
X-84200Y-78800D02*
Y-77000D01*
X-84500Y-76700D02*
X-84200Y-77000D01*
X-110200Y-72100D02*
X-94400Y-87900D01*
Y-120800D02*
Y-87900D01*
X-115200Y-74700D02*
X-114534D01*
X-111934Y-72100D01*
X-110200D01*
X-115200Y-64700D02*
X-100500Y-79400D01*
X-84200Y-78800D02*
X-83000Y-80000D01*
X-96100Y-121649D02*
Y-94400D01*
X-83000Y-104200D02*
Y-80000D01*
X93300Y-58100D02*
X93500Y-57900D01*
X115000D01*
X115200Y-57700D01*
X57500Y-82900D02*
X65300Y-75100D01*
X46699Y-83500D02*
X47800D01*
X-16632Y-146831D02*
X46699Y-83500D01*
X79149Y-92300D02*
X79500Y-92651D01*
X49700Y-92300D02*
X79149D01*
X79500Y-94800D02*
Y-92651D01*
Y-94800D02*
X86200Y-101500D01*
X27000Y-115000D02*
X49700Y-92300D01*
X44900Y29100D02*
Y30900D01*
Y29100D02*
X59400Y14600D01*
X31500Y44300D02*
X44900Y30900D01*
X59400Y-2000D02*
Y14600D01*
X-94400Y-120800D02*
X-83900Y-131300D01*
X55400Y-84900D02*
X57400Y-82900D01*
X57500D01*
X55400Y-87000D02*
Y-84900D01*
X47600Y-87000D02*
X55400D01*
X-44350Y-127250D02*
X-38600Y-121500D01*
X-60800Y-143700D02*
X-44350Y-127250D01*
X-45300Y-126300D02*
X-44350Y-127250D01*
X-45300Y-126300D02*
Y-126000D01*
X-84548Y-133200D02*
X-69398D01*
X-64202Y-138396D01*
X-63600Y-143700D02*
X-60800D01*
X-57900Y-124100D02*
X-57700D01*
X-59600Y-122400D02*
X-57900Y-124100D01*
X-62844Y-127544D02*
X-62500Y-127200D01*
X-62844Y-128893D02*
Y-127544D01*
X-62852Y-128900D02*
X-62844Y-128893D01*
X-83400Y-128900D02*
X-62852D01*
X-65100Y-131300D02*
X-64249Y-132151D01*
X-83900Y-131300D02*
X-65100D01*
X-91900Y-120400D02*
X-83400Y-128900D01*
X-96100Y-121649D02*
X-84548Y-133200D01*
X-63752Y-132151D02*
X-63700Y-132100D01*
X-64249Y-132151D02*
X-63752D01*
X-63400Y-122400D02*
X-59600D01*
X-65400Y-124400D02*
X-63400Y-122400D01*
X-83100Y-124400D02*
X-65400D01*
X-87600Y-119900D02*
X-83100Y-124400D01*
X-87600Y-119900D02*
Y-113800D01*
X-91900Y-120400D02*
Y-113100D01*
X-83000Y-104200D01*
X-38600Y-121500D02*
X-36500D01*
X-10048Y-68248D02*
X-8851D01*
X-8600Y-68500D01*
X-13700Y-71900D02*
X-10048Y-68248D01*
X-13700Y-87600D02*
Y-71900D01*
X-10300Y-136300D02*
X-9956Y-135956D01*
X-9300Y-135900D02*
X7500Y-119100D01*
X-9456Y-135956D02*
X-9400Y-135900D01*
X7500Y-119100D02*
Y-114300D01*
X-9956Y-135956D02*
X-9456D01*
X-9400Y-135900D02*
X-9300D01*
X-17900Y-152500D02*
X47600Y-87000D01*
X-11000Y-165000D02*
X-7000D01*
X-31000Y-120000D02*
Y-114000D01*
X-28500Y-122500D02*
Y-111500D01*
Y-122500D02*
X-25500Y-125500D01*
X-103000Y-1500D02*
X-102752Y-1749D01*
X-31500Y-120500D02*
X-31000Y-120000D01*
X-31500Y-126500D02*
Y-120500D01*
X7900Y36100D02*
X8630D01*
D82*
X84900Y9100D02*
Y21900D01*
X84800Y9200D02*
X84900Y9100D01*
Y-12000D02*
Y9100D01*
X41391Y-10109D02*
X64109D01*
X-32500Y-84000D02*
X41391Y-10109D01*
X64109D02*
X66000Y-12000D01*
X84500Y22300D02*
X84900Y21900D01*
X66000Y-12000D02*
X84900D01*
X8630Y36100D02*
X16400Y28330D01*
X-53500Y-128308D02*
X-51192D01*
X-51000Y-128500D01*
X-53500Y-128308D02*
Y-111500D01*
X-64500Y-100500D02*
X-53500Y-111500D01*
X4251Y50748D02*
X7400Y47600D01*
X-1100Y50748D02*
X4251D01*
D84*
X-63700Y139100D02*
Y155200D01*
X-73242Y164743D02*
X-63700Y155200D01*
Y139100D02*
X-61175Y136575D01*
X-62500Y137800D02*
X-51400Y126700D01*
X-32000Y107300D01*
Y71200D02*
Y107300D01*
X-15000Y39000D02*
X-8100Y32100D01*
X-32000Y71200D02*
X-15000Y54200D01*
Y39000D02*
Y54200D01*
X-103926Y164743D02*
X-73242D01*
D85*
X70200Y-39800D02*
D03*
Y-49800D02*
D03*
X80200Y-39800D02*
D03*
Y-49800D02*
D03*
Y-59800D02*
D03*
X70200D02*
D03*
X80200Y-69800D02*
D03*
X70200D02*
D03*
X80200Y-79800D02*
D03*
X70200D02*
D03*
D86*
X-67478Y32100D02*
D03*
X-91100D02*
D03*
X-79289Y13596D02*
D03*
X-96606Y-155450D02*
D03*
X96268D02*
D03*
Y128050D02*
D03*
X-96606D02*
D03*
D87*
X-77512Y102100D02*
D03*
Y152100D02*
D03*
D88*
X74496Y117848D02*
D03*
X-43496Y136352D02*
D03*
D89*
X-104179Y145057D02*
D03*
Y154900D02*
D03*
Y164743D02*
D03*
X106699Y47824D02*
D03*
Y57666D02*
D03*
Y67509D02*
D03*
D90*
X-115200Y-84700D02*
D03*
X115200Y-77700D02*
D03*
D91*
X-115200Y-74700D02*
D03*
Y-64700D02*
D03*
Y-54700D02*
D03*
Y-44700D02*
D03*
Y-34700D02*
D03*
Y-24700D02*
D03*
Y-14700D02*
D03*
Y-4700D02*
D03*
Y5300D02*
D03*
X115200Y-67700D02*
D03*
Y-57700D02*
D03*
Y-47700D02*
D03*
Y-37700D02*
D03*
Y-27700D02*
D03*
Y-17700D02*
D03*
Y-7700D02*
D03*
Y2300D02*
D03*
Y12300D02*
D03*
D92*
X63200Y-148800D02*
D03*
X-89300Y-59800D02*
D03*
X62200Y29200D02*
D03*
D93*
X87500Y-167500D02*
D03*
X108300Y-180400D02*
D03*
X-106300Y-58800D02*
D03*
X97800Y-52300D02*
D03*
X65300Y-75100D02*
D03*
X-78300Y-26800D02*
D03*
X-78700Y-36100D02*
D03*
X-99900Y-76000D02*
D03*
X-102200Y-88300D02*
D03*
X-84500Y-76700D02*
D03*
X93300Y-58100D02*
D03*
X60700Y-70600D02*
D03*
X86200Y-101500D02*
D03*
X31500Y44300D02*
D03*
X59400Y-2000D02*
D03*
X84800Y9200D02*
D03*
X84900Y-12000D02*
D03*
X16400Y28330D02*
D03*
X600Y-5300D02*
D03*
X69800Y-129300D02*
D03*
X-78900Y-47800D02*
D03*
X-45300Y-126000D02*
D03*
X-64202Y-138396D02*
D03*
X-63600Y-143700D02*
D03*
X-57700Y-124100D02*
D03*
X-62500Y-127200D02*
D03*
X-63700Y-132100D02*
D03*
X-8600Y-68500D02*
D03*
X-13700Y-87600D02*
D03*
X-9500Y-131300D02*
D03*
X-10300Y-136300D02*
D03*
X3900Y-111200D02*
D03*
X-16632Y-146831D02*
D03*
X-17900Y-152500D02*
D03*
X7500Y-114300D02*
D03*
X27000Y-115000D02*
D03*
X22500Y-38500D02*
D03*
X21500Y-95500D02*
D03*
X-51000Y-128500D02*
D03*
X-64500Y-100500D02*
D03*
X-32500Y-84000D02*
D03*
X-11000Y-165000D02*
D03*
X-8000Y-161000D02*
D03*
X-24000Y-119500D02*
D03*
X-25500Y-125500D02*
D03*
X-103000Y-1500D02*
D03*
X-31500Y-126500D02*
D03*
X-36500Y-121500D02*
D03*
X7900Y36100D02*
D03*
X-1100Y50748D02*
D03*
X-8100Y32100D02*
D03*
X7400Y47600D02*
D03*
D94*
X-80200Y-161000D02*
D03*
X-81300Y-151100D02*
D03*
X-76800Y-147400D02*
D03*
X-120100Y-127900D02*
D03*
X-111900D02*
D03*
X-120100Y-145900D02*
D03*
Y-172800D02*
D03*
X-93100D02*
D03*
X-65600D02*
D03*
X30700Y-172300D02*
D03*
X58200D02*
D03*
X110100Y-139000D02*
D03*
X105200Y-133800D02*
D03*
X100400Y-129300D02*
D03*
X96000Y-124900D02*
D03*
X88000Y-123500D02*
D03*
X78100Y-122900D02*
D03*
X72700Y-118100D02*
D03*
X59700Y-113600D02*
D03*
X38700Y-113800D02*
D03*
X49400D02*
D03*
D95*
X74000Y-103000D02*
D03*
X-91000Y-84000D02*
D03*
X55100Y-13800D02*
D03*
X81000Y-171000D02*
D03*
X-3500Y-98000D02*
D03*
M02*
