G04*
G04 #@! TF.GenerationSoftware,Altium Limited,Altium Designer,19.1.7 (138)*
G04*
G04 Layer_Color=8388736*
%FSLAX25Y25*%
%MOIN*%
G70*
G01*
G75*
%ADD42C,0.02769*%
%ADD43R,0.07887X0.14186*%
%ADD44R,0.03162X0.03162*%
%ADD45R,0.05328X0.03753*%
%ADD46R,0.04540X0.06312*%
%ADD47R,0.04400X0.03200*%
%ADD48R,0.04737X0.04737*%
%ADD49R,0.04343X0.06509*%
%ADD50R,0.03200X0.04400*%
G04:AMPARAMS|DCode=51|XSize=78.87mil|YSize=47.37mil|CornerRadius=0mil|HoleSize=0mil|Usage=FLASHONLY|Rotation=225.000|XOffset=0mil|YOffset=0mil|HoleType=Round|Shape=Rectangle|*
%AMROTATEDRECTD51*
4,1,4,0.01114,0.04463,0.04463,0.01114,-0.01114,-0.04463,-0.04463,-0.01114,0.01114,0.04463,0.0*
%
%ADD51ROTATEDRECTD51*%

%ADD52R,0.05524X0.03162*%
%ADD53R,0.02178X0.03162*%
%ADD54R,0.07493X0.05131*%
%ADD55R,0.05721X0.03162*%
%ADD56R,0.02769X0.04934*%
%ADD57R,0.01981X0.04147*%
%ADD58R,0.04147X0.01981*%
%ADD59R,0.21469X0.21469*%
%ADD60R,0.14186X0.07887*%
G04:AMPARAMS|DCode=61|XSize=59.18mil|YSize=49.34mil|CornerRadius=0mil|HoleSize=0mil|Usage=FLASHONLY|Rotation=45.000|XOffset=0mil|YOffset=0mil|HoleType=Round|Shape=Rectangle|*
%AMROTATEDRECTD61*
4,1,4,-0.00348,-0.03837,-0.03837,-0.00348,0.00348,0.03837,0.03837,0.00348,-0.00348,-0.03837,0.0*
%
%ADD61ROTATEDRECTD61*%

%ADD62R,0.07690X0.04540*%
%ADD63R,0.07690X0.13398*%
%ADD64R,0.07099X0.10642*%
%ADD65R,0.04343X0.02572*%
G04:AMPARAMS|DCode=66|XSize=26.11mil|YSize=26.11mil|CornerRadius=8.53mil|HoleSize=0mil|Usage=FLASHONLY|Rotation=180.000|XOffset=0mil|YOffset=0mil|HoleType=Round|Shape=RoundedRectangle|*
%AMROUNDEDRECTD66*
21,1,0.02611,0.00906,0,0,180.0*
21,1,0.00906,0.02611,0,0,180.0*
1,1,0.01706,-0.00453,0.00453*
1,1,0.01706,0.00453,0.00453*
1,1,0.01706,0.00453,-0.00453*
1,1,0.01706,-0.00453,-0.00453*
%
%ADD66ROUNDEDRECTD66*%
G04:AMPARAMS|DCode=67|XSize=44mil|YSize=32mil|CornerRadius=0mil|HoleSize=0mil|Usage=FLASHONLY|Rotation=225.000|XOffset=0mil|YOffset=0mil|HoleType=Round|Shape=Rectangle|*
%AMROTATEDRECTD67*
4,1,4,0.00424,0.02687,0.02687,0.00424,-0.00424,-0.02687,-0.02687,-0.00424,0.00424,0.02687,0.0*
%
%ADD67ROTATEDRECTD67*%

%ADD68C,0.06800*%
%ADD69C,0.12611*%
%ADD70C,0.06824*%
%ADD71C,0.14383*%
%ADD72C,0.05918*%
%ADD73R,0.07296X0.07296*%
%ADD74C,0.07296*%
%ADD75C,0.16548*%
%ADD76C,0.03200*%
%ADD77C,0.02434*%
%ADD78C,0.05800*%
G36*
X-30425Y-174609D02*
X-30374Y-174619D01*
X-30325Y-174636D01*
X-30279Y-174658D01*
X-30236Y-174687D01*
X-30197Y-174721D01*
X-30163Y-174760D01*
X-30135Y-174803D01*
X-30112Y-174849D01*
X-30095Y-174898D01*
X-30085Y-174949D01*
X-30082Y-175000D01*
Y-177519D01*
X-6146D01*
X-6094Y-177522D01*
X-6044Y-177532D01*
X-5995Y-177549D01*
X-5948Y-177572D01*
X-5906Y-177600D01*
X-5867Y-177634D01*
X-5833Y-177673D01*
X-5804Y-177716D01*
X-5781Y-177762D01*
X-5765Y-177811D01*
X-5754Y-177862D01*
X-5751Y-177913D01*
Y-203346D01*
X-5754Y-203398D01*
X-5765Y-203449D01*
X-5781Y-203497D01*
X-5804Y-203544D01*
X-5833Y-203587D01*
X-5867Y-203625D01*
X-5906Y-203660D01*
X-5948Y-203688D01*
X-5995Y-203711D01*
X-6044Y-203728D01*
X-6094Y-203738D01*
X-6146Y-203741D01*
X-108035D01*
X-108087Y-203738D01*
X-108138Y-203728D01*
X-108186Y-203711D01*
X-108233Y-203688D01*
X-108276Y-203660D01*
X-108314Y-203625D01*
X-108348Y-203587D01*
X-108377Y-203544D01*
X-108400Y-203497D01*
X-108416Y-203449D01*
X-108427Y-203398D01*
X-108430Y-203346D01*
Y-198583D01*
X-108427Y-198531D01*
X-108416Y-198481D01*
X-108400Y-198432D01*
X-108377Y-198385D01*
X-108348Y-198343D01*
X-108314Y-198304D01*
X-108276Y-198270D01*
X-108233Y-198241D01*
X-108186Y-198218D01*
X-108138Y-198202D01*
X-108087Y-198191D01*
X-108035Y-198188D01*
X-43863D01*
Y-191891D01*
X-45634D01*
X-45685Y-191887D01*
X-45736Y-191877D01*
X-45785Y-191861D01*
X-45831Y-191838D01*
X-45874Y-191809D01*
X-45913Y-191775D01*
X-45947Y-191736D01*
X-45976Y-191693D01*
X-45998Y-191647D01*
X-46015Y-191598D01*
X-46025Y-191548D01*
X-46028Y-191496D01*
Y-188348D01*
X-48776Y-183258D01*
X-48785Y-183240D01*
X-48794Y-183222D01*
X-48796Y-183216D01*
X-48798Y-183211D01*
X-48804Y-183192D01*
X-48810Y-183173D01*
X-48811Y-183167D01*
X-48813Y-183162D01*
X-48816Y-183142D01*
X-48820Y-183122D01*
X-48821Y-183117D01*
X-48822Y-183111D01*
X-48822Y-183091D01*
X-48824Y-183071D01*
Y-175000D01*
X-48820Y-174949D01*
X-48810Y-174898D01*
X-48794Y-174849D01*
X-48771Y-174803D01*
X-48742Y-174760D01*
X-48708Y-174721D01*
X-48669Y-174687D01*
X-48626Y-174658D01*
X-48580Y-174636D01*
X-48531Y-174619D01*
X-48481Y-174609D01*
X-48429Y-174606D01*
X-46618D01*
X-46567Y-174609D01*
X-46516Y-174619D01*
X-46467Y-174636D01*
X-46421Y-174658D01*
X-46378Y-174687D01*
X-46339Y-174721D01*
X-46305Y-174760D01*
X-46276Y-174803D01*
X-46254Y-174849D01*
X-46237Y-174898D01*
X-46227Y-174949D01*
X-46224Y-175000D01*
Y-182920D01*
X-45361Y-185196D01*
X-31854D01*
X-31803Y-185199D01*
X-31752Y-185209D01*
X-31703Y-185226D01*
X-31657Y-185249D01*
X-31614Y-185277D01*
X-31575Y-185312D01*
X-31541Y-185350D01*
X-31513Y-185393D01*
X-31490Y-185440D01*
X-31473Y-185488D01*
X-31463Y-185539D01*
X-31460Y-185591D01*
Y-191496D01*
X-31463Y-191548D01*
X-31473Y-191598D01*
X-31490Y-191647D01*
X-31513Y-191693D01*
X-31541Y-191736D01*
X-31575Y-191775D01*
X-31614Y-191809D01*
X-31657Y-191838D01*
X-31703Y-191861D01*
X-31752Y-191877D01*
X-31803Y-191887D01*
X-31854Y-191891D01*
X-35397D01*
Y-194251D01*
X-13351D01*
Y-183387D01*
X-41500D01*
X-41552Y-183383D01*
X-41602Y-183373D01*
X-41651Y-183357D01*
X-41697Y-183334D01*
X-41740Y-183305D01*
X-41779Y-183271D01*
X-41813Y-183232D01*
X-41842Y-183189D01*
X-41864Y-183143D01*
X-41881Y-183094D01*
X-41891Y-183044D01*
X-41895Y-182992D01*
Y-175000D01*
X-41891Y-174949D01*
X-41881Y-174898D01*
X-41864Y-174849D01*
X-41842Y-174803D01*
X-41813Y-174760D01*
X-41779Y-174721D01*
X-41740Y-174687D01*
X-41697Y-174658D01*
X-41651Y-174636D01*
X-41602Y-174619D01*
X-41552Y-174609D01*
X-41500Y-174606D01*
X-37957D01*
X-37905Y-174609D01*
X-37855Y-174619D01*
X-37806Y-174636D01*
X-37759Y-174658D01*
X-37716Y-174687D01*
X-37678Y-174721D01*
X-37644Y-174760D01*
X-37615Y-174803D01*
X-37592Y-174849D01*
X-37576Y-174898D01*
X-37565Y-174949D01*
X-37562Y-175000D01*
Y-177519D01*
X-34414D01*
Y-175000D01*
X-34411Y-174949D01*
X-34401Y-174898D01*
X-34384Y-174849D01*
X-34361Y-174803D01*
X-34333Y-174760D01*
X-34299Y-174721D01*
X-34260Y-174687D01*
X-34217Y-174658D01*
X-34171Y-174636D01*
X-34122Y-174619D01*
X-34071Y-174609D01*
X-34020Y-174606D01*
X-30476D01*
X-30425Y-174609D01*
D02*
G37*
G36*
X15657Y9833D02*
X15681Y9832D01*
X15683Y9831D01*
X15686Y9831D01*
X15709Y9827D01*
X15732Y9822D01*
X15735Y9821D01*
X15737Y9821D01*
X15760Y9813D01*
X15782Y9806D01*
X15785Y9805D01*
X15787Y9804D01*
X15808Y9794D01*
X15830Y9783D01*
X15832Y9782D01*
X15834Y9781D01*
X15854Y9768D01*
X15874Y9755D01*
X15876Y9753D01*
X15878Y9752D01*
X15895Y9736D01*
X15913Y9721D01*
X15915Y9719D01*
X15917Y9717D01*
X15933Y9699D01*
X15948Y9682D01*
X15950Y9680D01*
X15951Y9678D01*
X15965Y9658D01*
X15978Y9639D01*
X15979Y9636D01*
X15981Y9634D01*
X15991Y9613D01*
X16002Y9592D01*
X16003Y9589D01*
X16004Y9587D01*
X16012Y9565D01*
X16019Y9542D01*
X16020Y9540D01*
X16021Y9538D01*
X16025Y9514D01*
X16030Y9491D01*
X16030Y9489D01*
X16031Y9486D01*
X16033Y9462D01*
X16034Y9439D01*
X16034Y9436D01*
X16034Y9434D01*
X16033Y9410D01*
X16032Y9386D01*
X16031Y9384D01*
X16031Y9381D01*
X16026Y9358D01*
X16022Y9335D01*
X16021Y9332D01*
X16021Y9330D01*
X16013Y9308D01*
X16006Y9285D01*
X14941Y6623D01*
X14940Y6621D01*
X14939Y6618D01*
X14928Y6597D01*
X14918Y6575D01*
X14917Y6573D01*
X14916Y6571D01*
X14902Y6551D01*
X14890Y6532D01*
X14888Y6530D01*
X14887Y6528D01*
X14871Y6510D01*
X14855Y6492D01*
X14854Y6490D01*
X14852Y6488D01*
X14834Y6472D01*
X14817Y6457D01*
X14815Y6455D01*
X14813Y6454D01*
X14793Y6440D01*
X14773Y6427D01*
X14771Y6426D01*
X14769Y6425D01*
X14748Y6414D01*
X14727Y6403D01*
X14724Y6402D01*
X14722Y6401D01*
X14699Y6394D01*
X14677Y6386D01*
X14675Y6385D01*
X14672Y6384D01*
X14649Y6380D01*
X14626Y6375D01*
X14623Y6375D01*
X14621Y6374D01*
X14597Y6373D01*
X14573Y6371D01*
X14571Y6371D01*
X14569Y6371D01*
X10632D01*
X10629Y6371D01*
X10627Y6371D01*
X10603Y6373D01*
X10579Y6374D01*
X10577Y6375D01*
X10574Y6375D01*
X10551Y6380D01*
X10528Y6384D01*
X10526Y6385D01*
X10523Y6386D01*
X10501Y6394D01*
X10478Y6401D01*
X10476Y6402D01*
X10474Y6403D01*
X10452Y6414D01*
X10431Y6425D01*
X10429Y6426D01*
X10427Y6427D01*
X10407Y6441D01*
X10388Y6454D01*
X10386Y6455D01*
X10384Y6457D01*
X10366Y6473D01*
X10348Y6488D01*
X10347Y6490D01*
X10345Y6492D01*
X10329Y6510D01*
X10314Y6528D01*
X10312Y6530D01*
X10311Y6532D01*
X10298Y6551D01*
X10284Y6571D01*
X10283Y6573D01*
X10282Y6575D01*
X10272Y6597D01*
X10261Y6618D01*
X10260Y6621D01*
X10259Y6623D01*
X9194Y9285D01*
X9187Y9308D01*
X9179Y9330D01*
X9179Y9332D01*
X9178Y9335D01*
X9174Y9358D01*
X9169Y9381D01*
X9169Y9384D01*
X9169Y9386D01*
X9167Y9410D01*
X9166Y9434D01*
X9166Y9436D01*
X9166Y9439D01*
X9168Y9462D01*
X9169Y9486D01*
X9170Y9489D01*
X9170Y9491D01*
X9175Y9514D01*
X9179Y9538D01*
X9180Y9540D01*
X9181Y9542D01*
X9189Y9565D01*
X9196Y9587D01*
X9197Y9589D01*
X9198Y9592D01*
X9209Y9613D01*
X9219Y9634D01*
X9221Y9636D01*
X9222Y9639D01*
X9235Y9658D01*
X9249Y9678D01*
X9250Y9680D01*
X9252Y9682D01*
X9267Y9699D01*
X9283Y9717D01*
X9285Y9719D01*
X9287Y9721D01*
X9305Y9736D01*
X9323Y9752D01*
X9325Y9753D01*
X9327Y9755D01*
X9346Y9768D01*
X9366Y9781D01*
X9369Y9782D01*
X9370Y9783D01*
X9392Y9794D01*
X9413Y9804D01*
X9416Y9805D01*
X9418Y9806D01*
X9441Y9813D01*
X9463Y9821D01*
X9465Y9821D01*
X9468Y9822D01*
X9491Y9827D01*
X9514Y9831D01*
X9517Y9831D01*
X9519Y9832D01*
X9543Y9833D01*
X9567Y9835D01*
X15633D01*
X15657Y9833D01*
D02*
G37*
G36*
X14571Y13697D02*
X14573Y13697D01*
X14597Y13695D01*
X14621Y13693D01*
X14623Y13693D01*
X14626Y13693D01*
X14649Y13688D01*
X14672Y13683D01*
X14675Y13682D01*
X14677Y13682D01*
X14700Y13674D01*
X14722Y13666D01*
X14724Y13665D01*
X14727Y13665D01*
X14748Y13654D01*
X14769Y13643D01*
X14771Y13642D01*
X14773Y13641D01*
X14793Y13627D01*
X14813Y13614D01*
X14815Y13612D01*
X14817Y13611D01*
X14834Y13595D01*
X14852Y13579D01*
X14854Y13578D01*
X14855Y13576D01*
X14871Y13558D01*
X14887Y13540D01*
X14888Y13538D01*
X14890Y13536D01*
X14902Y13516D01*
X14916Y13497D01*
X14917Y13494D01*
X14918Y13492D01*
X14928Y13471D01*
X14939Y13449D01*
X14940Y13447D01*
X14941Y13445D01*
X16006Y10783D01*
X16013Y10760D01*
X16021Y10738D01*
X16021Y10735D01*
X16022Y10733D01*
X16026Y10709D01*
X16031Y10686D01*
X16031Y10684D01*
X16032Y10681D01*
X16033Y10657D01*
X16034Y10634D01*
X16034Y10631D01*
X16034Y10629D01*
X16033Y10605D01*
X16031Y10582D01*
X16030Y10579D01*
X16030Y10577D01*
X16025Y10554D01*
X16021Y10530D01*
X16020Y10528D01*
X16019Y10525D01*
X16012Y10503D01*
X16004Y10480D01*
X16003Y10478D01*
X16002Y10476D01*
X15991Y10454D01*
X15981Y10433D01*
X15979Y10431D01*
X15978Y10429D01*
X15965Y10410D01*
X15951Y10390D01*
X15950Y10388D01*
X15948Y10386D01*
X15933Y10368D01*
X15917Y10350D01*
X15915Y10349D01*
X15913Y10347D01*
X15895Y10332D01*
X15878Y10316D01*
X15876Y10314D01*
X15874Y10313D01*
X15854Y10300D01*
X15834Y10287D01*
X15832Y10286D01*
X15830Y10284D01*
X15808Y10274D01*
X15787Y10264D01*
X15785Y10263D01*
X15782Y10262D01*
X15760Y10254D01*
X15737Y10247D01*
X15735Y10246D01*
X15732Y10245D01*
X15709Y10241D01*
X15686Y10236D01*
X15683Y10236D01*
X15681Y10236D01*
X15657Y10234D01*
X15633Y10233D01*
X9567D01*
X9543Y10234D01*
X9519Y10236D01*
X9517Y10236D01*
X9514Y10236D01*
X9491Y10241D01*
X9468Y10245D01*
X9465Y10246D01*
X9463Y10247D01*
X9441Y10254D01*
X9418Y10262D01*
X9416Y10263D01*
X9413Y10264D01*
X9392Y10274D01*
X9370Y10284D01*
X9369Y10286D01*
X9366Y10287D01*
X9346Y10300D01*
X9327Y10313D01*
X9325Y10314D01*
X9323Y10316D01*
X9305Y10332D01*
X9287Y10347D01*
X9285Y10349D01*
X9283Y10350D01*
X9267Y10368D01*
X9252Y10386D01*
X9250Y10388D01*
X9249Y10390D01*
X9235Y10410D01*
X9222Y10429D01*
X9221Y10431D01*
X9219Y10433D01*
X9209Y10454D01*
X9198Y10476D01*
X9197Y10478D01*
X9196Y10480D01*
X9189Y10503D01*
X9181Y10525D01*
X9180Y10528D01*
X9179Y10530D01*
X9175Y10554D01*
X9170Y10577D01*
X9170Y10579D01*
X9169Y10582D01*
X9168Y10605D01*
X9166Y10629D01*
X9166Y10631D01*
X9166Y10634D01*
X9167Y10657D01*
X9169Y10681D01*
X9169Y10684D01*
X9169Y10686D01*
X9174Y10709D01*
X9178Y10733D01*
X9179Y10735D01*
X9179Y10738D01*
X9187Y10760D01*
X9194Y10783D01*
X10259Y13445D01*
X10261Y13447D01*
X10261Y13449D01*
X10272Y13471D01*
X10282Y13492D01*
X10283Y13494D01*
X10284Y13497D01*
X10298Y13516D01*
X10311Y13536D01*
X10312Y13538D01*
X10314Y13540D01*
X10329Y13558D01*
X10345Y13576D01*
X10346Y13578D01*
X10348Y13579D01*
X10366Y13595D01*
X10384Y13611D01*
X10386Y13612D01*
X10388Y13614D01*
X10407Y13627D01*
X10427Y13641D01*
X10429Y13642D01*
X10431Y13643D01*
X10452Y13654D01*
X10474Y13665D01*
X10476Y13665D01*
X10478Y13666D01*
X10501Y13674D01*
X10523Y13682D01*
X10526Y13682D01*
X10528Y13683D01*
X10551Y13688D01*
X10574Y13693D01*
X10577Y13693D01*
X10579Y13693D01*
X10603Y13695D01*
X10627Y13697D01*
X10629Y13697D01*
X10632Y13697D01*
X14569D01*
X14571Y13697D01*
D02*
G37*
G36*
X118057Y-149201D02*
X118081Y-149202D01*
X118083Y-149202D01*
X118086Y-149203D01*
X118109Y-149207D01*
X118132Y-149212D01*
X118135Y-149212D01*
X118137Y-149213D01*
X118159Y-149220D01*
X118182Y-149228D01*
X118184Y-149229D01*
X118187Y-149230D01*
X118208Y-149240D01*
X118230Y-149250D01*
X118232Y-149252D01*
X118234Y-149253D01*
X118254Y-149266D01*
X118273Y-149279D01*
X118275Y-149281D01*
X118277Y-149282D01*
X118295Y-149298D01*
X118313Y-149313D01*
X118315Y-149315D01*
X118317Y-149317D01*
X118333Y-149335D01*
X118348Y-149352D01*
X118350Y-149354D01*
X118351Y-149356D01*
X118365Y-149376D01*
X118378Y-149395D01*
X118379Y-149398D01*
X118380Y-149400D01*
X118391Y-149421D01*
X118402Y-149442D01*
X118403Y-149444D01*
X118404Y-149447D01*
X118411Y-149469D01*
X118419Y-149492D01*
X118420Y-149494D01*
X118421Y-149496D01*
X118425Y-149520D01*
X118430Y-149543D01*
X118430Y-149545D01*
X118431Y-149548D01*
X118432Y-149572D01*
X118434Y-149595D01*
X118434Y-149598D01*
X118434Y-149600D01*
X118433Y-149624D01*
X118431Y-149647D01*
X118431Y-149650D01*
X118431Y-149652D01*
X118426Y-149675D01*
X118422Y-149699D01*
X118421Y-149701D01*
X118421Y-149704D01*
X118413Y-149726D01*
X118406Y-149749D01*
X117341Y-152411D01*
X117340Y-152413D01*
X117339Y-152416D01*
X117328Y-152437D01*
X117318Y-152458D01*
X117317Y-152460D01*
X117316Y-152463D01*
X117302Y-152482D01*
X117289Y-152502D01*
X117288Y-152504D01*
X117287Y-152506D01*
X117271Y-152524D01*
X117255Y-152542D01*
X117254Y-152544D01*
X117252Y-152546D01*
X117234Y-152561D01*
X117216Y-152577D01*
X117214Y-152579D01*
X117212Y-152580D01*
X117193Y-152594D01*
X117173Y-152607D01*
X117171Y-152608D01*
X117169Y-152609D01*
X117148Y-152620D01*
X117126Y-152631D01*
X117124Y-152631D01*
X117122Y-152633D01*
X117099Y-152640D01*
X117077Y-152648D01*
X117075Y-152649D01*
X117072Y-152649D01*
X117049Y-152654D01*
X117026Y-152659D01*
X117023Y-152659D01*
X117021Y-152660D01*
X116997Y-152661D01*
X116973Y-152663D01*
X116971Y-152663D01*
X116969Y-152663D01*
X113031D01*
X113029Y-152663D01*
X113027Y-152663D01*
X113003Y-152661D01*
X112979Y-152660D01*
X112977Y-152659D01*
X112974Y-152659D01*
X112951Y-152654D01*
X112928Y-152649D01*
X112926Y-152649D01*
X112923Y-152648D01*
X112900Y-152640D01*
X112878Y-152633D01*
X112876Y-152631D01*
X112874Y-152631D01*
X112852Y-152620D01*
X112831Y-152609D01*
X112829Y-152608D01*
X112827Y-152607D01*
X112807Y-152593D01*
X112787Y-152580D01*
X112786Y-152579D01*
X112784Y-152577D01*
X112766Y-152561D01*
X112748Y-152546D01*
X112747Y-152544D01*
X112745Y-152542D01*
X112729Y-152524D01*
X112714Y-152506D01*
X112712Y-152504D01*
X112710Y-152502D01*
X112698Y-152482D01*
X112684Y-152463D01*
X112683Y-152460D01*
X112682Y-152458D01*
X112672Y-152437D01*
X112661Y-152416D01*
X112660Y-152413D01*
X112659Y-152411D01*
X111594Y-149749D01*
X111587Y-149726D01*
X111579Y-149704D01*
X111579Y-149701D01*
X111578Y-149699D01*
X111574Y-149675D01*
X111569Y-149652D01*
X111569Y-149650D01*
X111569Y-149647D01*
X111567Y-149624D01*
X111566Y-149600D01*
X111566Y-149598D01*
X111566Y-149595D01*
X111568Y-149572D01*
X111569Y-149548D01*
X111570Y-149545D01*
X111570Y-149543D01*
X111575Y-149520D01*
X111579Y-149496D01*
X111580Y-149494D01*
X111581Y-149492D01*
X111589Y-149469D01*
X111596Y-149447D01*
X111597Y-149444D01*
X111598Y-149442D01*
X111609Y-149421D01*
X111619Y-149400D01*
X111621Y-149398D01*
X111622Y-149395D01*
X111635Y-149376D01*
X111649Y-149356D01*
X111650Y-149354D01*
X111652Y-149352D01*
X111667Y-149335D01*
X111683Y-149317D01*
X111685Y-149315D01*
X111687Y-149313D01*
X111705Y-149298D01*
X111723Y-149282D01*
X111725Y-149281D01*
X111726Y-149279D01*
X111746Y-149266D01*
X111766Y-149253D01*
X111768Y-149252D01*
X111770Y-149250D01*
X111792Y-149240D01*
X111813Y-149230D01*
X111816Y-149229D01*
X111818Y-149228D01*
X111840Y-149220D01*
X111863Y-149213D01*
X111865Y-149212D01*
X111868Y-149212D01*
X111891Y-149207D01*
X111914Y-149203D01*
X111917Y-149202D01*
X111919Y-149202D01*
X111943Y-149201D01*
X111967Y-149199D01*
X118033D01*
X118057Y-149201D01*
D02*
G37*
G36*
X116971Y-145337D02*
X116973Y-145337D01*
X116997Y-145339D01*
X117021Y-145340D01*
X117023Y-145341D01*
X117026Y-145341D01*
X117049Y-145346D01*
X117072Y-145351D01*
X117075Y-145351D01*
X117077Y-145352D01*
X117100Y-145360D01*
X117122Y-145367D01*
X117124Y-145369D01*
X117126Y-145369D01*
X117148Y-145380D01*
X117169Y-145391D01*
X117171Y-145392D01*
X117173Y-145393D01*
X117193Y-145407D01*
X117212Y-145420D01*
X117214Y-145421D01*
X117216Y-145423D01*
X117234Y-145439D01*
X117252Y-145454D01*
X117253Y-145456D01*
X117255Y-145458D01*
X117271Y-145476D01*
X117287Y-145494D01*
X117288Y-145496D01*
X117289Y-145498D01*
X117302Y-145518D01*
X117316Y-145537D01*
X117317Y-145540D01*
X117318Y-145542D01*
X117328Y-145563D01*
X117339Y-145584D01*
X117340Y-145587D01*
X117341Y-145589D01*
X118406Y-148251D01*
X118413Y-148274D01*
X118421Y-148296D01*
X118421Y-148299D01*
X118422Y-148301D01*
X118426Y-148325D01*
X118431Y-148348D01*
X118431Y-148350D01*
X118431Y-148353D01*
X118433Y-148376D01*
X118434Y-148400D01*
X118434Y-148402D01*
X118434Y-148405D01*
X118432Y-148428D01*
X118431Y-148452D01*
X118430Y-148455D01*
X118430Y-148457D01*
X118425Y-148480D01*
X118421Y-148504D01*
X118420Y-148506D01*
X118419Y-148509D01*
X118411Y-148531D01*
X118404Y-148553D01*
X118403Y-148556D01*
X118402Y-148558D01*
X118391Y-148579D01*
X118380Y-148600D01*
X118379Y-148602D01*
X118378Y-148605D01*
X118365Y-148624D01*
X118351Y-148644D01*
X118350Y-148646D01*
X118348Y-148648D01*
X118333Y-148665D01*
X118317Y-148683D01*
X118315Y-148685D01*
X118313Y-148687D01*
X118295Y-148702D01*
X118277Y-148718D01*
X118275Y-148719D01*
X118273Y-148721D01*
X118254Y-148734D01*
X118234Y-148747D01*
X118232Y-148748D01*
X118230Y-148750D01*
X118208Y-148760D01*
X118187Y-148770D01*
X118184Y-148771D01*
X118182Y-148772D01*
X118159Y-148780D01*
X118137Y-148787D01*
X118135Y-148788D01*
X118132Y-148788D01*
X118109Y-148793D01*
X118086Y-148797D01*
X118083Y-148798D01*
X118081Y-148798D01*
X118057Y-148799D01*
X118033Y-148801D01*
X111967D01*
X111943Y-148799D01*
X111919Y-148798D01*
X111917Y-148798D01*
X111914Y-148797D01*
X111891Y-148793D01*
X111868Y-148788D01*
X111865Y-148788D01*
X111863Y-148787D01*
X111840Y-148780D01*
X111818Y-148772D01*
X111816Y-148771D01*
X111813Y-148770D01*
X111792Y-148760D01*
X111770Y-148750D01*
X111768Y-148748D01*
X111766Y-148747D01*
X111746Y-148734D01*
X111726Y-148721D01*
X111725Y-148719D01*
X111723Y-148718D01*
X111705Y-148702D01*
X111687Y-148687D01*
X111685Y-148685D01*
X111683Y-148683D01*
X111667Y-148665D01*
X111652Y-148648D01*
X111650Y-148646D01*
X111649Y-148644D01*
X111635Y-148624D01*
X111622Y-148605D01*
X111621Y-148602D01*
X111619Y-148600D01*
X111609Y-148579D01*
X111598Y-148558D01*
X111597Y-148556D01*
X111596Y-148553D01*
X111589Y-148531D01*
X111581Y-148509D01*
X111580Y-148506D01*
X111579Y-148504D01*
X111575Y-148480D01*
X111570Y-148457D01*
X111570Y-148455D01*
X111569Y-148452D01*
X111568Y-148428D01*
X111566Y-148405D01*
X111566Y-148402D01*
X111566Y-148400D01*
X111567Y-148376D01*
X111569Y-148353D01*
X111569Y-148350D01*
X111569Y-148348D01*
X111574Y-148325D01*
X111578Y-148301D01*
X111579Y-148299D01*
X111579Y-148296D01*
X111587Y-148274D01*
X111594Y-148251D01*
X112659Y-145589D01*
X112660Y-145587D01*
X112661Y-145584D01*
X112672Y-145563D01*
X112682Y-145542D01*
X112683Y-145540D01*
X112684Y-145537D01*
X112698Y-145518D01*
X112710Y-145498D01*
X112712Y-145496D01*
X112714Y-145494D01*
X112729Y-145476D01*
X112745Y-145458D01*
X112746Y-145456D01*
X112748Y-145454D01*
X112766Y-145439D01*
X112784Y-145423D01*
X112786Y-145421D01*
X112787Y-145420D01*
X112807Y-145406D01*
X112827Y-145393D01*
X112829Y-145392D01*
X112831Y-145391D01*
X112852Y-145380D01*
X112874Y-145369D01*
X112876Y-145369D01*
X112878Y-145367D01*
X112901Y-145360D01*
X112923Y-145352D01*
X112925Y-145351D01*
X112928Y-145351D01*
X112951Y-145346D01*
X112974Y-145341D01*
X112977Y-145341D01*
X112979Y-145340D01*
X113003Y-145339D01*
X113027Y-145337D01*
X113029Y-145337D01*
X113031Y-145337D01*
X116969D01*
X116971Y-145337D01*
D02*
G37*
G36*
X53057Y-26701D02*
X53081Y-26702D01*
X53083Y-26702D01*
X53086Y-26703D01*
X53109Y-26707D01*
X53132Y-26712D01*
X53135Y-26712D01*
X53137Y-26713D01*
X53159Y-26720D01*
X53182Y-26728D01*
X53184Y-26729D01*
X53187Y-26730D01*
X53208Y-26740D01*
X53230Y-26750D01*
X53232Y-26752D01*
X53234Y-26753D01*
X53254Y-26766D01*
X53273Y-26779D01*
X53275Y-26781D01*
X53277Y-26782D01*
X53295Y-26798D01*
X53313Y-26813D01*
X53315Y-26815D01*
X53317Y-26817D01*
X53333Y-26835D01*
X53348Y-26852D01*
X53350Y-26854D01*
X53351Y-26856D01*
X53365Y-26876D01*
X53378Y-26895D01*
X53379Y-26898D01*
X53381Y-26900D01*
X53391Y-26921D01*
X53402Y-26942D01*
X53403Y-26944D01*
X53404Y-26947D01*
X53411Y-26969D01*
X53419Y-26992D01*
X53420Y-26994D01*
X53421Y-26996D01*
X53425Y-27020D01*
X53430Y-27043D01*
X53430Y-27045D01*
X53431Y-27048D01*
X53432Y-27071D01*
X53434Y-27095D01*
X53434Y-27098D01*
X53434Y-27100D01*
X53433Y-27124D01*
X53431Y-27147D01*
X53431Y-27150D01*
X53431Y-27152D01*
X53426Y-27175D01*
X53422Y-27199D01*
X53421Y-27201D01*
X53421Y-27204D01*
X53413Y-27226D01*
X53406Y-27249D01*
X52341Y-29911D01*
X52340Y-29913D01*
X52339Y-29916D01*
X52328Y-29937D01*
X52318Y-29958D01*
X52317Y-29960D01*
X52316Y-29963D01*
X52302Y-29983D01*
X52289Y-30002D01*
X52288Y-30004D01*
X52286Y-30006D01*
X52271Y-30024D01*
X52255Y-30042D01*
X52254Y-30044D01*
X52252Y-30046D01*
X52234Y-30062D01*
X52216Y-30077D01*
X52214Y-30079D01*
X52213Y-30080D01*
X52193Y-30094D01*
X52173Y-30107D01*
X52171Y-30108D01*
X52169Y-30109D01*
X52148Y-30120D01*
X52126Y-30131D01*
X52124Y-30132D01*
X52122Y-30133D01*
X52099Y-30140D01*
X52077Y-30148D01*
X52075Y-30149D01*
X52072Y-30149D01*
X52049Y-30154D01*
X52026Y-30159D01*
X52023Y-30159D01*
X52021Y-30160D01*
X51997Y-30161D01*
X51973Y-30163D01*
X51971Y-30163D01*
X51968Y-30163D01*
X48031D01*
X48029Y-30163D01*
X48027Y-30163D01*
X48003Y-30161D01*
X47979Y-30160D01*
X47977Y-30159D01*
X47974Y-30159D01*
X47951Y-30154D01*
X47928Y-30149D01*
X47925Y-30149D01*
X47923Y-30148D01*
X47900Y-30140D01*
X47878Y-30133D01*
X47876Y-30132D01*
X47874Y-30131D01*
X47852Y-30120D01*
X47831Y-30109D01*
X47829Y-30108D01*
X47827Y-30107D01*
X47807Y-30093D01*
X47787Y-30080D01*
X47786Y-30079D01*
X47784Y-30077D01*
X47766Y-30061D01*
X47748Y-30046D01*
X47747Y-30044D01*
X47745Y-30042D01*
X47729Y-30024D01*
X47714Y-30006D01*
X47712Y-30004D01*
X47710Y-30002D01*
X47698Y-29983D01*
X47684Y-29963D01*
X47683Y-29960D01*
X47682Y-29958D01*
X47672Y-29937D01*
X47661Y-29916D01*
X47660Y-29913D01*
X47659Y-29911D01*
X46594Y-27249D01*
X46587Y-27226D01*
X46579Y-27204D01*
X46579Y-27201D01*
X46578Y-27199D01*
X46574Y-27175D01*
X46569Y-27152D01*
X46569Y-27150D01*
X46569Y-27147D01*
X46567Y-27124D01*
X46566Y-27100D01*
X46566Y-27098D01*
X46566Y-27095D01*
X46568Y-27071D01*
X46569Y-27048D01*
X46570Y-27045D01*
X46570Y-27043D01*
X46575Y-27020D01*
X46579Y-26996D01*
X46580Y-26994D01*
X46581Y-26992D01*
X46589Y-26969D01*
X46596Y-26947D01*
X46597Y-26944D01*
X46598Y-26942D01*
X46609Y-26921D01*
X46619Y-26900D01*
X46621Y-26898D01*
X46622Y-26895D01*
X46635Y-26876D01*
X46649Y-26856D01*
X46650Y-26854D01*
X46652Y-26852D01*
X46667Y-26835D01*
X46683Y-26817D01*
X46685Y-26815D01*
X46687Y-26813D01*
X46705Y-26798D01*
X46723Y-26782D01*
X46725Y-26781D01*
X46727Y-26779D01*
X46746Y-26766D01*
X46766Y-26753D01*
X46768Y-26752D01*
X46770Y-26750D01*
X46792Y-26740D01*
X46813Y-26730D01*
X46815Y-26729D01*
X46818Y-26728D01*
X46841Y-26720D01*
X46863Y-26713D01*
X46865Y-26712D01*
X46868Y-26712D01*
X46891Y-26707D01*
X46914Y-26703D01*
X46917Y-26702D01*
X46919Y-26702D01*
X46943Y-26701D01*
X46967Y-26699D01*
X53033D01*
X53057Y-26701D01*
D02*
G37*
G36*
X51971Y-22837D02*
X51973Y-22837D01*
X51997Y-22839D01*
X52021Y-22840D01*
X52023Y-22841D01*
X52026Y-22841D01*
X52049Y-22846D01*
X52072Y-22851D01*
X52074Y-22851D01*
X52077Y-22852D01*
X52100Y-22860D01*
X52122Y-22867D01*
X52124Y-22869D01*
X52126Y-22869D01*
X52148Y-22880D01*
X52169Y-22891D01*
X52171Y-22892D01*
X52173Y-22893D01*
X52193Y-22907D01*
X52213Y-22920D01*
X52214Y-22921D01*
X52216Y-22923D01*
X52234Y-22939D01*
X52252Y-22954D01*
X52254Y-22956D01*
X52255Y-22958D01*
X52271Y-22976D01*
X52286Y-22994D01*
X52288Y-22996D01*
X52289Y-22998D01*
X52302Y-23018D01*
X52316Y-23037D01*
X52317Y-23040D01*
X52318Y-23042D01*
X52328Y-23063D01*
X52339Y-23084D01*
X52340Y-23087D01*
X52341Y-23089D01*
X53406Y-25751D01*
X53413Y-25774D01*
X53421Y-25796D01*
X53421Y-25799D01*
X53422Y-25801D01*
X53426Y-25825D01*
X53431Y-25848D01*
X53431Y-25850D01*
X53431Y-25853D01*
X53433Y-25876D01*
X53434Y-25900D01*
X53434Y-25902D01*
X53434Y-25905D01*
X53432Y-25929D01*
X53431Y-25952D01*
X53430Y-25955D01*
X53430Y-25957D01*
X53425Y-25980D01*
X53421Y-26004D01*
X53420Y-26006D01*
X53419Y-26008D01*
X53411Y-26031D01*
X53404Y-26053D01*
X53403Y-26056D01*
X53402Y-26058D01*
X53391Y-26079D01*
X53381Y-26100D01*
X53379Y-26102D01*
X53378Y-26105D01*
X53365Y-26124D01*
X53351Y-26144D01*
X53350Y-26146D01*
X53348Y-26148D01*
X53333Y-26165D01*
X53317Y-26183D01*
X53315Y-26185D01*
X53313Y-26187D01*
X53295Y-26202D01*
X53277Y-26218D01*
X53275Y-26219D01*
X53273Y-26221D01*
X53254Y-26234D01*
X53234Y-26247D01*
X53232Y-26248D01*
X53230Y-26250D01*
X53208Y-26260D01*
X53187Y-26270D01*
X53184Y-26271D01*
X53182Y-26272D01*
X53159Y-26280D01*
X53137Y-26287D01*
X53135Y-26288D01*
X53132Y-26288D01*
X53109Y-26293D01*
X53086Y-26297D01*
X53083Y-26298D01*
X53081Y-26298D01*
X53057Y-26299D01*
X53033Y-26301D01*
X46967D01*
X46943Y-26299D01*
X46919Y-26298D01*
X46917Y-26298D01*
X46914Y-26297D01*
X46891Y-26293D01*
X46868Y-26288D01*
X46865Y-26288D01*
X46863Y-26287D01*
X46841Y-26280D01*
X46818Y-26272D01*
X46815Y-26271D01*
X46813Y-26270D01*
X46792Y-26260D01*
X46770Y-26250D01*
X46768Y-26248D01*
X46766Y-26247D01*
X46746Y-26234D01*
X46727Y-26221D01*
X46725Y-26219D01*
X46723Y-26218D01*
X46705Y-26202D01*
X46687Y-26187D01*
X46685Y-26185D01*
X46683Y-26183D01*
X46667Y-26165D01*
X46652Y-26148D01*
X46650Y-26146D01*
X46649Y-26144D01*
X46635Y-26124D01*
X46622Y-26105D01*
X46621Y-26102D01*
X46619Y-26100D01*
X46609Y-26079D01*
X46598Y-26058D01*
X46597Y-26056D01*
X46596Y-26053D01*
X46589Y-26031D01*
X46581Y-26008D01*
X46580Y-26006D01*
X46579Y-26004D01*
X46575Y-25980D01*
X46570Y-25957D01*
X46570Y-25955D01*
X46569Y-25952D01*
X46568Y-25929D01*
X46566Y-25905D01*
X46566Y-25902D01*
X46566Y-25900D01*
X46567Y-25876D01*
X46569Y-25853D01*
X46569Y-25850D01*
X46569Y-25848D01*
X46574Y-25825D01*
X46578Y-25801D01*
X46579Y-25799D01*
X46579Y-25796D01*
X46587Y-25774D01*
X46594Y-25751D01*
X47659Y-23089D01*
X47660Y-23087D01*
X47661Y-23084D01*
X47672Y-23063D01*
X47682Y-23042D01*
X47683Y-23040D01*
X47684Y-23037D01*
X47698Y-23018D01*
X47710Y-22998D01*
X47712Y-22996D01*
X47714Y-22994D01*
X47729Y-22976D01*
X47745Y-22958D01*
X47746Y-22956D01*
X47748Y-22954D01*
X47766Y-22939D01*
X47784Y-22923D01*
X47786Y-22921D01*
X47787Y-22920D01*
X47807Y-22907D01*
X47827Y-22893D01*
X47829Y-22892D01*
X47831Y-22891D01*
X47852Y-22880D01*
X47874Y-22869D01*
X47876Y-22869D01*
X47878Y-22867D01*
X47901Y-22860D01*
X47923Y-22852D01*
X47925Y-22851D01*
X47928Y-22851D01*
X47951Y-22846D01*
X47974Y-22841D01*
X47977Y-22841D01*
X47979Y-22840D01*
X48003Y-22839D01*
X48027Y-22837D01*
X48029Y-22837D01*
X48031Y-22837D01*
X51968D01*
X51971Y-22837D01*
D02*
G37*
D42*
X118225Y-147417D02*
G03*
X111775Y-147417I-3225J-2258D01*
G01*
Y-150583D02*
G03*
X118225Y-150583I3225J2258D01*
G01*
X12600Y6772D02*
G03*
X15825Y8450I0J3937D01*
G01*
X9375D02*
G03*
X12600Y6772I3225J2258D01*
G01*
X46775Y-28083D02*
G03*
X53225Y-28083I3225J2258D01*
G01*
X53225Y-24917D02*
G03*
X46775Y-24917I-3225J-2258D01*
G01*
X15825Y11617D02*
G03*
X9375Y11617I-3225J-2258D01*
G01*
D43*
X-106500Y85611D02*
D03*
Y61989D02*
D03*
D44*
X115000Y-143882D02*
D03*
Y-153734D02*
D03*
X50000Y-31234D02*
D03*
Y-21382D02*
D03*
X12600Y5300D02*
D03*
Y15152D02*
D03*
D45*
X-101799Y-95796D02*
D03*
X-114201D02*
D03*
Y-107804D02*
D03*
X-101799D02*
D03*
X99199Y23796D02*
D03*
X111601D02*
D03*
Y35804D02*
D03*
X99199D02*
D03*
X104299Y-91396D02*
D03*
X116701D02*
D03*
Y-103404D02*
D03*
X104299D02*
D03*
D46*
X-99831Y-101800D02*
D03*
X-116169D02*
D03*
X97231Y29800D02*
D03*
X113569D02*
D03*
X118669Y-97400D02*
D03*
X102331D02*
D03*
D47*
X-116000Y-115200D02*
D03*
Y-121200D02*
D03*
X-91500Y-93500D02*
D03*
Y-99500D02*
D03*
X-91900Y-105900D02*
D03*
Y-111900D02*
D03*
X95400Y-94900D02*
D03*
Y-88900D02*
D03*
X14900Y73100D02*
D03*
Y67100D02*
D03*
X5400Y73100D02*
D03*
Y67100D02*
D03*
X88200Y29800D02*
D03*
Y35800D02*
D03*
X102900Y14300D02*
D03*
Y8300D02*
D03*
X88400Y19300D02*
D03*
Y25300D02*
D03*
X115400Y-116400D02*
D03*
Y-122400D02*
D03*
X95300Y-108100D02*
D03*
Y-102100D02*
D03*
X-25500Y-108000D02*
D03*
Y-114000D02*
D03*
X-62500Y-118000D02*
D03*
Y-112000D02*
D03*
X-16500Y-128000D02*
D03*
Y-122000D02*
D03*
X20400Y50600D02*
D03*
Y44600D02*
D03*
X-32500Y-114000D02*
D03*
Y-108000D02*
D03*
X-55000Y-118000D02*
D03*
Y-112000D02*
D03*
D48*
X-3500Y-112953D02*
D03*
Y-107047D02*
D03*
D49*
X-4446Y57100D02*
D03*
X2246D02*
D03*
D50*
X91900Y47300D02*
D03*
X97900D02*
D03*
X102400Y-173400D02*
D03*
X108400D02*
D03*
X102400Y-168400D02*
D03*
X96400D02*
D03*
X-4000Y-122000D02*
D03*
X2000D02*
D03*
Y-128000D02*
D03*
X-4000D02*
D03*
X2000Y-135000D02*
D03*
X-4000D02*
D03*
X7400Y40100D02*
D03*
X13400D02*
D03*
X23500Y-158000D02*
D03*
X29500D02*
D03*
X14500Y-149000D02*
D03*
X20500D02*
D03*
X91900Y67800D02*
D03*
X97900D02*
D03*
X-48000Y-117500D02*
D03*
X-42000D02*
D03*
D51*
X11480Y-162480D02*
D03*
X4520Y-155520D02*
D03*
D52*
X8321Y29840D02*
D03*
Y26100D02*
D03*
Y22360D02*
D03*
X-1521D02*
D03*
Y26100D02*
D03*
Y29840D02*
D03*
D53*
X1459Y46234D02*
D03*
X-1100D02*
D03*
X-3659D02*
D03*
Y37966D02*
D03*
X-1100D02*
D03*
X1459D02*
D03*
D54*
X-1100Y42100D02*
D03*
D55*
X23479Y28860D02*
D03*
Y32600D02*
D03*
Y36340D02*
D03*
X33321D02*
D03*
Y32600D02*
D03*
Y28860D02*
D03*
D56*
X-13200Y64880D02*
D03*
Y55920D02*
D03*
D57*
X-47244Y-161417D02*
D03*
X-45276D02*
D03*
X-43307D02*
D03*
X-41339D02*
D03*
X-39370D02*
D03*
X-37402D02*
D03*
X-35433D02*
D03*
X-33465D02*
D03*
X-31496D02*
D03*
X-29528D02*
D03*
X-27559D02*
D03*
X-25591D02*
D03*
Y-134252D02*
D03*
X-27559D02*
D03*
X-29528D02*
D03*
X-31496D02*
D03*
X-33465D02*
D03*
X-35433D02*
D03*
X-37402D02*
D03*
X-39370D02*
D03*
X-41339D02*
D03*
X-43307D02*
D03*
X-45276D02*
D03*
X-47244D02*
D03*
D58*
X-22835Y-158661D02*
D03*
Y-156693D02*
D03*
Y-154724D02*
D03*
Y-152756D02*
D03*
Y-150787D02*
D03*
Y-148819D02*
D03*
Y-146850D02*
D03*
Y-144882D02*
D03*
Y-142913D02*
D03*
Y-140945D02*
D03*
Y-138976D02*
D03*
Y-137008D02*
D03*
X-50000D02*
D03*
Y-138976D02*
D03*
Y-140945D02*
D03*
Y-142913D02*
D03*
Y-144882D02*
D03*
Y-146850D02*
D03*
Y-148819D02*
D03*
Y-150787D02*
D03*
Y-152756D02*
D03*
Y-154724D02*
D03*
Y-156693D02*
D03*
Y-158661D02*
D03*
D59*
X-36417Y-147835D02*
D03*
D60*
X51589Y60900D02*
D03*
X75211D02*
D03*
X-51411Y60700D02*
D03*
X-27789D02*
D03*
D61*
X-77277Y-155626D02*
D03*
X-70874Y-149223D02*
D03*
X-65724Y-154374D02*
D03*
X-72126Y-160777D02*
D03*
D62*
X-52302Y24555D02*
D03*
Y15500D02*
D03*
Y6445D02*
D03*
D63*
X-27498Y15500D02*
D03*
D64*
X102500Y-190000D02*
D03*
D65*
X108209Y-186063D02*
D03*
Y-190000D02*
D03*
Y-193937D02*
D03*
X96791D02*
D03*
Y-190000D02*
D03*
Y-186063D02*
D03*
D66*
X-47504Y-176083D02*
D03*
D67*
X-90521Y-140679D02*
D03*
X-86279Y-144921D02*
D03*
D68*
X70200Y-39800D02*
D03*
Y-49800D02*
D03*
X80200Y-39800D02*
D03*
Y-49800D02*
D03*
Y-59800D02*
D03*
X70200D02*
D03*
X80200Y-69800D02*
D03*
X70200D02*
D03*
X80200Y-79800D02*
D03*
X70200D02*
D03*
D69*
X-67478Y32100D02*
D03*
X-91100D02*
D03*
X-79289Y13596D02*
D03*
X-96606Y-155450D02*
D03*
X96268D02*
D03*
Y128050D02*
D03*
X-96606D02*
D03*
D70*
X-77512Y102100D02*
D03*
Y152100D02*
D03*
D71*
X74496Y117848D02*
D03*
X-43496Y136352D02*
D03*
D72*
X-104179Y145057D02*
D03*
Y154900D02*
D03*
Y164743D02*
D03*
X106699Y47824D02*
D03*
Y57666D02*
D03*
Y67509D02*
D03*
D73*
X-115200Y-84700D02*
D03*
X115200Y-77700D02*
D03*
D74*
X-115200Y-74700D02*
D03*
Y-64700D02*
D03*
Y-54700D02*
D03*
Y-44700D02*
D03*
Y-34700D02*
D03*
Y-24700D02*
D03*
Y-14700D02*
D03*
Y-4700D02*
D03*
Y5300D02*
D03*
X115200Y-67700D02*
D03*
Y-57700D02*
D03*
Y-47700D02*
D03*
Y-37700D02*
D03*
Y-27700D02*
D03*
Y-17700D02*
D03*
Y-7700D02*
D03*
Y2300D02*
D03*
Y12300D02*
D03*
D75*
X63200Y-148800D02*
D03*
X-89300Y-59800D02*
D03*
X62200Y29200D02*
D03*
D76*
X87500Y-167500D02*
D03*
X108300Y-180400D02*
D03*
X-106300Y-58800D02*
D03*
X97800Y-52300D02*
D03*
X65300Y-75100D02*
D03*
X-78300Y-26800D02*
D03*
X-78700Y-36100D02*
D03*
X-99900Y-76000D02*
D03*
X-102200Y-88300D02*
D03*
X-84500Y-76700D02*
D03*
X93300Y-58100D02*
D03*
X60700Y-70600D02*
D03*
X86200Y-101500D02*
D03*
X31500Y44300D02*
D03*
X59400Y-2000D02*
D03*
X84800Y9200D02*
D03*
X84900Y-12000D02*
D03*
X16400Y28330D02*
D03*
X600Y-5300D02*
D03*
X69800Y-129300D02*
D03*
X-78900Y-47800D02*
D03*
X-45300Y-126000D02*
D03*
X-64202Y-138396D02*
D03*
X-63600Y-143700D02*
D03*
X-57700Y-124100D02*
D03*
X-62500Y-127200D02*
D03*
X-63700Y-132100D02*
D03*
X-8600Y-68500D02*
D03*
X-13700Y-87600D02*
D03*
X-9500Y-131300D02*
D03*
X-10300Y-136300D02*
D03*
X3900Y-111200D02*
D03*
X-16632Y-146831D02*
D03*
X-17900Y-152500D02*
D03*
X7500Y-114300D02*
D03*
X27000Y-115000D02*
D03*
X22500Y-38500D02*
D03*
X21500Y-95500D02*
D03*
X-51000Y-128500D02*
D03*
X-64500Y-100500D02*
D03*
X-32500Y-84000D02*
D03*
X-11000Y-165000D02*
D03*
X-8000Y-161000D02*
D03*
X-24000Y-119500D02*
D03*
X-25500Y-125500D02*
D03*
X-103000Y-1500D02*
D03*
X-31500Y-126500D02*
D03*
X-36500Y-121500D02*
D03*
X7900Y36100D02*
D03*
X-1100Y50748D02*
D03*
X-8100Y32100D02*
D03*
X7400Y47600D02*
D03*
D77*
X-80200Y-161000D02*
D03*
X-81300Y-151100D02*
D03*
X-76800Y-147400D02*
D03*
X-120100Y-127900D02*
D03*
X-111900D02*
D03*
X-120100Y-145900D02*
D03*
Y-172800D02*
D03*
X-93100D02*
D03*
X-65600D02*
D03*
X30700Y-172300D02*
D03*
X58200D02*
D03*
X110100Y-139000D02*
D03*
X105200Y-133800D02*
D03*
X100400Y-129300D02*
D03*
X96000Y-124900D02*
D03*
X88000Y-123500D02*
D03*
X78100Y-122900D02*
D03*
X72700Y-118100D02*
D03*
X59700Y-113600D02*
D03*
X38700Y-113800D02*
D03*
X49400D02*
D03*
D78*
X74000Y-103000D02*
D03*
X-91000Y-84000D02*
D03*
X55100Y-13800D02*
D03*
X81000Y-171000D02*
D03*
X-3500Y-98000D02*
D03*
M02*
