G04*
G04 #@! TF.GenerationSoftware,Altium Limited,Altium Designer,19.1.7 (138)*
G04*
G04 Layer_Color=8421504*
%FSLAX25Y25*%
%MOIN*%
G70*
G01*
G75*
%ADD18R,0.07087X0.13386*%
%ADD19R,0.04528X0.02953*%
%ADD20R,0.03740X0.05512*%
%ADD21R,0.03600X0.02400*%
%ADD22R,0.03937X0.03937*%
%ADD23R,0.03543X0.05709*%
%ADD24R,0.02400X0.03600*%
G04:AMPARAMS|DCode=25|XSize=70.87mil|YSize=39.37mil|CornerRadius=0mil|HoleSize=0mil|Usage=FLASHONLY|Rotation=225.000|XOffset=0mil|YOffset=0mil|HoleType=Round|Shape=Rectangle|*
%AMROTATEDRECTD25*
4,1,4,0.01114,0.03897,0.03897,0.01114,-0.01114,-0.03897,-0.03897,-0.01114,0.01114,0.03897,0.0*
%
%ADD25ROTATEDRECTD25*%

%ADD26R,0.04724X0.02362*%
%ADD27R,0.01378X0.02362*%
%ADD28R,0.06693X0.04331*%
%ADD29R,0.04921X0.02362*%
%ADD30R,0.01968X0.04134*%
%ADD31R,0.01181X0.03347*%
%ADD32R,0.03347X0.01181*%
%ADD33R,0.20669X0.20669*%
%ADD34R,0.13386X0.07087*%
G04:AMPARAMS|DCode=35|XSize=51.18mil|YSize=41.34mil|CornerRadius=0mil|HoleSize=0mil|Usage=FLASHONLY|Rotation=45.000|XOffset=0mil|YOffset=0mil|HoleType=Round|Shape=Rectangle|*
%AMROTATEDRECTD35*
4,1,4,-0.00348,-0.03271,-0.03271,-0.00348,0.00348,0.03271,0.03271,0.00348,-0.00348,-0.03271,0.0*
%
%ADD35ROTATEDRECTD35*%

%ADD36R,0.06890X0.03740*%
%ADD37R,0.06890X0.12598*%
%ADD38R,0.06299X0.09843*%
%ADD39R,0.03543X0.01772*%
G04:AMPARAMS|DCode=40|XSize=18.11mil|YSize=18.11mil|CornerRadius=4.53mil|HoleSize=0mil|Usage=FLASHONLY|Rotation=180.000|XOffset=0mil|YOffset=0mil|HoleType=Round|Shape=RoundedRectangle|*
%AMROUNDEDRECTD40*
21,1,0.01811,0.00906,0,0,180.0*
21,1,0.00906,0.01811,0,0,180.0*
1,1,0.00906,-0.00453,0.00453*
1,1,0.00906,0.00453,0.00453*
1,1,0.00906,0.00453,-0.00453*
1,1,0.00906,-0.00453,-0.00453*
%
%ADD40ROUNDEDRECTD40*%
G04:AMPARAMS|DCode=41|XSize=36mil|YSize=24mil|CornerRadius=0mil|HoleSize=0mil|Usage=FLASHONLY|Rotation=225.000|XOffset=0mil|YOffset=0mil|HoleType=Round|Shape=Rectangle|*
%AMROTATEDRECTD41*
4,1,4,0.00424,0.02121,0.02121,0.00424,-0.00424,-0.02121,-0.02121,-0.00424,0.00424,0.02121,0.0*
%
%ADD41ROTATEDRECTD41*%

D18*
X-106500Y85611D02*
D03*
Y61989D02*
D03*
D19*
X-101799Y-95796D02*
D03*
X-114201D02*
D03*
Y-107804D02*
D03*
X-101799D02*
D03*
X99199Y23796D02*
D03*
X111601D02*
D03*
Y35804D02*
D03*
X99199D02*
D03*
X104299Y-91396D02*
D03*
X116701D02*
D03*
Y-103404D02*
D03*
X104299D02*
D03*
D20*
X-99831Y-101800D02*
D03*
X-116169D02*
D03*
X97231Y29800D02*
D03*
X113569D02*
D03*
X118669Y-97400D02*
D03*
X102331D02*
D03*
D21*
X-116000Y-115200D02*
D03*
Y-121200D02*
D03*
X-91500Y-93500D02*
D03*
Y-99500D02*
D03*
X-91900Y-105900D02*
D03*
Y-111900D02*
D03*
X95400Y-94900D02*
D03*
Y-88900D02*
D03*
X14900Y73100D02*
D03*
Y67100D02*
D03*
X5400Y73100D02*
D03*
Y67100D02*
D03*
X88200Y29800D02*
D03*
Y35800D02*
D03*
X102900Y14300D02*
D03*
Y8300D02*
D03*
X88400Y19300D02*
D03*
Y25300D02*
D03*
X115400Y-116400D02*
D03*
Y-122400D02*
D03*
X95300Y-108100D02*
D03*
Y-102100D02*
D03*
X-25500Y-108000D02*
D03*
Y-114000D02*
D03*
X-62500Y-118000D02*
D03*
Y-112000D02*
D03*
X-16500Y-128000D02*
D03*
Y-122000D02*
D03*
X20400Y50600D02*
D03*
Y44600D02*
D03*
X-32500Y-114000D02*
D03*
Y-108000D02*
D03*
X-55000Y-118000D02*
D03*
Y-112000D02*
D03*
D22*
X-3500Y-112953D02*
D03*
Y-107047D02*
D03*
D23*
X-4446Y57100D02*
D03*
X2246D02*
D03*
D24*
X91900Y47300D02*
D03*
X97900D02*
D03*
X102400Y-173400D02*
D03*
X108400D02*
D03*
X102400Y-168400D02*
D03*
X96400D02*
D03*
X-4000Y-122000D02*
D03*
X2000D02*
D03*
Y-128000D02*
D03*
X-4000D02*
D03*
X2000Y-135000D02*
D03*
X-4000D02*
D03*
X7400Y40100D02*
D03*
X13400D02*
D03*
X23500Y-158000D02*
D03*
X29500D02*
D03*
X14500Y-149000D02*
D03*
X20500D02*
D03*
X91900Y67800D02*
D03*
X97900D02*
D03*
X-48000Y-117500D02*
D03*
X-42000D02*
D03*
D25*
X11480Y-162480D02*
D03*
X4520Y-155520D02*
D03*
D26*
X8321Y29840D02*
D03*
Y26100D02*
D03*
Y22360D02*
D03*
X-1521D02*
D03*
Y26100D02*
D03*
Y29840D02*
D03*
D27*
X1459Y46234D02*
D03*
X-1100D02*
D03*
X-3659D02*
D03*
Y37966D02*
D03*
X-1100D02*
D03*
X1459D02*
D03*
D28*
X-1100Y42100D02*
D03*
D29*
X23479Y28860D02*
D03*
Y32600D02*
D03*
Y36340D02*
D03*
X33321D02*
D03*
Y32600D02*
D03*
Y28860D02*
D03*
D30*
X-13200Y64880D02*
D03*
Y55920D02*
D03*
D31*
X-47244Y-161417D02*
D03*
X-45276D02*
D03*
X-43307D02*
D03*
X-41339D02*
D03*
X-39370D02*
D03*
X-37402D02*
D03*
X-35433D02*
D03*
X-33465D02*
D03*
X-31496D02*
D03*
X-29528D02*
D03*
X-27559D02*
D03*
X-25591D02*
D03*
Y-134252D02*
D03*
X-27559D02*
D03*
X-29528D02*
D03*
X-31496D02*
D03*
X-33465D02*
D03*
X-35433D02*
D03*
X-37402D02*
D03*
X-39370D02*
D03*
X-41339D02*
D03*
X-43307D02*
D03*
X-45276D02*
D03*
X-47244D02*
D03*
D32*
X-22835Y-158661D02*
D03*
Y-156693D02*
D03*
Y-154724D02*
D03*
Y-152756D02*
D03*
Y-150787D02*
D03*
Y-148819D02*
D03*
Y-146850D02*
D03*
Y-144882D02*
D03*
Y-142913D02*
D03*
Y-140945D02*
D03*
Y-138976D02*
D03*
Y-137008D02*
D03*
X-50000D02*
D03*
Y-138976D02*
D03*
Y-140945D02*
D03*
Y-142913D02*
D03*
Y-144882D02*
D03*
Y-146850D02*
D03*
Y-148819D02*
D03*
Y-150787D02*
D03*
Y-152756D02*
D03*
Y-154724D02*
D03*
Y-156693D02*
D03*
Y-158661D02*
D03*
D33*
X-36417Y-147835D02*
D03*
D34*
X51589Y60900D02*
D03*
X75211D02*
D03*
X-51411Y60700D02*
D03*
X-27789D02*
D03*
D35*
X-77277Y-155626D02*
D03*
X-70874Y-149223D02*
D03*
X-65724Y-154374D02*
D03*
X-72126Y-160777D02*
D03*
D36*
X-52302Y24555D02*
D03*
Y15500D02*
D03*
Y6445D02*
D03*
D37*
X-27498Y15500D02*
D03*
D38*
X102500Y-190000D02*
D03*
D39*
X108209Y-186063D02*
D03*
Y-190000D02*
D03*
Y-193937D02*
D03*
X96791D02*
D03*
Y-190000D02*
D03*
Y-186063D02*
D03*
D40*
X-47504Y-176083D02*
D03*
D41*
X-90521Y-140679D02*
D03*
X-86279Y-144921D02*
D03*
M02*
