G04*
G04 #@! TF.GenerationSoftware,Altium Limited,Altium Designer,19.1.7 (138)*
G04*
G04 Layer_Color=16711935*
%FSLAX25Y25*%
%MOIN*%
G70*
G01*
G75*
%ADD68C,0.06800*%
%ADD69C,0.12611*%
%ADD70C,0.06824*%
%ADD71C,0.14383*%
%ADD72C,0.05918*%
%ADD73R,0.07296X0.07296*%
%ADD74C,0.07296*%
%ADD75C,0.16548*%
%ADD76C,0.03200*%
%ADD77C,0.02434*%
%ADD78C,0.05800*%
D68*
X70200Y-39800D02*
D03*
Y-49800D02*
D03*
X80200Y-39800D02*
D03*
Y-49800D02*
D03*
Y-59800D02*
D03*
X70200D02*
D03*
X80200Y-69800D02*
D03*
X70200D02*
D03*
X80200Y-79800D02*
D03*
X70200D02*
D03*
D69*
X-67478Y32100D02*
D03*
X-91100D02*
D03*
X-79289Y13596D02*
D03*
X-96606Y-155450D02*
D03*
X96268D02*
D03*
Y128050D02*
D03*
X-96606D02*
D03*
D70*
X-77512Y102100D02*
D03*
Y152100D02*
D03*
D71*
X74496Y117848D02*
D03*
X-43496Y136352D02*
D03*
D72*
X-104179Y145057D02*
D03*
Y154900D02*
D03*
Y164743D02*
D03*
X106699Y47824D02*
D03*
Y57666D02*
D03*
Y67509D02*
D03*
D73*
X-115200Y-84700D02*
D03*
X115200Y-77700D02*
D03*
D74*
X-115200Y-74700D02*
D03*
Y-64700D02*
D03*
Y-54700D02*
D03*
Y-44700D02*
D03*
Y-34700D02*
D03*
Y-24700D02*
D03*
Y-14700D02*
D03*
Y-4700D02*
D03*
Y5300D02*
D03*
X115200Y-67700D02*
D03*
Y-57700D02*
D03*
Y-47700D02*
D03*
Y-37700D02*
D03*
Y-27700D02*
D03*
Y-17700D02*
D03*
Y-7700D02*
D03*
Y2300D02*
D03*
Y12300D02*
D03*
D75*
X63200Y-148800D02*
D03*
X-89300Y-59800D02*
D03*
X62200Y29200D02*
D03*
D76*
X87500Y-167500D02*
D03*
X108300Y-180400D02*
D03*
X-106300Y-58800D02*
D03*
X97800Y-52300D02*
D03*
X65300Y-75100D02*
D03*
X-78300Y-26800D02*
D03*
X-78700Y-36100D02*
D03*
X-99900Y-76000D02*
D03*
X-102200Y-88300D02*
D03*
X-84500Y-76700D02*
D03*
X93300Y-58100D02*
D03*
X60700Y-70600D02*
D03*
X86200Y-101500D02*
D03*
X31500Y44300D02*
D03*
X59400Y-2000D02*
D03*
X84800Y9200D02*
D03*
X84900Y-12000D02*
D03*
X16400Y28330D02*
D03*
X600Y-5300D02*
D03*
X69800Y-129300D02*
D03*
X-78900Y-47800D02*
D03*
X-45300Y-126000D02*
D03*
X-64202Y-138396D02*
D03*
X-63600Y-143700D02*
D03*
X-57700Y-124100D02*
D03*
X-62500Y-127200D02*
D03*
X-63700Y-132100D02*
D03*
X-8600Y-68500D02*
D03*
X-13700Y-87600D02*
D03*
X-9500Y-131300D02*
D03*
X-10300Y-136300D02*
D03*
X3900Y-111200D02*
D03*
X-16632Y-146831D02*
D03*
X-17900Y-152500D02*
D03*
X7500Y-114300D02*
D03*
X27000Y-115000D02*
D03*
X22500Y-38500D02*
D03*
X21500Y-95500D02*
D03*
X-51000Y-128500D02*
D03*
X-64500Y-100500D02*
D03*
X-32500Y-84000D02*
D03*
X-11000Y-165000D02*
D03*
X-8000Y-161000D02*
D03*
X-24000Y-119500D02*
D03*
X-25500Y-125500D02*
D03*
X-103000Y-1500D02*
D03*
X-31500Y-126500D02*
D03*
X-36500Y-121500D02*
D03*
X7900Y36100D02*
D03*
X-1100Y50748D02*
D03*
X-8100Y32100D02*
D03*
X7400Y47600D02*
D03*
D77*
X-80200Y-161000D02*
D03*
X-81300Y-151100D02*
D03*
X-76800Y-147400D02*
D03*
X-120100Y-127900D02*
D03*
X-111900D02*
D03*
X-120100Y-145900D02*
D03*
Y-172800D02*
D03*
X-93100D02*
D03*
X-65600D02*
D03*
X30700Y-172300D02*
D03*
X58200D02*
D03*
X110100Y-139000D02*
D03*
X105200Y-133800D02*
D03*
X100400Y-129300D02*
D03*
X96000Y-124900D02*
D03*
X88000Y-123500D02*
D03*
X78100Y-122900D02*
D03*
X72700Y-118100D02*
D03*
X59700Y-113600D02*
D03*
X38700Y-113800D02*
D03*
X49400D02*
D03*
D78*
X74000Y-103000D02*
D03*
X-91000Y-84000D02*
D03*
X55100Y-13800D02*
D03*
X81000Y-171000D02*
D03*
X-3500Y-98000D02*
D03*
M02*
