G04*
G04 #@! TF.GenerationSoftware,Altium Limited,Altium Designer,19.1.7 (138)*
G04*
G04 Layer_Color=32896*
%FSLAX25Y25*%
%MOIN*%
G70*
G01*
G75*
%ADD12C,0.00394*%
D12*
X83806Y161077D02*
Y157141D01*
X82494Y158453D01*
X81182Y157141D01*
Y161077D01*
X79871Y157141D02*
X78559D01*
X79215D01*
Y159765D01*
X79871D01*
X76591Y157141D02*
Y159765D01*
X74623D01*
X73967Y159109D01*
Y157141D01*
X70687D02*
X71999D01*
X72655Y157797D01*
Y159109D01*
X71999Y159765D01*
X70687D01*
X70031Y159109D01*
Y158453D01*
X72655D01*
X68719Y159765D02*
Y157141D01*
Y158453D01*
X68063Y159109D01*
X67407Y159765D01*
X66751D01*
X64784D02*
Y157797D01*
X64128Y157141D01*
X62160D01*
Y156485D01*
X62816Y155829D01*
X63472D01*
X62160Y157141D02*
Y159765D01*
X56912Y161077D02*
Y157141D01*
X55600Y158453D01*
X54288Y157141D01*
Y161077D01*
X52976Y157141D02*
X51664D01*
X52320D01*
Y159765D01*
X52976D01*
X49697D02*
Y157141D01*
Y158453D01*
X49041Y159109D01*
X48385Y159765D01*
X47729D01*
X43793Y157141D02*
X45105D01*
X45761Y157797D01*
Y159109D01*
X45105Y159765D01*
X43793D01*
X43137Y159109D01*
Y158453D01*
X45761D01*
X41825Y157141D02*
X40513D01*
X41169D01*
Y161077D01*
X41825D01*
X36577Y157141D02*
X37889D01*
X38545Y157797D01*
Y159109D01*
X37889Y159765D01*
X36577D01*
X35921Y159109D01*
Y158453D01*
X38545D01*
X34610Y157141D02*
X32642D01*
X31986Y157797D01*
X32642Y158453D01*
X33954D01*
X34610Y159109D01*
X33954Y159765D01*
X31986D01*
X30674Y157141D02*
X28706D01*
X28050Y157797D01*
X28706Y158453D01*
X30018D01*
X30674Y159109D01*
X30018Y159765D01*
X28050D01*
X81182Y153441D02*
X81838Y154097D01*
X83150D01*
X83806Y153441D01*
Y152785D01*
X83150Y152129D01*
X81838D01*
X81182Y151473D01*
Y150817D01*
X81838Y150162D01*
X83150D01*
X83806Y150817D01*
X77903Y150162D02*
X79215D01*
X79871Y150817D01*
Y152129D01*
X79215Y152785D01*
X77903D01*
X77247Y152129D01*
Y151473D01*
X79871D01*
X75935Y150162D02*
Y152785D01*
X73967D01*
X73311Y152129D01*
Y150162D01*
X71999D02*
X70031D01*
X69375Y150817D01*
X70031Y151473D01*
X71343D01*
X71999Y152129D01*
X71343Y152785D01*
X69375D01*
X67407Y150162D02*
X66096D01*
X65439Y150817D01*
Y152129D01*
X66096Y152785D01*
X67407D01*
X68063Y152129D01*
Y150817D01*
X67407Y150162D01*
X64128Y152785D02*
Y150162D01*
Y151473D01*
X63472Y152129D01*
X62816Y152785D01*
X62160D01*
X56256Y150162D02*
Y154097D01*
X53632Y150162D01*
Y154097D01*
X50353Y150162D02*
X51664D01*
X52320Y150817D01*
Y152129D01*
X51664Y152785D01*
X50353D01*
X49697Y152129D01*
Y151473D01*
X52320D01*
X47729Y153441D02*
Y152785D01*
X48385D01*
X47073D01*
X47729D01*
Y150817D01*
X47073Y150162D01*
X45105Y152785D02*
Y150817D01*
X44449Y150162D01*
X43793Y150817D01*
X43137Y150162D01*
X42481Y150817D01*
Y152785D01*
X40513Y150162D02*
X39201D01*
X38545Y150817D01*
Y152129D01*
X39201Y152785D01*
X40513D01*
X41169Y152129D01*
Y150817D01*
X40513Y150162D01*
X37233Y152785D02*
Y150162D01*
Y151473D01*
X36577Y152129D01*
X35921Y152785D01*
X35265D01*
X33298Y150162D02*
Y154097D01*
Y151473D02*
X31330Y152785D01*
X33298Y151473D02*
X31330Y150162D01*
X83806Y148429D02*
Y145806D01*
X82494Y144494D01*
X81182Y145806D01*
Y148429D01*
X77903Y144494D02*
X79215D01*
X79871Y145150D01*
Y146462D01*
X79215Y147117D01*
X77903D01*
X77247Y146462D01*
Y145806D01*
X79871D01*
X75935Y147117D02*
Y144494D01*
Y145806D01*
X75279Y146462D01*
X74623Y147117D01*
X73967D01*
X71999Y144494D02*
X70031D01*
X69375Y145150D01*
X70031Y145806D01*
X71343D01*
X71999Y146462D01*
X71343Y147117D01*
X69375D01*
X68063Y144494D02*
X66751D01*
X67407D01*
Y147117D01*
X68063D01*
X64128Y144494D02*
X62816D01*
X62160Y145150D01*
Y146462D01*
X62816Y147117D01*
X64128D01*
X64784Y146462D01*
Y145150D01*
X64128Y144494D01*
X60848D02*
Y147117D01*
X58880D01*
X58224Y146462D01*
Y144494D01*
X52976Y147774D02*
X52320Y148429D01*
X51008D01*
X50353Y147774D01*
Y147117D01*
X51008Y146462D01*
X51664D01*
X51008D01*
X50353Y145806D01*
Y145150D01*
X51008Y144494D01*
X52320D01*
X52976Y145150D01*
X83300Y171136D02*
Y167856D01*
X82644Y167200D01*
X81332D01*
X80676Y167856D01*
Y171136D01*
X76740Y170480D02*
X77396Y171136D01*
X78708D01*
X79364Y170480D01*
Y167856D01*
X78708Y167200D01*
X77396D01*
X76740Y167856D01*
X71493Y171136D02*
Y167200D01*
X69525D01*
X68869Y167856D01*
Y170480D01*
X69525Y171136D01*
X71493D01*
X66901Y169824D02*
X65589D01*
X64933Y169168D01*
Y167200D01*
X66901D01*
X67557Y167856D01*
X66901Y168512D01*
X64933D01*
X63621Y169824D02*
X62309Y167200D01*
X60997Y169824D01*
X59686Y167200D02*
X58374D01*
X59030D01*
Y169824D01*
X59686D01*
X56406Y167200D02*
X54438D01*
X53782Y167856D01*
X54438Y168512D01*
X55750D01*
X56406Y169168D01*
X55750Y169824D01*
X53782D01*
X45911Y171136D02*
X48534D01*
Y167200D01*
X45911D01*
X48534Y169168D02*
X47222D01*
X41975Y171136D02*
X44599D01*
Y167200D01*
X41975D01*
X44599Y169168D02*
X43287D01*
X38039Y170480D02*
X38695Y171136D01*
X40007D01*
X40663Y170480D01*
Y167856D01*
X40007Y167200D01*
X38695D01*
X38039Y167856D01*
X32791Y167200D02*
X31479D01*
X32135D01*
Y171136D01*
X32791Y170480D01*
X29512D02*
X28856Y171136D01*
X27544D01*
X26888Y170480D01*
Y169824D01*
X27544Y169168D01*
X28200D01*
X27544D01*
X26888Y168512D01*
Y167856D01*
X27544Y167200D01*
X28856D01*
X29512Y167856D01*
X22952Y171136D02*
X24264Y170480D01*
X25576Y169168D01*
Y167856D01*
X24920Y167200D01*
X23608D01*
X22952Y167856D01*
Y168512D01*
X23608Y169168D01*
X25576D01*
M02*
