M48
;Layer_Color=9474304
;FILE_FORMAT=2:5
INCH,LZ
;TYPE=PLATED
T1F00S00C0.01200
T2F00S00C0.01201
T3F00S00C0.02800
T4F00S00C0.03150
T5F00S00C0.03937
T6F00S00C0.04016
T7F00S00C0.04331
T8F00S00C0.07480
T9F00S00C0.11811
T10F00S00C0.15748
;TYPE=NON_PLATED
T11F00S00C0.13583
%
T01
X01083Y-01804
X00875Y-01675
X00698Y-01293
X00862Y-01015
X00653Y-00751
X00607Y-00706
X00933Y-00581
X00978Y-00523
X00225Y-00385
X00215Y-00955
X0027Y-0115
X00075Y-01143
X00039Y-01112
X-00095Y-01313
X-00103Y-01363
X-0016632Y-0146831
X-00179Y-01525
X-0008Y-0161
X-0011Y-0165
X-00255Y-01255
X-00315Y-01265
X-00365Y-01215
X-00453Y-0126
X-0051Y-01285
X-00577Y-01241
X-00625Y-01272
X-00637Y-01321
X-0064202Y-0138396
X-00636Y-01437
X-00645Y-01005
X-00845Y-00767
X-00789Y-00478
X-00787Y-00361
X-00783Y-00268
X-00325Y-0084
X-00137Y-00876
X-00086Y-00685
X-0024Y-01195
X-01022Y-00883
X-00999Y-0076
X-01063Y-00588
X-0103Y-00015
X00006Y-00053
X-00081Y00321
X00079Y00361
X00074Y00476
X-00011Y0050748
X00315Y00443
X00164Y002833
X00594Y-0002
X00849Y-0012
X00848Y00092
T02
X-01201Y-01728
X-00931
X-00656
X00307Y-01723
X00582
X00727Y-01181
X00781Y-01229
X0088Y-01235
X0096Y-01249
X01004Y-01293
X01052Y-01338
X01101Y-0139
X00597Y-01136
X00494Y-01138
X00387
X-00768Y-01474
X-00813Y-01511
X-00802Y-0161
X-01201Y-01459
Y-01279
X-01119
T03
X0081Y-0171
X0074Y-0103
X-00035Y-0098
X-0091Y-0084
X00551Y-00138
T04
X0106699Y0047824
Y0057666
Y0067509
X-0104179Y0145057
Y01549
Y0164743
T05
X00702Y-00798
Y-00698
Y-00598
Y-00498
Y-00398
X00802
Y-00498
Y-00598
Y-00698
Y-00798
T06
X-0077512Y01021
Y01521
T07
X01152Y-00777
Y-00677
Y-00577
Y-00477
Y-00377
Y-00277
Y-00177
X-01152Y-00147
Y-00247
Y-00347
Y-00447
Y-00547
Y-00647
Y-00747
Y-00847
Y-00047
Y00053
X01152Y00023
Y-00077
Y00123
T08
X-0079289Y0013596
X-0067478Y00321
X-00911
T09
X0096268Y-015545
X-0096606
Y012805
X0096268
T10
X00632Y-01488
X-00893Y-00598
X00622Y00292
T11
X-0043496Y0136352
X0074496Y0117848
M30
